#N canvas 533 50 723 623 10;
#X declare -stdlib Gem -lib Gem;
#X obj 38 572 cnv 14 98 28 empty empty empty 2 2 0 9 -253181 -66577
0;
#X obj 274 47 namecanvas \$0-ol_help;
#N canvas 1029 163 626 800 init 0;
#X obj 470 388 cnv 8 120 25 empty empty empty 20 12 0 14 -204786 -66577
0;
#X obj 97 553 cnv 8 300 80 empty empty empty 20 12 0 14 -204786 -66577
0;
#X obj 461 76 cnv 8 120 26 empty empty empty 20 12 0 14 -204786 -66577
0;
#X obj 60 287 cnv 8 200 25 empty empty empty 20 12 0 14 -204786 -66577
0;
#X msg 245 33 vis 0 \, relocate \$3x\$4+0+0 0x0+\$1+\$2 \, vis 1 \,
editmode 0;
#X obj 245 55 s \$0-ol_help;
#X msg 118 64 520 50 700 550;
#X obj 118 219 s \$0-frame-r;
#X floatatom 118 176 5 0 0 0 - - -;
#X obj 28 450 s \$0-title-r;
#X msg 98 406 label \$1;
#X floatatom 263 143 5 0 0 0 - - -;
#X obj 263 183 s \$0-bgnd-r;
#X obj 56 119 del 10;
#X obj 56 99 t b b;
#X text 244 80 1.) set pos and size of main window;
#X msg 172 115 \$3;
#X obj 118 132 f;
#X text 151 143 minus frame sizes, f 11;
#X text 124 266 2.) set name of title;
#X obj 56 141 s \$0-lb;
#X obj 118 107 r \$0-lb;
#X obj 29 244 r \$0-lb;
#X obj 29 406 unpack 0 s;
#X text 175 530 3.) set description;
#X obj 263 262 s \$0-frame2-r;
#X obj 182 463 s \$0-text1-r;
#X obj 29 626 cnv 3 68 15 empty empty empty 2 7 0 10 -257985 -66577
0;
#N canvas 341 335 425 542 tosymbol 0;
#X obj 67 94 list length;
#X obj 67 42 list;
#X obj 101 226 list, f 7;
#X obj 67 175 f, f 10;
#X obj 154 175 + 1;
#X obj 67 150 until;
#X obj 101 251 list split;
#X msg 157 94 0;
#X obj 139 276 list split 1;
#X obj 139 361 list fromsymbol;
#X obj 139 302 route symbol float;
#X obj 191 329 makefilename %s;
#X obj 139 435 textfile;
#X msg 202 94 clear;
#X obj 139 387 list prepend add2;
#X obj 67 201 t b b b f;
#X obj 79 276 + 1;
#X obj 67 122 t f f;
#X obj 78 300 <;
#X obj 20 335 spigot;
#X msg 20 394 add2 32;
#X obj 139 411 list trim;
#X obj 67 335 f;
#X obj 67 361 sel 0;
#X obj 139 463 list tosymbol;
#X obj 67 68 t l l b b, f 23;
#X text 184 486 symbol out with correct spaces;
#X text 57 2 string in;
#X msg 136 25 #/zi 3 4 oo ä;
#X msg 229 25 1.23457e+019;
#X floatatom 315 28 5 0 0 0 - - -;
#X obj 67 22 cnv 13 34 15 empty empty empty 2 2 0 9 -163816 -66577
0;
#X obj 139 487 cnv 14 40 15 empty empty empty 2 2 0 9 -163840 -66577
0;
#X obj 67 21 inlet;
#X obj 139 486 outlet;
#X connect 0 0 17 0;
#X connect 1 0 25 0;
#X connect 2 0 6 0;
#X connect 3 0 4 0;
#X connect 3 0 15 0;
#X connect 4 0 3 1;
#X connect 5 0 3 0;
#X connect 6 1 8 0;
#X connect 7 0 3 1;
#X connect 8 0 10 0;
#X connect 9 0 14 0;
#X connect 10 0 9 0;
#X connect 10 1 11 0;
#X connect 11 0 9 0;
#X connect 12 0 24 0;
#X connect 13 0 12 0;
#X connect 14 0 21 0;
#X connect 15 0 22 0;
#X connect 15 1 19 0;
#X connect 15 2 2 0;
#X connect 15 3 6 1;
#X connect 15 3 16 0;
#X connect 16 0 18 0;
#X connect 17 0 5 0;
#X connect 17 1 18 1;
#X connect 18 0 19 1;
#X connect 18 0 22 1;
#X connect 19 0 20 0;
#X connect 20 0 12 0;
#X connect 21 0 12 0;
#X connect 22 0 23 0;
#X connect 23 0 12 0;
#X connect 24 0 34 0;
#X connect 25 0 0 0;
#X connect 25 1 2 1;
#X connect 25 2 7 0;
#X connect 25 3 13 0;
#X connect 28 0 1 0;
#X connect 29 0 1 0;
#X connect 30 0 1 0;
#X connect 33 0 1 0;
#X restore 28 625 pd tosymbol;
#X obj 199 390 r \$0-lb;
#X obj 199 413 t b b;
#X obj 268 463 s \$0-text2-r;
#X obj 354 463 s \$0-text3-r;
#X msg 28 488 bang;
#X msg 118 195 vis_size \$1 45;
#X msg 263 240 vis_size \$1 43;
#X text 349 389 init text labels;
#X obj 28 719 pack s 0 0;
#X msg 28 740 label \$1 \, label_pos \$2 \$3;
#X obj 531 524 unpack;
#X msg 531 500 76 -26;
#X floatatom 493 391 5 0 0 0 - - -;
#X floatatom 531 391 5 0 0 0 - - -;
#X obj 531 421 t b f;
#X msg 545 471 set \$1 \$2;
#X obj 493 471 t b b l;
#X text 503 370 x;
#X text 540 370 y;
#X text 466 352 4.) set label position;
#X obj 564 545 f;
#X msg 321 367 color \$1 \$1 \$1;
#X msg 263 161 vis_size \$1 55;
#X floatatom 79 174 5 0 0 0 - - -;
#X obj 118 153 - 13;
#X obj 263 122 + 10;
#X obj 263 219 - 254;
#X obj 56 56 t b f;
#X msg 260 390 -1.47533e+006;
#X msg 260 368 set \$1;
#X obj 56 11 loadbang;
#N canvas 36 456 791 300 better_colors 0;
#X obj 89 19 inlet;
#X obj 320 262 outlet;
#X obj 89 40 random 10;
#X obj 89 61 sel 0 1 2 3 4 5 6 7 8 9, f 83;
#X obj 320 239 expr ($f1*(-65536)+$f2*(-256)+$f3*(-1))-1;
#X msg 16 162 140 0 0;
#X msg 69 162 0 156 144;
#X msg 136 162 0 140 0;
#X msg 252 162 231 112 0;
#X msg 191 162 100 0 255;
#X msg 317 162 100 100 100;
#X msg 397 162 255 255 0;
#X msg 541 162 123 33 5;
#X msg 464 162 22 131 5;
#X msg 607 163 147 0 163;
#X connect 0 0 2 0;
#X connect 2 0 3 0;
#X connect 3 0 5 0;
#X connect 3 1 6 0;
#X connect 3 2 7 0;
#X connect 3 3 9 0;
#X connect 3 4 8 0;
#X connect 3 5 10 0;
#X connect 3 6 11 0;
#X connect 3 7 13 0;
#X connect 3 8 12 0;
#X connect 3 9 14 0;
#X connect 4 0 1 0;
#X connect 5 0 4 0;
#X connect 6 0 4 0;
#X connect 7 0 4 0;
#X connect 8 0 4 0;
#X connect 9 0 4 0;
#X connect 10 0 4 0;
#X connect 11 0 4 0;
#X connect 12 0 4 0;
#X connect 13 0 4 0;
#X connect 14 0 4 0;
#X restore 56 34 pd better_colors;
#X obj 56 78 del 50;
#X msg 170 17 bang;
#X text 200 114 width;
#X msg 29 428 label_pos \$1 21;
#X obj 479 124 list prepend set;
#X obj 479 146 list trim;
#X text 246 10 probably dangerous when initialized with loadbang!;
#X msg 29 383 66 ol_cornerpin;
#X obj 28 775 s \$0-text1-r;
#X obj 195 719 pack s 0 0;
#X obj 195 775 s \$0-text2-r;
#X obj 351 719 pack s 0 0;
#X msg 351 740 label \$1 \, label_pos \$2 \$3;
#X obj 351 775 s \$0-text3-r;
#X obj 28 648 list prepend 0;
#X obj 564 567 + 14;
#X obj 564 590 + 14;
#X obj 28 510 t b b b b b b b, f 20;
#X obj 28 672 route 1 2 3, f 66;
#X msg 86 532 2, f 1;
#X msg 125 531 1, f 1;
#X msg 47 532 3, f 1;
#X msg 153 608 empty;
#X obj 531 272 loadbang;
#X msg 531 293 set -26;
#X floatatom 73 292 5 0 0 0 - - -;
#X symbolatom 108 292 20 0 0 0 - - -;
#X obj 73 333 pack 0 s;
#X obj 108 310 t b s;
#X obj 73 354 t b l;
#X msg 113 354 set \$1 \$2;
#X msg 73 261 set 66;
#X obj 493 448 pack 0 -26;
#X msg 195 740 label \$1 \, label_pos \$2 \$3 \, label_font 1 10,
f 23;
#X msg 135 584 empty;
#X msg 106 560 Cornerpin-mapping GUI for GEM output;
#X msg 479 79 520 50 700 550;
#X msg 260 413 size 1 \, pos 300 65 \, vis_size 1 1 \, color \$1 \$1
2 \, label_font 1 11 \, label, f 26;
#X connect 4 0 5 0;
#X connect 6 0 16 0;
#X connect 8 0 34 0;
#X connect 8 0 54 0;
#X connect 8 0 55 0;
#X connect 10 0 9 0;
#X connect 11 0 51 0;
#X connect 13 0 20 0;
#X connect 14 0 13 0;
#X connect 14 1 6 0;
#X connect 16 0 17 1;
#X connect 17 0 53 0;
#X connect 21 0 17 0;
#X connect 22 0 68 0;
#X connect 22 0 92 0;
#X connect 23 0 64 0;
#X connect 23 1 10 0;
#X connect 28 0 75 0;
#X connect 29 0 30 0;
#X connect 30 0 78 0;
#X connect 30 1 40 0;
#X connect 30 1 57 0;
#X connect 33 0 78 0;
#X connect 34 0 7 0;
#X connect 35 0 25 0;
#X connect 37 0 38 0;
#X connect 38 0 69 0;
#X connect 39 0 37 1;
#X connect 39 0 70 1;
#X connect 39 0 72 1;
#X connect 39 1 49 0;
#X connect 40 0 39 0;
#X connect 41 0 93 0;
#X connect 42 0 43 0;
#X connect 43 0 93 0;
#X connect 43 1 93 1;
#X connect 44 0 40 0;
#X connect 45 0 33 0;
#X connect 45 1 40 0;
#X connect 45 2 44 0;
#X connect 49 0 37 2;
#X connect 49 0 76 0;
#X connect 50 0 12 0;
#X connect 51 0 12 0;
#X connect 52 0 34 0;
#X connect 53 0 8 0;
#X connect 54 0 11 0;
#X connect 55 0 35 0;
#X connect 56 0 61 0;
#X connect 56 1 58 0;
#X connect 57 0 98 0;
#X connect 57 0 50 0;
#X connect 58 0 57 0;
#X connect 59 0 60 0;
#X connect 60 0 56 0;
#X connect 61 0 14 0;
#X connect 62 0 60 0;
#X connect 64 0 9 0;
#X connect 65 0 66 0;
#X connect 66 0 6 0;
#X connect 68 0 23 0;
#X connect 70 0 94 0;
#X connect 72 0 73 0;
#X connect 73 0 74 0;
#X connect 75 0 79 0;
#X connect 76 0 70 2;
#X connect 76 0 77 0;
#X connect 77 0 72 2;
#X connect 78 0 83 0;
#X connect 78 1 82 0;
#X connect 78 2 95 0;
#X connect 78 3 80 0;
#X connect 78 4 96 0;
#X connect 78 5 81 0;
#X connect 79 0 37 0;
#X connect 79 1 70 0;
#X connect 79 2 72 0;
#X connect 80 0 75 1;
#X connect 81 0 75 1;
#X connect 82 0 75 1;
#X connect 83 0 28 0;
#X connect 84 0 85 0;
#X connect 85 0 42 0;
#X connect 86 0 88 0;
#X connect 87 0 89 0;
#X connect 88 0 90 0;
#X connect 89 0 86 0;
#X connect 89 1 88 1;
#X connect 90 0 68 0;
#X connect 90 1 91 0;
#X connect 91 0 68 0;
#X connect 92 0 86 0;
#X connect 93 0 45 0;
#X connect 94 0 71 0;
#X connect 95 0 28 0;
#X connect 96 0 28 0;
#X connect 97 0 4 0;
#X connect 97 0 65 0;
#X connect 98 0 26 0;
#X connect 98 0 31 0;
#X connect 98 0 32 0;
#X restore 19 48 pd init;
#X obj 11 11 cnv 8 697 55 \$0-bgnd \$0-bgnd-r empty 0 20 0 4 -22530
-22530 0;
#X obj 15 16 cnv 8 687 45 \$0-frame \$0-frame-r empty 20 20 0 14 -1
-262144 0;
#X obj 16 17 cnv 15 250 43 \$0-title \$0-title-r ol_cornerpin 66 21
1 24 -236864 -64 0;
#X obj 268 17 cnv 15 433 43 \$0-frame2 \$0-frame2-r empty 25 18 1 24
-216384 -4160 0;
#X obj 300 65 cnv 1 1 1 \$0-text1 \$0-text1-r Cornerpin-mapping GUI for GEM output
76 -26 1 11 -22530 -66577 0;
#X obj 300 65 cnv 1 1 1 \$0-text2 \$0-text2-r empty 76 -12 1 10 -22530
-66577 0;
#X obj 300 65 cnv 1 1 1 \$0-text3 \$0-text3-r empty 76 2 1 11 -22530
-66577 0;
#X obj 27 416 cnv 15 120 90 empty empty create_window 15 10 1 12 -204800
-66577 0;
#N canvas 1090 607 454 271 gemwin 0;
#X obj 67 218 gemwin;
#X obj 90 140 outlet;
#X obj 67 30 inlet;
#X obj 67 61 route create;
#X msg 43 93 set destroy;
#X msg 198 201 destroy;
#X obj 305 16 loadbang;
#X obj 240 52 del 300;
#X msg 305 76 reset;
#X msg 136 93 set create;
#X obj 239 76 t b b;
#X obj 198 134 bng 15 250 50 0 empty empty empty 17 7 0 10 -262144
-1 -1;
#X msg 67 174 frame 25 \, dimen 480 270 \, offset 20 500 \, create
\, 1;
#X connect 2 0 3 0;
#X connect 3 0 4 0;
#X connect 3 0 12 0;
#X connect 3 1 5 0;
#X connect 3 1 9 0;
#X connect 4 0 1 0;
#X connect 5 0 0 0;
#X connect 6 0 7 0;
#X connect 6 0 8 0;
#X connect 7 0 10 0;
#X connect 8 0 0 0;
#X connect 9 0 1 0;
#X connect 10 0 1 0;
#X connect 10 1 9 0;
#X connect 11 0 1 0;
#X connect 12 0 0 0;
#X restore 56 478 pd gemwin;
#X msg 56 454 destroy;
#X obj 27 432 cnv 8 120 15 empty empty and_render 25 8 1 12 -204800
-66577 0;
#X obj 27 446 cnv 8 120 2 empty empty empty 25 8 1 12 -204800 -66577
0;
#X obj 28 94 gemhead 30;
#X obj 604 119 gemhead 1;
#X msg 604 141 1;
#X obj 604 164 t b b;
#X msg 647 164 0;
#X obj 585 165 bng 15 250 50 0 empty empty empty 17 7 0 10 -262144
-1 -1;
#X obj 604 187 del 100;
#X obj 28 121 t a b;
#X obj 28 187 pix_film, f 19;
#X msg 83 208 \$1;
#X obj 28 238 pix_texture;
#X floatatom 131 225 5 0 0 0 - - -;
#X text 114 209 framecount;
#X obj 53 157 r \$0-film;
#X obj 47 157 cnv 5 5 17 empty empty empty 20 12 0 14 -260626 -66577
0;
#X obj 469 144 symbol;
#X msg 469 165 open \$1;
#X obj 463 187 cnv 5 5 17 empty empty empty 20 12 0 14 -194593 -66577
0;
#X obj 469 187 s \$0-film;
#X text 603 84 this patch's loadbang, f 13;
#N canvas 0 50 450 300 counter 0;
#X obj 112 90 f;
#X obj 149 90 + 1;
#X obj 130 126 sel 100, f 11;
#X msg 68 143 0;
#X obj 238 43 inlet maximum;
#X obj 112 43 inlet bang;
#X obj 193 156 outlet count;
#X connect 0 0 1 0;
#X connect 0 0 2 0;
#X connect 1 0 0 1;
#X connect 2 0 3 0;
#X connect 2 1 6 0;
#X connect 3 0 0 0;
#X connect 4 0 2 1;
#X connect 5 0 0 0;
#X restore 139 139 pd counter;
#X text 149 90 just a simple looper, f 7;
#X obj 394 127 openpanel;
#X obj 394 107 bng 15 250 50 0 empty empty empty 17 7 0 10 -262144
-1 -1;
#X obj 37 571 declare -stdlib Gem -lib Gem, f 16;
#X obj 28 283 ol_cornerpin 1;
#X msg 391 274 ratio \$1;
#X floatatom 391 255 5 0 0 0 - - -;
#X obj 186 583 cnv 5 5 17 empty empty empty 20 12 0 14 -194593 -66577
0;
#X text 392 87 load film;
#X msg 391 238 1.7777;
#X text 451 273 overall x:y ratio;
#X obj 391 228 cnv 1 60 1 empty empty MESSAGES: 1 -7 0 12 -66577 -66577
0;
#X obj 192 583 s ol_cornerpin;
#X obj 192 551 list prepend 1;
#X text 201 529 prepend instance number, f 24;
#X obj 186 504 cnv 5 5 17 empty empty empty 20 12 0 14 -260626 -66577
0;
#X obj 192 504 r \$0-msg;
#X text 186 450 [ol_cornerpin] listens to a global send named "ol_cornerpin".
, f 22;
#X obj 385 582 cnv 5 5 17 empty empty empty 20 12 0 14 -194593 -66577
0;
#X obj 391 582 s \$0-msg;
#X msg 469 119 ol_media/test2.avi, f 19;
#X msg 391 331 -1036 351 0 351 351 0 -351 -351 0 351 -351 0 0 0;
#X msg 391 404 corners;
#X text 401 296 use a 12 element list to set the corners;
#X text 397 309 (UL*3 \, UR*3 \, LL*3 \, LR*3);
#X text 447 403 reset corners;
#X msg 391 428 pos -1000 0;
#X msg 391 380 ramp \$1;
#X floatatom 400 358 5 0 0 0 - - -;
#X msg 391 476 reset;
#X msg 391 557 preset 0;
#X text 484 495 preset number plus ramp time;
#X text 455 556 preset number without ramp;
#X msg 391 502 preset 1 2000;
#X msg 391 530 preset 3 -1;
#X text 450 380 set ramp time in ms;
#X text 472 428 set position;
#X text 440 476 reset corners AND position !;
#X msg 391 452 pos;
#X text 427 452 reset position;
#X text 33 265 gemlist;
#X text 295 264 messages;
#X msg 307 238 reset;
#X text 481 505 (ignoring current ramp value);
#X text 470 524 preset number using, f 24;
#X text 470 533 currently set ramp time, f 24;
#X text 25 370 (the dark red numberbox also sets the ramp in ms*100)
;
#X connect 11 0 12 0;
#X connect 12 0 11 0;
#X connect 15 0 22 0;
#X connect 16 0 17 0;
#X connect 17 0 18 0;
#X connect 18 0 20 0;
#X connect 18 0 21 0;
#X connect 18 1 19 0;
#X connect 19 0 16 0;
#X connect 21 0 56 0;
#X connect 22 0 23 0;
#X connect 22 1 35 0;
#X connect 23 0 25 0;
#X connect 23 1 24 0;
#X connect 24 0 26 0;
#X connect 25 0 40 0;
#X connect 26 0 35 1;
#X connect 28 0 23 0;
#X connect 30 0 31 0;
#X connect 31 0 33 0;
#X connect 35 0 23 1;
#X connect 37 0 30 0;
#X connect 38 0 37 0;
#X connect 41 0 55 0;
#X connect 42 0 41 0;
#X connect 45 0 42 0;
#X connect 49 0 48 0;
#X connect 52 0 49 0;
#X connect 56 0 30 0;
#X connect 57 0 55 0;
#X connect 58 0 55 0;
#X connect 62 0 55 0;
#X connect 63 0 55 0;
#X connect 64 0 63 0;
#X connect 65 0 55 0;
#X connect 66 0 55 0;
#X connect 69 0 55 0;
#X connect 70 0 55 0;
#X connect 74 0 55 0;
#X connect 78 0 40 1;
