#N canvas 425 68 654 430 10;
#X declare -stdlib Gem -lib Gem;
#X obj 269 18 inlet;
#X obj 296 71 pack;
#X obj 427 78 t b;
#X obj 296 334 s \$0-cnv;
#X obj 218 299 outlet;
#X obj 414 18 inlet;
#X obj 476 18 cnv 14 118 15 empty empty empty 2 2 0 9 -253181 -66577
0;
#X obj 476 17 declare -stdlib Gem -lib Gem;
#X obj 269 47 pix_info, f 33;
#X obj 263 18 cnv 5 5 17 empty empty empty 20 12 0 14 -118750 -66577
0;
#X obj 290 334 cnv 5 5 17 empty empty empty 20 12 0 14 -194593 -66577
0;
#X obj 212 299 cnv 5 5 17 empty empty empty 20 12 0 14 -102336 -66577
0;
#X obj 408 18 cnv 5 5 17 empty empty empty 20 12 0 14 -118750 -66577
0;
#X obj 296 212 list prepend label;
#X obj 296 237 list trim;
#X obj 165 102 bng 13 250 50 0 empty empty empty 17 7 0 10 -262144
-1 -1;
#X obj 100 100 cnv 15 80 17 empty empty empty 20 12 0 14 -99865 -66577
0;
#X obj 102 102 cnv 10 76 13 empty \$0-cnv empty 3 7 1 12 -261242 -99865
0;
#X obj 297 128 cnv 4 62 15 empty empty empty 2 7 0 10 -257985 -66577
0;
#N canvas 0 50 334 272 achange 0;
#X obj 134 25 loadbang;
#X obj 47 40 inlet;
#X obj 196 25 inlet;
#X text 193 4 reset;
#X text 96 231 list out;
#X obj 47 231 outlet;
#X obj 47 62 list;
#X obj 196 75 text define;
#X obj 62 205 text set -s text t;
#X msg 196 52 clear \, bang;
#X msg 239 25 bang;
#X obj 196 99 t p;
#X obj 86 132 text search -s text t;
#X obj 86 155 == -1;
#X obj 47 178 spigot;
#X obj 47 85 t l l, f 7;
#X text 40 5 anything in;
#X connect 0 0 9 0;
#X connect 1 0 6 0;
#X connect 2 0 9 0;
#X connect 6 0 15 0;
#X connect 7 0 11 0;
#X connect 9 0 7 0;
#X connect 10 0 9 0;
#X connect 11 0 8 3;
#X connect 11 0 12 1;
#X connect 12 0 13 0;
#X connect 13 0 14 1;
#X connect 14 0 5 0;
#X connect 14 0 8 0;
#X connect 15 0 14 0;
#X connect 15 1 12 0;
#X restore 296 127 pd achange;
#X obj 297 189 cnv 3 68 15 empty empty empty 2 7 0 10 -257985 -66577
0;
#N canvas 696 119 327 493 tosymbol 0;
#X text 65 454 symbol out with correct spaces;
#X text 81 12 string in;
#X obj 91 31 inlet;
#X obj 91 431 outlet;
#X obj 85 31 cnv 5 5 17 empty empty empty 20 12 0 14 -118750 -66577
0;
#X obj 85 431 cnv 5 5 17 empty empty empty 20 12 0 14 -102336 -66577
0;
#X obj 91 55 list;
#X obj 91 193 list store, f 13;
#X obj 91 102 until;
#X obj 91 128 f, f 7;
#X obj 153 128 + 1;
#X msg 91 171 get \$1 1;
#X obj 134 103 0;
#X obj 91 263 list fromsymbol;
#X obj 91 215 route symbol float;
#X obj 109 239 makefilename %s;
#X obj 91 150 t f f;
#X obj 91 380 list store, f 19;
#X obj 91 355 list trim;
#X obj 91 332 list prepend append;
#X obj 157 286 spigot;
#X obj 91 286 t l b, f 9;
#X obj 91 77 t b b a b, f 19;
#X obj 91 404 list tosymbol;
#X msg 157 308 160;
#X text 185 307 <- non breaking space;
#X connect 2 0 6 0;
#X connect 6 0 22 0;
#X connect 7 0 14 0;
#X connect 7 1 8 1;
#X connect 7 1 17 0;
#X connect 8 0 9 0;
#X connect 9 0 10 0;
#X connect 9 0 16 0;
#X connect 10 0 9 1;
#X connect 11 0 7 0;
#X connect 12 0 9 1;
#X connect 13 0 21 0;
#X connect 14 0 13 0;
#X connect 14 1 15 0;
#X connect 15 0 13 0;
#X connect 16 0 11 0;
#X connect 16 1 20 1;
#X connect 17 0 23 0;
#X connect 18 0 17 0;
#X connect 19 0 18 0;
#X connect 20 0 24 0;
#X connect 21 0 19 0;
#X connect 21 1 20 0;
#X connect 22 0 8 0;
#X connect 22 1 12 0;
#X connect 22 2 7 1;
#X connect 22 3 17 1;
#X connect 23 0 3 0;
#X connect 24 0 19 0;
#X restore 296 188 pd tosymbol;
#X obj 466 218 loadbang;
#X msg 466 242 label;
#X connect 0 0 8 0;
#X connect 1 0 19 0;
#X connect 2 0 19 1;
#X connect 5 0 2 0;
#X connect 8 1 1 0;
#X connect 8 2 1 1;
#X connect 13 0 14 0;
#X connect 14 0 3 0;
#X connect 15 0 2 0;
#X connect 19 0 4 0;
#X connect 19 0 21 0;
#X connect 21 0 13 0;
#X connect 22 0 23 0;
#X connect 23 0 3 0;
#X coords 0 -1 1 1 80 17 2 100 100;
