#N canvas 535 92 838 743 10;
#X obj 464 47 namecanvas \$0-ol_help;
#N canvas 136 156 626 800 init 0;
#X obj 470 388 cnv 8 120 25 empty empty empty 20 12 0 14 -204786 -66577
0;
#X obj 97 553 cnv 8 300 80 empty empty empty 20 12 0 14 -204786 -66577
0;
#X obj 461 76 cnv 8 120 26 empty empty empty 20 12 0 14 -204786 -66577
0;
#X obj 60 287 cnv 8 200 25 empty empty empty 20 12 0 14 -204786 -66577
0;
#X msg 245 33 vis 0 \, relocate \$3x\$4+0+0 0x0+\$1+\$2 \, vis 1 \,
editmode 0;
#X obj 245 55 s \$0-ol_help;
#X msg 118 64 400 50 800 600;
#X obj 118 219 s \$0-frame-r;
#X floatatom 118 176 5 0 0 0 - - -;
#X obj 28 450 s \$0-title-r;
#X msg 98 406 label \$1;
#X floatatom 263 143 5 0 0 0 - - -;
#X obj 263 183 s \$0-bgnd-r;
#X obj 56 119 del 10;
#X obj 56 99 t b b;
#X text 244 80 1.) set pos and size of main window;
#X msg 172 115 \$3;
#X obj 118 132 f;
#X text 151 143 minus frame sizes, f 11;
#X text 124 266 2.) set name of title;
#X obj 56 141 s \$0-lb;
#X obj 118 107 r \$0-lb;
#X obj 29 244 r \$0-lb;
#X obj 29 406 unpack 0 s;
#X text 175 530 3.) set description;
#X obj 263 262 s \$0-frame2-r;
#X obj 182 463 s \$0-text1-r;
#X obj 29 626 cnv 3 68 15 empty empty empty 2 7 0 10 -257985 -66577
0;
#N canvas 341 335 425 542 tosymbol 0;
#X obj 67 94 list length;
#X obj 67 42 list;
#X obj 101 226 list, f 7;
#X obj 67 175 f, f 10;
#X obj 154 175 + 1;
#X obj 67 150 until;
#X obj 101 251 list split;
#X msg 157 94 0;
#X obj 139 276 list split 1;
#X obj 139 361 list fromsymbol;
#X obj 139 302 route symbol float;
#X obj 191 329 makefilename %s;
#X obj 139 435 textfile;
#X msg 202 94 clear;
#X obj 139 387 list prepend add2;
#X obj 67 201 t b b b f;
#X obj 79 276 + 1;
#X obj 67 122 t f f;
#X obj 78 300 <;
#X obj 20 335 spigot;
#X msg 20 394 add2 32;
#X obj 139 411 list trim;
#X obj 67 335 f;
#X obj 67 361 sel 0;
#X obj 139 463 list tosymbol;
#X obj 67 68 t l l b b, f 23;
#X text 184 486 symbol out with correct spaces;
#X text 57 2 string in;
#X msg 136 25 #/zi 3 4 oo ä;
#X msg 229 25 1.23457e+19;
#X floatatom 315 28 5 0 0 0 - - -;
#X obj 67 22 cnv 13 34 15 empty empty empty 2 2 0 9 -163816 -66577
0;
#X obj 139 487 cnv 14 40 15 empty empty empty 2 2 0 9 -163840 -66577
0;
#X obj 67 21 inlet;
#X obj 139 486 outlet;
#X connect 0 0 17 0;
#X connect 1 0 25 0;
#X connect 2 0 6 0;
#X connect 3 0 4 0;
#X connect 3 0 15 0;
#X connect 4 0 3 1;
#X connect 5 0 3 0;
#X connect 6 1 8 0;
#X connect 7 0 3 1;
#X connect 8 0 10 0;
#X connect 9 0 14 0;
#X connect 10 0 9 0;
#X connect 10 1 11 0;
#X connect 11 0 9 0;
#X connect 12 0 24 0;
#X connect 13 0 12 0;
#X connect 14 0 21 0;
#X connect 15 0 22 0;
#X connect 15 1 19 0;
#X connect 15 2 2 0;
#X connect 15 3 6 1;
#X connect 15 3 16 0;
#X connect 16 0 18 0;
#X connect 17 0 5 0;
#X connect 17 1 18 1;
#X connect 18 0 19 1;
#X connect 18 0 22 1;
#X connect 19 0 20 0;
#X connect 20 0 12 0;
#X connect 21 0 12 0;
#X connect 22 0 23 0;
#X connect 23 0 12 0;
#X connect 24 0 34 0;
#X connect 25 0 0 0;
#X connect 25 1 2 1;
#X connect 25 2 7 0;
#X connect 25 3 13 0;
#X connect 28 0 1 0;
#X connect 29 0 1 0;
#X connect 30 0 1 0;
#X connect 33 0 1 0;
#X restore 28 625 pd tosymbol;
#X obj 199 390 r \$0-lb;
#X obj 199 413 t b b;
#X obj 268 463 s \$0-text2-r;
#X obj 354 463 s \$0-text3-r;
#X msg 28 488 bang;
#X msg 118 195 vis_size \$1 45;
#X msg 263 240 vis_size \$1 43;
#X text 349 389 init text labels;
#X obj 28 719 pack s 0 0;
#X msg 28 740 label \$1 \, label_pos \$2 \$3;
#X obj 531 524 unpack;
#X msg 531 500 140 -26;
#X floatatom 493 391 5 0 0 0 - - -;
#X floatatom 531 391 5 0 0 0 - - -;
#X obj 531 421 t b f;
#X msg 545 471 set \$1 \$2;
#X obj 493 471 t b b l;
#X text 503 370 x;
#X text 540 370 y;
#X text 466 352 4.) set label position;
#X obj 564 545 f;
#X msg 321 367 color \$1 \$1 \$1;
#X msg 263 161 vis_size \$1 55;
#X floatatom 79 174 5 0 0 0 - - -;
#X obj 118 153 - 13;
#X obj 263 122 + 10;
#X obj 263 219 - 254;
#X obj 56 56 t b f;
#X msg 260 390 -6.55386e+06;
#X msg 260 368 set \$1;
#X obj 56 11 loadbang;
#N canvas 36 456 791 300 better_colors 0;
#X obj 89 19 inlet;
#X obj 320 262 outlet;
#X obj 89 40 random 10;
#X obj 89 61 sel 0 1 2 3 4 5 6 7 8 9, f 83;
#X obj 320 239 expr ($f1*(-65536)+$f2*(-256)+$f3*(-1))-1;
#X msg 16 162 140 0 0;
#X msg 69 162 0 156 144;
#X msg 136 162 0 140 0;
#X msg 252 162 231 112 0;
#X msg 191 162 100 0 255;
#X msg 317 162 100 100 100;
#X msg 397 162 255 255 0;
#X msg 541 162 123 33 5;
#X msg 464 162 22 131 5;
#X msg 607 163 147 0 163;
#X connect 0 0 2 0;
#X connect 2 0 3 0;
#X connect 3 0 5 0;
#X connect 3 1 6 0;
#X connect 3 2 7 0;
#X connect 3 3 9 0;
#X connect 3 4 8 0;
#X connect 3 5 10 0;
#X connect 3 6 11 0;
#X connect 3 7 13 0;
#X connect 3 8 12 0;
#X connect 3 9 14 0;
#X connect 4 0 1 0;
#X connect 5 0 4 0;
#X connect 6 0 4 0;
#X connect 7 0 4 0;
#X connect 8 0 4 0;
#X connect 9 0 4 0;
#X connect 10 0 4 0;
#X connect 11 0 4 0;
#X connect 12 0 4 0;
#X connect 13 0 4 0;
#X connect 14 0 4 0;
#X restore 56 34 pd better_colors;
#X obj 56 78 del 50;
#X msg 170 17 bang;
#X text 200 114 width;
#X msg 29 428 label_pos \$1 21;
#X obj 479 124 list prepend set;
#X obj 479 146 list trim;
#X text 246 10 probably dangerous when initialized with loadbang!;
#X msg 29 383 76 ol_entry;
#X obj 28 775 s \$0-text1-r;
#X obj 195 719 pack s 0 0;
#X obj 195 775 s \$0-text2-r;
#X obj 351 719 pack s 0 0;
#X msg 351 740 label \$1 \, label_pos \$2 \$3;
#X obj 351 775 s \$0-text3-r;
#X obj 28 648 list prepend 0;
#X msg 195 740 label \$1 \, label_pos \$2 \$3 \, label_font 1 11,
f 23;
#X obj 564 567 + 14;
#X obj 564 590 + 14;
#X obj 28 510 t b b b b b b b, f 20;
#X obj 28 672 route 1 2 3, f 66;
#X msg 86 532 2, f 1;
#X msg 125 531 1, f 1;
#X msg 47 532 3, f 1;
#X msg 153 608 empty;
#X obj 531 272 loadbang;
#X msg 531 293 set -26;
#X floatatom 73 292 5 0 0 0 - - -;
#X symbolatom 108 292 20 0 0 0 - - -;
#X obj 73 333 pack 0 s;
#X obj 108 310 t b s;
#X obj 73 354 t b l;
#X msg 113 354 set \$1 \$2;
#X msg 73 261 set 66;
#X obj 493 448 pack 0 -26;
#X msg 135 584 empty;
#X msg 479 80 400 50 800 600;
#X msg 260 413 size 1 \, pos 300 65 \, vis_size 1 1 \, color \$1 \$1
2 \, label_font 1 11 \, label, f 26;
#X msg 106 560 a customisable symbol entry object;
#X connect 4 0 5 0;
#X connect 6 0 16 0;
#X connect 8 0 34 0;
#X connect 8 0 54 0;
#X connect 8 0 55 0;
#X connect 10 0 9 0;
#X connect 11 0 51 0;
#X connect 13 0 20 0;
#X connect 14 0 13 0;
#X connect 14 1 6 0;
#X connect 16 0 17 1;
#X connect 17 0 53 0;
#X connect 21 0 17 0;
#X connect 22 0 68 0;
#X connect 22 0 93 0;
#X connect 23 0 64 0;
#X connect 23 1 10 0;
#X connect 28 0 75 0;
#X connect 29 0 30 0;
#X connect 30 0 79 0;
#X connect 30 1 40 0;
#X connect 30 1 57 0;
#X connect 33 0 79 0;
#X connect 34 0 7 0;
#X connect 35 0 25 0;
#X connect 37 0 38 0;
#X connect 38 0 69 0;
#X connect 39 0 37 1;
#X connect 39 0 70 1;
#X connect 39 0 72 1;
#X connect 39 1 49 0;
#X connect 40 0 39 0;
#X connect 41 0 94 0;
#X connect 42 0 43 0;
#X connect 43 0 94 0;
#X connect 43 1 94 1;
#X connect 44 0 40 0;
#X connect 45 0 33 0;
#X connect 45 1 40 0;
#X connect 45 2 44 0;
#X connect 49 0 37 2;
#X connect 49 0 77 0;
#X connect 50 0 12 0;
#X connect 51 0 12 0;
#X connect 52 0 34 0;
#X connect 53 0 8 0;
#X connect 54 0 11 0;
#X connect 55 0 35 0;
#X connect 56 0 61 0;
#X connect 56 1 58 0;
#X connect 57 0 97 0;
#X connect 57 0 50 0;
#X connect 58 0 57 0;
#X connect 59 0 60 0;
#X connect 60 0 56 0;
#X connect 61 0 14 0;
#X connect 62 0 60 0;
#X connect 64 0 9 0;
#X connect 65 0 66 0;
#X connect 66 0 6 0;
#X connect 68 0 23 0;
#X connect 70 0 76 0;
#X connect 72 0 73 0;
#X connect 73 0 74 0;
#X connect 75 0 80 0;
#X connect 76 0 71 0;
#X connect 77 0 70 2;
#X connect 77 0 78 0;
#X connect 78 0 72 2;
#X connect 79 0 84 0;
#X connect 79 1 83 0;
#X connect 79 2 95 0;
#X connect 79 3 81 0;
#X connect 79 4 98 0;
#X connect 79 5 82 0;
#X connect 80 0 37 0;
#X connect 80 1 70 0;
#X connect 80 2 72 0;
#X connect 81 0 75 1;
#X connect 82 0 75 1;
#X connect 83 0 75 1;
#X connect 84 0 28 0;
#X connect 85 0 86 0;
#X connect 86 0 42 0;
#X connect 87 0 89 0;
#X connect 88 0 90 0;
#X connect 89 0 91 0;
#X connect 90 0 87 0;
#X connect 90 1 89 1;
#X connect 91 0 68 0;
#X connect 91 1 92 0;
#X connect 92 0 68 0;
#X connect 93 0 87 0;
#X connect 94 0 45 0;
#X connect 95 0 28 0;
#X connect 96 0 4 0;
#X connect 96 0 65 0;
#X connect 97 0 26 0;
#X connect 97 0 31 0;
#X connect 97 0 32 0;
#X connect 98 0 28 0;
#X restore 19 48 pd init;
#X obj 11 11 cnv 8 797 55 \$0-bgnd \$0-bgnd-r empty 0 20 0 4 -102464
-102464 0;
#X obj 15 16 cnv 8 787 45 \$0-frame \$0-frame-r empty 20 20 0 14 -1
-262144 0;
#X obj 16 17 cnv 15 250 43 \$0-title \$0-title-r ol_entry 76 21 1 24
-236864 -64 0;
#X obj 268 17 cnv 15 533 43 \$0-frame2 \$0-frame2-r empty 25 18 1 24
-216384 -4160 0;
#X obj 300 65 cnv 1 1 1 \$0-text1 \$0-text1-r a customisable symbol entry object
140 -26 1 11 -102464 -66577 0;
#X obj 300 65 cnv 1 1 1 \$0-text2 \$0-text2-r empty 140 -12 1 11 -102464
-66577 0;
#X obj 300 65 cnv 1 1 1 \$0-text3 \$0-text3-r empty 140 2 1 11 -102464
-66577 0;
#X obj 348 685 cnv 10 130 20 empty empty needs IEMGUTS 10 11 0 14
-4160 -262144 0;
#X obj 502 108 cnv 1 64 1 empty empty MESSAGES: 4 -7 0 12 -66577 -66577
0;
#N canvas 0 50 652 300 [ol_grid] 0;
#X obj 1 1 cnv 15 298 148 empty empty OL_ENTRY  INSIDE  A  GOP:
60 15 1 14 -204786 -66577 0;
#X text 13 63 ^;
#X text 158 31 ... needs a "goplevel 2" message (or the attribute "@goplevel
2") to work., f 21;
#X obj 11 39 ol_entry \$0-inside @goplevel 2;
#X obj 159 109 cnv 3 3 3 empty empty The GOP's margins 0 0 1 13 -204786
-258113 0;
#X obj 150 127 cnv 3 3 3 empty empty MUST be set to (0 0) !!!
0 0 1 13 -204786 -258113 0;
#X text 13 69 |;
#X text 13 91 [ol_entry \$0-inside @goplevel 2], f 12;
#X text 13 75 |;
#X coords 0 -1 1 1 300 150 2 0 0;
#X restore 26 556 pd [ol_grid] inside a GOP;
#X obj 349 556 r \$0-inside;
#X obj 349 624 cnv 15 110 16 empty empty empty 2 7 0 10 -257985 -66577
0;
#X obj 349 652 cnv 15 70 16 empty empty empty 2 7 0 10 -257985 -66577
0;
#X obj 348 651 ol_z_colors;
#X obj 26 108 cnv 1 146 1 empty empty ARGUMENTS: (defaults) 1 -7 0
12 -66577 -66577 0;
#X obj 348 623 ol_z_info OL_ENTRY;
#X obj 26 375 print SYMBOL;
#X obj 139 375 print ASCII-LIST;
#X obj 26 335 ol_entry \$0-entry;
#X text 25 313 [ol_entry \$0-entry];
#X symbolatom 349 582 15 0 0 0 - - -;
#X text 25 226 Click into the grey field to activate [ol_entry]. The
background changes to "active" color and everything you type will appear
in the text box. Pressing "ENTER" will send the text and deactivate
[ol_entry]., f 72;
#X obj 504 529 s \$0-entry-r;
#X msg 504 421 size;
#X msg 504 396 size 180 30 5;
#X msg 504 131 clear;
#X obj 267 108 cnv 1 50 1 empty empty INLETS: 1 -7 0 12 -66577 -66577
0;
#X text 266 113 1.) messages;
#X obj 267 161 cnv 1 55 1 empty empty OUTLETS: 1 -7 0 12 -66577 -66577
0;
#X text 266 166 1.) Symbol out;
#X text 266 179 2.) ASCII list out;
#X msg 504 334 colors LightBlue yellow red DarkGreen;
#X msg 504 360 colors;
#X msg 504 284 bang;
#X msg 504 164 set with spaces;
#X msg 504 187 set [and brackets];
#X msg 504 210 set try # and $;
#X msg 504 501 font;
#X text 512 314 background / active bgnd / text / border;
#X text 558 360 defaults;
#X text 558 421 defaults;
#X text 558 501 defaults;
#X text 573 453 1 = courier \; 2 = helvetica (default) \; 3 = times
;
#X msg 504 458 font 1 14;
#X text 602 396 width / height / border;
#X text 627 186 set text without output;
#X text 545 284 do output;
#X text 25 280 Basically it works just like PD's [symbol] \, but allows
a customized look., f 74;
#X text 516 640 36 (dollar);
#X text 516 651 91 (open bracket);
#X text 516 661 92 (backslash);
#X text 516 671 93 (close bracket);
#X text 510 681 123 (open brace);
#X text 510 691 125 (close brace);
#X text 650 641 35 (diamond);
#X text 516 619 34 (quote);
#X text 644 661 166 (dotted straight line);
#X text 650 651 25;
#X text 650 671 23;
#X text 645 691 187 (>>);
#X text 645 681 171 (<<);
#X text 516 630 35 (diamond);
#X text 644 630 164;
#X text 644 620 168;
#X obj 381 421 cnv 5 5 5 empty empty * 0 5 0 15 -262144 -66577 0;
#X obj 518 589 cnv 5 5 5 empty empty * 0 5 0 15 -262144 -66577 0;
#X text 24 402 Since [ol_entry] is basically just a [cnv] with text
on it \, some symbols that are not allowed by Tcl/Tk have to be replaced.
, f 66;
#X text 519 601 ASCII:;
#X text 645 601 ASCII:;
#X text 544 582 Original:;
#X text 676 581 Replacement:;
#X msg 504 244 123 32 48 49 50 32 125;
#X text 656 236 or send a list of ASCII symbols, f 18;
#X text 25 500 ESC (ASCII  27): Exit active mode;
#X text 25 527 ENTER (ASCII 10): Output symbol and exit active mode
;
#X text 25 487 DEL (ASCII 127): Erase everything but stay active,
f 50;
#X obj 27 474 cnv 5 5 5 empty empty SPECIAL CHARACTERS: 0 5 0 15 -262144
-66577 0;
#X text 25 513 BACKSPACE (ASCII 8): Delete last character;
#X text 25 438 The output symbol is NOT affected by this \, it's only
a display thing., f 70;
#X text 25 114 Remote Name (optional);
#X text 42 128 (see "ol_z_info" for details);
#X text 25 146 1.) width (120);
#X text 25 159 2.) height (20);
#X text 25 172 3.) border (2);
#X text 25 185 4.) font (2);
#X text 25 198 5.) font-size (10);
#X obj 343 556 cnv 5 5 17 empty empty empty 20 12 0 14 -260626 -66577
0;
#X obj 498 529 cnv 5 5 17 empty empty empty 20 12 0 14 -194593 -66577
0;
#X connect 12 0 22 0;
#X connect 20 0 18 0;
#X connect 20 1 19 0;
#X connect 25 0 24 0;
#X connect 26 0 24 0;
#X connect 27 0 24 0;
#X connect 33 0 24 0;
#X connect 34 0 24 0;
#X connect 35 0 24 0;
#X connect 36 0 24 0;
#X connect 37 0 24 0;
#X connect 38 0 24 0;
#X connect 39 0 24 0;
#X connect 45 0 24 0;
#X connect 73 0 24 0;
