#N canvas 707 302 977 582 10;
#X declare -stdpath iemguts -path iemguts;
#X declare -stdlib zexy -lib zexy ;
#X obj 576 511 r \$0-out;
#X obj 576 536 outlet;
#X obj 577 9 inlet;
#X obj 577 33 s \$0-in;
#X obj 570 511 cnv 5 5 17 empty empty empty 20 12 0 14 -260626 -66577
0;
#X obj 570 536 cnv 5 5 17 empty empty empty 20 12 0 14 -102336 -66577
0;
#X obj 571 9 cnv 5 5 17 empty empty empty 20 12 0 14 -118750 -66577
0;
#X obj 571 33 cnv 5 5 17 empty empty empty 20 12 0 14 -194593 -66577
0;
#X obj 570 276 cnv 5 5 17 empty empty empty 20 12 0 14 -260626 -66577
0;
#X obj 578 70 cnv 13 43 15 empty empty empty 2 7 0 10 -257985 -66577
0;
#X obj 578 95 cnv 10 80 15 empty empty empty 2 7 0 9 -257985 -66577
0;
#N canvas 1232 365 343 558 remotename 0;
#X obj 22 66 bang;
#X obj 22 43 route float symbol;
#X obj 22 176 s \$0-remotename;
#X obj 16 176 cnv 5 5 17 empty empty empty 20 12 0 14 -194593 -66577
0;
#X msg 22 92 symbol none;
#X obj 20 227 cnv 10 200 200 empty empty REMOTE 100 17 1 20 -261682
-4160 0;
#X obj 148 351 spigot;
#X obj 37 351 spigot;
#X obj 148 374 s \$0-in;
#X obj 37 327 r \$0-out;
#X obj 58 262 r \$0-remotename;
#X obj 142 327 cnv 5 5 17 empty empty empty 20 12 0 14 -260626 -66577
0;
#X obj 31 375 cnv 5 5 17 empty empty empty 20 12 0 14 -194593 -66577
0;
#X obj 142 374 cnv 5 5 17 empty empty empty 20 12 0 14 -194593 -66577
0;
#X obj 31 327 cnv 5 5 17 empty empty empty 20 12 0 14 -260626 -66577
0;
#X obj 52 262 cnv 5 5 17 empty empty empty 20 12 0 14 -260626 -66577
0;
#X obj 51 288 sel none;
#X msg 97 314 0, f 1;
#X msg 107 314 1, f 1;
#X obj 107 288 t b;
#X obj 101 334 f;
#X floatatom 101 359 2 0 0 0 - - -;
#X text 87 12 any float or "none" as 1st argument: no remote name,
f 27;
#X obj 27 448 r \$0-getname;
#X msg 27 492 name: \$2 \$2-r;
#X obj 27 470 pack 0 s, f 16;
#X obj 21 448 cnv 5 5 17 empty empty empty 20 12 0 14 -260097 -66577
0;
#X obj 114 448 cnv 5 5 17 empty empty empty 20 12 0 14 -260097 -66577
0;
#X obj 120 448 r \$0-remotename;
#X obj 165 279 outlet;
#X obj 159 279 cnv 5 5 17 empty empty empty 20 12 0 14 -102336 -66577
0;
#X obj 37 375 send;
#X obj 58 66 sel none empty;
#X obj 16 20 cnv 5 5 17 empty empty empty 20 12 0 14 -260626 -66577
0;
#X obj 22 20 r \$0-arg1;
#X obj 53 122 cnv 3 88 15 empty empty empty 2 7 0 10 -257985 -66577
0;
#N canvas 503 158 587 470 check_\$0___ 0;
#X text 50 6 string in;
#X obj 60 25 inlet;
#X obj 23 415 outlet;
#X obj 54 25 cnv 5 5 17 empty empty empty 20 12 0 14 -118750 -66577
0;
#X obj 17 415 cnv 5 5 17 empty empty empty 20 12 0 14 -102336 -66577
0;
#X obj 60 49 list fromsymbol;
#X obj 119 281 &&, f 13;
#X msg 119 231 1;
#X msg 178 229 1;
#X obj 167 252 t b f;
#X obj 62 281 f, f 7;
#X obj 60 171 list store, f 14;
#X obj 60 102 until;
#X obj 60 126 f;
#X obj 101 126 + 1;
#X msg 60 148 get \$1 1;
#X msg 101 102 0;
#X text 192 71 list drip;
#X obj 60 72 t b b l b, f 20;
#X obj 60 203 sel 92 36 48, f 30;
#X msg 177 172 0;
#X obj 62 335 list store, f 27;
#X msg 62 306 prepend \$1 \, bang;
#X msg 237 305 append \$1;
#X text 250 202 check for \$0;
#X obj 62 359 route 0 1;
#X obj 23 390 list tosymbol;
#X obj 119 390 list tosymbol;
#X obj 119 413 outlet;
#X obj 113 413 cnv 5 5 17 empty empty empty 20 12 0 14 -102336 -66577
0;
#X obj 385 53 list fromsymbol;
#X symbolatom 391 30 10 0 0 0 - - -;
#X floatatom 388 83 5 0 0 0 - - -;
#X connect 1 0 5 0;
#X connect 5 0 18 0;
#X connect 6 0 10 1;
#X connect 7 0 6 0;
#X connect 8 0 9 0;
#X connect 9 0 6 0;
#X connect 9 1 6 1;
#X connect 10 0 22 0;
#X connect 11 0 19 0;
#X connect 11 1 12 1;
#X connect 11 1 10 0;
#X connect 12 0 13 0;
#X connect 13 0 14 0;
#X connect 13 0 15 0;
#X connect 14 0 13 1;
#X connect 15 0 11 0;
#X connect 16 0 13 1;
#X connect 18 0 12 0;
#X connect 18 1 16 0;
#X connect 18 2 11 1;
#X connect 18 3 20 0;
#X connect 18 3 21 1;
#X connect 19 1 7 0;
#X connect 19 2 8 0;
#X connect 19 3 23 0;
#X connect 20 0 9 0;
#X connect 20 0 6 0;
#X connect 21 0 25 0;
#X connect 22 0 21 0;
#X connect 23 0 21 0;
#X connect 25 0 26 0;
#X connect 25 1 27 0;
#X connect 26 0 2 0;
#X connect 27 0 28 0;
#X connect 30 0 32 0;
#X connect 31 0 30 0;
#X restore 52 121 pd check_\$0___;
#X obj 138 93 canvasdollarzero 2;
#X obj 100 93 t s b;
#X obj 145 121 pack s s;
#X msg 145 144 symbol \$2\$1;
#X obj 160 304 cnv 3 45 15 empty empty empty 2 7 0 10 -257985 -66577
0;
#N canvas 213 773 440 146 \$0-r 0;
#X obj 20 20 receive 1031-entry-r;
#X obj 20 60 send 1036-rin;
#X connect 0 0 1 0;
#X restore 159 303 pd \$0-r;
#X obj 126 177 cnv 3 92 15 empty empty empty 2 7 0 10 -257985 -66577
0;
#N canvas 785 61 440 265 make 0;
#X obj 62 40 r \$0-remotename;
#X obj 56 40 cnv 5 5 17 empty empty empty 20 12 0 14 -260626 -66577
0;
#X obj 62 66 sel none;
#X obj 56 193 cnv 5 5 17 empty empty empty 20 12 0 14 -194593 -66577
0;
#X obj 62 193 s pd-\$0-r;
#X msg 62 171 clear;
#X obj 107 88 pack s \$0;
#X msg 107 111 clear \, obj 20 20 receive \$1-r \, obj 20 60 send \$2-rin
\, connect 0 0 1 0, f 21;
#X text 202 40 because [r] can't be set \, aaaah !;
#X connect 0 0 2 0;
#X connect 2 0 5 0;
#X connect 2 1 6 0;
#X connect 5 0 4 0;
#X connect 6 0 7 0;
#X connect 7 0 4 0;
#X restore 125 176 pd make receive;
#X obj 148 327 r \$0-rin;
#X obj 27 514 print [ol_entry]:;
#X text 235 234 NO OL_SSS !;
#X connect 0 0 4 0;
#X connect 1 0 0 0;
#X connect 1 1 32 0;
#X connect 4 0 2 0;
#X connect 6 0 8 0;
#X connect 7 0 31 0;
#X connect 9 0 7 0;
#X connect 10 0 16 0;
#X connect 10 0 29 0;
#X connect 10 0 31 1;
#X connect 16 0 17 0;
#X connect 16 1 19 0;
#X connect 17 0 20 0;
#X connect 18 0 20 0;
#X connect 19 0 18 0;
#X connect 20 0 7 1;
#X connect 20 0 6 1;
#X connect 20 0 21 0;
#X connect 23 0 25 0;
#X connect 24 0 46 0;
#X connect 25 0 24 0;
#X connect 28 0 25 1;
#X connect 32 0 4 0;
#X connect 32 1 4 0;
#X connect 32 2 38 0;
#X connect 34 0 1 0;
#X connect 36 0 2 0;
#X connect 36 1 39 0;
#X connect 37 0 39 1;
#X connect 38 0 36 0;
#X connect 38 1 37 0;
#X connect 39 0 40 0;
#X connect 40 0 2 0;
#X connect 45 0 6 0;
#X restore 577 94 pd remotename;
#X symbolatom 577 119 15 0 0 0 - - -;
#X msg 777 234 bang;
#X obj 777 482 canvasargs;
#X obj 771 505 cnv 5 5 17 empty empty empty 20 12 0 14 -194593 -66577
0;
#X obj 777 505 s \$0-args;
#X obj 788 212 cnv 8 50 15 empty empty empty 20 12 0 14 -3586 -66577
0;
#X obj 787 211 loadbang;
#X obj 771 460 cnv 5 5 17 empty empty empty 20 12 0 14 -260626 -66577
0;
#X obj 777 460 r \$0-canvasargs;
#X obj 816 308 cnv 5 5 17 empty empty empty 20 12 0 14 -194593 -66577
0;
#X obj 822 308 s \$0-args;
#X obj 771 333 cnv 5 5 17 empty empty empty 20 12 0 14 -194593 -66577
0;
#X obj 777 333 s \$0-canvasargs;
#N canvas 1082 390 659 575 INIT 0;
#X obj 28 14 cnv 5 5 17 empty empty empty 20 12 0 14 -260626 -66577
0;
#X obj 34 14 r \$0-args;
#X text 101 13 load defaults first !;
#X obj 419 16 cnv 10 200 120 empty empty GOPS 130 17 1 20 -204786 -4160
0;
#X obj 431 41 r \$0-GOP;
#X msg 498 48 80 14;
#X obj 425 41 cnv 5 5 17 empty empty empty 20 12 0 14 -260626 -66577
0;
#X obj 425 101 cnv 5 5 17 empty empty empty 20 12 0 14 -194593 -66577
0;
#X text 93 391 size;
#X text 256 390 color;
#X obj 65 431 list prepend size, f 13;
#X obj 201 478 list trim;
#X obj 195 500 cnv 5 5 17 empty empty empty 20 12 0 14 -194593 -66577
0;
#X obj 201 500 s \$0-in;
#X obj 31 363 list split 1;
#X obj 240 431 list prepend colors, f 13;
#X obj 32 340 cnv 4 62 15 empty empty empty 2 7 0 10 -257985 -66577
0;
#N canvas 0 50 334 272 achange 0;
#X obj 47 40 inlet;
#X obj 196 25 inlet;
#X text 193 4 reset;
#X text 96 231 list out;
#X obj 47 231 outlet;
#X obj 47 62 list;
#X obj 196 75 text define;
#X obj 62 205 text set -s text t;
#X msg 196 52 clear \, bang;
#X msg 239 25 bang;
#X obj 196 99 t p;
#X obj 86 132 text search -s text t;
#X obj 86 155 == -1;
#X obj 47 178 spigot;
#X obj 47 85 t l l, f 7;
#X text 40 5 anything in;
#X obj 109 25 cnv 5 5 17 empty empty empty 20 12 0 14 -260626 -66577
0;
#X obj 115 25 r \$0-lbinit;
#X connect 0 0 5 0;
#X connect 1 0 8 0;
#X connect 5 0 14 0;
#X connect 6 0 10 0;
#X connect 8 0 6 0;
#X connect 9 0 8 0;
#X connect 10 0 7 3;
#X connect 10 0 11 1;
#X connect 11 0 12 0;
#X connect 12 0 13 1;
#X connect 13 0 4 0;
#X connect 13 0 7 0;
#X connect 14 0 13 0;
#X connect 14 1 11 0;
#X connect 17 0 8 0;
#X restore 31 339 pd achange;
#X obj 82 315 cnv 5 5 17 empty empty empty 20 12 0 14 -260626 -66577
0;
#X obj 88 315 r \$0-lbinit;
#X msg 431 65 donecanvasdialog 1 -1 3 0 -1 1 1 \$1 \$2 0 0 10 \, dirty
0, f 29;
#X obj 26 189 cnv 5 5 17 empty empty empty 20 12 0 14 -260097 -66577
0;
#X obj 94 278 cnv 5 5 17 empty empty empty 20 12 0 14 -173398 -66577
0;
#X obj 100 278 s \$0-argumentslist;
#X obj 35 38 cnv 4 122 15 empty empty empty 2 7 0 10 -257985 -66577
0;
#N canvas 14 92 756 687 prepare_arguments 0;
#X obj 27 10 inlet;
#X obj 21 10 cnv 5 5 17 empty empty empty 20 12 0 14 -118750 -66577
0;
#X obj 31 642 outlet;
#X obj 25 642 cnv 5 5 17 empty empty empty 20 12 0 14 -102336 -66577
0;
#X obj 278 40 bng 15 250 50 0 empty empty a 17 7 0 10 -262144 -1 -1
;
#X obj 137 42 bng 15 250 50 0 empty empty sym 17 7 0 10 -262144 -1
-1;
#X obj 83 42 bng 15 250 50 0 empty empty float 17 7 0 10 -262144 -1
-1;
#X obj 38 42 bng 15 250 50 0 empty empty list 17 7 0 10 -262144 -1
-1;
#X obj 430 653 text set \$0-defaults 0;
#X text 433 531 defaults:;
#X obj 124 589 text set \$0-defaults 0;
#X obj 28 412 cnv 3 80 15 empty empty empty 2 7 0 9 -257985 -66577
0;
#X obj 27 445 t l l;
#X obj 54 478 list split 1;
#X obj 27 502 list split 1;
#X obj 124 564 list trim;
#X msg 31 580 0;
#X obj 61 525 route float;
#X obj 61 547 sel 0;
#X obj 210 640 outlet;
#X obj 204 640 cnv 5 5 17 empty empty empty 20 12 0 14 -102336 -66577
0;
#X text 210 657 bang to set extra defaults;
#X text 32 658 real arguments list;
#X obj 27 64 route list float symbol bang init;
#X obj 183 476 t b b;
#X obj 225 40 bng 15 250 50 0 empty empty init 17 7 0 10 -262144 -1
-1;
#X text 83 4 "init" just sets defaults !;
#X text 83 15 "bang" also loads them;
#X obj 31 615 text get \$0-defaults;
#X obj 28 129 cnv 3 122 15 empty empty empty 2 7 0 10 -257985 -66577
0;
#X obj 682 374 cnv 5 5 17 empty empty empty 20 12 0 14 -173398 -66577
0;
#X obj 688 374 s \$0-in;
#X obj 427 495 text set \$0-defaults 0, f 23;
#X obj 449 461 list split 1;
#X text 239 323 attributes that are also arguments will replace them
\, all others get sent to \$0-in, f 82;
#X msg 259 369 \$1 2;
#X msg 306 369 \$1 3;
#X msg 354 369 \$1 4;
#X obj 156 166 bng 15 250 50 0 empty empty empty 17 7 0 10 -262144
-1 -1;
#X obj 119 411 bng 15 250 50 0 empty empty empty 17 7 0 10 -262144
-1 -1;
#N canvas 696 50 522 608 args 0;
#X obj 85 25 inlet;
#X obj 79 25 cnv 5 5 17 empty empty empty 20 12 0 14 -118750 -66577
0;
#X obj 27 177 cnv 5 5 17 empty empty empty 20 12 0 14 -102336 -66577
0;
#X obj 85 48 list;
#X obj 227 237 list store, f 14;
#X obj 227 141 until;
#X obj 227 165 f;
#X obj 268 165 + 1;
#X msg 227 214 get \$1 1;
#X msg 268 141 0;
#X text 257 92 list drip;
#X obj 227 111 t b b l b, f 20;
#X symbolatom 316 510 10 0 0 0 - - -;
#X obj 316 524 list fromsymbol;
#X floatatom 316 541 5 0 0 0 - - -;
#X obj 33 123 list store, f 11;
#X obj 227 261 route symbol;
#X obj 227 189 t f f;
#X obj 227 285 list fromsymbol;
#X obj 227 308 route 64;
#X obj 227 362 f, f 5;
#X obj 227 338 t b;
#X obj 227 409 list store, f 14;
#X msg 227 385 append \$1;
#X obj 33 149 list split;
#X msg 227 481 999999;
#X obj 284 481 list split 1;
#X msg 129 45 0 mysymbol 7 -120 4 456 fff;
#X obj 227 456 route bang;
#X obj 84 372 list store, f 12;
#X obj 227 506 f;
#X obj 33 96 t b f;
#X obj 227 432 t l l, f 10;
#X obj 84 408 list split 1;
#X obj 84 433 list fromsymbol;
#X obj 84 457 route 64;
#X obj 84 482 list tosymbol;
#X obj 84 505 list append;
#X obj 33 178 outlet;
#X obj 167 545 outlet;
#X obj 360 254 t b b;
#X obj 161 545 cnv 5 5 17 empty empty empty 20 12 0 14 -102336 -66577
0;
#X text 28 198 args list;
#X text 153 563 attributes;
#X obj 359 73 inlet;
#X obj 353 73 cnv 5 5 17 empty empty empty 20 12 0 14 -118750 -66577
0;
#X obj 84 528 list trim;
#X obj 27 238 list store;
#X obj 27 262 route bang;
#X obj 155 249 list length, f 6;
#X obj 84 291 list append;
#X obj 8 238 bng 15 250 50 0 empty empty empty 17 7 0 10 -262144 -1
-1;
#X obj 85 71 t l l l, f 19;
#X text 353 42 bang to output attributes, f 15;
#X obj 85 315 cnv 4 92 15 empty empty empty 2 7 0 10 -257985 -66577
0;
#N canvas 0 50 323 298 drip_special 0;
#X obj 107 14 inlet;
#X obj 101 14 cnv 5 5 17 empty empty empty 20 12 0 14 -118750 -66577
0;
#X obj 69 156 list store;
#X obj 107 39 t b l b;
#X msg 69 134 get \$1 2;
#X obj 69 79 until;
#X obj 69 112 f;
#X obj 100 114 + 1;
#X msg 176 84 0, f 1;
#X obj 69 180 t l l;
#X msg 69 203 \$1;
#X msg 113 180 \$2 \$1;
#X obj 113 203 -;
#X obj 69 228 pack;
#X obj 69 252 outlet;
#X obj 63 252 cnv 5 5 17 empty empty empty 20 12 0 14 -102336 -66577
0;
#X obj 221 250 outlet;
#X obj 215 250 cnv 5 5 17 empty empty empty 20 12 0 14 -102336 -66577
0;
#X connect 0 0 3 0;
#X connect 2 0 9 0;
#X connect 2 1 5 1;
#X connect 2 1 16 0;
#X connect 3 0 5 0;
#X connect 3 1 2 1;
#X connect 3 2 8 0;
#X connect 4 0 2 0;
#X connect 5 0 6 0;
#X connect 6 0 7 0;
#X connect 6 0 4 0;
#X connect 7 0 6 1;
#X connect 8 0 6 1;
#X connect 9 0 10 0;
#X connect 9 1 11 0;
#X connect 10 0 13 0;
#X connect 11 0 12 0;
#X connect 12 0 13 1;
#X connect 13 0 14 0;
#X restore 84 314 pd drip_special;
#X text 65 5 arguments in;
#X msg 84 348 get \$1 \$2;
#X msg 129 24 0 mysymbol 7 -120 4 @size 120 30 -1 @height 45 @goplevel
2;
#X obj 440 331 outlet;
#X obj 434 331 cnv 5 5 17 empty empty empty 20 12 0 14 -102336 -66577
0;
#X text 426 349 finish bang;
#X connect 0 0 3 0;
#X connect 3 0 52 0;
#X connect 4 0 16 0;
#X connect 4 1 40 0;
#X connect 5 0 6 0;
#X connect 6 0 7 0;
#X connect 6 0 17 0;
#X connect 7 0 6 1;
#X connect 8 0 4 0;
#X connect 9 0 6 1;
#X connect 11 0 5 0;
#X connect 11 1 9 0;
#X connect 11 2 4 1;
#X connect 11 3 22 1;
#X connect 12 0 13 0;
#X connect 13 0 14 0;
#X connect 15 0 24 0;
#X connect 16 0 18 0;
#X connect 17 0 8 0;
#X connect 17 1 20 1;
#X connect 18 0 19 0;
#X connect 19 0 21 0;
#X connect 20 0 23 0;
#X connect 21 0 20 0;
#X connect 22 0 32 0;
#X connect 23 0 22 0;
#X connect 24 0 38 0;
#X connect 24 2 38 0;
#X connect 25 0 30 0;
#X connect 26 0 30 0;
#X connect 27 0 52 0;
#X connect 28 0 25 0;
#X connect 28 1 26 0;
#X connect 29 0 33 0;
#X connect 30 0 31 0;
#X connect 31 0 15 0;
#X connect 31 1 24 1;
#X connect 32 0 28 0;
#X connect 32 1 47 1;
#X connect 33 0 34 0;
#X connect 33 1 37 1;
#X connect 34 0 35 0;
#X connect 35 0 36 0;
#X connect 36 0 37 0;
#X connect 37 0 46 0;
#X connect 40 0 22 0;
#X connect 40 1 5 1;
#X connect 44 0 47 0;
#X connect 46 0 39 0;
#X connect 47 0 48 0;
#X connect 48 0 59 0;
#X connect 48 1 50 0;
#X connect 49 0 50 1;
#X connect 50 0 55 0;
#X connect 51 0 47 0;
#X connect 52 0 11 0;
#X connect 52 1 29 1;
#X connect 52 1 15 1;
#X connect 52 2 49 0;
#X connect 55 0 57 0;
#X connect 55 1 59 0;
#X connect 57 0 29 0;
#X connect 58 0 52 0;
#X restore 27 128 pd args & attributes;
#X text 139 402 listfunnel finish, f 10;
#X text 176 156 attributes sent, f 10;
#X obj 497 369 list;
#X obj 456 580 route 0;
#X obj 450 625 cnv 5 5 17 empty empty empty 20 12 0 14 -173398 -66577
0;
#X obj 456 625 s \$0-defaultslist;
#X obj 456 603 list;
#X obj 178 41 bng 15 250 50 0 empty empty bang 17 7 0 10 -262144 -1
-1;
#X msg 640 408 \$1 1;
#X obj 640 374 l2s;
#X obj 27 101 list prepend 0;
#X obj 27 160 t l l;
#X obj 74 160 list length;
#X obj 27 185 spigot;
#X obj 74 185 > 1;
#X obj 74 209 sel 0;
#X text 118 194 if list is only one element \, it must be 0 \, so only
attributes are being sent, f 28;
#X obj 27 245 list split 1;
#X obj 27 357 list, f 17;
#X obj 104 269 list split 1, f 38;
#X obj 104 293 route float;
#X obj 61 269 t l l;
#X obj 27 381 list, f 32;
#X obj 104 317 list prepend none;
#X text 350 245 if arguments first element is a float \, assume no
name. (attribute can still be the name), f 33;
#X obj 9 36 cnv 3 3 400 empty empty empty 20 12 0 14 -159808 -66577
0;
#X obj 637 367 cnv 3 30 3 empty empty empty 20 12 0 14 -159808 -66577
0;
#X text 639 425 name;
#X obj 144 445 t b b;
#N canvas 0 50 441 281 listfunnel 0;
#X obj 20 17 inlet;
#X obj 28 224 outlet;
#X obj 90 246 outlet;
#X text 135 244 signal end of list;
#X text 14 205 list items;
#X obj 242 190 f;
#X obj 269 190 + 1;
#X obj 138 63 route symbol float;
#X obj 138 113 t s b;
#X obj 190 89 t f b;
#X obj 138 140 list prepend symbol, f 8;
#X obj 14 17 cnv 5 5 17 empty empty empty 20 12 0 14 -118750 -66577
0;
#X obj 22 224 cnv 5 5 17 empty empty empty 20 12 0 14 -102336 -66577
0;
#X obj 84 246 cnv 5 5 17 empty empty empty 20 12 0 14 -102336 -66577
0;
#X obj 272 125 inlet;
#X obj 266 125 cnv 5 5 17 empty empty empty 20 12 0 14 -118750 -66577
0;
#X obj 21 170 list store, f 12;
#X obj 21 86 until;
#X obj 21 115 f;
#X obj 51 115 + 1;
#X msg 21 142 get \$1 1;
#X obj 64 86 0;
#X obj 21 62 t b b a, f 12;
#X obj 20 39 t a b, f 40;
#X obj 138 207 list prepend;
#X obj 90 193 t b b;
#X text 286 147 leading number, f 11;
#X text 273 86 index 1 = remote name, f 20;
#X obj 257 155 f 0;
#X connect 0 0 23 0;
#X connect 5 0 6 0;
#X connect 5 0 24 1;
#X connect 6 0 5 1;
#X connect 7 0 8 0;
#X connect 7 1 9 0;
#X connect 8 0 10 0;
#X connect 8 1 5 0;
#X connect 9 0 24 0;
#X connect 9 1 5 0;
#X connect 10 0 24 0;
#X connect 14 0 28 1;
#X connect 16 0 7 0;
#X connect 16 1 25 0;
#X connect 17 0 18 0;
#X connect 18 0 20 0;
#X connect 18 0 19 0;
#X connect 19 0 18 1;
#X connect 20 0 16 0;
#X connect 21 0 18 1;
#X connect 22 0 17 0;
#X connect 22 1 21 0;
#X connect 22 2 16 1;
#X connect 23 0 22 0;
#X connect 23 1 28 0;
#X connect 24 0 1 0;
#X connect 25 0 2 0;
#X connect 25 1 17 1;
#X connect 28 0 5 1;
#X restore 27 411 pd listfunnel;
#X obj 259 346 route width height border font font_size colors goplevel
size name, f 72;
#X msg 402 369 \$1 5 \, \$2 6;
#X msg 497 392 \$1 7 \, \$2 8 \, \$3 9 \, \$4 10, f 6;
#X msg 548 369 \$1 11;
#X msg 592 369 \$1 2 \, \$2 3 \, \$3 4, f 5;
#X msg 430 553 0 none 120 20 2 2 10 WhiteSmoke yellow black black 1
;
#X connect 0 0 23 0;
#X connect 12 0 14 0;
#X connect 12 1 13 0;
#X connect 13 0 10 2;
#X connect 14 1 17 0;
#X connect 15 0 10 0;
#X connect 16 0 28 0;
#X connect 17 0 18 0;
#X connect 17 1 15 0;
#X connect 18 1 15 0;
#X connect 23 0 7 0;
#X connect 23 0 51 0;
#X connect 23 1 6 0;
#X connect 23 1 51 0;
#X connect 23 2 5 0;
#X connect 23 2 51 0;
#X connect 23 3 48 0;
#X connect 23 3 69 0;
#X connect 23 4 24 0;
#X connect 23 4 25 0;
#X connect 23 5 51 0;
#X connect 23 5 4 0;
#X connect 24 0 76 0;
#X connect 24 1 19 0;
#X connect 28 0 2 0;
#X connect 33 0 32 0;
#X connect 33 1 32 2;
#X connect 35 0 33 0;
#X connect 36 0 33 0;
#X connect 37 0 33 0;
#X connect 40 0 52 0;
#X connect 40 1 71 0;
#X connect 40 2 16 0;
#X connect 40 2 38 0;
#X connect 43 0 73 0;
#X connect 44 0 47 0;
#X connect 47 0 46 0;
#X connect 49 0 33 0;
#X connect 50 0 49 0;
#X connect 51 0 40 0;
#X connect 52 0 54 0;
#X connect 52 1 53 0;
#X connect 53 0 55 0;
#X connect 54 0 58 0;
#X connect 55 0 54 1;
#X connect 55 0 56 0;
#X connect 56 0 40 1;
#X connect 58 0 59 0;
#X connect 58 1 62 0;
#X connect 59 0 63 0;
#X connect 60 0 61 0;
#X connect 60 1 63 1;
#X connect 61 0 64 0;
#X connect 61 1 59 1;
#X connect 62 1 60 0;
#X connect 63 0 70 0;
#X connect 64 0 59 1;
#X connect 69 0 16 0;
#X connect 69 1 24 0;
#X connect 70 0 12 0;
#X connect 70 1 40 1;
#X connect 70 1 39 0;
#X connect 71 0 35 0;
#X connect 71 1 36 0;
#X connect 71 2 37 0;
#X connect 71 3 72 0;
#X connect 71 5 43 0;
#X connect 71 6 74 0;
#X connect 71 7 75 0;
#X connect 71 8 50 0;
#X connect 71 9 31 0;
#X connect 72 0 33 0;
#X connect 73 0 33 0;
#X connect 74 0 33 0;
#X connect 75 0 33 0;
#X connect 76 0 8 0;
#X connect 76 0 44 0;
#X restore 34 37 pd prepare_arguments;
#X obj 68 106 list split 1;
#X obj 62 129 cnv 5 5 17 empty empty empty 20 12 0 14 -173398 -66577
0;
#X obj 68 129 s \$0-arg1;
#X obj 34 61 list split 1;
#X obj 31 189 r \$0-remotename;
#X text 112 256 final list of arguments;
#X obj 68 83 t l l, f 7;
#X obj 31 210 t b;
#X obj 31 233 list store, f 13;
#X text 55 146 first: take care of remote name, f 16;
#X text 59 209 then do the rest;
#X text 265 19 ARGUMENTS: (defaults);
#X text 265 37 1.) remote name (none);
#X text 414 160 EXTRA ARGUMENTS: (defaults);
#X text 413 173 (can only be set via properties or attributes), f
27;
#X obj 326 408 list split 1;
#X obj 326 431 list prepend goplevel, f 13;
#X text 340 390 goplevel;
#X obj 31 256 t l l, f 12;
#X text 81 500 internal loadbang, f 8;
#X obj 31 508 s \$0-lb;
#X obj 31 484 del 10;
#X obj 25 508 cnv 5 5 17 empty empty empty 20 12 0 14 -173398 -66577
0;
#X obj 31 460 t b;
#X text 265 93 5.) font (1);
#X text 265 108 6.) font-size (10);
#X text 265 52 2.) width (120);
#X text 265 65 3.) height (20);
#X text 265 79 4.) border (2);
#X obj 431 101 s \$0-ol_entry;
#X text 407 272 11 .) goplevel (1);
#X text 413 222 8 .) color: bgnd-active (white);
#X text 413 237 9 .) color: text (black);
#X text 407 253 10 .) color: border (black);
#X obj 134 356 print \$0-ENTRY_ARGS;
#X obj 168 128 cnv 5 5 17 empty empty empty 20 12 0 14 -194593 -66577
0;
#X obj 174 128 s \$0-field-r;
#X msg 174 105 label;
#X obj 65 408 list split 3;
#X text 174 390 font;
#X obj 152 431 list prepend font, f 13;
#X obj 152 408 list split 2;
#X obj 240 408 list split 4;
#X text 412 207 7 .) color: bgnd (grey90);
#X connect 1 0 25 0;
#X connect 4 0 20 0;
#X connect 5 0 20 0;
#X connect 10 0 11 0;
#X connect 11 0 13 0;
#X connect 14 0 49 0;
#X connect 14 1 64 0;
#X connect 15 0 11 0;
#X connect 17 0 14 0;
#X connect 19 0 17 1;
#X connect 20 0 55 0;
#X connect 25 0 29 0;
#X connect 25 1 63 0;
#X connect 26 0 28 0;
#X connect 29 1 32 0;
#X connect 30 0 33 0;
#X connect 32 0 26 0;
#X connect 32 1 34 1;
#X connect 33 0 34 0;
#X connect 34 0 44 0;
#X connect 41 0 42 0;
#X connect 42 0 11 0;
#X connect 44 0 17 0;
#X connect 44 1 23 0;
#X connect 47 0 46 0;
#X connect 49 0 47 0;
#X connect 63 0 62 0;
#X connect 64 0 10 0;
#X connect 64 1 67 0;
#X connect 66 0 11 0;
#X connect 67 0 66 0;
#X connect 67 1 68 0;
#X connect 68 0 15 0;
#X connect 68 1 41 0;
#X restore 577 69 pd INIT;
#X obj 712 98 cnv 8 140 15 empty empty empty 20 12 0 14 -233024 -66577
0;
#X obj 861 283 cnv 5 5 17 empty empty empty 20 12 0 14 -194593 -66577
0;
#X obj 867 283 s \$0-lbinit;
#X obj 777 258 t b b b b, f 23;
#X obj 588 302 cnv 3 92 15 empty empty empty 2 7 0 9 -257985 -66577
0;
#N canvas 8 627 381 343 \$0-GOP-level 0;
#X obj 10 10 receivecanvas 2;
#X obj 25 50 route setbounds editmode;
#X obj 50 75 t b;
#X obj 50 98 canvasposition 1;
#X obj 10 320 s \$0-from_iemguts;
#X obj 120 10 r \$0-forcecanvasposition;
#X obj 50 122 list prepend canvasposition;
#X obj 50 145 list trim;
#X connect 0 0 1 0;
#X connect 0 0 4 0;
#X connect 1 0 2 0;
#X connect 1 1 2 0;
#X connect 2 0 3 0;
#X connect 3 0 6 0;
#X connect 5 0 2 0;
#X connect 6 0 7 0;
#X connect 7 0 4 0;
#X restore 587 301 pd \$0-GOP-level;
#X text 686 253 content is created dynamically from [pd gopguts] !
, f 11;
#X obj 771 187 cnv 5 5 17 empty empty empty 20 12 0 14 -260626 -66577
0;
#X obj 777 187 r ol_GUI_reinit;
#X text 769 167 force loadbang from outside;
#X obj 712 121 cnv 4 140 15 empty empty empty 20 12 0 14 -204800 -66577
0;
#X obj 711 120 text define \$0-defaults;
#X obj 577 329 cnv 3 63 15 empty empty empty 2 7 0 9 -257985 -66577
0;
#N canvas 729 50 1009 947 gopguts 0;
#X text 606 748 OUTLET MESSAGES:;
#X text 606 768 dropped [s];
#X text 606 779 drop_pos [f f];
#X text 606 790 gop_pos [f f];
#X text 608 801 mod [f];
#X text 608 821 mousestate [f];
#X text 608 831 mousedown [f f];
#X text 608 841 mouseup [f f];
#X text 607 870 hover [f f];
#X text 604 861 (needs activation);
#X text 607 811 pos [f f];
#X msg 20 128 1 1;
#X msg 47 128 1 0;
#X obj 56 155 unpack, f 10;
#X msg 74 128 0 1;
#X text 132 92 0 = all active;
#X obj 29 81 clip 0 3;
#X obj 29 104 sel 0 1 2 3;
#X msg 98 128 0 0;
#X text 132 125 3 = DND only;
#X text 132 103 1 = DND+MOUSE;
#X text 132 114 2 = DND+KEY;
#X text 607 880 hover_state [f];
#X floatatom 38 156 2 0 0 0 - - -;
#X floatatom 125 156 2 0 0 0 - - -;
#X msg 29 57 0;
#X text 56 56 or remove unnecessary parts !;
#X obj 211 19 cnv 10 140 20 empty empty needs_IEMGUTS 10 11 0 14 -4160
-262144 0;
#X obj 15 189 cnv 15 220 580 empty empty CHECK_COORDS 40 20 0 20 -257964
-4160 0;
#X obj 477 902 outlet;
#X obj 471 902 cnv 5 5 17 empty empty empty 20 12 0 14 -102336 -66577
0;
#X text 526 901 info;
#X obj 127 347 * 2;
#X obj 29 347 -;
#X obj 63 347 -;
#X obj 29 322 unpack 0 0 0;
#X obj 29 233 inlet;
#X obj 23 232 cnv 5 5 17 empty empty empty 20 12 0 14 -118750 -66577
0;
#X obj 29 377 pack 0 0 0, f 12;
#X obj 211 37 cnv 4 140 4 empty empty empty 10 11 0 14 -4160 -262144
0;
#X obj 29 551 pack 0 0 0 0 0, f 21;
#X obj 121 526 +;
#X obj 152 526 +;
#X obj 39 464 list store;
#X obj 110 464 list store;
#X obj 29 439 t b b b, f 14;
#X obj 39 489 unpack, f 7;
#X floatatom 127 364 5 0 0 0 - - -;
#X floatatom 159 364 5 0 0 0 - - -;
#X obj 281 717 list prepend set;
#X obj 281 734 list trim;
#X msg 281 756 28 357 144 373;
#X obj 511 756 unpack;
#X obj 511 779 -;
#X obj 544 779 -, f 6;
#X obj 511 827 pack, f 6;
#X obj 764 685 cnv 3 35 20 empty empty empty 20 12 0 14 -260097 -66577
0;
#X msg 769 686 1;
#X text 808 686 <--- GOP LEVEL:;
#X obj 246 98 cnv 5 5 17 empty empty empty 20 12 0 14 -260626 -66577
0;
#X obj 252 98 r \$0-from_iemguts;
#X obj 252 123 route canvasposition;
#X obj 16 216 cnv 5 150 5 empty empty empty 40 20 0 20 -262130 -4160
0;
#X obj 781 825 cnv 5 5 17 empty empty empty 20 12 0 14 -260626 -66577
0;
#X obj 787 825 r \$0-setgoplevel;
#X obj 770 855 cnv 5 70 15 empty empty empty 2 7 0 10 -257985 -66577
0;
#N canvas 509 163 372 475 dyn_guts 0;
#X obj 32 40 inlet;
#X obj 26 40 cnv 5 5 17 empty empty empty 20 12 0 14 -118750 -66577
0;
#X obj 45 370 cnv 5 5 17 empty empty empty 20 12 0 14 -194593 -66577
0;
#X msg 71 346 clear;
#X msg 76 41 1;
#X msg 105 41 2;
#X msg 134 41 3;
#X obj 51 370 s pd-\$0-GOP-level;
#X obj 26 430 cnv 5 5 17 empty empty empty 20 12 0 14 -194593 -66577
0;
#X obj 32 430 s \$0-forcecanvasposition;
#X obj 32 407 del 100;
#X obj 168 41 text define -k \$0-goplevel_1;
#A set obj 10 10 receivecanvas 2 \; obj 25 50 route setbounds editmode
\; obj 50 75 t b \; obj 50 98 canvasposition 1 \; -1 \; -2 \; obj 50
122 list prepend canvasposition \; obj 50 145 list trim \; connect
0 0 1 0 \; connect 0 0 4 0 \; connect 1 0 2 0 \; connect 1 1 2 0 \;
connect 2 0 3 0 \; connect 3 0 6 0 \; connect 5 0 2 0 \; connect 6
0 7 0 \; connect 7 0 4 0 \;;
#X obj 168 58 text define -k \$0-goplevel_2;
#A set obj 25 42 route setbounds editmode \; -1 \; -2 \; obj 10 10
receivecanvas 3 \; obj 50 100 canvasposition 2 \; obj 50 75 t b b \;
obj 101 75 canvasposition 1 \; obj 50 126 unpack \; obj 101 126 unpack
\; obj 50 153 + \; obj 101 152 + \; obj 50 177 pack \; obj 50 202 list
prepend canvasposition \; obj 50 225 list trim \; connect 0 0 5 0 \;
connect 0 1 5 0 \; connect 2 0 5 0 \; connect 3 0 0 0 \; connect 3
0 1 0 \; connect 4 0 7 0 \; connect 5 0 4 0 \; connect 5 1 6 0 \; connect
6 0 8 0 \; connect 7 0 9 0 \; connect 7 1 10 0 \; connect 8 0 9 1 \;
connect 8 1 10 1 \; connect 9 0 11 0 \; connect 10 0 11 1 \; connect
11 0 12 0 \; connect 12 0 13 0 \; connect 13 0 1 0 \;;
#X obj 168 75 text define -k \$0-goplevel_3;
#A set obj 25 42 route setbounds editmode \; -1 \; -2 \; obj 50 156
unpack \; obj 111 156 unpack \; obj 50 213 + \; obj 101 212 + \; obj
50 237 pack \; obj 50 262 list prepend canvasposition \; obj 50 285
list trim \; obj 10 10 receivecanvas 4 \; obj 50 129 canvasposition
3 \; obj 69 102 canvasposition 2 \; obj 50 75 t b b b \; obj 105 75
canvasposition 1 \; obj 165 156 unpack \; obj 111 183 + \; obj 163
184 + \; connect 0 0 13 0 \; connect 0 1 13 0 \; connect 2 0 13 0 \;
connect 3 0 5 0 \; connect 3 1 6 0 \; connect 4 0 16 0 \; connect 4
1 17 0 \; connect 5 0 7 0 \; connect 6 0 7 1 \; connect 7 0 8 0 \;
connect 8 0 9 0 \; connect 9 0 1 0 \; connect 10 0 0 0 \; connect 10
0 1 0 \; connect 11 0 3 0 \; connect 12 0 4 0 \; connect 13 0 11 0
\; connect 13 1 12 0 \; connect 13 2 14 0 \; connect 14 0 15 0 \; connect
15 0 16 1 \; connect 15 1 17 1 \; connect 16 0 5 1 \; connect 17 0
6 1 \;;
#X obj 51 181 text sequence \$0-goplevel_1;
#X msg 51 159 line 0 \, bang;
#X obj 51 203 list trim;
#X obj 51 226 route -1 -2;
#X obj 51 249 list 0 $;
#X obj 82 299 list 0 $;
#X msg 82 321 obj 120 10 r \$2\$1-forcecanvasposition;
#X obj 32 114 t b b b f, f 10;
#X obj 162 112 pack 0 \$0;
#X msg 162 134 symbol \$2-goplevel_\$1;
#X symbolatom 162 218 20 0 0 0 - - -;
#X msg 51 271 obj 10 320 s \$2\$1-from_iemguts;
#X text 185 20 ugly \, but necessary:;
#X obj 32 85 clip 1 3;
#X msg 148 413 bang;
#X connect 0 0 27 0;
#X connect 3 0 7 0;
#X connect 4 0 27 0;
#X connect 5 0 27 0;
#X connect 6 0 27 0;
#X connect 10 0 9 0;
#X connect 14 0 16 0;
#X connect 15 0 14 0;
#X connect 16 0 17 0;
#X connect 17 0 18 0;
#X connect 17 1 19 0;
#X connect 17 2 7 0;
#X connect 18 0 25 0;
#X connect 19 0 20 0;
#X connect 20 0 7 0;
#X connect 21 0 10 0;
#X connect 21 1 15 0;
#X connect 21 2 3 0;
#X connect 21 3 22 0;
#X connect 22 0 23 0;
#X connect 23 0 14 1;
#X connect 23 0 24 0;
#X connect 25 0 7 0;
#X connect 27 0 21 0;
#X connect 28 0 9 0;
#X restore 769 854 pd dyn_guts;
#X obj 29 400 t b l;
#X obj 252 148 t b l;
#X obj 29 256 route hover;
#X obj 29 279 route float;
#X text 28 303 width/height/border;
#X obj 23 623 cnv 5 5 17 empty empty empty 20 12 0 14 -260626 -66577
0;
#X obj 24 738 cnv 5 5 17 empty empty empty 20 12 0 14 -194593 -66577
0;
#X obj 722 190 cnv 15 270 400 empty empty MODIFIER_KEYS 55 20 0 20
-204786 -4160 0;
#X obj 730 286 route key;
#X msg 730 309 \$2 \$1;
#X obj 730 333 route Shift_L Shift_R Control_L Control_R;
#X msg 766 386 1;
#X obj 766 365 sel 1;
#X obj 766 414 change;
#X obj 806 365 t b f;
#X msg 806 386 set -1;
#X msg 883 386 1;
#X obj 883 365 sel 1;
#X obj 883 414 change;
#X obj 923 365 t b f;
#X msg 923 386 set -1;
#X obj 766 440 t b f;
#X obj 883 440 t b f;
#X obj 809 477 pack 0 0 0;
#X obj 809 502 unpack 0 0 0;
#X obj 843 527 +;
#X obj 878 527 * 2;
#X msg 843 552 mod \$1;
#X obj 730 263 spigot;
#X obj 444 190 cnv 15 270 530 empty empty MOUSE_&_HOVER 50 20 0 20
-245184 -4160 0;
#X obj 457 316 list split 2;
#X obj 487 264 route motion mouse mouseup, f 27;
#X obj 540 316 list split 2;
#X obj 628 316 list split 2;
#X obj 487 238 spigot;
#X text 574 582 no hover messages when mouse down, f 17;
#X obj 540 487 spigot;
#X obj 561 401 cnv 5 5 17 empty empty empty 20 12 0 14 -194593 -66577
0;
#X obj 494 431 cnv 5 5 17 empty empty empty 20 12 0 14 -260626 -66577
0;
#X msg 596 500 0, f 1;
#X obj 29 623 r \$0-cggb;
#X obj 30 738 s \$0-ggbs;
#X text 51 595 check gopguts bounds:;
#X text 93 738 gopguts bounds state;
#X obj 567 401 s \$0-cggb;
#X msg 86 422 bang;
#X obj 29 646 list split 2, f 13;
#X obj 30 714 list prepend;
#X obj 540 346 t l l;
#X obj 538 473 tgl 8 0 empty empty empty 17 7 0 10 -262144 -1 -1 0
1;
#X obj 595 473 tgl 8 0 empty empty empty 17 7 0 10 -262144 -1 -1 0
1;
#X obj 500 431 r \$0-ggbs;
#X obj 458 293 cnv 4 110 15 empty empty empty 2 7 0 10 -257985 -66577
0;
#N canvas 1293 496 331 252 speedlim_motion 0;
#X obj 25 15 inlet;
#X obj 25 215 outlet;
#X obj 19 15 cnv 5 5 17 empty empty empty 20 12 0 14 -118750 -66577
0;
#X obj 19 215 cnv 5 5 17 empty empty empty 20 12 0 14 -102336 -66577
0;
#X obj 25 169 metro 100;
#X msg 80 137 0;
#X msg 25 138 1;
#X obj 25 192 list append;
#X obj 25 71 spigot 1;
#X obj 99 71 == 0;
#X obj 25 38 t a b a, f 19;
#X obj 166 37 20;
#X obj 151 104 delay, f 6;
#X obj 160 13 cnv 5 5 17 empty empty empty 20 12 0 14 -260626 -66577
0;
#X obj 166 13 r \$0-lbinit;
#X connect 0 0 10 0;
#X connect 4 0 7 0;
#X connect 5 0 4 0;
#X connect 5 0 9 0;
#X connect 6 0 4 0;
#X connect 6 0 9 0;
#X connect 7 0 1 0;
#X connect 8 0 6 0;
#X connect 9 0 8 1;
#X connect 10 0 8 0;
#X connect 10 1 12 0;
#X connect 10 2 7 1;
#X connect 11 0 4 1;
#X connect 11 0 12 1;
#X connect 12 0 5 0;
#X connect 14 0 11 0;
#X restore 457 291 pd speedlim_motion;
#X obj 467 361 t l l;
#X obj 500 456 route 2 3 4, f 29;
#X obj 467 487 spigot;
#X obj 457 512 t l b;
#X msg 518 500 0, f 1;
#X obj 500 472 tgl 8 0 empty empty empty 17 7 0 10 -262144 -1 -1 0
1;
#X obj 477 878 list trim;
#X obj 628 541 list prepend mouseup, f 12;
#X obj 540 541 list prepend mousedown, f 12;
#X obj 477 618 list prepend pos, f 17;
#X obj 477 731 list split 1;
#X obj 477 595 spigot;
#X obj 510 575 tgl 15 0 empty empty empty 17 7 0 10 -262144 -1 -1 0
1;
#X obj 540 511 t l b b;
#X msg 510 541 1, f 2;
#X obj 457 693 list prepend hover;
#X obj 538 590 == 0;
#X obj 457 647 spigot;
#X obj 458 672 cnv 4 105 15 empty empty empty 2 7 0 10 -257985 -66577
0;
#N canvas 1293 496 333 340 speedlim_hover 0;
#X obj 25 15 inlet;
#X obj 25 285 outlet;
#X obj 19 15 cnv 5 5 17 empty empty empty 20 12 0 14 -118750 -66577
0;
#X obj 19 285 cnv 5 5 17 empty empty empty 20 12 0 14 -102336 -66577
0;
#X obj 25 239 metro 100;
#X msg 80 207 0;
#X msg 25 208 1;
#X obj 25 262 list append;
#X obj 25 141 spigot 1;
#X obj 99 141 == 0;
#X obj 25 108 t a b a, f 19;
#X obj 167 107 20;
#X obj 151 174 delay, f 6;
#X obj 167 14 inlet;
#X obj 161 14 cnv 5 5 17 empty empty empty 20 12 0 14 -118750 -66577
0;
#X obj 25 83 spigot;
#X obj 58 59 > 0;
#X obj 167 57 clip 20 1000;
#X connect 0 0 15 0;
#X connect 4 0 7 0;
#X connect 5 0 4 0;
#X connect 5 0 9 0;
#X connect 6 0 4 0;
#X connect 6 0 9 0;
#X connect 7 0 1 0;
#X connect 8 0 6 0;
#X connect 9 0 8 1;
#X connect 10 0 8 0;
#X connect 10 1 12 0;
#X connect 10 2 7 1;
#X connect 11 0 4 1;
#X connect 11 0 12 1;
#X connect 12 0 5 0;
#X connect 13 0 16 0;
#X connect 13 0 17 0;
#X connect 15 0 10 0;
#X connect 16 0 15 1;
#X connect 17 0 11 0;
#X restore 457 670 pd speedlim_hover;
#X obj 444 219 cnv 3 270 3 empty empty empty 0 0 0 20 -245184 -4160
0;
#X obj 598 680 list prepend mousestate, f 13;
#X obj 722 218 cnv 3 270 3 empty empty empty 55 20 0 20 -204786 -4160
0;
#X text 114 9 set mode manually here !, f 8;
#X text 132 77 MODES:;
#X obj 39 526 +;
#X obj 78 526 +;
#X obj 110 489 unpack 0 0 0, f 15;
#X floatatom 197 511 3 0 0 0 - - -;
#X obj 29 598 bng 15 250 50 0 empty empty empty 17 7 0 10 -262144 -1
-1;
#X obj 494 384 list 2, f 7;
#X obj 567 372 list 3;
#X obj 483 803 clip 0 1;
#X obj 544 803 clip 0 1;
#X obj 477 852 list append;
#X msg 685 346 0, f 2;
#X obj 479 341 cnv 8 16 12 empty empty * 3 9 0 16 -128992 -257985 0
;
#X obj 259 783 cnv 8 16 12 empty empty * 3 9 0 16 -128992 -257985 0
;
#X text 278 778 connect this list to the [t b b] object if the mouse
motion coordinates must be within the GOP's coordinates. for some objects
like [ol_grid] \, [ol_rslider] \, the mouse position must also be refleted
if it's outside the GOP boundaries., f 25;
#X text 734 544 1 = Shift;
#X text 734 554 2 = Strg;
#X text 734 564 3 = Shift+Strg;
#X obj 628 346 t l l b;
#X obj 647 384 list 4;
#X obj 628 486 spigot;
#X msg 684 499 0, f 1;
#X obj 628 510 t l b b;
#X msg 647 619 0, f 1;
#X obj 30 671 cnv 3 85 15 empty empty empty 2 7 0 10 -257985 -66577
0;
#N canvas 0 50 388 358 checkregion 0;
#X obj 25 50 inlet;
#X obj 127 281 outlet;
#X obj 19 50 cnv 5 5 17 empty empty empty 20 12 0 14 -118750 -66577
0;
#X obj 121 281 cnv 5 5 17 empty empty empty 20 12 0 14 -102336 -66577
0;
#X text 15 11 check this coordinate, f 10;
#X obj 133 49 inlet;
#X obj 127 49 cnv 5 5 17 empty empty empty 20 12 0 14 -118750 -66577
0;
#X text 179 49 check region;
#X text 180 281 1 if region is valid;
#X obj 133 115 unpack 0 0 0 0, f 33;
#X text 136 133 x start;
#X text 270 133 x end;
#X text 207 133 y start;
#X text 324 132 y end;
#X obj 52 115 unpack, f 7;
#X text 61 133 x;
#X text 99 132 y;
#X obj 127 257 &&, f 10;
#X obj 118 186 t f f;
#X obj 157 186 t f f;
#X obj 127 233 &&;
#X obj 184 233 &&;
#X obj 118 210 >=;
#X obj 146 210 <=;
#X obj 176 210 >=;
#X obj 206 210 <=;
#X obj 25 313 outlet;
#X obj 19 313 cnv 5 5 17 empty empty empty 20 12 0 14 -102336 -66577
0;
#X text 72 312 list out;
#X obj 25 274 spigot;
#X obj 25 73 t l l;
#X connect 0 0 30 0;
#X connect 5 0 9 0;
#X connect 9 0 22 1;
#X connect 9 1 24 1;
#X connect 9 2 23 1;
#X connect 9 3 25 1;
#X connect 14 0 18 0;
#X connect 14 1 19 0;
#X connect 17 0 1 0;
#X connect 17 0 29 1;
#X connect 18 0 22 0;
#X connect 18 1 23 0;
#X connect 19 0 24 0;
#X connect 19 1 25 0;
#X connect 20 0 17 0;
#X connect 21 0 17 1;
#X connect 22 0 20 0;
#X connect 23 0 20 1;
#X connect 24 0 21 0;
#X connect 25 0 21 1;
#X connect 29 0 26 0;
#X connect 30 0 29 0;
#X connect 30 1 14 0;
#X restore 29 670 pd checkregion;
#X obj 29 574 list split 1;
#X obj 133 645 list split 2;
#X obj 133 669 unpack;
#X text 775 712 this number dynamically creates the right [receivecanvas]
and [canvasposition] objects in subpatch [\$0-GOP-level]. set to "1"
if the abstraction is on parent's top level or to "2" when it's inside
another GOP (or "3" for one level deeper., f 31;
#X obj 763 660 cnv 5 5 17 empty empty empty 20 12 0 14 -260626 -66577
0;
#X obj 769 660 r \$0-lbinit;
#X obj 275 693 cnv 5 5 17 empty empty empty 20 12 0 14 -260626 -66577
0;
#X obj 281 693 r \$0-lbinit;
#X obj 23 33 cnv 5 5 17 empty empty empty 20 12 0 14 -260626 -66577
0;
#X obj 29 33 r \$0-lbinit;
#X connect 11 0 13 0;
#X connect 12 0 13 0;
#X connect 13 0 23 0;
#X connect 13 0 101 1;
#X connect 13 1 24 0;
#X connect 13 1 95 1;
#X connect 14 0 13 0;
#X connect 16 0 17 0;
#X connect 17 0 11 0;
#X connect 17 1 12 0;
#X connect 17 2 14 0;
#X connect 17 3 18 0;
#X connect 18 0 13 0;
#X connect 25 0 16 0;
#X connect 32 0 34 1;
#X connect 32 0 33 1;
#X connect 33 0 38 0;
#X connect 33 0 47 0;
#X connect 34 0 38 1;
#X connect 34 0 48 0;
#X connect 35 0 33 0;
#X connect 35 1 34 0;
#X connect 35 2 32 0;
#X connect 35 2 38 2;
#X connect 36 0 69 0;
#X connect 38 0 67 0;
#X connect 40 0 171 0;
#X connect 41 0 40 3;
#X connect 42 0 40 4;
#X connect 43 0 46 0;
#X connect 44 0 148 0;
#X connect 45 0 40 0;
#X connect 45 1 43 0;
#X connect 45 2 44 0;
#X connect 46 0 146 0;
#X connect 46 1 147 0;
#X connect 49 0 50 0;
#X connect 50 0 51 0;
#X connect 52 0 53 0;
#X connect 52 1 54 0;
#X connect 53 0 153 0;
#X connect 54 0 154 0;
#X connect 55 0 155 1;
#X connect 57 0 66 0;
#X connect 60 0 61 0;
#X connect 61 0 68 0;
#X connect 61 1 101 0;
#X connect 61 1 95 0;
#X connect 64 0 66 0;
#X connect 67 0 45 0;
#X connect 67 1 44 1;
#X connect 68 0 45 0;
#X connect 68 1 43 1;
#X connect 69 0 70 0;
#X connect 69 1 35 0;
#X connect 70 0 140 1;
#X connect 75 0 76 0;
#X connect 76 0 77 0;
#X connect 77 0 79 0;
#X connect 77 1 79 0;
#X connect 77 2 84 0;
#X connect 77 3 84 0;
#X connect 78 0 80 0;
#X connect 79 0 78 0;
#X connect 79 1 81 0;
#X connect 80 0 88 0;
#X connect 81 0 82 0;
#X connect 81 1 88 0;
#X connect 82 0 80 0;
#X connect 83 0 85 0;
#X connect 84 0 83 0;
#X connect 84 1 86 0;
#X connect 85 0 89 0;
#X connect 86 0 87 0;
#X connect 86 1 89 0;
#X connect 87 0 85 0;
#X connect 88 0 90 0;
#X connect 88 1 90 1;
#X connect 89 0 90 0;
#X connect 89 1 90 2;
#X connect 90 0 91 0;
#X connect 91 1 92 0;
#X connect 91 2 93 0;
#X connect 92 0 94 0;
#X connect 93 0 92 1;
#X connect 94 0 127 0;
#X connect 95 0 75 0;
#X connect 97 0 121 0;
#X connect 98 0 120 0;
#X connect 98 1 99 0;
#X connect 98 2 100 0;
#X connect 99 0 115 0;
#X connect 100 0 163 0;
#X connect 101 0 98 0;
#X connect 103 0 134 0;
#X connect 106 0 103 1;
#X connect 107 0 113 0;
#X connect 112 0 45 0;
#X connect 113 0 170 0;
#X connect 113 1 114 1;
#X connect 114 0 108 0;
#X connect 115 0 103 0;
#X connect 115 1 152 0;
#X connect 118 0 122 0;
#X connect 120 0 97 0;
#X connect 121 0 123 0;
#X connect 121 1 151 0;
#X connect 122 0 126 0;
#X connect 122 0 123 1;
#X connect 122 1 103 1;
#X connect 122 1 116 0;
#X connect 122 2 117 0;
#X connect 122 2 165 1;
#X connect 123 0 124 0;
#X connect 124 0 132 0;
#X connect 124 0 138 0;
#X connect 124 1 125 0;
#X connect 125 0 123 1;
#X connect 127 0 29 0;
#X connect 128 0 131 0;
#X connect 129 0 131 0;
#X connect 130 0 131 0;
#X connect 131 0 155 0;
#X connect 131 1 52 0;
#X connect 132 0 130 0;
#X connect 133 0 132 1;
#X connect 133 0 137 0;
#X connect 134 0 129 0;
#X connect 134 0 132 0;
#X connect 134 1 135 0;
#X connect 134 2 106 0;
#X connect 135 0 133 0;
#X connect 135 0 142 0;
#X connect 136 0 131 0;
#X connect 137 0 138 1;
#X connect 138 0 140 0;
#X connect 140 0 136 0;
#X connect 142 0 127 0;
#X connect 146 0 40 1;
#X connect 146 0 41 0;
#X connect 147 0 40 2;
#X connect 147 0 42 0;
#X connect 148 0 41 1;
#X connect 148 0 153 2;
#X connect 148 1 42 1;
#X connect 148 1 154 2;
#X connect 148 2 147 1;
#X connect 148 2 146 1;
#X connect 148 2 149 0;
#X connect 151 0 111 0;
#X connect 152 0 111 0;
#X connect 153 0 55 0;
#X connect 154 0 55 1;
#X connect 155 0 127 0;
#X connect 156 0 133 0;
#X connect 163 0 165 0;
#X connect 163 1 164 0;
#X connect 163 2 156 0;
#X connect 164 0 111 0;
#X connect 165 0 167 0;
#X connect 166 0 165 1;
#X connect 167 0 128 0;
#X connect 167 1 168 0;
#X connect 167 2 166 0;
#X connect 168 0 142 0;
#X connect 170 1 114 0;
#X connect 171 0 150 0;
#X connect 171 1 170 1;
#X connect 171 1 172 0;
#X connect 171 1 49 0;
#X connect 172 0 173 0;
#X connect 173 0 53 1;
#X connect 173 1 54 1;
#X connect 176 0 57 0;
#X connect 178 0 49 0;
#X connect 180 0 25 0;
#X restore 576 328 pd gopguts;
#X msg 822 283 init;
#X obj 711 8 cnv 10 190 20 empty empty needs_IEMGUTS_&_ZEXY 10 11 0
14 -4160 -262144 0;
#X obj 711 24 cnv 4 190 4 empty empty empty 10 11 0 14 -4160 -262144
0;
#X obj 704 37 cnv 14 250 50 empty empty empty 2 2 0 9 -253181 -66577
0;
#X obj 711 46 declare -stdpath iemguts -path iemguts;
#X obj 578 199 cnv 10 70 15 empty empty empty 2 7 0 9 -257985 -66577
0;
#N canvas 48 523 661 404 messages 1;
#X obj 31 39 r \$0-in;
#X obj 158 87 route list bang, f 16;
#X obj 31 86 route list bang;
#X obj 25 39 cnv 5 5 17 empty empty empty 20 12 0 14 -260626 -66577
0;
#X obj 52 351 cnv 5 5 17 empty empty empty 20 12 0 14 -194593 -66577
0;
#X obj 31 154 cnv 3 45 15 empty empty empty 2 7 0 9 -257985 -66577
0;
#N canvas 984 402 733 528 size 0;
#X obj 41 23 inlet;
#X obj 35 23 cnv 5 5 17 empty empty empty 20 12 0 14 -118750 -66577
0;
#X obj 69 170 sel 0;
#X obj 144 170 sel 0;
#X obj 229 170 sel 0;
#X obj 144 245 t f f;
#X obj 78 337 f;
#X obj 104 337 f;
#X obj 84 309 sel 0 1;
#X obj 84 283 <, f 5;
#X obj 69 214 clip 30 500;
#X obj 229 214 clip 0 50;
#X obj 41 47 t l l;
#X obj 171 64 list split 2;
#X obj 41 73 list split 2;
#X obj 171 90 unpack;
#X obj 69 246 t b f f;
#X obj 259 132 unpack;
#X text 72 151 width;
#X text 145 149 height;
#X text 221 149 border size;
#X obj 41 402 t b b;
#X obj 282 490 cnv 5 5 17 empty empty empty 20 12 0 14 -194593 -66577
0;
#X text 96 385 border max 1/6 von kurzer seite \;, f 20;
#X obj 400 156 cnv 5 5 17 empty empty empty 20 12 0 14 -194593 -66577
0;
#X obj 301 45 cnv 5 5 17 empty empty empty 20 12 0 14 -194593 -66577
0;
#X obj 307 45 s \$0-bgnd-r;
#X obj 406 156 s \$0-field-r;
#X msg 307 22 pos 0 0 \, vis_size 120 20 \, color 22 22 22;
#X msg 398 66 label test;
#X msg 360 111 pos 2 2 \, vis_size 116 16 \, color 10 22 22 \, label_font
1 10 \, label_pos 5 8;
#X msg 69 192 120;
#X msg 144 192 20;
#X msg 229 192 2;
#X obj 144 214 clip 15 300;
#X obj 94 365 expr int($f1 * 0.17);
#X obj 254 419 pack 0 0 0 0;
#X obj 254 442 list split 1;
#X obj 288 490 s \$0-GOP;
#X msg 100 18 200 40 200;
#X msg 542 250 vis_size \$1 \$2;
#X obj 536 273 cnv 5 5 17 empty empty empty 20 12 0 14 -194593 -66577
0;
#X obj 542 273 s \$0-bgnd-r;
#X obj 288 467 t l l;
#X obj 377 428 cnv 5 5 17 empty empty empty 20 12 0 14 -194593 -66577
0;
#X obj 383 428 s \$0-field-r;
#X obj 465 263 * 2;
#X obj 383 240 unpack 0 0 0;
#X obj 383 264 -;
#X obj 413 264 -;
#X obj 383 217 t l l, f 27;
#X msg 383 404 pos \$3 \$3 \, vis_size \$1 \$2 \, label_pos 5 \$4;
#X obj 383 381 pack 0 0 0 0;
#X obj 464 316 / 2;
#X msg 476 66 label;
#X connect 0 0 12 0;
#X connect 2 0 31 0;
#X connect 2 1 10 0;
#X connect 3 0 32 0;
#X connect 3 1 34 0;
#X connect 4 0 33 0;
#X connect 4 1 11 0;
#X connect 5 0 9 0;
#X connect 5 1 7 1;
#X connect 6 0 35 0;
#X connect 7 0 35 0;
#X connect 8 0 6 0;
#X connect 8 1 7 0;
#X connect 9 0 8 0;
#X connect 10 0 16 0;
#X connect 10 0 36 1;
#X connect 11 0 36 3;
#X connect 12 0 14 0;
#X connect 12 1 13 0;
#X connect 13 0 15 0;
#X connect 14 0 21 0;
#X connect 14 1 17 0;
#X connect 15 0 2 0;
#X connect 15 1 3 0;
#X connect 16 0 9 0;
#X connect 16 1 9 1;
#X connect 16 2 6 1;
#X connect 17 0 4 0;
#X connect 21 1 36 0;
#X connect 28 0 26 0;
#X connect 29 0 27 0;
#X connect 30 0 27 0;
#X connect 31 0 10 0;
#X connect 32 0 34 0;
#X connect 33 0 11 0;
#X connect 34 0 5 0;
#X connect 34 0 36 2;
#X connect 35 0 11 2;
#X connect 36 0 37 0;
#X connect 37 1 43 0;
#X connect 39 0 12 0;
#X connect 40 0 42 0;
#X connect 43 0 38 0;
#X connect 43 1 50 0;
#X connect 46 0 49 1;
#X connect 46 0 48 1;
#X connect 47 0 48 0;
#X connect 47 1 49 0;
#X connect 47 2 46 0;
#X connect 47 2 52 2;
#X connect 48 0 52 0;
#X connect 49 0 52 1;
#X connect 49 0 53 0;
#X connect 50 0 47 0;
#X connect 50 1 40 0;
#X connect 51 0 45 0;
#X connect 52 0 51 0;
#X connect 53 0 52 3;
#X restore 31 153 pd size;
#X obj 280 88 cnv 5 5 17 empty empty empty 20 12 0 14 -194593 -66577
0;
#X obj 286 88 s \$0-setgoplevel;
#X obj 95 293 cnv 3 73 15 empty empty empty 2 7 0 9 -257985 -66577
0;
#N canvas 227 108 649 654 colorlist 0;
#X obj 37 19 inlet;
#X obj 131 104 list;
#X obj 131 53 t b a;
#X text 168 96 <-- in case the list consists of symbols only, f 24
;
#X obj 131 33 bng 15 250 50 0 empty empty empty 17 7 0 10 -262144 -1
-1;
#X obj 37 54 route bang;
#X obj 380 32 r \$0-defaultslist;
#X obj 37 104 list store;
#X obj 369 57 cnv 15 250 50 empty empty <---adapt 170 25 0 14 -232576
-66577 0;
#X text 495 83 color;
#X text 151 31 list can have up to 5 elements;
#X text 509 11 tk color names, f 16;
#X obj 498 33 cnv 15 122 15 empty empty empty 20 12 0 14 -180224 -66577
0;
#X obj 497 32 text define -k \$0-tk;
#A set aquamarine 127 255 212 \; azure 240 255 255 \; beige 245 245
220 \; bisque 255 228 196 \; black 0 0 0 \; blue 0 0 255 \; BlueViolet
138 43 226 \; brown 165 42 42 \; CadetBlue 95 158 160 \; chartreuse
127 255 0 \; chocolate 210 105 30 \; coral 255 127 80 \; CornflowerBlue
100 149 237 \; crymson 220 20 60 \; cyan 0 255 255 \; DarkBlue 0 0
139 \; DarkCyan 0 139 139 \; DarkGoldenrod 184 134 11 \; DarkGreen
0 100 0 \; DarkGrey 169 169 169 \; DarkMagenta 139 0 139 \; DarkOrange
255 140 0 \; DarkOrchid 153 50 204 \; DarkRed 139 0 0 \; DarkSeaGreen
143 188 143 \; DarkTurquoise 0 206 209 \; DarkViolet 148 0 211 \; DeepPink
255 20 147 \; DeepSkyBlue 0 191 255 \; DodgerBlue 30 144 255 \; firebrick
178 34 34 \; fuchsia 255 0 255 \; GhostWhite 248 248 255 \; gold 255
215 0 \; green 0 255 0 \; GreenYellow 173 255 47 \; grey 190 190 190
\; grey10 26 26 26 \; grey20 51 51 51 \; grey30 77 77 77 \; grey40
102 102 102 \; grey50 127 127 127 \; grey60 153 153 153 \; grey70 179
179 179 \; grey80 204 204 204 \; grey90 229 229 229 \; khaki 240 230
140 \; lavender 230 230 250 \; LightBlue 173 216 230 \; LightCoral
240 128 128 \; LightCyan 224 255 255 \; LightGreen 144 238 144 \; LightSeaGreen
32 178 170 \; LightSkyBlue 135 206 250 \; LightSlateBlue 132 112 255
\; LightYellow 255 255 224 \; lime 0 255 0 \; LimeGreen 50 205 50 \;
linen 250 240 230 \; magenta 255 0 255 \; maroon 176 48 96 \; MediumAquamarine
102 205 170 \; MediumBlue 0 0 205 \; MediumOrchid 186 85 211 \; MediumPurple
147 112 219 \; MediumSeaGreen 60 179 113 \; MediumTurquoise 72 209
204 \; MediumVioletRed 199 21 133 \; MintCream 245 255 250 \; MistyRose
255 228 225 \; moccasin 255 228 181 \; OldLace 253 245 230 \; orange
255 165 0 \; OrangeRed 255 69 0 \; orchid 218 112 214 \; PaleGreen
152 251 152 \; PaleTurquoise 175 238 238 \; PaleVioletRed 219 112 147
\; pink 255 192 203 \; plum 221 160 221 \; purple 160 32 240 \; red
255 0 0 \; RosyBrown 188 143 143 \; RoyalBlue 65 105 225 \; SaddleBrown
139 69 19 \; salmon 250 128 114 \; SandyBrown 244 164 96 \; SeaGreen
46 139 87 \; seashell 255 245 238 \; sienna 160 82 45 \; silver 192
192 192 \; SkyBlue 135 206 235 \; SlateBlue 106 90 205 \; SlateGray
112 128 144 \; snow 255 250 250 \; SpringGreen3 0 205 102 \; SpringGreen
0 255 127 \; SteelBlue 70 130 180 \; teal 0 128 128 \; thistle 216
191 216 \; tomato 255 99 71 \; turquoise 64 224 208 \; violet 238 130
238 \; VioletRed 208 32 144 \; wheat 245 222 179 \; white 255 255 255
\; WhiteSmoke 245 245 245 \; yellow 255 255 0 \;;
#X obj 31 19 cnv 5 5 17 empty empty empty 20 12 0 14 -118750 -66577
0;
#X obj 374 32 cnv 5 5 17 empty empty empty 20 12 0 14 -260626 -66577
0;
#X obj 85 193 route float symbol, f 37;
#X obj 178 502 list prepend 0, f 16;
#X obj 160 572 route 0;
#X obj 178 475 expr ($f1*(-65536)+$f2*(-256)+$f3*(-1))-1, f 42;
#X msg 85 458 255 255 255;
#X text 295 439 calculate number from RGB values, f 16;
#X obj 237 371 text search \$0-tk;
#X obj 284 394 text get \$0-tk;
#X obj 237 394 sel -1;
#X obj 284 416 list split 1;
#X obj 85 434 sel 0;
#X obj 178 525 route 1 2 3 4 5, f 16;
#X obj 160 549 pack 0 0 0 0 0 0;
#X obj 86 138 cnv 3 80 15 empty empty empty 2 7 0 10 -257985 -66577
0;
#X obj 122 163 + 1;
#N canvas 0 50 341 254 drip+index 0;
#X obj 33 15 inlet;
#X obj 33 165 list store, f 15;
#X obj 33 59 until;
#X obj 33 81 f;
#X obj 63 81 + 1;
#X msg 33 133 get \$1 1;
#X obj 76 60 0;
#X obj 33 197 outlet;
#X obj 134 196 outlet;
#X obj 33 37 t b b a, f 15;
#X text 177 17 needs pd 0.48 !;
#X text 175 56 like [zl iter] or ZEXY's [drip], f 19;
#X obj 84 197 outlet;
#X obj 33 104 t f f;
#X text 33 222 item;
#X text 86 222 index;
#X text 140 221 finish;
#X connect 0 0 9 0;
#X connect 1 0 7 0;
#X connect 1 1 8 0;
#X connect 1 1 2 1;
#X connect 2 0 3 0;
#X connect 3 0 4 0;
#X connect 3 0 13 0;
#X connect 4 0 3 1;
#X connect 5 0 1 0;
#X connect 6 0 3 1;
#X connect 9 0 2 0;
#X connect 9 1 6 0;
#X connect 9 2 1 1;
#X connect 13 0 5 0;
#X connect 13 1 12 0;
#X restore 85 137 pd drip+index;
#X msg 178 435 0 0 0;
#X text 177 415 default black;
#X obj 135 329 s2l _;
#X obj 135 354 route list;
#X text 185 320 if symbol is a list seperated by _ \, interpret them
as RGB values, f 35;
#X obj 211 289 list store, f 13;
#X obj 194 215 sel _ . -;
#X obj 211 244 f;
#X msg 211 266 get \$1 1;
#X text 263 216 if symbol is "_" or "." or "-" \, use default value
, f 28;
#X obj 160 605 outlet;
#X obj 154 605 cnv 5 5 17 empty empty empty 20 12 0 14 -102336 -66577
0;
#X obj 408 113 cnv 5 5 17 empty empty empty 20 12 0 14 -194593 -66577
0;
#X obj 414 113 s \$0-defaultcolors;
#X obj 280 266 cnv 5 5 17 empty empty empty 20 12 0 14 -260626 -66577
0;
#X obj 286 266 r \$0-defaultcolors;
#X obj 88 80 cnv 5 5 17 empty empty empty 20 12 0 14 -260626 -66577
0;
#X obj 94 80 r \$0-defaultcolors;
#X obj 414 84 list split 4;
#X obj 380 61 list split 6;
#X connect 0 0 5 0;
#X connect 1 0 31 0;
#X connect 2 0 1 0;
#X connect 2 1 1 1;
#X connect 5 0 7 0;
#X connect 5 1 4 0;
#X connect 5 1 2 0;
#X connect 6 0 51 0;
#X connect 7 0 31 0;
#X connect 16 0 26 0;
#X connect 16 1 38 0;
#X connect 17 0 27 0;
#X connect 18 0 42 0;
#X connect 19 0 17 0;
#X connect 20 0 19 0;
#X connect 22 0 24 0;
#X connect 23 0 25 0;
#X connect 24 0 32 0;
#X connect 24 1 23 0;
#X connect 25 1 19 0;
#X connect 26 0 20 0;
#X connect 26 1 17 0;
#X connect 27 0 28 1;
#X connect 27 1 28 2;
#X connect 27 2 28 3;
#X connect 27 3 28 4;
#X connect 27 4 28 5;
#X connect 28 0 18 0;
#X connect 30 0 17 1;
#X connect 31 0 16 0;
#X connect 31 1 30 0;
#X connect 31 1 39 1;
#X connect 31 2 28 0;
#X connect 32 0 19 0;
#X connect 34 0 35 0;
#X connect 35 0 19 0;
#X connect 35 1 22 0;
#X connect 37 0 34 0;
#X connect 38 0 39 0;
#X connect 38 1 39 0;
#X connect 38 2 39 0;
#X connect 38 3 34 0;
#X connect 39 0 40 0;
#X connect 40 0 37 0;
#X connect 47 0 37 1;
#X connect 49 0 7 1;
#X connect 50 0 45 0;
#X connect 51 1 50 0;
#X restore 94 292 pd colorlist;
#X msg 43 117 120 20 2;
#X obj 158 111 unpack;
#X obj 203 177 clip 10 50;
#X msg 144 223 label_font \$1 \$2;
#X obj 144 200 pack, f 10;
#X obj 138 245 cnv 5 5 17 empty empty empty 20 12 0 14 -194593 -66577
0;
#X obj 144 245 s \$0-field-r;
#X obj 58 351 s \$0-field-r;
#X obj 156 352 s \$0-bgnd-r;
#X obj 150 352 cnv 5 5 17 empty empty empty 20 12 0 14 -194593 -66577
0;
#X msg 156 326 color \$4 \$4 \$4;
#X msg 58 326 color \$1 \$3 \$3;
#X obj 265 309 cnv 5 5 17 empty empty empty 20 12 0 14 -194593 -66577
0;
#X obj 271 309 s \$0-colorslist;
#X obj 286 127 l2s;
#X obj 280 177 cnv 5 5 17 empty empty empty 20 12 0 14 -194593 -66577
0;
#X obj 286 177 s \$0-setsym;
#X obj 344 119 cnv 5 5 17 empty empty empty 20 12 0 14 -194593 -66577
0;
#X obj 350 119 s \$0-printsym;
#X obj 445 235 text delete \$0-sym;
#X msg 445 200 -1;
#X obj 386 259 cnv 5 5 17 empty empty empty 20 12 0 14 -194593 -66577
0;
#X obj 392 259 s \$0-field-r;
#X msg 392 200 label;
#X obj 414 154 t b b;
#X obj 286 150 list fromsymbol;
#X obj 144 150 - 1;
#X obj 144 177 clip 0 2;
#X msg 204 111 2 10;
#X obj 31 63 route size colors font set goplevel bang clear list,
f 86;
#X obj 544 89 l2s;
#X msg 544 111 ::: "\$1" ::: message not defined !, f 13;
#X obj 544 163 print [OL_ENTRY];
#X connect 0 0 40 0;
#X connect 1 0 12 0;
#X connect 1 1 39 0;
#X connect 2 0 6 0;
#X connect 2 1 11 0;
#X connect 10 0 21 0;
#X connect 10 0 22 0;
#X connect 10 0 24 0;
#X connect 11 0 6 0;
#X connect 12 0 37 0;
#X connect 12 1 13 0;
#X connect 13 0 15 1;
#X connect 14 0 17 0;
#X connect 15 0 14 0;
#X connect 21 0 19 0;
#X connect 22 0 18 0;
#X connect 25 0 36 0;
#X connect 31 0 30 0;
#X connect 34 0 33 0;
#X connect 35 0 34 0;
#X connect 35 1 31 0;
#X connect 36 0 27 0;
#X connect 37 0 38 0;
#X connect 38 0 15 0;
#X connect 39 0 12 0;
#X connect 40 0 2 0;
#X connect 40 1 10 0;
#X connect 40 2 1 0;
#X connect 40 3 25 0;
#X connect 40 4 8 0;
#X connect 40 5 29 0;
#X connect 40 6 35 0;
#X connect 40 7 27 0;
#X connect 40 8 41 0;
#X connect 41 0 42 0;
#X connect 42 0 43 0;
#X restore 577 198 pd messages;
#X obj 711 97 namecanvas \$0-ol_entry, f 23;
#X obj 0 0 cnv 1 120 20 \$0-bgnd \$0-bgnd-r empty 20 12 0 14 -1 -1
0;
#X obj 2 2 cnv 15 116 16 \$0-field \$0-field-r  list123 32 48 49 50 32 125...
5 8 1 10 -262081 -1 0;
#X obj 576 276 r \$0-GOP;
#X obj 576 350 route mousestate;
#X obj 576 373 sel 1;
#X obj 570 446 cnv 5 5 17 empty empty empty 20 12 0 14 -194593 -66577
0;
#X obj 578 174 cnv 10 70 15 empty empty empty 2 7 0 9 -257985 -66577
0;
#N canvas 266 452 1000 461 symbol__ 0;
#X obj 777 15 cnv 5 5 17 empty empty empty 20 12 0 14 -260626 -66577
0;
#X obj 783 15 r \$0-active;
#X obj 834 41 cnv 5 5 17 empty empty empty 20 12 0 14 -260626 -66577
0;
#X obj 840 41 r \$0-colorslist;
#X obj 783 67 list store;
#X obj 783 91 route bang;
#X obj 855 91 demux, f 8;
#X obj 783 40 t b f;
#X msg 855 114 color \$1 \$3 \$3;
#X msg 870 138 color \$2 \$3 \$3;
#X obj 849 164 cnv 5 5 17 empty empty empty 20 12 0 14 -194593 -66577
0;
#X obj 855 164 s \$0-field-r;
#X obj 31 46 key;
#X obj 215 36 cnv 5 5 17 empty empty empty 20 12 0 14 -260626 -66577
0;
#X obj 221 36 r \$0-active;
#X obj 221 64 sel 1 0;
#X obj 258 146 text delete \$0-sym;
#X msg 258 111 -1;
#X obj 192 35 tgl 15 0 empty empty empty 17 7 0 10 -262144 -1 -1 1
1;
#X obj 839 377 cnv 5 5 17 empty empty empty 20 12 0 14 -194593 -66577
0;
#X obj 845 377 s \$0-active;
#X msg 862 352 0;
#X msg 834 352 1;
#X obj 221 87 t b b;
#X obj 120 138 text set \$0-sym 999999, f 9;
#X obj 93 115 t b f;
#X obj 87 189 cnv 5 5 17 empty empty empty 20 12 0 14 -194593 -66577
0;
#X obj 93 189 s \$0-printsym;
#X obj 31 92 moses 32;
#X obj 93 92 moses 127;
#X obj 32 18 cnv 4 140 15 empty empty empty 20 12 0 14 -204800 -66577
0;
#X obj 31 17 text define \$0-sym;
#X f 23;
#X obj 535 16 cnv 5 5 17 empty empty empty 20 12 0 14 -260626 -66577
0;
#X obj 541 16 r \$0-printsym;
#X obj 611 152 text sequence \$0-sym;
#X obj 541 38 t b b;
#X msg 611 128 line 0 \, bang;
#X msg 611 176 append \$1;
#X obj 611 202 list store;
#X obj 451 278 list store, f 20;
#X text 462 244 symbol stored as ascii values, f 18;
#X obj 612 226 cnv 3 88 15 empty empty empty 2 7 0 10 -257985 -66577
0;
#N canvas 1138 316 641 599 Tcl/Tk_save 0;
#X obj 30 25 inlet;
#X obj 230 540 outlet;
#X obj 24 25 cnv 5 5 17 empty empty empty 20 12 0 14 -118750 -66577
0;
#X obj 224 540 cnv 5 5 17 empty empty empty 20 12 0 14 -102336 -66577
0;
#X obj 30 298 list store, f 14;
#X obj 30 226 until;
#X obj 30 250 f;
#X obj 71 250 + 1;
#X msg 30 275 get \$1 1;
#X msg 71 226 0;
#X text 62 180 list drip;
#X obj 230 510 list store, f 13;
#X obj 230 479 list trim;
#X obj 30 200 t b b l b, f 20;
#X symbolatom 107 20 10 0 0 0 - - -;
#X obj 107 34 list fromsymbol;
#X floatatom 107 51 5 0 0 0 - - -;
#X text 214 19 some characters are not allowed by PD \, some produce
a Tcl/Tk error., f 38;
#X text 288 348 36 (dollar);
#X text 242 103 91 (open bracket);
#X text 242 113 92 (backslash);
#X text 242 123 93 (close bracket);
#X text 242 133 123 (open brace);
#X text 242 143 125 (close brace);
#X text 374 84 replacement:;
#X text 242 85 original:;
#X obj 230 451 list prepend append;
#X msg 114 351 171;
#X msg 144 351 187;
#X msg 57 351 166;
#X msg 30 351 25;
#X msg 84 351 23;
#X text 378 349 35 (diamond);
#X text 288 320 34 (quote);
#X text 375 113 166 (dotted straight line);
#X text 375 103 25;
#X text 375 123 23;
#X text 375 143 187 (>>);
#X text 376 133 171 (<<);
#X text 288 334 35 (diamond);
#X text 378 334 164;
#X obj 185 323 spigot 1;
#X obj 230 360 spigot;
#X obj 230 218 loadbang;
#X obj 230 296 == 0;
#X obj 230 270 t f f, f 6;
#X text 278 238 0 = for symbols or internal useage), f 19;
#X obj 230 383 select 34 35 36;
#X msg 290 407 35;
#X msg 260 407 164;
#X msg 230 407 168;
#X obj 30 323 select 91 92 93 123 125, f 24;
#X text 279 271 1 = for canvas labels, f 25;
#X text 378 320 168;
#X text 20 6 list in;
#X msg 230 245 1;
#X obj 106 94 list tosymbol;
#X floatatom 106 75 5 0 0 0 - - -;
#X symbolatom 106 117 10 0 0 0 - - -;
#X connect 0 0 13 0;
#X connect 4 0 51 0;
#X connect 4 1 5 1;
#X connect 4 1 11 0;
#X connect 5 0 6 0;
#X connect 6 0 7 0;
#X connect 6 0 8 0;
#X connect 7 0 6 1;
#X connect 8 0 4 0;
#X connect 9 0 6 1;
#X connect 11 0 1 0;
#X connect 12 0 11 0;
#X connect 13 0 5 0;
#X connect 13 1 9 0;
#X connect 13 2 4 1;
#X connect 13 3 11 1;
#X connect 14 0 15 0;
#X connect 15 0 16 0;
#X connect 26 0 12 0;
#X connect 27 0 26 0;
#X connect 28 0 26 0;
#X connect 29 0 26 0;
#X connect 30 0 26 0;
#X connect 31 0 26 0;
#X connect 41 0 26 0;
#X connect 42 0 47 0;
#X connect 43 0 55 0;
#X connect 44 0 41 1;
#X connect 45 0 44 0;
#X connect 45 1 42 1;
#X connect 47 0 50 0;
#X connect 47 1 49 0;
#X connect 47 2 48 0;
#X connect 47 3 26 0;
#X connect 48 0 26 0;
#X connect 49 0 26 0;
#X connect 50 0 26 0;
#X connect 51 0 30 0;
#X connect 51 1 29 0;
#X connect 51 2 31 0;
#X connect 51 3 27 0;
#X connect 51 4 28 0;
#X connect 51 5 41 0;
#X connect 51 5 42 0;
#X connect 55 0 45 0;
#X connect 56 0 58 0;
#X connect 57 0 56 0;
#X restore 611 225 pd Tcl/Tk_save;
#X obj 638 349 list prepend label;
#X obj 638 372 list trim;
#X obj 632 393 cnv 5 5 17 empty empty empty 20 12 0 14 -194593 -66577
0;
#X obj 638 393 s \$0-field-r;
#X obj 611 278 demux;
#X obj 638 301 list append 46 46 46;
#X obj 638 325 list tosymbol;
#X floatatom 59 47 5 0 0 0 - - -;
#X text 46 210 enter;
#X obj 632 256 cnv 5 5 17 empty empty empty 20 12 0 14 -260626 -66577
0;
#X obj 638 256 r \$0-active;
#X obj 25 375 cnv 5 5 17 empty empty empty 20 12 0 14 -194593 -66577
0;
#X obj 31 375 s \$0-printsym;
#X obj 52 302 cnv 5 5 17 empty empty empty 20 12 0 14 -194593 -66577
0;
#X obj 58 302 s \$0-active;
#X msg 58 277 0;
#X obj 31 254 t b b;
#X text 94 210 backspace;
#X text 164 210 del;
#X obj 541 81 text get \$0-sym;
#X msg 541 59 0;
#X obj 541 105 route bang;
#X obj 611 105 t b;
#X obj 451 178 demux;
#X obj 472 151 cnv 5 5 17 empty empty empty 20 12 0 14 -260626 -66577
0;
#X obj 478 151 r \$0-active;
#X obj 451 331 list tosymbol;
#X obj 445 354 cnv 5 5 17 empty empty empty 20 12 0 14 -194593 -66577
0;
#X obj 451 354 s \$0-out;
#X obj 515 353 cnv 5 5 17 empty empty empty 20 12 0 14 -194593 -66577
0;
#X obj 521 353 s \$0-out2;
#X obj 451 304 t l l;
#X obj 157 335 text delete \$0-sym;
#X obj 130 254 t b b;
#X obj 157 277 text size \$0-sym, f 9;
#X obj 157 313 - 1;
#X obj 451 218 spigot 1;
#X obj 336 13 cnv 5 5 17 empty empty empty 20 12 0 14 -260626 -66577
0;
#X msg 415 41 0;
#X obj 376 121 drip;
#X obj 329 98 del 10;
#X msg 394 170 1;
#X msg 252 275 clear;
#X obj 246 298 cnv 5 5 17 empty empty empty 20 12 0 14 -194593 -66577
0;
#X obj 252 298 s \$0-in;
#X obj 31 69 spigot, f 12;
#X text 198 210 esc;
#X obj 31 230 sel 10 8 127 27, f 50;
#X obj 335 321 cnv 5 5 17 empty empty empty 20 12 0 14 -194593 -66577
0;
#X obj 341 321 s \$0-active;
#X msg 341 298 0;
#X obj 314 275 t b b;
#X obj 215 174 cnv 5 5 17 empty empty empty 20 12 0 14 -194593 -66577
0;
#X obj 221 174 s \$0-printsym;
#X obj 342 41 t b b l b;
#X obj 342 13 r \$0-setsym;
#X obj 856 328 cnv 5 5 17 empty empty empty 20 12 0 14 -260626 -66577
0;
#X obj 862 328 r \$0-lb;
#X connect 1 0 7 0;
#X connect 3 0 4 1;
#X connect 4 0 5 0;
#X connect 5 1 6 0;
#X connect 6 0 8 0;
#X connect 6 1 9 0;
#X connect 7 0 4 0;
#X connect 7 1 6 1;
#X connect 8 0 11 0;
#X connect 9 0 11 0;
#X connect 12 0 50 0;
#X connect 12 0 88 0;
#X connect 14 0 15 0;
#X connect 14 0 18 0;
#X connect 14 0 88 1;
#X connect 15 0 23 0;
#X connect 17 0 16 0;
#X connect 21 0 20 0;
#X connect 22 0 20 0;
#X connect 23 0 96 0;
#X connect 23 1 17 0;
#X connect 25 0 27 0;
#X connect 25 1 24 0;
#X connect 28 0 90 0;
#X connect 28 1 29 0;
#X connect 29 0 25 0;
#X connect 29 1 90 0;
#X connect 33 0 35 0;
#X connect 34 0 37 0;
#X connect 34 1 38 0;
#X connect 34 1 66 0;
#X connect 35 0 63 0;
#X connect 35 1 38 1;
#X connect 35 1 39 1;
#X connect 36 0 34 0;
#X connect 37 0 38 0;
#X connect 38 0 39 1;
#X connect 38 0 42 0;
#X connect 39 0 74 0;
#X connect 42 0 47 0;
#X connect 43 0 44 0;
#X connect 44 0 46 0;
#X connect 47 0 49 0;
#X connect 47 1 48 0;
#X connect 48 0 49 0;
#X connect 49 0 43 0;
#X connect 53 0 47 1;
#X connect 58 0 57 0;
#X connect 59 0 55 0;
#X connect 59 1 58 0;
#X connect 62 0 64 0;
#X connect 63 0 62 0;
#X connect 64 0 47 0;
#X connect 64 1 65 0;
#X connect 65 0 36 0;
#X connect 66 0 79 0;
#X connect 68 0 66 1;
#X connect 69 0 71 0;
#X connect 74 0 69 0;
#X connect 74 1 73 0;
#X connect 76 0 55 0;
#X connect 76 1 77 0;
#X connect 77 0 78 0;
#X connect 78 0 75 0;
#X connect 79 0 39 0;
#X connect 81 0 79 1;
#X connect 82 0 24 0;
#X connect 83 0 84 0;
#X connect 84 0 79 1;
#X connect 85 0 87 0;
#X connect 88 0 28 0;
#X connect 90 0 59 0;
#X connect 90 1 76 0;
#X connect 90 2 85 0;
#X connect 90 3 94 0;
#X connect 93 0 92 0;
#X connect 94 0 23 0;
#X connect 94 1 93 0;
#X connect 97 0 83 0;
#X connect 97 1 96 0;
#X connect 97 2 82 0;
#X connect 97 3 81 0;
#X connect 97 3 17 0;
#X connect 98 0 97 0;
#X connect 100 0 21 0;
#X restore 577 173 pd symbol__;
#X obj 576 446 s \$0-active;
#X msg 576 422 1;
#X obj 576 398 demux;
#X obj 618 373 cnv 5 5 17 empty empty empty 20 12 0 14 -260626 -66577
0;
#X obj 624 373 r \$0-active;
#X obj 645 536 outlet;
#X obj 639 511 cnv 5 5 17 empty empty empty 20 12 0 14 -260626 -66577
0;
#X obj 639 536 cnv 5 5 17 empty empty empty 20 12 0 14 -102336 -66577
0;
#X obj 645 511 r \$0-out2;
#X obj 776 369 propertybang;
#X obj 777 397 cnv 5 92 15 empty empty empty 2 7 0 10 -257985 -66577
0;
#N canvas 544 316 1071 627 propertyguts 0;
#X obj 534 140 s pd-\$0-properties;
#X obj 528 140 cnv 5 5 17 empty empty empty 20 12 0 14 -194593 -66577
0;
#X obj 507 51 t b b;
#X obj 508 582 s pd-\$0-properties;
#X obj 502 582 cnv 5 5 17 empty empty empty 20 12 0 14 -194593 -66577
0;
#X obj 501 26 cnv 5 5 17 empty empty empty 20 12 0 14 -118750 -66577
0;
#X obj 507 26 inlet;
#X obj 508 427 r \$0-properties_cancel;
#X obj 502 427 cnv 5 5 17 empty empty empty 20 12 0 14 -260626 -66577
0;
#X obj 65 37 cnv 5 5 17 empty empty empty 20 12 0 14 -260626 -66577
0;
#X obj 71 37 r \$0-properties_apply;
#X obj 558 169 cnv 5 5 17 empty empty empty 20 12 0 14 -260626 -66577
0;
#X obj 564 169 r \$0-argumentslist;
#X obj 507 193 list store;
#X obj 501 375 cnv 5 5 17 empty empty empty 20 12 0 14 -194593 -66577
0;
#X obj 507 375 s \$0-prop_name-r;
#X obj 507 219 list split 1;
#X obj 507 245 route symbol;
#X obj 523 271 t b;
#X msg 523 293 symbol none;
#X obj 729 151 cnv 5 5 17 empty empty empty 20 12 0 14 -260626 -66577
0;
#X obj 735 176 t b b;
#X obj 735 151 r \$0-properties_def;
#X obj 775 176 cnv 5 5 17 empty empty empty 20 12 0 14 -194593 -66577
0;
#X obj 781 176 s \$0-args;
#X obj 219 21 cnv 5 5 17 empty empty empty 20 12 0 14 -260626 -66577
0;
#X obj 225 21 r \$0-properties_autoapply;
#X obj 131 495 cnv 5 5 17 empty empty empty 20 12 0 14 -260626 -66577
0;
#X obj 137 495 r \$0-prop_name;
#X obj 137 518 sel none empty;
#X obj 71 566 list prepend, f 15;
#X msg 451 34 bang;
#X obj 28 495 list split 1, f 15;
#X msg 302 88 args;
#X msg 302 130 canvasargs;
#X obj 71 589 send, f 39;
#X obj 66 589 cnv 5 5 17 empty empty empty 20 12 0 14 -194593 -66577
0;
#X msg 302 199 symbol \$2-\$1;
#X obj 302 176 pack s \$0;
#X obj 302 154 symbol;
#X obj 48 135 cnv 5 5 17 empty empty empty 20 12 0 14 -194593 -66577
0;
#X obj 54 135 s \$0-canvasargs;
#X obj 31 89 cnv 5 5 17 empty empty empty 20 12 0 14 -260626 -66577
0;
#X obj 37 89 r \$0-properties_ok;
#X obj 37 113 t b b b b;
#X obj 526 450 cnv 5 5 17 empty empty empty 20 12 0 14 -260626 -66577
0;
#X obj 532 450 r \$0-properties_ok;
#X obj 508 475 b;
#X obj 743 584 print =;
#X msg 743 521 . \, ============================== \, DON'T FORGET
TO SAVE THE PARENT \, PATCH TO MAKE CHANGES PERSISTENT ! \, ==============================
, f 37;
#X msg 508 558 vis \$1;
#X msg 508 498 0;
#X obj 508 521 t f f, f 10;
#X obj 559 559 cnv 5 5 17 empty empty empty 20 12 0 14 -194593 -66577
0;
#X obj 565 559 s \$0-properties_autoapply-r, f 28;
#X obj 543 497 sendcanvas 2;
#X msg 543 474 dirty 1;
#X obj 508 322 cnv 3 80 15 empty empty empty 2 7 0 10 -257985 -66577
0;
#N canvas 268 376 320 353 remove_bsl 0;
#X text 50 6 string in;
#X obj 60 25 inlet;
#X obj 99 293 outlet;
#X obj 54 25 cnv 5 5 17 empty empty empty 20 12 0 14 -118750 -66577
0;
#X obj 93 293 cnv 5 5 17 empty empty empty 20 12 0 14 -102336 -66577
0;
#X obj 60 49 list fromsymbol;
#X obj 60 171 list store, f 14;
#X obj 60 102 until;
#X obj 60 126 f;
#X obj 101 126 + 1;
#X msg 60 148 get \$1 1;
#X msg 101 102 0;
#X text 192 71 list drip;
#X obj 60 72 t b b l b, f 20;
#X obj 99 268 list tosymbol;
#X obj 60 198 sel 92, f 7;
#X text 119 198 remove backslashes;
#X obj 99 245 list store;
#X msg 99 222 append \$1;
#X connect 1 0 5 0;
#X connect 5 0 13 0;
#X connect 6 0 15 0;
#X connect 6 1 7 1;
#X connect 6 1 17 0;
#X connect 7 0 8 0;
#X connect 8 0 9 0;
#X connect 8 0 10 0;
#X connect 9 0 8 1;
#X connect 10 0 6 0;
#X connect 11 0 8 1;
#X connect 13 0 7 0;
#X connect 13 1 11 0;
#X connect 13 2 6 1;
#X connect 13 3 17 1;
#X connect 14 0 2 0;
#X connect 15 1 18 0;
#X connect 17 0 14 0;
#X connect 18 0 17 0;
#X restore 507 321 pd remove_bsl;
#X msg 534 99 vis 0 \, relocate \$1x\$2+0+0 0x0+\$3+\$4 \, vis 1 \,
editmode 0, f 28;
#X text 554 52 size x y \, pos x y;
#X obj 225 44 metro 100;
#X obj 180 338 list split 1;
#X obj 623 394 cnv 5 5 17 empty empty empty 20 12 0 14 -194593 -66577
0;
#X obj 645 369 cnv 5 5 17 empty empty empty 20 12 0 14 -194593 -66577
0;
#X obj 667 347 cnv 5 5 17 empty empty empty 20 12 0 14 -194593 -66577
0;
#X obj 629 394 s \$0-prop_width-r;
#X obj 651 369 s \$0-prop_height-r;
#X obj 673 347 s \$0-prop_border-r;
#X obj 85 165 cnv 5 5 17 empty empty empty 20 12 0 14 -260626 -66577
0;
#X obj 106 188 cnv 5 5 17 empty empty empty 20 12 0 14 -260626 -66577
0;
#X obj 125 211 cnv 5 5 17 empty empty empty 20 12 0 14 -260626 -66577
0;
#X obj 91 165 r \$0-prop_width;
#X obj 111 188 r \$0-prop_height;
#X obj 131 211 r \$0-prop_border;
#X obj 349 91 cnv 5 5 17 empty empty empty 20 12 0 14 -194593 -66577
0;
#X msg 355 69 1;
#X obj 355 91 s \$0-properties_autoapply-r;
#X obj 894 218 list split 1;
#X text 737 200 font;
#X obj 715 301 cnv 5 5 17 empty empty empty 20 12 0 14 -194593 -66577
0;
#X obj 721 301 s \$0-prop_fonttype-r;
#X obj 742 279 cnv 5 5 17 empty empty empty 20 12 0 14 -194593 -66577
0;
#X obj 748 279 s \$0-prop_fontsize-r;
#X msg 534 74 499 553 30 30;
#X obj 180 398 cnv 5 5 17 empty empty empty 20 12 0 14 -260626 -66577
0;
#X obj 186 398 r \$0-prop_goplevel;
#X obj 148 235 cnv 5 5 17 empty empty empty 20 12 0 14 -260626 -66577
0;
#X obj 165 258 cnv 5 5 17 empty empty empty 20 12 0 14 -260626 -66577
0;
#X obj 154 235 r \$0-prop_fonttype;
#X obj 170 258 r \$0-prop_fontsize;
#X obj 889 303 cnv 5 5 17 empty empty empty 20 12 0 14 -194593 -66577
0;
#X obj 895 303 s \$0-prop_goplevel-r;
#X obj 895 278 - 1;
#X obj 186 423 + 1;
#X obj 187 447 cnv 3 92 15 empty empty empty 2 7 0 10 -257985 -66577
0;
#N canvas 547 207 374 353 goplevel_cnv 0;
#X text 50 6 string in;
#X obj 60 25 inlet;
#X obj 54 25 cnv 5 5 17 empty empty empty 20 12 0 14 -118750 -66577
0;
#X obj 61 51 sel 1 2 3, f 19;
#X obj 92 301 cnv 5 5 17 empty empty empty 20 12 0 14 -194593 -66577
0;
#X obj 98 301 s \$0-prop_goplevel-r;
#X obj 98 185 list split 1;
#X obj 98 235 pack s 0;
#X msg 98 125 IN_A_GOP -3;
#X obj 98 210 symbol;
#X msg 135 151 IN_A_GOP_IN_A_GOP -30;
#X msg 98 269 label \$1 \, label_pos \$2 -9;
#X msg 61 86 IN_PARENT_WINDOW -30;
#X connect 1 0 3 0;
#X connect 3 0 12 0;
#X connect 3 1 8 0;
#X connect 3 2 10 0;
#X connect 6 0 9 0;
#X connect 6 1 7 1;
#X connect 7 0 11 0;
#X connect 8 0 6 0;
#X connect 9 0 7 0;
#X connect 10 0 6 0;
#X connect 11 0 5 0;
#X connect 12 0 6 0;
#X restore 186 446 pd goplevel_cnv;
#X text 904 200 goplevel;
#X obj 416 126 cnv 5 5 17 empty empty empty 20 12 0 14 -260626 -66577
0;
#X obj 422 126 r \$0-lbinit;
#X msg 422 150 0;
#X msg 158 542 symbol none;
#X obj 347 501 cnv 13 130 15 empty empty empty 2 7 0 10 -257985 -66577
0;
#N canvas 90 154 1497 558 color_calculations 0;
#X obj 178 151 pack 0 0 0, f 13;
#X obj 197 93 t b f;
#X obj 261 93 t b f;
#X obj 437 253 expr ($f1*(-65536)+$f2*(-256)+$f3*(-1))-1, f 18;
#X obj 172 22 cnv 5 5 17 empty empty empty 20 12 0 14 -260097 -66577
0;
#X obj 191 67 cnv 5 5 17 empty empty empty 20 12 0 14 -260097 -66577
0;
#X obj 255 67 cnv 5 5 17 empty empty empty 20 12 0 14 -260097 -66577
0;
#X obj 178 22 r \$0-R_1;
#X obj 197 67 r \$0-G_1;
#X obj 261 67 r \$0-B_1;
#X obj 178 173 list prepend 1;
#X obj 403 225 list split 1;
#X obj 335 172 list prepend 2;
#X obj 478 172 list prepend 3;
#X obj 178 43 int;
#X obj 216 118 int;
#X obj 272 117 int;
#X obj 335 149 pack 0 0 0, f 13;
#X obj 354 91 t b f;
#X obj 418 91 t b f;
#X obj 329 20 cnv 5 5 17 empty empty empty 20 12 0 14 -260097 -66577
0;
#X obj 348 65 cnv 5 5 17 empty empty empty 20 12 0 14 -260097 -66577
0;
#X obj 412 65 cnv 5 5 17 empty empty empty 20 12 0 14 -260097 -66577
0;
#X obj 335 41 int;
#X obj 373 116 int;
#X obj 429 115 int;
#X obj 478 148 pack 0 0 0, f 13;
#X obj 497 90 t b f;
#X obj 561 90 t b f;
#X obj 472 19 cnv 5 5 17 empty empty empty 20 12 0 14 -260097 -66577
0;
#X obj 491 64 cnv 5 5 17 empty empty empty 20 12 0 14 -260097 -66577
0;
#X obj 555 64 cnv 5 5 17 empty empty empty 20 12 0 14 -260097 -66577
0;
#X obj 478 40 int;
#X obj 516 115 int;
#X obj 572 114 int;
#X obj 335 20 r \$0-R_2;
#X obj 354 65 r \$0-G_2;
#X obj 418 65 r \$0-B_2;
#X obj 478 19 r \$0-R_3;
#X obj 497 64 r \$0-G_3;
#X obj 561 64 r \$0-B_3;
#X obj 625 147 pack 0 0 0, f 13;
#X obj 644 89 t b f;
#X obj 708 89 t b f;
#X obj 619 18 cnv 5 5 17 empty empty empty 20 12 0 14 -260097 -66577
0;
#X obj 638 63 cnv 5 5 17 empty empty empty 20 12 0 14 -260097 -66577
0;
#X obj 702 63 cnv 5 5 17 empty empty empty 20 12 0 14 -260097 -66577
0;
#X obj 625 39 int;
#X obj 663 114 int;
#X obj 719 113 int;
#X obj 768 148 pack 0 0 0, f 13;
#X obj 787 90 t b f;
#X obj 851 90 t b f;
#X obj 762 19 cnv 5 5 17 empty empty empty 20 12 0 14 -260097 -66577
0;
#X obj 781 64 cnv 5 5 17 empty empty empty 20 12 0 14 -260097 -66577
0;
#X obj 845 64 cnv 5 5 17 empty empty empty 20 12 0 14 -260097 -66577
0;
#X obj 768 40 int;
#X obj 806 115 int;
#X obj 862 114 int;
#X obj 625 18 r \$0-R_4;
#X obj 644 63 r \$0-G_4;
#X obj 709 63 r \$0-B_4;
#X obj 768 19 r \$0-R_5;
#X obj 787 64 r \$0-G_5;
#X obj 851 64 r \$0-B_5;
#X obj 625 171 list prepend 4;
#X obj 768 172 list prepend 5;
#X obj 403 279 pack;
#X obj 403 305 list append;
#X msg 291 322 \$1 \$3 \$4 \$5;
#X obj 291 347 list split 1;
#X obj 325 371 l2s _;
#X obj 161 388 t l l;
#X obj 291 371 list;
#X obj 283 405 list split 1;
#X obj 161 416 list split 1;
#X obj 195 446 text set \$0-color_temp 0;
#X obj 812 505 cnv 5 5 17 empty empty empty 20 12 0 14 -194593 -66577
0;
#X obj 818 505 send;
#X obj 645 509 cnv 5 5 17 empty empty empty 20 12 0 14 -194593 -66577
0;
#X obj 651 509 send;
#X obj 545 509 cnv 5 5 17 empty empty empty 20 12 0 14 -194593 -66577
0;
#X obj 551 509 send;
#X obj 753 409 pack 0 \$0;
#X obj 600 346 unpack 0 0 0 0, f 26;
#X msg 600 322 \$3 \$4 \$5 \$1;
#X msg 672 458 symbol \$2-color\$1_G_cnv-r, f 9;
#X msg 572 458 symbol \$2-color\$1_R_cnv-r, f 9;
#X msg 839 455 symbol \$2-color\$1_B_cnv-r, f 9;
#X obj 551 409 makefilename %d;
#X msg 551 426 label \$1;
#X obj 651 409 makefilename %d;
#X msg 651 426 label \$1;
#X obj 818 409 makefilename %d;
#X msg 818 426 label \$1;
#X text 684 314 display RGB values, f 11;
#X text 160 470 store colors as symbols or floats in \$0-color_temp
, f 17;
#X obj 981 18 cnv 5 5 17 empty empty empty 20 12 0 14 -260097 -66577
0;
#X obj 987 18 r \$0-tkpresets_1;
#X obj 987 173 text get \$0-tk;
#X obj 987 201 list split 1, f 21;
#X msg 987 325 label \$1;
#X obj 981 502 cnv 5 5 17 empty empty empty 20 12 0 14 -194593 -66577
0;
#X obj 1048 324 unpack 0 0 0;
#X obj 1042 452 cnv 5 5 17 empty empty empty 20 12 0 14 -194593 -66577
0;
#X obj 1076 400 cnv 5 5 17 empty empty empty 20 12 0 14 -194593 -66577
0;
#X obj 1111 347 cnv 5 5 17 empty empty empty 20 12 0 14 -194593 -66577
0;
#X obj 987 502 send;
#X msg 1008 480 symbol \$2-tkpresets-cnv_\$1-r;
#X obj 1048 452 send;
#X obj 1082 400 send;
#X obj 1117 347 send;
#X obj 1138 263 pack 0 \$0;
#X msg 1069 430 symbol \$2-R_\$1-r;
#X msg 1103 377 symbol \$2-G_\$1-r;
#X msg 1138 324 symbol \$2-B_\$1-r;
#X obj 1291 209 text size \$0-tk;
#X obj 1274 211 bng 15 250 50 0 empty empty empty 17 7 0 10 -262144
-1 -1;
#X obj 1291 232 - 1;
#X obj 1291 451 send;
#X msg 1312 359 symbol \$2-tkpresets_\$1-r, f 17;
#X msg 1291 281 1 \, 2 \, 3 \, 4 \, 5;
#X obj 1291 256 t b f, f 11;
#X obj 1291 331 t l l;
#X obj 1291 306 pack 0 \$0 0;
#X msg 1291 427 range 0 \$3;
#X obj 1285 451 cnv 5 5 17 empty empty empty 20 12 0 14 -194593 -66577
0;
#X obj 1347 504 send;
#X obj 1341 504 cnv 5 5 17 empty empty empty 20 12 0 14 -194593 -66577
0;
#X msg 1368 401 symbol \$2-tkpresets-cnv_\$1-r, f 11;
#X msg 1347 480 label;
#X obj 1347 457 t b;
#X obj 1291 186 del 5;
#X obj 1285 163 cnv 5 5 17 empty empty empty 20 12 0 14 -260626 -66577
0;
#X obj 1291 163 r \$0-lbinit;
#X msg 987 41 \$1 1;
#X obj 987 150 unpack;
#X obj 1087 167 t f f, f 9;
#X obj 1008 235 text set \$0-color_temp 0 0;
#X obj 1031 41 cnv 5 5 17 empty empty empty 20 12 0 14 -260097 -66577
0;
#X obj 1081 64 cnv 5 5 17 empty empty empty 20 12 0 14 -260097 -66577
0;
#X obj 1131 87 cnv 5 5 17 empty empty empty 20 12 0 14 -260097 -66577
0;
#X obj 1180 110 cnv 5 5 17 empty empty empty 20 12 0 14 -260097 -66577
0;
#X msg 1037 64 \$1 2;
#X msg 1087 87 \$1 3;
#X msg 1137 110 \$1 4;
#X msg 1186 133 \$1 5;
#X obj 1037 41 r \$0-tkpresets_2;
#X obj 1087 64 r \$0-tkpresets_3;
#X obj 1137 87 r \$0-tkpresets_4;
#X obj 1186 110 r \$0-tkpresets_5;
#X obj 397 505 cnv 5 5 17 empty empty empty 20 12 0 14 -194593 -66577
0;
#X obj 403 505 send;
#X msg 403 444 color \$2 22 22;
#X obj 403 395 t l l;
#X msg 443 395 \$1;
#X obj 443 418 pack 0 \$0;
#X msg 424 468 symbol \$2-testfleck_\$1-r, f 18;
#X text 1132 18 tk presets to RGB sliders;
#X text 848 18 RGB sliders;
#X obj 161 229 t l l, f 31;
#X obj 161 255 list split 1;
#X obj 161 360 list, f 9;
#X obj 21 22 cnv 5 5 17 empty empty empty 20 12 0 14 -260097 -66577
0;
#X obj 27 22 r \$0-tcltk_1;
#X obj 27 45 int;
#X obj 20 94 cnv 5 5 17 empty empty empty 20 12 0 14 -260097 -66577
0;
#X obj 26 116 int;
#X obj 19 167 cnv 5 5 17 empty empty empty 20 12 0 14 -260097 -66577
0;
#X obj 25 189 int;
#X obj 26 94 r \$0-tcltk_2;
#X obj 25 167 r \$0-tcltk_3;
#X obj 17 241 cnv 5 5 17 empty empty empty 20 12 0 14 -260097 -66577
0;
#X obj 23 263 int;
#X obj 16 312 cnv 5 5 17 empty empty empty 20 12 0 14 -260097 -66577
0;
#X obj 22 334 int;
#X obj 23 241 r \$0-tcltk_4;
#X obj 22 312 r \$0-tcltk_5;
#X msg 27 67 1 \$1;
#X msg 26 138 2 \$1;
#X msg 25 212 3 \$1;
#X msg 23 286 4 \$1;
#X msg 22 357 5 \$1;
#X msg 214 333 black;
#X msg 195 308 white;
#X obj 195 282 sel 0 22;
#X msg 846 262 clear;
#X obj 819 359 text set \$0-color_temp 0, f 15;
#X msg 600 283 \$1 5;
#X obj 838 283 cnv 10 100 40 empty empty empty 20 12 0 14 -241024 -66577
0;
#X obj 846 288 text define \$0-color_temp;
#X f 13;
#X msg 600 257 1 \, 2 \, 3 \, 4 \, 5;
#X obj 794 209 cnv 5 5 17 empty empty empty 20 12 0 14 -260626 -66577
0;
#X obj 800 209 r \$0-lbinit;
#X obj 800 240 t b b b;
#X msg 819 336 0 0 0 0 0 0;
#X connect 0 0 10 0;
#X connect 1 0 0 0;
#X connect 1 1 15 0;
#X connect 2 0 0 0;
#X connect 2 1 16 0;
#X connect 3 0 67 1;
#X connect 7 0 14 0;
#X connect 8 0 1 0;
#X connect 9 0 2 0;
#X connect 10 0 11 0;
#X connect 11 0 67 0;
#X connect 11 1 3 0;
#X connect 11 1 68 1;
#X connect 12 0 11 0;
#X connect 13 0 11 0;
#X connect 14 0 0 0;
#X connect 15 0 0 1;
#X connect 16 0 0 2;
#X connect 17 0 12 0;
#X connect 18 0 17 0;
#X connect 18 1 24 0;
#X connect 19 0 17 0;
#X connect 19 1 25 0;
#X connect 23 0 17 0;
#X connect 24 0 17 1;
#X connect 25 0 17 2;
#X connect 26 0 13 0;
#X connect 27 0 26 0;
#X connect 27 1 33 0;
#X connect 28 0 26 0;
#X connect 28 1 34 0;
#X connect 32 0 26 0;
#X connect 33 0 26 1;
#X connect 34 0 26 2;
#X connect 35 0 23 0;
#X connect 36 0 18 0;
#X connect 37 0 19 0;
#X connect 38 0 32 0;
#X connect 39 0 27 0;
#X connect 40 0 28 0;
#X connect 41 0 65 0;
#X connect 42 0 41 0;
#X connect 42 1 48 0;
#X connect 43 0 41 0;
#X connect 43 1 49 0;
#X connect 47 0 41 0;
#X connect 48 0 41 1;
#X connect 49 0 41 2;
#X connect 50 0 66 0;
#X connect 51 0 50 0;
#X connect 51 1 57 0;
#X connect 52 0 50 0;
#X connect 52 1 58 0;
#X connect 56 0 50 0;
#X connect 57 0 50 1;
#X connect 58 0 50 2;
#X connect 59 0 47 0;
#X connect 60 0 42 0;
#X connect 61 0 43 0;
#X connect 62 0 56 0;
#X connect 63 0 51 0;
#X connect 64 0 52 0;
#X connect 65 0 11 0;
#X connect 66 0 11 0;
#X connect 67 0 68 0;
#X connect 68 0 69 0;
#X connect 68 0 85 0;
#X connect 68 0 154 0;
#X connect 69 0 70 0;
#X connect 70 0 73 0;
#X connect 70 1 71 0;
#X connect 71 0 73 1;
#X connect 72 0 75 0;
#X connect 72 1 74 0;
#X connect 73 0 72 0;
#X connect 74 0 76 2;
#X connect 75 1 76 0;
#X connect 83 0 88 0;
#X connect 83 0 86 0;
#X connect 83 0 87 0;
#X connect 84 0 89 0;
#X connect 84 1 91 0;
#X connect 84 2 93 0;
#X connect 84 3 83 0;
#X connect 85 0 84 0;
#X connect 86 0 80 1;
#X connect 87 0 82 1;
#X connect 88 0 78 1;
#X connect 89 0 90 0;
#X connect 90 0 82 0;
#X connect 91 0 92 0;
#X connect 92 0 80 0;
#X connect 93 0 94 0;
#X connect 94 0 78 0;
#X connect 98 0 135 0;
#X connect 99 0 100 0;
#X connect 100 0 101 0;
#X connect 100 0 138 0;
#X connect 100 1 103 0;
#X connect 101 0 107 0;
#X connect 103 0 109 0;
#X connect 103 1 110 0;
#X connect 103 2 111 0;
#X connect 108 0 107 1;
#X connect 112 0 108 0;
#X connect 112 0 113 0;
#X connect 112 0 114 0;
#X connect 112 0 115 0;
#X connect 113 0 109 1;
#X connect 114 0 110 1;
#X connect 115 0 111 1;
#X connect 116 0 118 0;
#X connect 117 0 116 0;
#X connect 118 0 122 0;
#X connect 120 0 119 1;
#X connect 121 0 124 0;
#X connect 122 0 121 0;
#X connect 122 1 124 2;
#X connect 123 0 125 0;
#X connect 123 0 131 0;
#X connect 123 1 120 0;
#X connect 123 1 129 0;
#X connect 124 0 123 0;
#X connect 125 0 119 0;
#X connect 129 0 127 1;
#X connect 130 0 127 0;
#X connect 131 0 130 0;
#X connect 132 0 116 0;
#X connect 134 0 132 0;
#X connect 135 0 136 0;
#X connect 136 0 99 0;
#X connect 136 1 137 0;
#X connect 137 0 138 2;
#X connect 137 1 112 0;
#X connect 143 0 136 0;
#X connect 144 0 136 0;
#X connect 145 0 136 0;
#X connect 146 0 136 0;
#X connect 147 0 143 0;
#X connect 148 0 144 0;
#X connect 149 0 145 0;
#X connect 150 0 146 0;
#X connect 153 0 152 0;
#X connect 154 0 153 0;
#X connect 154 1 155 0;
#X connect 155 0 156 0;
#X connect 156 0 157 0;
#X connect 157 0 152 1;
#X connect 160 0 161 0;
#X connect 160 1 154 0;
#X connect 161 0 162 0;
#X connect 161 1 185 0;
#X connect 162 0 72 0;
#X connect 164 0 165 0;
#X connect 165 0 178 0;
#X connect 167 0 179 0;
#X connect 169 0 180 0;
#X connect 170 0 167 0;
#X connect 171 0 169 0;
#X connect 173 0 181 0;
#X connect 175 0 182 0;
#X connect 176 0 173 0;
#X connect 177 0 175 0;
#X connect 178 0 160 0;
#X connect 179 0 160 0;
#X connect 180 0 160 0;
#X connect 181 0 160 0;
#X connect 182 0 160 0;
#X connect 183 0 162 1;
#X connect 184 0 162 1;
#X connect 185 0 184 0;
#X connect 185 1 183 0;
#X connect 185 2 162 1;
#X connect 186 0 190 0;
#X connect 188 0 154 0;
#X connect 191 0 188 0;
#X connect 193 0 194 0;
#X connect 194 0 191 0;
#X connect 194 1 195 0;
#X connect 194 2 186 0;
#X connect 195 0 187 0;
#X restore 347 500 pd color_calculations;
#X obj 180 302 text get \$0-color_temp, f 13;
#X obj 71 61 t b b b b b, f 39;
#X msg 180 106 0;
#X obj 71 413 list append;
#X obj 71 440 list append;
#X obj 629 219 list split 3;
#X text 824 200 color;
#X obj 808 243 cnv 4 93 15 empty empty empty 2 7 0 10 -257985 -66577
0;
#N canvas 625 78 529 614 colorparsing 0;
#X obj 27 17 inlet;
#X obj 28 84 cnv 3 44 15 empty empty empty 2 7 0 10 -257985 -66577
0;
#N canvas 0 50 313 253 drip 0;
#X obj 33 15 inlet;
#X obj 33 165 list store, f 15;
#X obj 33 59 until;
#X obj 33 81 f;
#X obj 63 81 + 1;
#X msg 33 143 get \$1 1;
#X obj 76 60 0;
#X obj 33 198 outlet;
#X obj 185 196 outlet;
#X obj 33 37 t b b a, f 15;
#X text 177 17 needs pd 0.48 !;
#X text 175 56 like [zl iter] or ZEXY's [drip], f 19;
#X obj 106 197 outlet;
#X obj 33 106 t f f;
#X text 37 219 item;
#X text 108 217 index;
#X text 181 216 finish;
#X connect 0 0 9 0;
#X connect 1 0 7 0;
#X connect 1 1 8 0;
#X connect 1 1 2 1;
#X connect 2 0 3 0;
#X connect 3 0 4 0;
#X connect 3 0 13 0;
#X connect 4 0 3 1;
#X connect 5 0 1 0;
#X connect 6 0 3 1;
#X connect 9 0 2 0;
#X connect 9 1 6 0;
#X connect 9 2 1 1;
#X connect 13 0 5 0;
#X connect 13 1 12 0;
#X restore 27 83 pd drip;
#X obj 214 100 + 1;
#X obj 27 125 route symbol float, f 58;
#X obj 84 225 text search \$0-tk;
#X obj 84 250 sel -1;
#X obj 57 351 cnv 5 5 17 empty empty empty 20 12 0 14 -194593 -66577
0;
#X obj 62 351 send;
#X obj 125 297 pack 0 \$0;
#X msg 294 66 list grey70 14 white black grey20;
#X msg 106 321 symbol \$2-tkpresets_\$1-r, f 17;
#X obj 216 271 moses 0;
#X obj 255 300 moses 30;
#X obj 56 388 cnv 5 5 17 empty empty empty 20 12 0 14 -194593 -66577
0;
#X obj 216 383 abs;
#X obj 216 432 t f f, f 12;
#X obj 216 459 div 65536;
#X obj 282 459 mod 65536;
#X obj 282 508 div 256;
#X obj 282 484 t f f;
#X obj 408 501 mod 256;
#X obj 216 407 - 1;
#X msg 106 357 symbol \$2-tcltk_\$1-r, f 14;
#X obj 62 387 send;
#X obj 402 574 cnv 5 5 17 empty empty empty 20 12 0 14 -194593 -66577
0;
#X obj 408 574 send;
#X obj 276 573 cnv 5 5 17 empty empty empty 20 12 0 14 -194593 -66577
0;
#X obj 282 573 send;
#X obj 123 574 cnv 5 5 17 empty empty empty 20 12 0 14 -194593 -66577
0;
#X obj 129 574 send, f 8;
#X msg 429 537 symbol \$2-B_\$1-r, f 14;
#X msg 303 536 symbol \$2-G_\$1-r, f 14;
#X msg 174 536 symbol \$2-R_\$1-r, f 14;
#X obj 358 326 pack 0 \$0;
#X floatatom 157 254 5 0 0 0 - - -;
#X msg 43 305 0 0 0;
#X text 22 287 default black;
#X obj 27 161 s2l _;
#X obj 27 197 route list;
#X text 69 145 if symbol is a list seperated by _ \, interpret them
as RGB values, f 25;
#X obj 27 432 unpack 0 0 0;
#X obj 142 40 cnv 5 5 17 empty empty empty 20 12 0 14 -260097 -66577
0;
#X obj 148 40 r \$0-defaultcolors;
#X obj 91 66 list store;
#X obj 85 17 cnv 5 5 17 empty empty empty 20 12 0 14 -260097 -66577
0;
#X obj 91 17 r \$0-recalldefaultcolors;
#X obj 91 40 t b;
#X connect 0 0 2 0;
#X connect 2 0 4 0;
#X connect 2 1 3 0;
#X connect 3 0 9 0;
#X connect 3 0 34 0;
#X connect 4 0 38 0;
#X connect 4 1 12 0;
#X connect 5 0 6 0;
#X connect 6 0 36 0;
#X connect 6 1 8 0;
#X connect 9 0 11 0;
#X connect 9 0 23 0;
#X connect 10 0 2 0;
#X connect 11 0 8 1;
#X connect 12 0 15 0;
#X connect 12 1 13 0;
#X connect 13 0 24 0;
#X connect 15 0 22 0;
#X connect 16 0 17 0;
#X connect 16 1 18 0;
#X connect 17 0 30 0;
#X connect 18 0 20 0;
#X connect 19 0 28 0;
#X connect 20 0 19 0;
#X connect 20 1 21 0;
#X connect 21 0 26 0;
#X connect 22 0 16 0;
#X connect 23 0 24 1;
#X connect 31 0 26 1;
#X connect 32 0 28 1;
#X connect 33 0 30 1;
#X connect 34 0 31 0;
#X connect 34 0 32 0;
#X connect 34 0 33 0;
#X connect 35 0 9 0;
#X connect 36 0 41 0;
#X connect 38 0 39 0;
#X connect 39 0 41 0;
#X connect 39 1 5 0;
#X connect 41 0 30 0;
#X connect 41 1 28 0;
#X connect 41 2 26 0;
#X connect 43 0 44 1;
#X connect 44 0 2 0;
#X connect 46 0 47 0;
#X connect 47 0 44 0;
#X restore 808 242 pd colorparsing;
#X obj 629 243 unpack 0 0 0;
#X obj 721 218 list split 2;
#X obj 721 242 unpack;
#X text 654 199 size;
#X obj 808 218 list split 4;
#X obj 71 302 pack 0 0 0 0 0 0;
#X obj 214 361 list split 4;
#X text 300 360 how many colors;
#X obj 777 94 cnv 5 5 17 empty empty empty 20 12 0 14 -194593 -66577
0;
#X obj 783 94 s \$0-active;
#X msg 783 69 0;
#X connect 2 0 13 0;
#X connect 2 0 76 0;
#X connect 2 1 84 0;
#X connect 2 1 123 0;
#X connect 6 0 2 0;
#X connect 7 0 47 0;
#X connect 10 0 105 0;
#X connect 12 0 13 1;
#X connect 13 0 16 0;
#X connect 16 0 17 0;
#X connect 16 1 109 0;
#X connect 17 0 58 0;
#X connect 17 1 18 0;
#X connect 18 0 19 0;
#X connect 19 0 15 0;
#X connect 21 0 13 0;
#X connect 21 1 24 0;
#X connect 22 0 21 0;
#X connect 26 0 61 0;
#X connect 28 0 29 0;
#X connect 29 0 101 0;
#X connect 29 1 101 0;
#X connect 29 2 30 1;
#X connect 30 0 35 0;
#X connect 31 0 2 0;
#X connect 32 1 30 0;
#X connect 33 0 39 0;
#X connect 34 0 39 0;
#X connect 37 0 35 1;
#X connect 38 0 37 0;
#X connect 39 0 38 0;
#X connect 43 0 44 0;
#X connect 44 1 41 0;
#X connect 44 2 118 0;
#X connect 44 3 34 0;
#X connect 46 0 47 0;
#X connect 46 0 56 0;
#X connect 47 0 51 0;
#X connect 49 0 48 0;
#X connect 50 0 3 0;
#X connect 51 0 52 0;
#X connect 52 0 50 0;
#X connect 52 1 54 0;
#X connect 56 0 55 0;
#X connect 58 0 15 0;
#X connect 59 0 0 0;
#X connect 61 0 105 0;
#X connect 62 1 119 0;
#X connect 72 0 118 1;
#X connect 73 0 118 2;
#X connect 74 0 118 3;
#X connect 76 0 77 0;
#X connect 78 0 93 0;
#X connect 84 0 59 0;
#X connect 86 0 94 0;
#X connect 89 0 118 4;
#X connect 90 0 118 5;
#X connect 93 0 92 0;
#X connect 94 0 96 0;
#X connect 94 0 108 1;
#X connect 99 0 100 0;
#X connect 100 0 77 0;
#X connect 101 0 30 1;
#X connect 104 0 62 0;
#X connect 105 0 118 0;
#X connect 105 1 106 0;
#X connect 105 4 33 0;
#X connect 106 0 104 0;
#X connect 107 0 108 0;
#X connect 108 0 32 0;
#X connect 109 0 113 0;
#X connect 109 1 114 0;
#X connect 113 0 66 0;
#X connect 113 1 67 0;
#X connect 113 2 68 0;
#X connect 114 0 115 0;
#X connect 114 1 117 0;
#X connect 115 0 81 0;
#X connect 115 1 83 0;
#X connect 117 0 112 0;
#X connect 117 1 78 0;
#X connect 118 0 107 0;
#X connect 119 0 107 1;
#X connect 123 0 122 0;
#X restore 776 396 pd propertyguts;
#X obj 777 420 cnv 5 100 15 empty empty empty 2 7 0 10 -257985 -66577
0;
#N canvas 30 30 499 553 \$0-properties 0;
#X obj 199 270 hradio 15 1 0 5 \$0-recalldefaultcolors \$0-recalldefaultcolors-r
empty 0 -8 0 10 -262144 -1 -1 2;
#X obj 1 1 cnv 5 496 550 empty empty PROPERTIES: 190 18 1 16 -220544
-122932 0;
#X obj 6 36 cnv 4 484 480 empty empty empty 20 20 0 14 -1 -262144 0
;
#X obj 7 37 cnv 14 482 478 empty empty empty 79 21 1 24 -262130 -64
0;
#X obj 95 525 cnv 5 300 18 empty empty empty 20 20 0 14 -1 -262144
0;
#X obj 96 526 cnv 10 298 16 empty empty DON'T_FORGET_TO_SAVE_THE_PARENT_PATCH_!
6 9 1 12 -261234 -66577 0;
#X obj 96 540 cnv 2 298 1 empty empty empty 6 -20 1 8 -261234 -66577
0;
#X obj 111 490 hradio 14 1 0 2 \$0-properties_ok \$0-properties_ok-r
empty 0 -8 0 10 -262144 -1 -1 1;
#X obj 152 490 hradio 14 1 0 3 \$0-properties_apply \$0-properties_apply-r
empty 0 -8 0 10 -262144 -1 -1 1;
#X obj 153 491 cnv 12 40 12 \$0-properties_apply_cnv \$0-properties_apply_cnv-r
APPLY 3 7 1 11 -261057 -99865 0;
#X obj 325 490 hradio 14 1 0 4 \$0-properties_cancel \$0-properties_cancel-r
empty 0 -8 0 10 -262144 -1 -1 1;
#X obj 110 134 nbx 5 15 30 500 0 0 \$0-prop_width \$0-prop_width-r
width 52 7 1 10 -262144 -1 -1 120 256;
#X obj 223 134 nbx 5 15 15 300 0 0 \$0-prop_height \$0-prop_height-r
height 55 7 1 10 -262144 -1 -1 20 256;
#X obj 340 134 nbx 5 15 0 50 0 0 \$0-prop_border \$0-prop_border-r
border 55 7 1 10 -262144 -1 -1 2 256;
#X obj 194 490 tgl 14 0 \$0-properties_autoapply \$0-properties_autoapply-r
auto 20 7 1 10 -261057 -1 -1 0 1;
#X obj 242 490 hradio 14 1 0 5 \$0-properties_original \$0-properties_original-r
empty 0 -8 0 10 -262144 -1 -1 4;
#X obj 326 491 cnv 12 54 12 \$0-properties_cancel_cnv \$0-properties_cancel_cnv-r
CANCEL 5 7 1 11 -261234 -99865 0;
#X obj 112 491 cnv 12 26 12 \$0-properties_ok_cnv \$0-properties_ok_cnv-r
OK 4 6 1 12 -204786 -99865 0;
#X obj 243 491 cnv 12 68 12 \$0-properties_original_cnv \$0-properties_original_cnv-r
ORIGINAL 8 7 1 11 -203904 -99865 0;
#X obj 479 14 bng 10 250 50 0 \$0-properties_def \$0-properties_def-r
defaults -42 5 1 10 -262130 -1 -159808;
#X obj 186 64 cnv 1 168 13 empty empty empty 20 12 0 14 -262144 -66577
0;
#X symbolatom 186 64 28 0 0 2 - #0-prop_name-r #0-prop_name;
#X obj 43 142 cnv 3 3 3 empty empty SIZE: 0 0 1 14 -262130 -64 0;
#X obj 63 73 cnv 3 3 3 empty empty REMOTE_NAME: 0 0 1 14 -262130 -64
0;
#X obj 132 79 cnv 5 30 2 empty empty empty 0 0 1 4 -262130 -64 0;
#X obj 99 188 cnv 3 3 3 empty empty FONT: 0 0 1 14 -262130 -64 0;
#X obj 90 208 nbx 4 15 1 3 0 0 \$0-prop_fonttype \$0-prop_fonttype-r
type 52 7 1 10 -262144 -1 -1 2 256;
#X obj 90 231 nbx 4 15 10 50 0 0 \$0-prop_fontsize \$0-prop_fontsize-r
size 52 7 1 10 -262144 -1 -1 14 256;
#X obj 203 278 cnv 5 5 5 empty empty COLORS: 0 0 1 16 -262130 -64 0
;
#X obj 46 364 vsl 12 70 0 255 0 0 \$0-R_1 \$0-R_1-r R 3 -8 1 10 -261234
-1 -1 6629 0;
#X obj 58 364 vsl 12 70 0 255 0 0 \$0-G_1 \$0-G_1-r G 3 -8 1 10 -204786
-1 -1 6629 0;
#X obj 70 364 vsl 12 70 0 255 0 0 \$0-B_1 \$0-B_1-r B 3 -8 1 10 -203904
-1 -1 6629 0;
#X obj 90 319 cnv 5 5 5 empty empty BACKGROUND 0 0 1 11 -262130 -64
0;
#X obj 150 364 vsl 12 70 0 255 0 0 \$0-R_2 \$0-R_2-r R 3 -8 1 10 -261234
-1 -1 6900 0;
#X obj 162 364 vsl 12 70 0 255 0 0 \$0-G_2 \$0-G_2-r G 3 -8 1 10 -204786
-1 -1 6900 0;
#X obj 174 364 vsl 12 70 0 255 0 0 \$0-B_2 \$0-B_2-r B 3 -8 1 10 -203904
-1 -1 0 0;
#X obj 284 338 cnv 5 5 5 empty empty Text 0 0 1 11 -262130 -64 0;
#X obj 255 364 vsl 12 70 0 255 0 0 \$0-R_3 \$0-R_3-r R 3 -8 1 10 -261234
-1 -1 0 0;
#X obj 267 364 vsl 12 70 0 255 0 0 \$0-G_3 \$0-G_3-r G 3 -8 1 10 -204786
-1 -1 0 0;
#X obj 279 364 vsl 12 70 0 255 0 0 \$0-B_3 \$0-B_3-r B 3 -8 1 10 -203904
-1 -1 0 0;
#X obj 86 423 nbx 3 14 0 29 0 0 \$0-tcltk_1 \$0-tcltk_1-r Tcl/Tk 0
-7 1 10 -262144 -1 -1 0 256;
#X obj 191 423 nbx 3 14 0 29 0 0 \$0-tcltk_2 \$0-tcltk_2-r Tcl/Tk 0
-7 1 10 -262144 -1 -1 0 256;
#X obj 43 445 cnv 4 4 4 \$0-color1_R_cnv \$0-color1_R_cnv-r 245 4 4
1 9 -262130 -258113 0;
#X obj 63 445 cnv 4 4 4 \$0-color1_G_cnv \$0-color1_G_cnv-r 245 4 4
1 9 -262130 -2498 0;
#X obj 83 445 cnv 4 4 4 \$0-color1_B_cnv \$0-color1_B_cnv-r 245 4 4
1 9 -262130 -4160 0;
#X obj 147 445 cnv 4 4 4 \$0-color2_R_cnv \$0-color2_R_cnv-r 255 4
4 1 9 -262130 -258113 0;
#X obj 167 445 cnv 4 4 4 \$0-color2_G_cnv \$0-color2_G_cnv-r 255 4
4 1 9 -262130 -2498 0;
#X obj 187 445 cnv 4 4 4 \$0-color2_B_cnv \$0-color2_B_cnv-r 0 4 4
1 9 -262130 -4160 0;
#X obj 255 445 cnv 4 4 4 \$0-color3_R_cnv \$0-color3_R_cnv-r 0 4 4
1 9 -262130 -258113 0;
#X obj 275 445 cnv 4 4 4 \$0-color3_G_cnv \$0-color3_G_cnv-r 0 4 4
1 9 -262130 -2498 0;
#X obj 295 445 cnv 4 4 4 \$0-color3_B_cnv \$0-color3_B_cnv-r 0 4 4
1 9 -262130 -4160 0;
#X obj 362 364 vsl 12 70 0 255 0 0 \$0-R_4 \$0-R_4-r R 3 -8 1 10 -261234
-1 -1 0 0;
#X obj 374 364 vsl 12 70 0 255 0 0 \$0-G_4 \$0-G_4-r G 3 -8 1 10 -204786
-1 -1 0 0;
#X obj 386 364 vsl 12 70 0 255 0 0 \$0-B_4 \$0-B_4-r B 3 -8 1 10 -203904
-1 -1 0 0;
#X obj 362 445 cnv 4 4 4 \$0-color4_R_cnv \$0-color4_R_cnv-r 0 4 4
1 9 -262130 -258113 0;
#X obj 382 445 cnv 4 4 4 \$0-color4_G_cnv \$0-color4_G_cnv-r 0 4 4
1 9 -262130 -2498 0;
#X obj 402 445 cnv 4 4 4 \$0-color4_B_cnv \$0-color4_B_cnv-r 0 4 4
1 9 -262130 -4160 0;
#X obj 169 338 cnv 5 5 5 empty empty Active 0 0 1 11 -262130 -64 0
;
#X obj 59 338 cnv 5 5 5 empty empty Normal 0 0 1 11 -262130 -64 0;
#X obj 381 338 cnv 5 5 5 empty empty Border 0 0 1 11 -262130 -64 0
;
#X obj 86 362 nbx 3 14 0 107 0 0 \$0-tkpresets_1 \$0-tkpresets_1-r
presets 0 -7 1 10 -262144 -1 -1 106 256;
#X obj 85 382 cnv 5 1 1 \$0-tkpresets-cnv_1 \$0-tkpresets-cnv_1-r WhiteSmoke
0 0 1 9 -262130 -99865 0;
#X obj 86 392 cnv 1 34 14 \$0-testfleck_1 \$0-testfleck_1-r empty 0
0 0 8 -253822 -1 0;
#X obj 191 362 nbx 3 14 0 107 0 0 \$0-tkpresets_2 \$0-tkpresets_2-r
presets 0 -7 1 10 -262144 -1 -1 107 256;
#X obj 190 382 cnv 5 1 1 \$0-tkpresets-cnv_2 \$0-tkpresets-cnv_2-r
yellow 0 0 1 9 -262130 -99865 0;
#X obj 191 392 cnv 1 34 14 \$0-testfleck_2 \$0-testfleck_2-r empty
0 0 0 8 -262081 -1 0;
#X obj 298 423 nbx 3 14 0 29 0 0 \$0-tcltk_3 \$0-tcltk_3-r Tcl/Tk 0
-7 1 10 -262144 -1 -1 0 256;
#X obj 298 362 nbx 3 14 0 107 0 0 \$0-tkpresets_3 \$0-tkpresets_3-r
presets 0 -7 1 10 -262144 -1 -1 4 256;
#X obj 297 382 cnv 5 1 1 \$0-tkpresets-cnv_3 \$0-tkpresets-cnv_3-r
black 0 0 1 9 -262130 -99865 0;
#X obj 298 392 cnv 1 34 14 \$0-testfleck_3 \$0-testfleck_3-r empty
0 0 0 8 -1 -1 0;
#X obj 404 423 nbx 3 14 0 29 0 0 \$0-tcltk_4 \$0-tcltk_4-r Tcl/Tk 0
-7 1 10 -262144 -1 -1 0 256;
#X obj 404 362 nbx 3 14 0 107 0 0 \$0-tkpresets_4 \$0-tkpresets_4-r
presets 0 -7 1 10 -262144 -1 -1 4 256;
#X obj 403 382 cnv 5 1 1 \$0-tkpresets-cnv_4 \$0-tkpresets-cnv_4-r
black 0 0 1 9 -262130 -99865 0;
#X obj 404 392 cnv 1 34 14 \$0-testfleck_4 \$0-testfleck_4-r empty
0 0 0 8 -1 -1 0;
#X obj 316 186 cnv 5 5 5 empty empty GOP-LEVEL: 0 0 1 14 -262130 -64
0;
#X obj 331 227 hradio 15 1 0 3 \$0-prop_goplevel \$0-prop_goplevel-r
IN_PARENT_WINDOW -30 -9 1 10 -262144 -1 -1 0;
#X obj 292 222 cnv 3 100 1 empty empty empty 0 0 1 7 -262130 -64 0
;
#X obj 179 84 cnv 5 5 5 empty empty (use"empty"or"none"fornoname)
0 2 1 10 -262130 -64 0;
#X obj 186 291 cnv 5 5 5 empty empty (clicktoloaddefaults)
0 2 1 9 -262130 -64 0;
#X text 180 204 1 = courier \; 2 = helvetica \; 3 = times;
#X restore 776 419 pd \$0-properties;
#X obj 753 369 bng 15 250 50 0 empty empty empty 17 7 0 10 -262144
-1 -1;
#X obj 740 148 cnv 5 5 17 empty empty empty 20 12 0 14 -260626 -66577
0;
#X obj 746 148 r \$0-properties_original;
#X obj 711 63 declare -stdlib zexy -lib zexy , f 38;
#X connect 0 0 1 0;
#X connect 2 0 3 0;
#X connect 11 0 12 0;
#X connect 13 0 29 0;
#X connect 14 0 16 0;
#X connect 18 0 13 0;
#X connect 20 0 14 0;
#X connect 29 0 24 0;
#X connect 29 1 40 0;
#X connect 29 2 28 0;
#X connect 34 0 13 0;
#X connect 39 0 51 0;
#X connect 40 0 22 0;
#X connect 50 0 39 0;
#X connect 51 0 52 0;
#X connect 52 0 58 0;
#X connect 57 0 56 0;
#X connect 58 0 57 0;
#X connect 60 0 58 1;
#X connect 64 0 61 0;
#X connect 65 0 67 0;
#X connect 70 0 67 0;
#X connect 72 0 13 0;
#X coords 0 -1 1 1 120 20 2 0 0;
