#N canvas 496 149 941 676 10;
#X declare -stdlib Gem -lib Gem;
#X declare -stdlib zexy -lib zexy;
#X declare -stdpath tof -path tof;
#X obj 399 526 glsl_program;
#X obj 474 460 pack 0 0;
#X obj 474 437 change;
#X obj 471 352 change;
#X obj 399 333 glsl_vertex;
#X obj 399 411 glsl_fragment;
#X obj 97 105 inlet;
#X obj 473 16 cnv 14 200 50 empty empty empty 2 2 0 9 -253181 -66577
0;
#X msg 474 483 link \$2 \$1;
#X obj 336 28 gemhead 1;
#X msg 336 50 1;
#X obj 336 74 change -1;
#X text 336 6 IMPORTANT !!!!!;
#X text 403 74 otherwise link will fail !;
#X text 160 15 2-pass BLUR;
#X obj 97 527 glsl_program;
#X obj 182 461 pack 0 0;
#X obj 182 438 change;
#X obj 227 351 change;
#X obj 97 334 glsl_vertex;
#X obj 97 412 glsl_fragment;
#X obj 238 544 t b;
#X obj 295 457 f;
#X msg 182 484 link \$2 \$1;
#X obj 295 430 r \$0-blur;
#X msg 295 482 blur_size \$1;
#X obj 399 257 gemframebuffer;
#X obj 399 288 translateXYZ 0 0 -4;
#X obj 27 609 outlet;
#X obj 21 609 cnv 5 5 17 empty empty empty 20 12 0 14 -102336 -66577
0;
#X obj 399 611 square 4;
#X obj 97 588 pix_texture;
#X obj 97 613 square 4;
#X obj 97 260 gemframebuffer;
#X obj 97 285 translateXYZ 0 0 -4;
#X obj 132 224 r \$0-bufs;
#X obj 418 230 r \$0-bufs;
#X obj 399 586 pix_texture;
#X obj 336 96 bang;
#X obj 238 285 t s s;
#X msg 245 317 open \$1.v.vert;
#X msg 109 383 open \$1.v.frag;
#X msg 411 382 open \$1.h.frag;
#X msg 530 316 open \$1.h.vert;
#X obj 530 288 t s s;
#X msg 290 79 bang;
#X text 426 204 1.);
#X text 147 199 2.);
#X obj 412 560 r \$0-texs;
#X obj 118 560 r \$0-texs;
#X msg 516 516 print;
#X obj 642 315 inlet;
#X obj 737 21 inlet;
#X obj 91 105 cnv 5 5 17 empty empty empty 20 12 0 14 -118750 -66577
0;
#X obj 289 430 cnv 5 5 17 empty empty empty 20 12 0 14 -260626 -66577
0;
#X obj 21 609 cnv 5 5 17 empty empty empty 20 12 0 14 -102336 -66577
0;
#X obj 126 224 cnv 5 5 17 empty empty empty 20 12 0 14 -260626 -66577
0;
#X obj 412 230 cnv 5 5 17 empty empty empty 20 12 0 14 -260626 -66577
0;
#X obj 406 560 cnv 5 5 17 empty empty empty 20 12 0 14 -260626 -66577
0;
#X obj 112 560 cnv 5 5 17 empty empty empty 20 12 0 14 -260626 -66577
0;
#X obj 636 315 cnv 5 5 17 empty empty empty 20 12 0 14 -118750 -66577
0;
#X obj 731 21 cnv 5 5 17 empty empty empty 20 12 0 14 -118750 -66577
0;
#X obj 617 245 tgl 18 0 \$0-tog \$0-tog-r empty 17 7 0 10 -262144 -1
-1 1 1;
#X msg 238 569 1;
#X obj 238 594 s \$0-tog-r;
#X obj 232 594 cnv 5 5 17 empty empty empty 20 12 0 14 -194593 -66577
0;
#X obj 737 125 s \$0-tog-r;
#X obj 731 125 cnv 5 5 17 empty empty empty 20 12 0 14 -194593 -66577
0;
#X obj 737 102 clip 0 1;
#X obj 766 70 cnv 5 5 17 empty empty empty 20 12 0 14 -194593 -66577
0;
#X obj 772 70 s \$0-blur-r;
#X obj 812 257 cnv 5 5 17 empty empty empty 20 12 0 14 -260626 -66577
0;
#X obj 818 257 r \$0-tog;
#X obj 136 130 cnv 5 5 17 empty empty empty 20 12 0 14 -260626 -66577
0;
#X obj 142 130 r \$0-tog;
#X obj 97 154 spigot 1;
#X obj 812 324 cnv 5 5 17 empty empty empty 20 12 0 14 -194593 -66577
0;
#X msg 818 300 color \$1 \$1 \$1;
#X obj 818 324 s \$0-cnv-r;
#X obj 818 279 * 7;
#X obj 63 11 hradio 18 1 0 2 \$0-hradio \$0-hradio-r empty 0 0 0 10
-262144 -1 -1 1;
#X obj 611 198 cnv 5 5 17 empty empty empty 20 12 0 14 -260626 -66577
0;
#X obj 617 198 r \$0-hradio;
#X obj 617 221 t b;
#X obj 11 11 cnv 8 88 18 \$0-cnv \$0-cnv-r empty 20 23 1 9 -225280
-225280 0;
#X obj 10 10 nbx 4 20 0 100 0 0 \$0-blur \$0-blur-r blur 60 10 1 12
-262144 -1 -1 0 256;
#X obj 97 177 t a a, f 28;
#X obj 21 526 cnv 5 5 17 empty empty empty 20 12 0 14 -260626 -66577
0;
#X obj 27 526 r \$0-tog;
#X obj 817 125 s \$0-bufs;
#X obj 811 125 cnv 5 5 17 empty empty empty 20 12 0 14 -194593 -66577
0;
#X msg 817 101 dimen \$1 \$2;
#X obj 336 187 t s s b b;
#X text 91 57 gemlist (must be higher order than the "pix in" gemlist)
, f 21;
#X text 781 20 messages;
#X obj 737 43 route on float dim;
#X msg 642 340 \$2 \$3;
#X obj 642 362 unpack, f 8;
#X obj 642 384 change;
#X obj 687 384 change;
#X obj 642 436 pack;
#X obj 687 405 t b f;
#X msg 642 458 dimen \$1 \$2;
#X text 677 434 update gfb dimen;
#X obj 636 480 cnv 5 5 17 empty empty empty 20 12 0 14 -194593 -66577
0;
#X obj 617 459 bng 15 250 50 0 empty empty empty 17 7 0 10 -262144
-1 -1;
#X obj 735 344 cnv 5 5 17 empty empty empty 20 12 0 14 -260626 -66577
0;
#X obj 741 344 r \$0-lb;
#X msg 741 367 set -2;
#X text 642 294 framebuffer id in;
#X obj 461 204 cnv 5 5 17 empty empty empty 20 12 0 14 -194593 -66577
0;
#X obj 467 204 s \$0-lb;
#X obj 668 630 s \$0-bufs;
#X msg 668 569 type BYTE \, format RGBA \, dimen 640 480 \, rectangle
1 \, texunit 0, f 19;
#X obj 804 591 s \$0-texs;
#X msg 804 569 rectangle 1;
#X obj 662 630 cnv 5 5 17 empty empty empty 20 12 0 14 -194593 -66577
0;
#X obj 798 591 cnv 5 5 17 empty empty empty 20 12 0 14 -194593 -66577
0;
#X obj 731 531 cnv 5 5 17 empty empty empty 20 12 0 14 -260626 -66577
0;
#X obj 737 531 r \$0-lb;
#X obj 642 480 s \$0-bufs;
#X obj 27 586 mux 0 1;
#X obj 472 15 declare -stdlib Gem -lib Gem, f 33;
#X obj 472 32 declare -stdlib zexy -lib zexy, f 33;
#X obj 472 49 declare -stdpath tof -path tof, f 33;
#X obj 336 117 path current;
#X obj 336 139 l2s;
#X obj 238 261 l2s;
#X obj 530 264 l2s;
#X obj 336 163 makefilename %s/ol_glsl_shaders/gaussian_blur/gaussian_blur
;
#X obj 472 97 cnv 10 160 20 empty empty needs GEM ZEXY TOF 10 11
0 14 -4160 -262144 0;
#X connect 0 0 37 0;
#X connect 1 0 8 0;
#X connect 2 0 1 0;
#X connect 3 0 1 1;
#X connect 4 0 5 0;
#X connect 4 1 3 0;
#X connect 5 0 0 0;
#X connect 5 1 2 0;
#X connect 6 0 75 0;
#X connect 8 0 0 0;
#X connect 9 0 10 0;
#X connect 10 0 11 0;
#X connect 11 0 38 0;
#X connect 15 0 31 0;
#X connect 15 1 21 0;
#X connect 16 0 23 0;
#X connect 17 0 16 0;
#X connect 18 0 16 1;
#X connect 19 0 20 0;
#X connect 19 1 18 0;
#X connect 20 0 15 0;
#X connect 20 1 17 0;
#X connect 21 0 22 0;
#X connect 21 0 63 0;
#X connect 22 0 25 0;
#X connect 23 0 15 0;
#X connect 24 0 22 0;
#X connect 25 0 15 0;
#X connect 25 0 0 0;
#X connect 26 0 27 0;
#X connect 26 1 31 1;
#X connect 27 0 4 0;
#X connect 31 0 32 0;
#X connect 33 0 34 0;
#X connect 33 1 121 1;
#X connect 34 0 19 0;
#X connect 35 0 33 0;
#X connect 36 0 26 0;
#X connect 37 0 30 0;
#X connect 38 0 125 0;
#X connect 39 0 41 0;
#X connect 39 1 40 0;
#X connect 40 0 19 0;
#X connect 41 0 20 0;
#X connect 42 0 5 0;
#X connect 43 0 4 0;
#X connect 44 0 42 0;
#X connect 44 1 43 0;
#X connect 45 0 38 0;
#X connect 48 0 37 0;
#X connect 49 0 31 0;
#X connect 50 0 0 0;
#X connect 51 0 37 1;
#X connect 51 0 96 0;
#X connect 51 0 121 0;
#X connect 52 0 95 0;
#X connect 63 0 64 0;
#X connect 68 0 66 0;
#X connect 72 0 79 0;
#X connect 74 0 75 1;
#X connect 75 0 86 0;
#X connect 77 0 78 0;
#X connect 79 0 77 0;
#X connect 82 0 83 0;
#X connect 83 0 62 0;
#X connect 86 0 33 0;
#X connect 86 1 26 0;
#X connect 88 0 121 2;
#X connect 91 0 89 0;
#X connect 92 0 127 0;
#X connect 92 1 128 0;
#X connect 92 3 111 0;
#X connect 95 0 68 0;
#X connect 95 1 70 0;
#X connect 95 2 91 0;
#X connect 96 0 97 0;
#X connect 97 0 98 0;
#X connect 97 1 99 0;
#X connect 98 0 100 0;
#X connect 99 0 101 0;
#X connect 100 0 102 0;
#X connect 100 0 105 0;
#X connect 101 0 100 0;
#X connect 101 1 100 1;
#X connect 102 0 120 0;
#X connect 107 0 108 0;
#X connect 108 0 98 0;
#X connect 108 0 99 0;
#X connect 113 0 112 0;
#X connect 115 0 114 0;
#X connect 119 0 113 0;
#X connect 119 0 115 0;
#X connect 121 0 28 0;
#X connect 125 0 126 0;
#X connect 126 0 129 0;
#X connect 127 0 39 0;
#X connect 128 0 44 0;
#X connect 129 0 92 0;
#X coords 0 -1 1 1 90 20 2 10 10;
