#N canvas 535 92 627 689 10;
#X declare -stdlib Gem -lib Gem;
#X obj 203 95 gemhead;
#X obj 203 207 gemhead;
#X obj 203 268 rotateXYZ;
#X obj 203 177 cube 0.75;
#X obj 203 137 translateXYZ 2 2 0;
#X obj 203 247 translateXYZ 2 -2 0;
#X obj 203 157 rotateXYZ 45 0 0;
#X obj 203 289 square 0.75;
#X obj 23 97 gemhead;
#X obj 23 203 gemhead;
#X obj 23 137 translateXYZ -2 2 0;
#X obj 23 160 sphere 0.75 30;
#X obj 23 244 translateXYZ -2 -2 0;
#X obj 23 265 circle 0.75;
#X obj 23 223 color 1 0.8 0.8;
#X floatatom 79 204 5 0 0 0 - - -;
#X floatatom 266 269 5 0 0 0 - - -;
#X floatatom 311 160 5 0 0 0 - - -;
#X floatatom 135 117 5 0 0 0 - - -;
#X obj 464 47 namecanvas \$0-ol_help;
#N canvas 1140 50 626 800 init 0;
#X obj 461 76 cnv 8 120 26 empty empty empty 20 12 0 14 -204786 -66577
0;
#X obj 20 330 cnv 8 120 25 empty empty empty 20 12 0 14 -204786 -66577
0;
#X msg 245 33 vis 0 \, relocate \$3x\$4+0+0 0x0+\$1+\$2 \, vis 1 \,
editmode 0;
#X obj 245 55 s \$0-ol_help;
#X msg 145 125 520 50 600 400;
#X obj 91 278 s \$0-frame-r;
#X floatatom 91 235 5 0 0 0 - - -;
#X floatatom 29 380 5 0 0 0 - - -;
#X obj 28 420 s \$0-title-r;
#X msg 98 359 label \$1;
#X floatatom 263 163 5 0 0 0 - - -;
#X obj 263 203 s \$0-bgnd-r;
#X obj 17 160 del 10;
#X obj 17 130 t b b;
#X text 235 80 1.) set pos and size of main window;
#X msg 145 174 \$3;
#X obj 91 191 f;
#X text 128 211 minus frame sizes;
#X text 82 307 2.) set name of title;
#X obj 17 182 s \$0-lb;
#X obj 91 166 r \$0-lb;
#X obj 29 308 r \$0-lb;
#X obj 29 359 unpack 0 s;
#X text 273 478 3.) set description;
#X obj 243 292 s \$0-frame2-r;
#X obj 182 433 s \$0-text1-r;
#X obj 29 618 cnv 3 68 15 empty empty empty 2 7 0 10 -257985 -66577
0;
#N canvas 341 335 425 542 tosymbol 0;
#X obj 67 94 list length;
#X obj 67 42 list;
#X obj 101 226 list, f 7;
#X obj 67 175 f, f 10;
#X obj 154 175 + 1;
#X obj 67 150 until;
#X obj 101 251 list split;
#X msg 157 94 0;
#X obj 139 276 list split 1;
#X obj 139 361 list fromsymbol;
#X obj 139 302 route symbol float;
#X obj 191 329 makefilename %s;
#X obj 139 435 textfile;
#X msg 202 94 clear;
#X obj 139 387 list prepend add2;
#X obj 67 201 t b b b f;
#X obj 79 276 + 1;
#X obj 67 122 t f f;
#X obj 78 300 <;
#X obj 20 335 spigot;
#X msg 20 394 add2 32;
#X obj 139 411 list trim;
#X obj 67 335 f;
#X obj 67 361 sel 0;
#X obj 139 463 list tosymbol;
#X obj 67 68 t l l b b, f 23;
#X text 184 486 symbol out with correct spaces;
#X text 57 2 string in;
#X msg 136 25 #/zi 3 4 oo ä;
#X msg 229 25 1.23457e+19;
#X floatatom 315 28 5 0 0 0 - - -;
#X obj 67 22 cnv 13 34 15 empty empty empty 2 2 0 9 -163816 -66577
0;
#X obj 139 487 cnv 14 40 15 empty empty empty 2 2 0 9 -163840 -66577
0;
#X obj 67 21 inlet;
#X obj 139 486 outlet;
#X connect 0 0 17 0;
#X connect 1 0 25 0;
#X connect 2 0 6 0;
#X connect 3 0 4 0;
#X connect 3 0 15 0;
#X connect 4 0 3 1;
#X connect 5 0 3 0;
#X connect 6 1 8 0;
#X connect 7 0 3 1;
#X connect 8 0 10 0;
#X connect 9 0 14 0;
#X connect 10 0 9 0;
#X connect 10 1 11 0;
#X connect 11 0 9 0;
#X connect 12 0 24 0;
#X connect 13 0 12 0;
#X connect 14 0 21 0;
#X connect 15 0 22 0;
#X connect 15 1 19 0;
#X connect 15 2 2 0;
#X connect 15 3 6 1;
#X connect 15 3 16 0;
#X connect 16 0 18 0;
#X connect 17 0 5 0;
#X connect 17 1 18 1;
#X connect 18 0 19 1;
#X connect 18 0 22 1;
#X connect 19 0 20 0;
#X connect 20 0 12 0;
#X connect 21 0 12 0;
#X connect 22 0 23 0;
#X connect 23 0 12 0;
#X connect 24 0 34 0;
#X connect 25 0 0 0;
#X connect 25 1 2 1;
#X connect 25 2 7 0;
#X connect 25 3 13 0;
#X connect 28 0 1 0;
#X connect 29 0 1 0;
#X connect 30 0 1 0;
#X connect 33 0 1 0;
#X restore 28 617 pd tosymbol;
#X obj 199 360 r \$0-lb;
#X obj 199 383 t b b;
#X obj 268 433 s \$0-text2-r;
#X obj 354 433 s \$0-text3-r;
#X msg 28 458 bang;
#X msg 91 254 vis_size \$1 45;
#X msg 243 270 vis_size \$1 43;
#X obj 350 291 s \$0-title-r;
#X msg 350 270 vis_size \$1 43;
#X text 425 195 init text labels;
#X obj 28 706 pack s 0 0;
#X msg 28 727 label \$1 \, label_pos \$2 \$3;
#X obj 531 494 unpack;
#X msg 531 470 24 -34;
#X obj 493 418 pack;
#X floatatom 493 381 5 0 0 0 - - -;
#X floatatom 531 381 5 0 0 0 - - -;
#X obj 531 401 t b f;
#X msg 545 441 set \$1 \$2;
#X obj 493 441 t b b l;
#X text 503 360 x;
#X text 540 360 y;
#X text 466 342 4.) set label position;
#X obj 564 515 f;
#X msg 321 337 color \$1 \$1 \$1;
#X msg 263 181 vis_size \$1 55;
#X floatatom 52 233 5 0 0 0 - - -;
#X obj 91 212 - 13;
#X obj 263 142 + 10;
#X obj 349 249 - 337;
#X obj 243 249 - 254;
#X obj 56 58 t b f;
#X msg 260 360 -1.47533e+06;
#X msg 260 338 set \$1;
#X obj 56 11 loadbang;
#N canvas 36 456 791 300 better_colors 0;
#X obj 89 19 inlet;
#X obj 320 262 outlet;
#X obj 89 40 random 10;
#X obj 89 61 sel 0 1 2 3 4 5 6 7 8 9, f 83;
#X obj 320 239 expr ($f1*(-65536)+$f2*(-256)+$f3*(-1))-1;
#X msg 16 162 140 0 0;
#X msg 69 162 0 156 144;
#X msg 136 162 0 140 0;
#X msg 252 162 231 112 0;
#X msg 191 162 100 0 255;
#X msg 317 162 100 100 100;
#X msg 397 162 255 255 0;
#X msg 541 162 123 33 5;
#X msg 464 162 22 131 5;
#X msg 607 163 147 0 163;
#X connect 0 0 2 0;
#X connect 2 0 3 0;
#X connect 3 0 5 0;
#X connect 3 1 6 0;
#X connect 3 2 7 0;
#X connect 3 3 9 0;
#X connect 3 4 8 0;
#X connect 3 5 10 0;
#X connect 3 6 11 0;
#X connect 3 7 13 0;
#X connect 3 8 12 0;
#X connect 3 9 14 0;
#X connect 4 0 1 0;
#X connect 5 0 4 0;
#X connect 6 0 4 0;
#X connect 7 0 4 0;
#X connect 8 0 4 0;
#X connect 9 0 4 0;
#X connect 10 0 4 0;
#X connect 11 0 4 0;
#X connect 12 0 4 0;
#X connect 13 0 4 0;
#X connect 14 0 4 0;
#X restore 56 34 pd better_colors;
#X obj 56 84 del 50;
#X msg 170 17 bang;
#X text 152 152 width;
#X msg 29 398 label_pos \$1 21;
#X obj 479 124 list prepend set;
#X obj 479 146 list trim;
#X text 246 10 probably dangerous when initialized with loadbang!;
#X msg 29 333 60 ol_gemwin;
#X obj 28 762 s \$0-text1-r;
#X obj 195 706 pack s 0 0;
#X obj 195 762 s \$0-text2-r;
#X obj 351 706 pack s 0 0;
#X msg 351 727 label \$1 \, label_pos \$2 \$3;
#X obj 351 762 s \$0-text3-r;
#X obj 28 640 list prepend 0;
#X msg 195 727 label \$1 \, label_pos \$2 \$3 \, label_font 1 11,
f 23;
#X obj 564 537 + 14;
#X obj 564 560 + 14;
#X msg 135 549 frame rates etc...;
#X obj 28 480 t b b b b b b b, f 20;
#X obj 28 664 route 1 2 3, f 17;
#X msg 86 502 2, f 1;
#X msg 125 501 1, f 1;
#X msg 47 502 3, f 1;
#X msg 153 573 empty;
#X msg 106 525 gemwin utility to define window sizes;
#X msg 479 80 520 50 600 400;
#X msg 260 383 size 1 \, pos 300 65 \, vis_size 1 1 \, color \$1 \$1
2 \, label_font 1 11 \, label, f 26;
#X connect 2 0 3 0;
#X connect 4 0 15 0;
#X connect 6 0 33 0;
#X connect 6 0 56 0;
#X connect 6 0 57 0;
#X connect 6 0 58 0;
#X connect 7 0 67 0;
#X connect 9 0 8 0;
#X connect 10 0 53 0;
#X connect 12 0 19 0;
#X connect 13 0 12 0;
#X connect 13 1 4 0;
#X connect 15 0 16 1;
#X connect 16 0 55 0;
#X connect 20 0 16 0;
#X connect 21 0 71 0;
#X connect 22 0 7 0;
#X connect 22 1 9 0;
#X connect 27 0 78 0;
#X connect 28 0 29 0;
#X connect 29 0 83 0;
#X connect 29 1 41 0;
#X connect 29 1 60 0;
#X connect 32 0 83 0;
#X connect 33 0 5 0;
#X connect 34 0 24 0;
#X connect 36 0 35 0;
#X connect 38 0 39 0;
#X connect 39 0 72 0;
#X connect 40 0 38 1;
#X connect 40 0 73 1;
#X connect 40 0 75 1;
#X connect 40 1 51 0;
#X connect 41 0 40 0;
#X connect 42 0 47 0;
#X connect 43 0 42 0;
#X connect 44 0 45 0;
#X connect 45 0 42 0;
#X connect 45 1 42 1;
#X connect 46 0 41 0;
#X connect 47 0 32 0;
#X connect 47 1 41 0;
#X connect 47 2 46 0;
#X connect 51 0 38 2;
#X connect 51 0 80 0;
#X connect 52 0 11 0;
#X connect 53 0 11 0;
#X connect 54 0 33 0;
#X connect 55 0 6 0;
#X connect 56 0 10 0;
#X connect 57 0 36 0;
#X connect 58 0 34 0;
#X connect 59 0 64 0;
#X connect 59 1 61 0;
#X connect 60 0 91 0;
#X connect 60 0 52 0;
#X connect 61 0 60 0;
#X connect 62 0 63 0;
#X connect 63 0 59 0;
#X connect 64 0 13 0;
#X connect 65 0 63 0;
#X connect 67 0 8 0;
#X connect 68 0 69 0;
#X connect 69 0 4 0;
#X connect 71 0 22 0;
#X connect 73 0 79 0;
#X connect 75 0 76 0;
#X connect 76 0 77 0;
#X connect 78 0 84 0;
#X connect 79 0 74 0;
#X connect 80 0 73 2;
#X connect 80 0 81 0;
#X connect 81 0 75 2;
#X connect 82 0 27 0;
#X connect 83 0 88 0;
#X connect 83 1 87 0;
#X connect 83 2 82 0;
#X connect 83 3 85 0;
#X connect 83 4 89 0;
#X connect 83 5 86 0;
#X connect 84 0 38 0;
#X connect 84 1 73 0;
#X connect 84 2 75 0;
#X connect 85 0 78 1;
#X connect 86 0 78 1;
#X connect 87 0 78 1;
#X connect 88 0 27 0;
#X connect 89 0 27 0;
#X connect 90 0 2 0;
#X connect 90 0 68 0;
#X connect 91 0 25 0;
#X connect 91 0 30 0;
#X connect 91 0 31 0;
#X restore 19 48 pd init;
#X obj 11 11 cnv 8 597 55 \$0-bgnd \$0-bgnd-r empty 0 20 0 4 -22530
-22530 0;
#X obj 15 16 cnv 8 587 45 \$0-frame \$0-frame-r empty 20 20 0 14 -1
-262144 0;
#X obj 16 17 cnv 15 250 43 \$0-title \$0-title-r ol_gemwin 60 21 1
24 -236864 -64 0;
#X obj 268 17 cnv 15 333 43 \$0-frame2 \$0-frame2-r empty 25 18 1 24
-216384 -4160 0;
#X obj 300 65 cnv 1 1 1 \$0-text1 \$0-text1-r gemwin utility to define window sizes
24 -34 1 11 -22530 -66577 0;
#X obj 300 65 cnv 1 1 1 \$0-text2 \$0-text2-r frame rates etc... 24
-20 1 11 -22530 -66577 0;
#X obj 300 65 cnv 1 1 1 \$0-text3 \$0-text3-r empty 24 -6 1 11 -22530
-66577 0;
#X obj 375 89 cnv 14 200 15 empty empty empty 2 2 0 9 -253181 -66577
0;
#X text 32 318 USAGE:;
#X obj 203 116 color 0.2 0.8 1;
#X obj 203 227 color 1 0.2 0.8;
#X text 31 400 2 settings can be called with the "window" selector.
The idea is to have a setting for the GEM window on your working display
and one for the projection display (beamer etc.), f 47;
#X text 32 345 The main purpose of this GUI is to provide an easy way
to put the GEM window to desired positions \, sizes \, frame and FSAA
value., f 45;
#X obj 373 213 cnv 15 220 300 empty empty empty 20 12 0 14 -233017
-66577 0;
#X text 391 285 lines 1-5 are window 1 settings;
#X text 391 297 lines 6-10 are window 2 settings;
#X text 391 325 a preset settings is a 6-value list \, terminated by
a semicolon:, f 32;
#X text 391 379 320 240 400 0 1 0 \;;
#X text 391 364 example:;
#X text 390 401 the values:;
#X text 33 623 Set the rendering fps with the numberbox labeled "FPS"
, f 64;
#X text 34 638 The small button in the top-right corner sends a "print"
message to the gemwin, f 82;
#X obj 23 117 color 0 1 0;
#X text 33 519 Clicking a "window" button opens the GEM window with
the corresponding settings and starts rendering., f 53;
#X text 35 559 When [ol_gemwin] is present in a patch \, "ESC" will
switch between window setting 1 and 2, f 92;
#X obj 373 122 ol_gemwin;
#X text 391 418 1: size x \; 2: size y \; 3: position x \; 4: position
y \; 5: frame (0/1) \; 6: fsaa (0 \, 1 \, 2 \, );
#X obj 374 88 declare -stdlib Gem -lib Gem, f 33;
#X text 391 219 the preset settings are stored in the "ol_gui" directory
in a file called ol_gemwin_presets.txt, f 28;
#X obj 27 463 cnv 5 333 50 empty empty empty 20 12 0 14 -261234 -66577
0;
#X text 33 466 If you want to have a "fullscreen 1" message instead
of a size \, simply put one of both parameters to 0 That will do it.
, f 52;
#X obj 29 593 cnv 5 400 20 empty empty empty 20 12 0 14 -261234 -66577
0;
#X text 34 593 To close the GEM window (and stop rendering) \, click
on "RENDER", f 64;
#X connect 0 0 30 0;
#X connect 1 0 31 0;
#X connect 2 0 7 0;
#X connect 4 0 6 0;
#X connect 5 0 2 0;
#X connect 6 0 3 0;
#X connect 8 0 43 0;
#X connect 9 0 14 0;
#X connect 10 0 11 0;
#X connect 12 0 13 0;
#X connect 14 0 12 0;
#X connect 15 0 12 1;
#X connect 16 0 2 3;
#X connect 17 0 6 3;
#X connect 18 0 10 3;
#X connect 30 0 4 0;
#X connect 31 0 5 0;
#X connect 43 0 10 0;
