#N canvas 535 92 677 856 10;
#X declare -stdlib Gem -lib Gem;
#X obj 464 45 namecanvas \$0-ol_help;
#N canvas 1031 173 626 800 init 0;
#X obj 461 76 cnv 8 120 26 empty empty empty 20 12 0 14 -204786 -66577
0;
#X obj 20 330 cnv 8 120 25 empty empty empty 20 12 0 14 -204786 -66577
0;
#X msg 245 33 vis 0 \, relocate \$3x\$4+0+0 0x0+\$1+\$2 \, vis 1 \,
editmode 0;
#X obj 245 55 s \$0-ol_help;
#X msg 145 125 510 50 650 800;
#X obj 91 278 s \$0-frame-r;
#X floatatom 91 235 5 0 0 0 - - -;
#X floatatom 29 380 5 0 0 0 - - -;
#X obj 28 420 s \$0-title-r;
#X msg 98 359 label \$1;
#X floatatom 263 163 5 0 0 0 - - -;
#X obj 263 203 s \$0-bgnd-r;
#X obj 17 160 del 10;
#X obj 17 130 t b b;
#X text 235 80 1.) set pos and size of main window;
#X msg 145 174 \$3;
#X obj 91 191 f;
#X text 128 211 minus frame sizes;
#X text 82 307 2.) set name of title;
#X obj 17 182 s \$0-lb;
#X obj 91 166 r \$0-lb;
#X obj 29 308 r \$0-lb;
#X obj 29 359 unpack 0 s;
#X text 273 478 3.) set description;
#X obj 243 292 s \$0-frame2-r;
#X obj 182 433 s \$0-text1-r;
#X obj 29 618 cnv 3 68 15 empty empty empty 2 7 0 10 -257985 -66577
0;
#N canvas 341 335 425 542 tosymbol 0;
#X obj 67 94 list length;
#X obj 67 42 list;
#X obj 101 226 list, f 7;
#X obj 67 175 f, f 10;
#X obj 154 175 + 1;
#X obj 67 150 until;
#X obj 101 251 list split;
#X msg 157 94 0;
#X obj 139 276 list split 1;
#X obj 139 361 list fromsymbol;
#X obj 139 302 route symbol float;
#X obj 191 329 makefilename %s;
#X obj 139 435 textfile;
#X msg 202 94 clear;
#X obj 139 387 list prepend add2;
#X obj 67 201 t b b b f;
#X obj 79 276 + 1;
#X obj 67 122 t f f;
#X obj 78 300 <;
#X obj 20 335 spigot;
#X msg 20 394 add2 32;
#X obj 139 411 list trim;
#X obj 67 335 f;
#X obj 67 361 sel 0;
#X obj 139 463 list tosymbol;
#X obj 67 68 t l l b b, f 23;
#X text 184 486 symbol out with correct spaces;
#X text 57 2 string in;
#X msg 136 25 #/zi 3 4 oo ä;
#X msg 229 25 1.23457e+19;
#X floatatom 315 28 5 0 0 0 - - -;
#X obj 67 22 cnv 13 34 15 empty empty empty 2 2 0 9 -163816 -66577
0;
#X obj 139 487 cnv 14 40 15 empty empty empty 2 2 0 9 -163840 -66577
0;
#X obj 67 21 inlet;
#X obj 139 486 outlet;
#X connect 0 0 17 0;
#X connect 1 0 25 0;
#X connect 2 0 6 0;
#X connect 3 0 4 0;
#X connect 3 0 15 0;
#X connect 4 0 3 1;
#X connect 5 0 3 0;
#X connect 6 1 8 0;
#X connect 7 0 3 1;
#X connect 8 0 10 0;
#X connect 9 0 14 0;
#X connect 10 0 9 0;
#X connect 10 1 11 0;
#X connect 11 0 9 0;
#X connect 12 0 24 0;
#X connect 13 0 12 0;
#X connect 14 0 21 0;
#X connect 15 0 22 0;
#X connect 15 1 19 0;
#X connect 15 2 2 0;
#X connect 15 3 6 1;
#X connect 15 3 16 0;
#X connect 16 0 18 0;
#X connect 17 0 5 0;
#X connect 17 1 18 1;
#X connect 18 0 19 1;
#X connect 18 0 22 1;
#X connect 19 0 20 0;
#X connect 20 0 12 0;
#X connect 21 0 12 0;
#X connect 22 0 23 0;
#X connect 23 0 12 0;
#X connect 24 0 34 0;
#X connect 25 0 0 0;
#X connect 25 1 2 1;
#X connect 25 2 7 0;
#X connect 25 3 13 0;
#X connect 28 0 1 0;
#X connect 29 0 1 0;
#X connect 30 0 1 0;
#X connect 33 0 1 0;
#X restore 28 617 pd tosymbol;
#X obj 199 360 r \$0-lb;
#X obj 199 383 t b b;
#X obj 268 433 s \$0-text2-r;
#X obj 354 433 s \$0-text3-r;
#X msg 28 458 bang;
#X msg 91 254 vis_size \$1 45;
#X msg 243 270 vis_size \$1 43;
#X obj 350 291 s \$0-title-r;
#X msg 350 270 vis_size \$1 43;
#X text 425 195 init text labels;
#X obj 28 706 pack s 0 0;
#X msg 28 727 label \$1 \, label_pos \$2 \$3;
#X obj 531 494 unpack;
#X msg 531 470 38 -25;
#X obj 493 418 pack;
#X floatatom 493 381 5 0 0 0 - - -;
#X floatatom 531 381 5 0 0 0 - - -;
#X obj 531 401 t b f;
#X msg 545 441 set \$1 \$2;
#X obj 493 441 t b b l;
#X text 503 360 x;
#X text 540 360 y;
#X text 466 342 4.) set label position;
#X obj 564 515 f;
#X msg 321 337 color \$1 \$1 \$1;
#X msg 263 181 vis_size \$1 55;
#X floatatom 52 233 5 0 0 0 - - -;
#X obj 91 212 - 13;
#X obj 263 142 + 10;
#X obj 349 249 - 337;
#X obj 243 249 - 254;
#X obj 56 58 t b f;
#X msg 260 360 -9.63396e+06;
#X msg 260 338 set \$1;
#X obj 56 11 loadbang;
#N canvas 36 456 791 300 better_colors 0;
#X obj 89 19 inlet;
#X obj 320 262 outlet;
#X obj 89 40 random 10;
#X obj 89 61 sel 0 1 2 3 4 5 6 7 8 9, f 83;
#X obj 320 239 expr ($f1*(-65536)+$f2*(-256)+$f3*(-1))-1;
#X msg 16 162 140 0 0;
#X msg 69 162 0 156 144;
#X msg 136 162 0 140 0;
#X msg 252 162 231 112 0;
#X msg 191 162 100 0 255;
#X msg 317 162 100 100 100;
#X msg 397 162 255 255 0;
#X msg 541 162 123 33 5;
#X msg 464 162 22 131 5;
#X msg 607 163 147 0 163;
#X connect 0 0 2 0;
#X connect 2 0 3 0;
#X connect 3 0 5 0;
#X connect 3 1 6 0;
#X connect 3 2 7 0;
#X connect 3 3 9 0;
#X connect 3 4 8 0;
#X connect 3 5 10 0;
#X connect 3 6 11 0;
#X connect 3 7 13 0;
#X connect 3 8 12 0;
#X connect 3 9 14 0;
#X connect 4 0 1 0;
#X connect 5 0 4 0;
#X connect 6 0 4 0;
#X connect 7 0 4 0;
#X connect 8 0 4 0;
#X connect 9 0 4 0;
#X connect 10 0 4 0;
#X connect 11 0 4 0;
#X connect 12 0 4 0;
#X connect 13 0 4 0;
#X connect 14 0 4 0;
#X restore 56 34 pd better_colors;
#X obj 56 84 del 50;
#X msg 170 17 bang;
#X text 152 152 width;
#X msg 29 398 label_pos \$1 21;
#X obj 479 124 list prepend set;
#X obj 479 146 list trim;
#X text 246 10 probably dangerous when initialized with loadbang!;
#X obj 28 762 s \$0-text1-r;
#X obj 195 706 pack s 0 0;
#X obj 195 762 s \$0-text2-r;
#X obj 351 706 pack s 0 0;
#X msg 351 727 label \$1 \, label_pos \$2 \$3;
#X obj 351 762 s \$0-text3-r;
#X obj 28 640 list prepend 0;
#X msg 195 727 label \$1 \, label_pos \$2 \$3 \, label_font 1 11,
f 23;
#X obj 564 537 + 14;
#X obj 564 560 + 14;
#X obj 28 480 t b b b b b b b, f 20;
#X obj 28 664 route 1 2 3, f 17;
#X msg 86 502 2, f 1;
#X msg 125 501 1, f 1;
#X msg 47 502 3, f 1;
#X msg 153 573 empty;
#X msg 135 549 empty;
#X obj 531 272 loadbang;
#X msg 531 293 set -26;
#X msg 29 333 21 ol_glsl_chromakey;
#X msg 106 525 a glsl shader for chromakeying;
#X msg 479 80 510 50 650 800;
#X msg 260 383 size 1 \, pos 300 65 \, vis_size 1 1 \, color \$1 \$1
2 \, label_font 1 11 \, label, f 26;
#X connect 2 0 3 0;
#X connect 4 0 15 0;
#X connect 6 0 33 0;
#X connect 6 0 56 0;
#X connect 6 0 57 0;
#X connect 6 0 58 0;
#X connect 7 0 67 0;
#X connect 9 0 8 0;
#X connect 10 0 53 0;
#X connect 12 0 19 0;
#X connect 13 0 12 0;
#X connect 13 1 4 0;
#X connect 15 0 16 1;
#X connect 16 0 55 0;
#X connect 20 0 16 0;
#X connect 21 0 90 0;
#X connect 22 0 7 0;
#X connect 22 1 9 0;
#X connect 27 0 77 0;
#X connect 28 0 29 0;
#X connect 29 0 81 0;
#X connect 29 1 41 0;
#X connect 29 1 60 0;
#X connect 32 0 81 0;
#X connect 33 0 5 0;
#X connect 34 0 24 0;
#X connect 36 0 35 0;
#X connect 38 0 39 0;
#X connect 39 0 71 0;
#X connect 40 0 38 1;
#X connect 40 0 72 1;
#X connect 40 0 74 1;
#X connect 40 1 51 0;
#X connect 41 0 40 0;
#X connect 42 0 47 0;
#X connect 43 0 42 0;
#X connect 44 0 45 0;
#X connect 45 0 42 0;
#X connect 45 1 42 1;
#X connect 46 0 41 0;
#X connect 47 0 32 0;
#X connect 47 1 41 0;
#X connect 47 2 46 0;
#X connect 51 0 38 2;
#X connect 51 0 79 0;
#X connect 52 0 11 0;
#X connect 53 0 11 0;
#X connect 54 0 33 0;
#X connect 55 0 6 0;
#X connect 56 0 10 0;
#X connect 57 0 36 0;
#X connect 58 0 34 0;
#X connect 59 0 64 0;
#X connect 59 1 61 0;
#X connect 60 0 93 0;
#X connect 60 0 52 0;
#X connect 61 0 60 0;
#X connect 62 0 63 0;
#X connect 63 0 59 0;
#X connect 64 0 13 0;
#X connect 65 0 63 0;
#X connect 67 0 8 0;
#X connect 68 0 69 0;
#X connect 69 0 4 0;
#X connect 72 0 78 0;
#X connect 74 0 75 0;
#X connect 75 0 76 0;
#X connect 77 0 82 0;
#X connect 78 0 73 0;
#X connect 79 0 72 2;
#X connect 79 0 80 0;
#X connect 80 0 74 2;
#X connect 81 0 86 0;
#X connect 81 1 85 0;
#X connect 81 2 87 0;
#X connect 81 3 83 0;
#X connect 81 4 91 0;
#X connect 81 5 84 0;
#X connect 82 0 38 0;
#X connect 82 1 72 0;
#X connect 82 2 74 0;
#X connect 83 0 77 1;
#X connect 84 0 77 1;
#X connect 85 0 77 1;
#X connect 86 0 27 0;
#X connect 87 0 27 0;
#X connect 88 0 89 0;
#X connect 89 0 44 0;
#X connect 90 0 22 0;
#X connect 91 0 27 0;
#X connect 92 0 2 0;
#X connect 92 0 68 0;
#X connect 93 0 25 0;
#X connect 93 0 30 0;
#X connect 93 0 31 0;
#X restore 19 48 pd init;
#X obj 11 11 cnv 8 647 55 \$0-bgnd \$0-bgnd-r empty 0 20 0 4 -147497
-147497 0;
#X obj 15 16 cnv 8 637 45 \$0-frame \$0-frame-r empty 20 20 0 14 -1
-262144 0;
#X obj 16 17 cnv 15 300 43 \$0-title \$0-title-r ol_glsl_chromakey
21 21 1 24 -236864 -64 0;
#X obj 268 17 cnv 15 383 43 \$0-frame2 \$0-frame2-r empty 25 18 1 24
-216384 -4160 0;
#X obj 300 65 cnv 1 1 1 \$0-text1 \$0-text1-r a glsl shader for chromakeying
38 -25 1 11 -147497 -66577 0;
#X obj 300 65 cnv 1 1 1 \$0-text2 \$0-text2-r empty 38 -11 1 11 -147497
-66577 0;
#X obj 300 65 cnv 1 1 1 \$0-text3 \$0-text3-r empty 38 3 1 11 -147497
-66577 0;
#X obj 126 596 cnv 5 100 80 empty empty create_window 5 10 1 12 -204800
-66577 0;
#X text 30 774 To use other glsl shaders \, try [ol_glsl_shader] !
;
#X obj 52 504 ol_glsl_chromakey;
#X text 30 756 Don't change this location !;
#X obj 240 504 r \$0-ck;
#X obj 475 703 s \$0-ck;
#X msg 475 646 binary \$1;
#X msg 475 624 mode \$1;
#X msg 475 561 tol \$1;
#X msg 475 583 fade \$1;
#X msg 475 604 invert \$1;
#X msg 475 529 on \$1;
#X obj 456 529 tgl 15 0 empty empty empty 17 7 0 10 -262144 -1 -1 0
1;
#X floatatom 440 561 5 0 0 0 - - -;
#X floatatom 440 583 5 0 0 0 - - -;
#X floatatom 440 604 5 0 0 0 - - -;
#X floatatom 440 624 5 0 0 0 - - -;
#X floatatom 440 646 5 0 0 0 - - -;
#X msg 475 682 color 0 0 1 0;
#X obj 25 104 gemhead 52;
#X obj 288 94 gemhead 50;
#N canvas 0 50 450 300 counter 0;
#X obj 112 90 f;
#X obj 149 90 + 1;
#X obj 130 126 sel 100, f 11;
#X msg 68 143 0;
#X obj 238 43 inlet maximum;
#X obj 112 43 inlet bang;
#X obj 193 156 outlet count;
#X connect 0 0 1 0;
#X connect 0 0 2 0;
#X connect 1 0 0 1;
#X connect 2 0 3 0;
#X connect 2 1 6 0;
#X connect 3 0 0 0;
#X connect 4 0 2 1;
#X connect 5 0 0 0;
#X restore 341 242 pd counter;
#X floatatom 373 259 5 0 0 0 - - -;
#X msg 264 350 \$1;
#X obj 242 326 pix_film;
#X obj 242 188 gemframebuffer, f 15;
#X obj 242 211 translateXYZ 0 0 -4;
#X obj 242 430 pix_texture;
#X obj 242 452 square 4;
#X msg 335 430 rectangle 1;
#X msg 333 343 dimen \$2 \$3;
#X obj 242 162 r \$0-gfb;
#X obj 335 452 s \$0-gfb;
#X obj 106 104 gemhead 51;
#X msg 444 353 \$1;
#X obj 422 329 pix_film;
#X obj 422 186 gemframebuffer, f 15;
#X obj 422 209 translateXYZ 0 0 -4;
#X obj 422 430 pix_texture;
#X obj 422 452 square 4;
#X obj 452 161 r \$0-gfb;
#X obj 25 227 t a a;
#X text 65 566 1.: framebuffer id out, f 23;
#X msg 419 686 tex 3 4;
#X obj 106 183 t a a, f 6;
#X obj 288 117 t a a b b, f 26;
#X msg 118 233 rectangle 1 \, texunit 3, f 12;
#X obj 106 272 pix_texture;
#X msg 151 346 rectangle 1 \, texunit 4, f 12;
#X obj 139 383 pix_texture;
#X obj 25 631 pix_texture;
#X obj 294 630 loadbang;
#X obj 294 652 s \$0-lb;
#X obj 118 209 r \$0-lb;
#X obj 151 324 r \$0-lb;
#X obj 256 383 r \$0-lb;
#X msg 256 404 rectangle 1;
#X obj 435 383 r \$0-lb;
#X msg 435 404 rectangle 1;
#X obj 336 408 r \$0-lb;
#X obj 333 364 s \$0-gfb;
#X obj 434 273 r \$0-lb;
#X obj 259 265 r \$0-lb;
#X obj 33 583 r \$0-lb;
#X msg 33 607 rectangle 1;
#X text 74 448 default texunits: 3+4;
#X text 59 485 1: gemlist in;
#X text 200 485 3: messages;
#X text 116 472 2: bypass tex id;
#X obj 134 612 cnv 5 80 5 empty empty and_render 5 6 1 12 -204800 -66577
0;
#X obj 126 623 cnv 5 80 5 empty empty empty 5 6 1 12 -204800 -66577
0;
#X text 476 496 if off \, only the bypass id is shown, f 19;
#X text 292 598 this patch's loadbang, f 12;
#X text 357 95 1.) play the films;
#X text 112 125 2.) render the gemframebuffers into a texture, f 15
;
#X text 32 125 3.) use those textures for the chromakey shader, f
10;
#X obj 25 84 tgl 15 0 empty empty empty 17 7 0 10 -262144 -1 -1 0 1
;
#X obj 106 85 tgl 15 0 empty empty empty 17 7 0 10 -262144 -1 -1 0
1;
#X msg 259 287 open ol_media/test2.avi, f 22;
#X obj 236 551 spigot;
#X obj 236 573 print params;
#X obj 269 532 tgl 15 0 empty empty empty 17 7 0 10 -262144 -1 -1 0
1;
#X obj 590 102 openpanel;
#X obj 590 82 bng 15 250 50 0 empty empty film2 20 8 1 10 -204786 -1
-1;
#X obj 590 123 symbol;
#X msg 590 144 open \$1;
#X obj 527 102 openpanel;
#X obj 527 82 bng 15 250 50 0 empty empty film1 20 8 1 10 -204786 -1
-1;
#X obj 527 123 symbol;
#X msg 527 144 open \$1;
#X text 27 730 ./ol_glsl_shaders/chromakey/;
#X text 30 693 The .vert and .frag files are searched for inside the
"./ol_glsl_shaders" folder:, f 39;
#X msg 434 294 open ol_media/test1.avi, f 21;
#N canvas 1090 607 454 271 gemwin 0;
#X obj 67 218 gemwin;
#X obj 90 140 outlet;
#X obj 67 30 inlet;
#X obj 67 61 route create;
#X msg 43 93 set destroy;
#X msg 198 201 destroy;
#X obj 305 16 loadbang;
#X obj 240 52 del 300;
#X msg 305 76 reset;
#X msg 136 93 set create;
#X obj 239 76 t b b;
#X obj 198 134 bng 15 250 50 0 empty empty empty 17 7 0 10 -262144
-1 -1;
#X msg 67 174 frame 50 \, dimen 480 320 \, offset 20 500 \, create
\, 1;
#X connect 2 0 3 0;
#X connect 3 0 4 0;
#X connect 3 0 12 0;
#X connect 3 1 5 0;
#X connect 3 1 9 0;
#X connect 4 0 1 0;
#X connect 5 0 0 0;
#X connect 6 0 7 0;
#X connect 6 0 8 0;
#X connect 7 0 10 0;
#X connect 8 0 0 0;
#X connect 9 0 1 0;
#X connect 10 0 1 0;
#X connect 10 1 9 0;
#X connect 11 0 1 0;
#X connect 12 0 0 0;
#X restore 144 653 pd gemwin;
#X msg 144 629 destroy;
#X obj 25 656 rectangle 6 4;
#X obj 234 504 cnv 5 5 17 empty empty empty 20 12 0 14 -260626 -66577
0;
#X obj 469 703 cnv 5 5 17 empty empty empty 20 12 0 14 -194593 -66577
0;
#X obj 236 162 cnv 5 5 17 empty empty empty 20 12 0 14 -260626 -66577
0;
#X obj 329 452 cnv 5 5 17 empty empty empty 20 12 0 14 -194593 -66577
0;
#X obj 446 161 cnv 5 5 17 empty empty empty 20 12 0 14 -260626 -66577
0;
#X obj 288 652 cnv 5 5 17 empty empty empty 20 12 0 14 -194593 -66577
0;
#X obj 112 209 cnv 5 5 17 empty empty empty 20 12 0 14 -260626 -66577
0;
#X obj 145 324 cnv 5 5 17 empty empty empty 20 12 0 14 -260626 -66577
0;
#X obj 250 383 cnv 5 5 17 empty empty empty 20 12 0 14 -260626 -66577
0;
#X obj 429 383 cnv 5 5 17 empty empty empty 20 12 0 14 -260626 -66577
0;
#X obj 330 408 cnv 5 5 17 empty empty empty 20 12 0 14 -260626 -66577
0;
#X obj 327 364 cnv 5 5 17 empty empty empty 20 12 0 14 -194593 -66577
0;
#X obj 428 273 cnv 5 5 17 empty empty empty 20 12 0 14 -260626 -66577
0;
#X obj 253 265 cnv 5 5 17 empty empty empty 20 12 0 14 -260626 -66577
0;
#X obj 27 583 cnv 5 5 17 empty empty empty 20 12 0 14 -260626 -66577
0;
#X obj 489 808 cnv 10 160 20 empty empty needs GEM ZEXY TOF 10 11
0 14 -4160 -262144 0;
#N canvas 0 50 450 300 counter 0;
#X obj 112 90 f;
#X obj 149 90 + 1;
#X obj 130 126 sel 100, f 11;
#X msg 68 143 0;
#X obj 238 43 inlet maximum;
#X obj 112 43 inlet bang;
#X obj 193 156 outlet count;
#X connect 0 0 1 0;
#X connect 0 0 2 0;
#X connect 1 0 0 1;
#X connect 2 0 3 0;
#X connect 2 1 6 0;
#X connect 3 0 0 0;
#X connect 4 0 2 1;
#X connect 5 0 0 0;
#X restore 570 251 pd counter;
#X floatatom 602 268 5 0 0 0 - - -;
#X obj 570 225 metro 40;
#X obj 570 185 r \$0-lb;
#X obj 564 185 cnv 5 5 17 empty empty empty 20 12 0 14 -260626 -66577
0;
#X text 577 206 25 fps;
#X obj 31 811 cnv 14 180 16 empty empty empty 2 2 0 9 -253181 -66577
0;
#X obj 30 810 declare -stdlib Gem -lib Gem, f 29;
#X connect 11 0 59 1;
#X connect 11 1 88 0;
#X connect 13 0 11 2;
#X connect 15 0 14 0;
#X connect 16 0 14 0;
#X connect 17 0 14 0;
#X connect 18 0 14 0;
#X connect 19 0 14 0;
#X connect 20 0 14 0;
#X connect 21 0 20 0;
#X connect 22 0 17 0;
#X connect 23 0 18 0;
#X connect 24 0 19 0;
#X connect 25 0 16 0;
#X connect 26 0 15 0;
#X connect 27 0 14 0;
#X connect 28 0 50 0;
#X connect 29 0 54 0;
#X connect 30 0 31 0;
#X connect 30 0 33 1;
#X connect 32 0 30 1;
#X connect 33 0 36 0;
#X connect 33 1 32 0;
#X connect 33 1 39 0;
#X connect 34 0 35 0;
#X connect 34 1 56 1;
#X connect 35 0 33 0;
#X connect 36 0 37 0;
#X connect 38 0 41 0;
#X connect 39 0 69 0;
#X connect 40 0 34 0;
#X connect 42 0 53 0;
#X connect 43 0 121 1;
#X connect 44 0 47 0;
#X connect 44 1 43 0;
#X connect 45 0 46 0;
#X connect 45 1 58 1;
#X connect 46 0 44 0;
#X connect 47 0 48 0;
#X connect 49 0 45 0;
#X connect 50 0 59 0;
#X connect 50 1 11 0;
#X connect 52 0 14 0;
#X connect 53 0 56 0;
#X connect 53 1 58 0;
#X connect 54 0 34 0;
#X connect 54 1 45 0;
#X connect 55 0 56 0;
#X connect 56 1 11 1;
#X connect 57 0 58 0;
#X connect 59 0 104 0;
#X connect 60 0 61 0;
#X connect 62 0 55 0;
#X connect 63 0 57 0;
#X connect 64 0 65 0;
#X connect 65 0 36 0;
#X connect 66 0 67 0;
#X connect 67 0 47 0;
#X connect 68 0 38 0;
#X connect 70 0 101 0;
#X connect 71 0 87 0;
#X connect 72 0 73 0;
#X connect 73 0 59 0;
#X connect 85 0 28 0;
#X connect 86 0 42 0;
#X connect 87 0 33 0;
#X connect 88 0 89 0;
#X connect 90 0 88 1;
#X connect 91 0 93 0;
#X connect 92 0 91 0;
#X connect 93 0 94 0;
#X connect 94 0 44 0;
#X connect 95 0 97 0;
#X connect 96 0 95 0;
#X connect 97 0 98 0;
#X connect 98 0 33 0;
#X connect 101 0 44 0;
#X connect 102 0 103 0;
#X connect 103 0 102 0;
#X connect 121 0 122 0;
#X connect 121 0 44 1;
#X connect 123 0 121 0;
#X connect 123 0 30 0;
#X connect 124 0 123 0;
#X coords 0 0 1 1 50 50 0;
