#N canvas 1023 92 828 758 10;
#X declare -stdpath iemguts -path iemguts;
#X obj 438 648 cnv 14 63 15 empty empty empty 2 2 0 9 -248636 -66577
0;
#X obj 438 647 closebang, f 10;
#X obj 280 139 t b b;
#X obj 330 139 t b b;
#X msg 280 336 1;
#X msg 295 291 stop;
#X obj 280 314 del 500;
#X msg 376 363 1;
#X msg 390 315 stop;
#X obj 376 341 del 500;
#X obj 396 505 s ol_key;
#X msg 307 416 UP;
#X msg 359 416 DOWN;
#X obj 280 359 metro 50;
#X obj 376 386 metro 50;
#X msg 408 416 LEFT;
#X msg 457 416 RIGHT;
#X obj 280 112 route Up Down Left Right, f 34;
#X msg 465 360 1;
#X msg 478 313 stop;
#X obj 465 338 del 500;
#X msg 529 359 1;
#X msg 537 314 stop;
#X obj 529 337 del 500;
#X obj 465 383 metro 50;
#X obj 529 382 metro 50;
#X obj 537 198 route Up Down Left Right, f 34;
#X obj 380 139 t b b;
#X obj 430 139 t b b;
#X obj 50 72 keyname;
#X obj 50 122 change;
#X obj 50 146 pack 0 s;
#X obj 50 192 route 1 0, f 21;
#X obj 50 218 route Control_L Shift_L;
#X obj 111 299 route Control_L Shift_L;
#X obj 50 241 t b;
#X obj 120 241 t b;
#X obj 111 320 t b;
#X obj 178 320 t b;
#X obj 161 443 s shiftstate;
#X msg 50 265 1;
#X msg 111 343 0;
#X msg 178 342 0;
#X msg 120 263 1;
#X text 282 91 ARROW KEYS;
#X obj 396 454 symbol;
#X obj 589 471 outlet;
#X obj 517 471 outlet;
#X text 508 492 KEY DOWN;
#X text 587 491 KEY UP;
#X obj 607 441 s ol_keyup;
#X obj 589 381 symbol;
#X text 52 46 STRG + SHIFT, f 13;
#X obj 219 328 s \$0-up;
#X obj 537 176 r \$0-up;
#X obj 126 615 spigot;
#X msg 167 586 0;
#X msg 145 586 1;
#X obj 45 548 t b b b b;
#X msg 96 586 1;
#X msg 126 636 0;
#X obj 96 663 s \$0-ol_key_spigot;
#X obj 155 443 cnv 5 5 17 empty empty empty 20 12 0 14 -173398 -66577
0;
#X obj 390 505 cnv 5 5 17 empty empty empty 20 12 0 14 -173398 -66577
0;
#X obj 601 441 cnv 5 5 17 empty empty empty 20 12 0 14 -173398 -66577
0;
#X obj 56 690 cnv 5 5 17 empty empty empty 20 12 0 14 -173398 -66577
0;
#X obj 90 663 cnv 5 5 17 empty empty empty 20 12 0 14 -173398 -66577
0;
#X obj 120 549 cnv 5 5 17 empty empty empty 20 12 0 14 -260097 -66577
0;
#X obj 213 328 cnv 5 5 17 empty empty empty 20 12 0 14 -173398 -66577
0;
#X obj 531 176 cnv 5 5 17 empty empty empty 20 12 0 14 -260097 -66577
0;
#X text 436 611 this has to be created before everything else !, f
25;
#X obj 126 549 r ol_key_single_check;
#X obj 62 690 s ol_key_single_check;
#X obj 45 524 del 50;
#X obj 365 615 loadbang;
#X obj 45 502 r check_ol_key_instances;
#X text 44 481 check for multiple instances;
#X obj 415 676 s check_ol_key_instances;
#X obj 570 676 print \$0-CB;
#X obj 511 472 cnv 5 5 17 empty empty empty 20 12 0 14 -102336 -66577
0;
#X obj 583 471 cnv 5 5 17 empty empty empty 20 12 0 14 -102336 -66577
0;
#X obj 613 41 cnv 10 130 20 empty empty needs_IEMGUTS 10 11 0 14 -4160
-262144 0;
#X obj 613 57 cnv 4 130 4 empty empty empty 10 11 0 14 -4160 -262144
0;
#X obj 512 70 cnv 14 230 15 empty empty empty 2 2 0 9 -253181 -66577
0;
#X msg 406 363 0;
#X msg 495 360 0;
#X msg 559 359 0;
#X msg 315 336 0;
#X obj 537 221 t b b;
#X obj 587 222 t b b;
#X obj 637 222 t b b;
#X obj 687 223 t b b;
#X msg 311 632 1;
#X obj 291 676 s \$0-mainspigot-r;
#X obj 50 170 spigot 1;
#X obj 112 170 cnv 5 5 17 empty empty empty 20 12 0 14 -260097 -66577
0;
#X obj 118 170 r \$0-mainspigot;
#X obj 1 1 cnv 3 68 13 \$0-bgnd \$0-bgnd-r e 20 7 1 9 -241339 -66577
0;
#X obj 0 0 tgl 15 0 \$0-mainspigot \$0-mainspigot-r empty 17 7 0 10
-203904 -1 -1 0 1;
#X msg 225 632 pos 0 \$1;
#X msg 208 603 0;
#X msg 237 603 20;
#X msg 119 125 label \$1;
#X obj 119 146 s \$0-bgnd-r;
#X obj 650 676 s \$0-bgnd-r;
#X msg 650 655 label;
#X obj 683 545 cnv 5 5 17 empty empty empty 20 12 0 14 -173398 -66577
0;
#X obj 619 95 namecanvas \$0-ol_key;
#X obj 689 545 s \$0-ol_key;
#X obj 689 380 loadbang;
#X obj 689 402 \$1;
#X obj 689 425 route float;
#X obj 689 447 != 0;
#X msg 689 493 donecanvasdialog 1 -1 \$1 0 -1 1 1 70 15 0 0 10 \, dirty
0, f 18;
#X obj 689 469 * 3;
#X obj 511 69 declare -stdpath iemguts -path iemguts;
#X obj 28 289 loadbang;
#X obj 200 218 t a b;
#X obj 113 146 cnv 5 5 17 empty empty empty 20 12 0 14 -173398 -66577
0;
#X text 139 6 get rid of key repetitions when pressing down a key for
too long. also reports CTRL and STRG state. must be loaded once in
a PD instance to work "globally", f 101;
#X obj 640 336 r \$0-ol_key_spigot;
#X obj 634 336 cnv 5 5 17 empty empty empty 20 12 0 14 -260097 -66577
0;
#X obj 396 481 spigot;
#X obj 607 410 spigot;
#X obj 161 419 spigot;
#X obj 50 418 spigot;
#X obj 44 442 cnv 5 5 17 empty empty empty 20 12 0 14 -173398 -66577
0;
#X obj 50 442 s ctrlstate;
#X obj 117 379 r \$0-ol_key_spigot;
#X obj 111 379 cnv 5 5 17 empty empty empty 20 12 0 14 -260097 -66577
0;
#X obj 117 410 tgl 15 0 empty empty empty 17 7 0 10 -262144 -1 -1 1
1;
#X obj 291 526 inlet;
#X obj 285 526 cnv 5 5 17 empty empty empty 20 12 0 14 -118750 -66577
0;
#X text 282 507 messages;
#X obj 291 548 route float;
#X obj 291 572 clip 0 1;
#X obj 377 548 cnv 5 5 17 empty empty empty 20 12 0 14 -260097 -66577
0;
#X obj 383 548 r ol_key_active;
#X connect 1 0 77 0;
#X connect 2 0 6 0;
#X connect 2 1 11 0;
#X connect 3 0 9 0;
#X connect 3 1 12 0;
#X connect 4 0 13 0;
#X connect 5 0 6 0;
#X connect 6 0 4 0;
#X connect 7 0 14 0;
#X connect 8 0 9 0;
#X connect 9 0 7 0;
#X connect 11 0 45 0;
#X connect 12 0 45 0;
#X connect 13 0 11 0;
#X connect 14 0 12 0;
#X connect 15 0 45 0;
#X connect 16 0 45 0;
#X connect 17 0 2 0;
#X connect 17 1 3 0;
#X connect 17 2 27 0;
#X connect 17 3 28 0;
#X connect 17 4 45 0;
#X connect 18 0 24 0;
#X connect 19 0 20 0;
#X connect 20 0 18 0;
#X connect 21 0 25 0;
#X connect 22 0 23 0;
#X connect 23 0 21 0;
#X connect 24 0 15 0;
#X connect 25 0 16 0;
#X connect 26 0 88 0;
#X connect 26 1 89 0;
#X connect 26 2 90 0;
#X connect 26 3 91 0;
#X connect 26 4 51 0;
#X connect 27 0 20 0;
#X connect 27 1 15 0;
#X connect 28 0 23 0;
#X connect 28 1 16 0;
#X connect 29 0 30 0;
#X connect 29 1 102 0;
#X connect 29 1 31 1;
#X connect 30 0 31 0;
#X connect 31 0 94 0;
#X connect 32 0 33 0;
#X connect 32 1 34 0;
#X connect 33 0 35 0;
#X connect 33 1 36 0;
#X connect 33 2 117 0;
#X connect 34 0 37 0;
#X connect 34 1 38 0;
#X connect 34 2 53 0;
#X connect 35 0 40 0;
#X connect 36 0 43 0;
#X connect 37 0 41 0;
#X connect 38 0 42 0;
#X connect 40 0 125 0;
#X connect 41 0 125 0;
#X connect 42 0 124 0;
#X connect 43 0 124 0;
#X connect 45 0 47 0;
#X connect 45 0 122 0;
#X connect 51 0 46 0;
#X connect 51 0 123 0;
#X connect 54 0 26 0;
#X connect 55 0 60 0;
#X connect 56 0 55 1;
#X connect 57 0 55 1;
#X connect 58 0 57 0;
#X connect 58 1 72 0;
#X connect 58 2 56 0;
#X connect 58 3 59 0;
#X connect 59 0 61 0;
#X connect 60 0 61 0;
#X connect 71 0 55 0;
#X connect 73 0 58 0;
#X connect 74 0 77 0;
#X connect 74 0 92 0;
#X connect 74 0 105 0;
#X connect 75 0 73 0;
#X connect 84 0 14 0;
#X connect 85 0 24 0;
#X connect 86 0 25 0;
#X connect 87 0 13 0;
#X connect 88 0 87 0;
#X connect 88 1 5 0;
#X connect 89 0 84 0;
#X connect 89 1 8 0;
#X connect 90 0 85 0;
#X connect 90 1 19 0;
#X connect 91 0 86 0;
#X connect 91 1 22 0;
#X connect 92 0 93 0;
#X connect 94 0 32 0;
#X connect 96 0 94 1;
#X connect 99 0 93 0;
#X connect 100 0 99 0;
#X connect 101 0 99 0;
#X connect 102 0 103 0;
#X connect 105 0 104 0;
#X connect 109 0 110 0;
#X connect 110 0 111 0;
#X connect 111 0 112 0;
#X connect 112 0 114 0;
#X connect 113 0 108 0;
#X connect 114 0 113 0;
#X connect 116 0 41 0;
#X connect 116 0 42 0;
#X connect 117 0 17 0;
#X connect 117 1 42 0;
#X connect 117 1 41 0;
#X connect 120 0 122 1;
#X connect 120 0 123 1;
#X connect 122 0 10 0;
#X connect 123 0 50 0;
#X connect 124 0 39 0;
#X connect 125 0 127 0;
#X connect 128 0 125 1;
#X connect 128 0 124 1;
#X connect 128 0 130 0;
#X connect 131 0 134 0;
#X connect 134 0 135 0;
#X connect 135 0 93 0;
#X connect 137 0 134 0;
#X coords 0 -1 1 1 70 15 2 0 0;
