#N canvas 530 50 738 716 10;
#X floatatom 269 331 5 0 0 0 - - -, f 5;
#X floatatom 269 257 5 0 0 0 - - -, f 5;
#X floatatom 318 257 5 0 0 0 - - -, f 5;
#X msg 318 279 set \$1;
#X text 323 404 \$0-knobbo;
#X text 314 519 \$0-knobber;
#X floatatom 463 450 5 0 0 0 - - -, f 5;
#X floatatom 463 550 5 0 0 0 - - -, f 5;
#X floatatom 463 360 5 0 0 0 - - -, f 5;
#X floatatom 470 147 5 0 0 0 - - -, f 5;
#X msg 604 170 type \$1;
#X floatatom 604 147 5 1 4 0 - - -, f 5;
#X msg 261 519 getname;
#X obj 39 249 cnv 15 150 25 empty empty CREATION: 10 13 1 20 -204786
-66577 0;
#X obj 39 270 cnv 3 150 3 empty empty empty 10 12 0 20 -204786 -66577
0;
#X msg 268 404 getname;
#X msg 470 170 size \$1;
#X msg 504 357 set \$1;
#X text 35 293 [ol_knob]:;
#X floatatom 504 333 5 0 0 0 - - -, f 5;
#X obj 470 103 hradio 16 1 0 7 empty empty size 0 -8 1 10 -262144 -1
-1 1;
#X obj 470 124 + 1;
#X obj 604 103 hradio 16 1 0 5 empty empty type 0 -8 1 10 -262144 -1
-1 6;
#X obj 604 124 + 1;
#X obj 463 391 s \$0-knobbo-r;
#X obj 463 521 r \$0-knobber;
#X obj 542 197 s \$0-knobbo-r;
#X obj 463 427 r \$0-knobbo;
#X floatatom 547 275 5 0 0 0 - - -, f 5;
#X floatatom 585 275 5 0 0 0 - - -, f 5;
#X obj 585 296 t b f;
#X text 578 339 set range*;
#X msg 570 357 range \$1 \$2 \$3;
#X obj 570 322 pack 0 0 0;
#X obj 627 274 tgl 17 0 empty empty float 20 8 0 10 -262144 -1 -1 0
1;
#X obj 569 457 s \$0-knobbo-r;
#X msg 569 374 range;
#X msg 569 436 sens;
#X msg 569 419 sens 1000;
#X text 567 403 knob sensitivity;
#X text 613 435 defaults;
#X text 606 374 defaults;
#X obj 464 45 namecanvas \$0-ol_help;
#N canvas 1140 50 626 800 init 0;
#X obj 470 388 cnv 8 120 25 empty empty empty 20 12 0 14 -204786 -66577
0;
#X obj 97 553 cnv 8 300 80 empty empty empty 20 12 0 14 -204786 -66577
0;
#X obj 461 76 cnv 8 120 26 empty empty empty 20 12 0 14 -204786 -66577
0;
#X obj 60 287 cnv 8 200 25 empty empty empty 20 12 0 14 -204786 -66577
0;
#X msg 245 33 vis 0 \, relocate \$3x\$4+0+0 0x0+\$1+\$2 \, vis 1 \,
editmode 0;
#X obj 245 55 s \$0-ol_help;
#X msg 118 64 530 50 700 700;
#X obj 118 219 s \$0-frame-r;
#X floatatom 118 176 5 0 0 0 - - -, f 5;
#X obj 28 450 s \$0-title-r;
#X msg 98 406 label \$1;
#X floatatom 263 143 5 0 0 0 - - -, f 5;
#X obj 263 183 s \$0-bgnd-r;
#X obj 56 119 del 10;
#X obj 56 99 t b b;
#X text 244 80 1.) set pos and size of main window;
#X msg 172 115 \$3;
#X obj 118 132 f;
#X text 151 143 minus frame sizes, f 11;
#X text 124 266 2.) set name of title;
#X obj 56 141 s \$0-lb;
#X obj 118 107 r \$0-lb;
#X obj 29 244 r \$0-lb;
#X obj 29 406 unpack 0 s;
#X text 175 530 3.) set description;
#X obj 263 262 s \$0-frame2-r;
#X obj 182 463 s \$0-text1-r;
#X obj 29 626 cnv 3 68 15 empty empty empty 2 7 0 10 -257985 -66577
0;
#N canvas 341 335 425 542 tosymbol 0;
#X obj 67 94 list length;
#X obj 67 42 list;
#X obj 101 226 list, f 7;
#X obj 67 175 f, f 10;
#X obj 154 175 + 1;
#X obj 67 150 until;
#X obj 101 251 list split;
#X msg 157 94 0;
#X obj 139 276 list split 1;
#X obj 139 361 list fromsymbol;
#X obj 139 302 route symbol float;
#X obj 191 329 makefilename %s;
#X obj 139 435 textfile;
#X msg 202 94 clear;
#X obj 139 387 list prepend add2;
#X obj 67 201 t b b b f;
#X obj 79 276 + 1;
#X obj 67 122 t f f;
#X obj 78 300 <;
#X obj 20 335 spigot;
#X msg 20 394 add2 32;
#X obj 139 411 list trim;
#X obj 67 335 f;
#X obj 67 361 sel 0;
#X obj 139 463 list tosymbol;
#X obj 67 68 t l l b b, f 23;
#X text 184 486 symbol out with correct spaces;
#X text 57 2 string in;
#X msg 136 25 #/zi 3 4 oo ä;
#X msg 229 25 1.23457e+019;
#X floatatom 315 28 5 0 0 0 - - -, f 5;
#X obj 67 22 cnv 13 34 15 empty empty empty 2 2 0 9 -163816 -66577
0;
#X obj 139 487 cnv 14 40 15 empty empty empty 2 2 0 9 -163840 -66577
0;
#X obj 67 21 inlet;
#X obj 139 486 outlet;
#X connect 0 0 17 0;
#X connect 1 0 25 0;
#X connect 2 0 6 0;
#X connect 3 0 4 0;
#X connect 3 0 15 0;
#X connect 4 0 3 1;
#X connect 5 0 3 0;
#X connect 6 1 8 0;
#X connect 7 0 3 1;
#X connect 8 0 10 0;
#X connect 9 0 14 0;
#X connect 10 0 9 0;
#X connect 10 1 11 0;
#X connect 11 0 9 0;
#X connect 12 0 24 0;
#X connect 13 0 12 0;
#X connect 14 0 21 0;
#X connect 15 0 22 0;
#X connect 15 1 19 0;
#X connect 15 2 2 0;
#X connect 15 3 6 1;
#X connect 15 3 16 0;
#X connect 16 0 18 0;
#X connect 17 0 5 0;
#X connect 17 1 18 1;
#X connect 18 0 19 1;
#X connect 18 0 22 1;
#X connect 19 0 20 0;
#X connect 20 0 12 0;
#X connect 21 0 12 0;
#X connect 22 0 23 0;
#X connect 23 0 12 0;
#X connect 24 0 34 0;
#X connect 25 0 0 0;
#X connect 25 1 2 1;
#X connect 25 2 7 0;
#X connect 25 3 13 0;
#X connect 28 0 1 0;
#X connect 29 0 1 0;
#X connect 30 0 1 0;
#X connect 33 0 1 0;
#X restore 28 625 pd tosymbol;
#X obj 199 390 r \$0-lb;
#X obj 199 413 t b b;
#X obj 268 463 s \$0-text2-r;
#X obj 354 463 s \$0-text3-r;
#X msg 28 488 bang;
#X msg 118 195 vis_size \$1 45;
#X msg 263 240 vis_size \$1 43;
#X text 349 389 init text labels;
#X obj 28 719 pack s 0 0;
#X msg 28 740 label \$1 \, label_pos \$2 \$3;
#X obj 531 524 unpack;
#X msg 531 500 29 -33;
#X floatatom 493 391 5 0 0 0 - - -, f 5;
#X floatatom 531 391 5 0 0 0 - - -, f 5;
#X obj 531 421 t b f;
#X msg 545 471 set \$1 \$2;
#X obj 493 471 t b b l;
#X text 503 370 x;
#X text 540 370 y;
#X text 466 352 4.) set label position;
#X obj 564 545 f;
#X msg 321 367 color \$1 \$1 \$1;
#X msg 263 161 vis_size \$1 55;
#X floatatom 79 174 5 0 0 0 - - -, f 5;
#X obj 118 153 - 13;
#X obj 263 122 + 10;
#X obj 263 219 - 254;
#X obj 56 56 t b f;
#X msg 260 390 -1.51675e+007;
#X msg 260 368 set \$1;
#X obj 56 11 loadbang;
#N canvas 36 456 791 300 better_colors 0;
#X obj 89 19 inlet;
#X obj 320 262 outlet;
#X obj 89 40 random 10;
#X obj 89 61 sel 0 1 2 3 4 5 6 7 8 9, f 83;
#X obj 320 239 expr ($f1*(-65536)+$f2*(-256)+$f3*(-1))-1;
#X msg 16 162 140 0 0;
#X msg 69 162 0 156 144;
#X msg 136 162 0 140 0;
#X msg 252 162 231 112 0;
#X msg 191 162 100 0 255;
#X msg 317 162 100 100 100;
#X msg 397 162 255 255 0;
#X msg 541 162 123 33 5;
#X msg 464 162 22 131 5;
#X msg 607 163 147 0 163;
#X connect 0 0 2 0;
#X connect 2 0 3 0;
#X connect 3 0 5 0;
#X connect 3 1 6 0;
#X connect 3 2 7 0;
#X connect 3 3 9 0;
#X connect 3 4 8 0;
#X connect 3 5 10 0;
#X connect 3 6 11 0;
#X connect 3 7 13 0;
#X connect 3 8 12 0;
#X connect 3 9 14 0;
#X connect 4 0 1 0;
#X connect 5 0 4 0;
#X connect 6 0 4 0;
#X connect 7 0 4 0;
#X connect 8 0 4 0;
#X connect 9 0 4 0;
#X connect 10 0 4 0;
#X connect 11 0 4 0;
#X connect 12 0 4 0;
#X connect 13 0 4 0;
#X connect 14 0 4 0;
#X restore 56 34 pd better_colors;
#X obj 56 78 del 50;
#X msg 170 17 bang;
#X text 200 114 width;
#X msg 29 428 label_pos \$1 21;
#X obj 479 124 list prepend set;
#X obj 479 146 list trim;
#X text 246 10 probably dangerous when initialized with loadbang!;
#X msg 29 383 79 ol_knob;
#X obj 28 775 s \$0-text1-r;
#X obj 195 719 pack s 0 0;
#X obj 195 775 s \$0-text2-r;
#X obj 351 719 pack s 0 0;
#X msg 351 740 label \$1 \, label_pos \$2 \$3;
#X obj 351 775 s \$0-text3-r;
#X obj 28 648 list prepend 0;
#X obj 564 567 + 14;
#X obj 564 590 + 14;
#X obj 28 510 t b b b b b b b, f 20;
#X obj 28 672 route 1 2 3, f 66;
#X msg 86 532 2, f 1;
#X msg 125 531 1, f 1;
#X msg 47 532 3, f 1;
#X msg 153 608 empty;
#X obj 531 272 loadbang;
#X msg 531 293 set -26;
#X floatatom 73 292 5 0 0 0 - - -, f 5;
#X symbolatom 108 292 20 0 0 0 - - -, f 20;
#X obj 73 333 pack 0 s;
#X obj 108 310 t b s;
#X obj 73 354 t b l;
#X msg 113 354 set \$1 \$2;
#X msg 73 261 set 66;
#X obj 493 448 pack 0 -26;
#X msg 106 560 a knob GUI;
#X msg 195 740 label \$1 \, label_pos \$2 \$3 \, label_font 1 10,
f 23;
#X msg 135 584 (made with iemlib's [iem_image] object);
#X msg 260 413 size 1 \, pos 300 65 \, vis_size 1 1 \, color \$1 \$1
2 \, label_font 1 11 \, label, f 26;
#X msg 479 80 530 50 700 700;
#X connect 4 0 5 0;
#X connect 6 0 16 0;
#X connect 8 0 34 0;
#X connect 8 0 54 0;
#X connect 8 0 55 0;
#X connect 10 0 9 0;
#X connect 11 0 51 0;
#X connect 13 0 20 0;
#X connect 14 0 13 0;
#X connect 14 1 6 0;
#X connect 16 0 17 1;
#X connect 17 0 53 0;
#X connect 21 0 17 0;
#X connect 22 0 68 0;
#X connect 22 0 92 0;
#X connect 23 0 64 0;
#X connect 23 1 10 0;
#X connect 28 0 75 0;
#X connect 29 0 30 0;
#X connect 30 0 78 0;
#X connect 30 1 40 0;
#X connect 30 1 57 0;
#X connect 33 0 78 0;
#X connect 34 0 7 0;
#X connect 35 0 25 0;
#X connect 37 0 38 0;
#X connect 38 0 69 0;
#X connect 39 0 37 1;
#X connect 39 0 70 1;
#X connect 39 0 72 1;
#X connect 39 1 49 0;
#X connect 40 0 39 0;
#X connect 41 0 93 0;
#X connect 42 0 43 0;
#X connect 43 0 93 0;
#X connect 43 1 93 1;
#X connect 44 0 40 0;
#X connect 45 0 33 0;
#X connect 45 1 40 0;
#X connect 45 2 44 0;
#X connect 49 0 37 2;
#X connect 49 0 76 0;
#X connect 50 0 12 0;
#X connect 51 0 12 0;
#X connect 52 0 34 0;
#X connect 53 0 8 0;
#X connect 54 0 11 0;
#X connect 55 0 35 0;
#X connect 56 0 61 0;
#X connect 56 1 58 0;
#X connect 57 0 97 0;
#X connect 57 0 50 0;
#X connect 58 0 57 0;
#X connect 59 0 60 0;
#X connect 60 0 56 0;
#X connect 61 0 14 0;
#X connect 62 0 60 0;
#X connect 64 0 9 0;
#X connect 65 0 66 0;
#X connect 66 0 6 0;
#X connect 68 0 23 0;
#X connect 70 0 95 0;
#X connect 72 0 73 0;
#X connect 73 0 74 0;
#X connect 75 0 79 0;
#X connect 76 0 70 2;
#X connect 76 0 77 0;
#X connect 77 0 72 2;
#X connect 78 0 83 0;
#X connect 78 1 82 0;
#X connect 78 2 96 0;
#X connect 78 3 80 0;
#X connect 78 4 94 0;
#X connect 78 5 81 0;
#X connect 79 0 37 0;
#X connect 79 1 70 0;
#X connect 79 2 72 0;
#X connect 80 0 75 1;
#X connect 81 0 75 1;
#X connect 82 0 75 1;
#X connect 83 0 28 0;
#X connect 84 0 85 0;
#X connect 85 0 42 0;
#X connect 86 0 88 0;
#X connect 87 0 89 0;
#X connect 88 0 90 0;
#X connect 89 0 86 0;
#X connect 89 1 88 1;
#X connect 90 0 68 0;
#X connect 90 1 91 0;
#X connect 91 0 68 0;
#X connect 92 0 86 0;
#X connect 93 0 45 0;
#X connect 94 0 28 0;
#X connect 95 0 71 0;
#X connect 96 0 28 0;
#X connect 97 0 26 0;
#X connect 97 0 31 0;
#X connect 97 0 32 0;
#X connect 98 0 4 0;
#X connect 98 0 65 0;
#X restore 19 48 pd init;
#X obj 11 11 cnv 8 697 55 \$0-bgnd \$0-bgnd-r empty 0 20 0 4 -235265
-235265 0;
#X obj 15 16 cnv 8 687 45 \$0-frame \$0-frame-r empty 20 20 0 14 -1
-262144 0;
#X obj 16 17 cnv 15 250 43 \$0-title \$0-title-r ol_knob 79 21 1 24
-236864 -64 0;
#X obj 268 17 cnv 15 433 43 \$0-frame2 \$0-frame2-r empty 25 18 1 24
-216384 -4160 0;
#X obj 300 65 cnv 1 1 1 \$0-text1 \$0-text1-r a knob GUI 29 -33 1 11
-235265 -66577 0;
#X obj 300 65 cnv 1 1 1 \$0-text2 \$0-text2-r (made with iemlib's [iem_image] object)
29 -19 1 10 -235265 -66577 0;
#X obj 300 65 cnv 1 1 1 \$0-text3 \$0-text3-r empty 29 -5 1 11 -235265
-66577 0;
#X text 38 311 size 2 \, knob-type 1 \; no send/receive name, f 21
;
#X floatatom 42 678 5 0 0 0 - - -, f 5;
#X text 40 610 *ouput is in ints \, unless defined by the 3rd element
of the "range" message, f 78;
#X obj 441 360 bng 15 250 50 0 empty empty empty 17 7 0 10 -262144
-1 -1;
#X text 38 423 size 3 \, knob-type 2 sendname: \$0-knobbo \, receivename:
\$0-knobbo-r, f 24;
#X obj 449 669 cnv 10 250 20 empty empty needs_IEMGUI_IEMGUTS_ZEXY_TOF
10 11 0 14 -4160 -262144 0;
#X obj 449 685 cnv 4 250 4 empty empty empty 10 11 0 14 -4160 -262144
0;
#X text 37 511 [ol_knob \$0-knobber 4 3]:;
#X text 38 530 size 4 \, knob-type 3 \; sendname: \$0-knobber \, \;
receivename: \$0-knobber-r, f 26;
#X text 78 653 size 3 \, knob-type 4 \; output between 0 and 1 (as
floats) \; no send/receive, f 36;
#X obj 261 541 ol_knob \\\$0-knobber 4 3 0 127 0 127;
#X text 35 405 [ol_knob 3 2 @name \$0-knobbo]:;
#X obj 268 433 ol_knob 3 2 @name \$0-knobbo;
#X text 76 635 [ol_knob 3 4 0 1 1]:;
#X obj 42 638 ol_knob 3 4 0 1 1;
#X obj 269 297 ol_knob;
#X text 38 151 1.) knob size 1 - 7 (2) \; 2.) knob type 1 - 5 (1) \;
3.) range min (0) \; 4.) range max (127) \; 5.) range float flag (0)
\;, f 27;
#X text 37 117 Remote Name (optional);
#X obj 38 109 cnv 1 146 1 empty empty ARGUMENTS: (defaults) 1 -7 0
12 -66577 -66577 0;
#X text 54 131 (see "ol_z_info" for details);
#X obj 592 612 cnv 15 103 15 empty empty empty 2 7 0 10 -257985 -66577
0;
#X obj 591 611 ol_z_info OL_KNOB;
#X obj 457 391 cnv 5 5 17 empty empty empty 20 12 0 14 -194593 -66577
0;
#X obj 457 521 cnv 5 5 17 empty empty empty 20 12 0 14 -260626 -66577
0;
#X obj 536 197 cnv 5 5 17 empty empty empty 20 12 0 14 -194593 -66577
0;
#X obj 457 427 cnv 5 5 17 empty empty empty 20 12 0 14 -260626 -66577
0;
#X obj 563 457 cnv 5 5 17 empty empty empty 20 12 0 14 -194593 -66577
0;
#X obj 284 109 cnv 1 50 1 empty empty INLETS: 1 -7 0 12 -66577 -66577
0;
#X text 283 114 1.) messages;
#X obj 284 154 cnv 1 55 1 empty empty OUTLETS: 1 -7 0 12 -66577 -66577
0;
#X text 283 161 1.) messages;
#X connect 1 0 66 0;
#X connect 2 0 3 0;
#X connect 3 0 66 0;
#X connect 8 0 24 0;
#X connect 9 0 16 0;
#X connect 10 0 26 0;
#X connect 11 0 10 0;
#X connect 12 0 61 0;
#X connect 15 0 63 0;
#X connect 16 0 26 0;
#X connect 17 0 24 0;
#X connect 19 0 17 0;
#X connect 20 0 21 0;
#X connect 21 0 9 0;
#X connect 22 0 23 0;
#X connect 23 0 11 0;
#X connect 25 0 7 0;
#X connect 27 0 6 0;
#X connect 28 0 33 0;
#X connect 29 0 30 0;
#X connect 30 0 33 0;
#X connect 30 1 33 1;
#X connect 32 0 24 0;
#X connect 33 0 32 0;
#X connect 34 0 33 2;
#X connect 36 0 24 0;
#X connect 37 0 35 0;
#X connect 38 0 35 0;
#X connect 54 0 24 0;
#X connect 65 0 52 0;
#X connect 66 0 0 0;
