#N canvas 217 446 751 461 10;
#X obj 69 0 hradio 16 1 0 1 \$0-radio2 \$0-radio2-r empty 19 8 0 10
-261681 -261681 -261681 0;
#X obj 332 92 r \$0-radio;
#X obj 490 49 loadbang;
#X obj 480 72 t b b;
#X msg 153 385 label \$1;
#X msg 334 336 label;
#X obj 65 422 outlet;
#X obj 64 56 inlet;
#X obj 326 92 cnv 5 5 17 empty empty empty 20 12 0 14 -260626 -66577
0;
#X obj 344 235 cnv 5 5 17 empty empty empty 20 12 0 14 -194593 -66577
0;
#X obj 283 389 cnv 5 5 17 empty empty empty 20 12 0 14 -194593 -66577
0;
#X obj 59 422 cnv 5 5 17 empty empty empty 20 12 0 14 -102336 -66577
0;
#X obj 58 56 cnv 5 5 17 empty empty empty 20 12 0 14 -118750 -66577
0;
#X obj 123 422 outlet;
#X obj 117 422 cnv 5 5 17 empty empty empty 20 12 0 14 -102336 -66577
0;
#X obj 361 147 del 150;
#X obj 0 0 bng 16 250 50 0 \$0-radio \$0-radio-r empty 17 7 0 10 -228992
-228992 -228992;
#X obj 336 23 r \$0-radio2;
#X obj 330 23 cnv 5 5 17 empty empty empty 20 12 0 14 -260626 -66577
0;
#X text 404 91 stop;
#X obj 332 119 t b b;
#X obj 336 47 t b b;
#X text 413 24 end;
#X obj 1 1 cnv 14 14 14 \$0-radiocnv \$0-radiocnv-r empty 20 12 0 14
-225271 -225271 0;
#X obj 350 235 s \$0-radiocnv-r;
#X msg 350 202 color \$1 \$1 \$1;
#X obj 493 234 cnv 5 5 17 empty empty empty 20 12 0 14 -194593 -66577
0;
#X obj 510 136 del 150;
#X obj 499 234 s \$0-radio2-r;
#X obj 17 1 cnv 14 51 14 \$0-linecnv \$0-linecnv-r empty 4 8 1 11 -233017
-33289 0;
#X msg 361 179 6;
#X msg 332 179 16;
#X msg 510 168 4;
#X msg 481 168 14;
#X msg 499 201 color 4 \$1 4;
#X obj 289 389 s \$0-linecnv-r;
#X msg 289 365 color 10 \$1 \$1;
#X obj 65 237 line, f 10;
#X msg 45 79 2;
#X obj 65 261 t f f;
#X obj 101 293 select;
#X msg 198 227 \$1;
#X obj 20 339 bng 15 250 50 0 empty empty empty 17 7 0 10 -262144 -1
-1;
#X floatatom 20 292 5 0 0 0 - - -, f 5;
#X obj 154 361 cnv 3 45 15 empty empty empty 2 7 0 10 -257985 -66577
0;
#N canvas 696 119 350 388 ftos 0;
#X obj 22 14 inlet;
#X obj 160 342 outlet;
#X obj 43 64 f;
#X obj 22 38 route float bang;
#X obj 154 342 cnv 5 5 17 empty empty empty 20 12 0 14 -102336 -66577
0;
#X obj 43 87 makefilename %f;
#X obj 43 111 list fromsymbol;
#X msg 140 160 set;
#X msg 160 296 50 48 46 48 48 48 48 48;
#X msg 88 279 add2 \$1;
#X msg 92 160 0;
#X obj 177 221 f;
#X obj 205 211 + 1;
#X obj 177 195 spigot;
#X msg 171 160 1;
#X msg 43 328 1;
#X obj 116 321 t b;
#X obj 177 270 t b b;
#X obj 160 319 list tosymbol;
#X obj 43 279 t f f;
#X obj 43 304 sel 46;
#X obj 177 244 select 1, f 12;
#X obj 246 16 inlet;
#X obj 240 16 cnv 5 5 17 empty empty empty 20 12 0 14 -118750 -66577
0;
#X obj 246 159 clip 1 6;
#X obj 260 90 loadbang;
#X obj 43 232 list store, f 15;
#X obj 43 160 until, f 6;
#X obj 43 188 f;
#X obj 71 188 + 1;
#X msg 43 210 get \$1 1;
#X obj 43 133 t b b a, f 15;
#X obj 16 14 cnv 5 5 17 empty empty empty 20 12 0 14 -118750 -66577
0;
#X msg 261 123 5;
#X connect 0 0 3 0;
#X connect 2 0 5 0;
#X connect 3 0 2 0;
#X connect 3 1 2 0;
#X connect 5 0 6 0;
#X connect 6 0 31 0;
#X connect 7 0 8 0;
#X connect 8 0 18 0;
#X connect 9 0 8 0;
#X connect 10 0 13 1;
#X connect 10 0 28 1;
#X connect 11 0 12 0;
#X connect 11 0 21 0;
#X connect 12 0 11 1;
#X connect 13 0 11 0;
#X connect 14 0 11 1;
#X connect 15 0 13 1;
#X connect 16 0 13 0;
#X connect 17 0 8 0;
#X connect 17 1 27 1;
#X connect 18 0 1 0;
#X connect 19 0 20 0;
#X connect 19 1 9 0;
#X connect 20 0 15 0;
#X connect 20 1 16 0;
#X connect 21 0 17 0;
#X connect 22 0 24 0;
#X connect 24 0 21 1;
#X connect 25 0 33 0;
#X connect 26 0 19 0;
#X connect 26 1 27 1;
#X connect 27 0 28 0;
#X connect 28 0 30 0;
#X connect 28 0 29 0;
#X connect 29 0 28 1;
#X connect 30 0 26 0;
#X connect 31 0 27 0;
#X connect 31 1 10 0;
#X connect 31 1 7 0;
#X connect 31 1 14 0;
#X connect 31 2 26 1;
#X connect 33 0 24 0;
#X restore 153 360 pd ftos;
#X obj 65 175 t f b;
#X msg 278 181 stop;
#X msg 98 78 4 \, 0.5 5000;
#X msg 259 336 18;
#X msg 289 336 12;
#X obj 150 244 f;
#X text 0 19 stop;
#X text 65 19 jump to end;
#X obj 193 72 cnv 5 5 17 empty empty empty 20 12 0 14 -260626 -66577
0;
#X obj 419 403 cnv 5 5 17 empty empty empty 20 12 0 14 -194593 -66577
0;
#X obj 425 403 s \$0-radio-r;
#X obj 425 378 t b;
#X obj 512 402 cnv 5 5 17 empty empty empty 20 12 0 14 -194593 -66577
0;
#X obj 518 377 t b;
#X obj 518 402 s \$0-radio2-r;
#X obj 179 175 t l l b;
#X obj 192 151 list store;
#X obj 65 109 route float list stop end bang grain, f 38;
#X obj 522 72 \$1;
#X obj 522 96 sel 0;
#X obj 122 149 route float bang, f 7;
#X msg 141 197 20;
#X obj 474 22 cnv 5 5 17 empty empty empty 20 12 0 14 -260626 -66577
0;
#X obj 480 22 r ol_GUI_reinit;
#X text 427 2 force loadbang from outside;
#X obj 199 72 r ol_line_stop;
#X obj 154 337 cnv 4 92 15 empty empty empty 2 7 0 10 -257985 -66577
0;
#N canvas 882 532 391 244 speedlim 0;
#X obj 42 13 inlet;
#X obj 42 213 outlet;
#X obj 184 12 inlet;
#X obj 36 13 cnv 5 5 17 empty empty empty 20 12 0 14 -118750 -66577
0;
#X obj 36 213 cnv 5 5 17 empty empty empty 20 12 0 14 -102336 -66577
0;
#X obj 178 12 cnv 5 5 17 empty empty empty 20 12 0 14 -118750 -66577
0;
#X msg 155 131 0;
#X msg 42 136 1;
#X obj 42 69 spigot 1;
#X obj 116 69 == 0;
#X obj 184 73 f;
#X obj 42 36 t b b a, f 19;
#X obj 42 190 list store;
#X obj 297 9 loadbang;
#X text 221 32 init here !;
#X obj 155 108 delay, f 6;
#X obj 42 167 metro;
#X msg 297 32 80;
#X connect 0 0 11 0;
#X connect 2 0 10 0;
#X connect 6 0 9 0;
#X connect 6 0 16 0;
#X connect 7 0 9 0;
#X connect 7 0 16 0;
#X connect 8 0 7 0;
#X connect 9 0 8 1;
#X connect 10 0 15 1;
#X connect 10 0 16 1;
#X connect 11 0 8 0;
#X connect 11 1 15 0;
#X connect 11 2 12 1;
#X connect 12 0 1 0;
#X connect 13 0 17 0;
#X connect 15 0 6 0;
#X connect 16 0 12 0;
#X connect 17 0 10 0;
#X restore 153 336 pd speedlim _80;
#X obj 181 8 cnv 5 130 55 empty empty empty 20 12 0 14 -260097 -66577
0;
#X text 192 7 stop all loaded [ol_line] lines by sending a bang to
this receive, f 19;
#X connect 1 0 20 0;
#X connect 2 0 3 0;
#X connect 3 0 5 0;
#X connect 3 1 64 0;
#X connect 4 0 35 0;
#X connect 5 0 35 0;
#X connect 7 0 63 0;
#X connect 15 0 30 0;
#X connect 17 0 21 0;
#X connect 20 0 31 0;
#X connect 20 0 47 0;
#X connect 20 1 15 0;
#X connect 21 0 51 0;
#X connect 21 1 27 0;
#X connect 21 1 33 0;
#X connect 21 1 47 0;
#X connect 25 0 24 0;
#X connect 27 0 32 0;
#X connect 30 0 25 0;
#X connect 31 0 25 0;
#X connect 32 0 34 0;
#X connect 33 0 34 0;
#X connect 34 0 28 0;
#X connect 36 0 35 0;
#X connect 37 0 39 0;
#X connect 38 0 63 0;
#X connect 39 0 6 0;
#X connect 39 0 43 0;
#X connect 39 0 73 0;
#X connect 39 1 40 0;
#X connect 40 0 42 0;
#X connect 40 0 13 0;
#X connect 40 0 50 0;
#X connect 41 0 40 1;
#X connect 41 0 51 1;
#X connect 45 0 4 0;
#X connect 46 0 37 0;
#X connect 46 1 50 0;
#X connect 47 0 37 0;
#X connect 48 0 63 0;
#X connect 49 0 36 0;
#X connect 50 0 36 0;
#X connect 51 0 39 0;
#X connect 57 0 56 0;
#X connect 59 0 60 0;
#X connect 61 0 37 0;
#X connect 61 1 41 0;
#X connect 61 1 62 1;
#X connect 61 2 49 0;
#X connect 62 0 61 0;
#X connect 63 0 46 0;
#X connect 63 1 61 0;
#X connect 63 2 57 0;
#X connect 63 3 59 0;
#X connect 63 4 62 0;
#X connect 63 5 66 0;
#X connect 64 0 65 0;
#X connect 65 1 37 2;
#X connect 66 0 37 2;
#X connect 66 1 67 0;
#X connect 67 0 37 2;
#X connect 69 0 3 0;
#X connect 71 0 20 0;
#X connect 73 0 45 0;
#X coords 0 -1 1 1 85 16 2 0 0;
