#N canvas 535 50 825 683 10;
#X msg 30 273 clear;
#X obj 507 219 cnv 15 100 15 empty empty empty 2 7 0 10 -257985 -66577
0;
#X obj 464 47 namecanvas \$0-ol_help;
#N canvas 1140 50 626 800 init 0;
#X obj 470 388 cnv 8 120 25 empty empty empty 20 12 0 14 -204786 -66577
0;
#X obj 97 553 cnv 8 300 80 empty empty empty 20 12 0 14 -204786 -66577
0;
#X obj 461 76 cnv 8 120 26 empty empty empty 20 12 0 14 -204786 -66577
0;
#X obj 60 287 cnv 8 200 25 empty empty empty 20 12 0 14 -204786 -66577
0;
#X msg 245 33 vis 0 \, relocate \$3x\$4+0+0 0x0+\$1+\$2 \, vis 1 \,
editmode 0;
#X obj 245 55 s \$0-ol_help;
#X msg 118 64 300 50 800 800;
#X obj 118 219 s \$0-frame-r;
#X floatatom 118 176 5 0 0 0 - - -, f 5;
#X obj 28 450 s \$0-title-r;
#X msg 98 406 label \$1;
#X floatatom 263 143 5 0 0 0 - - -, f 5;
#X obj 263 183 s \$0-bgnd-r;
#X obj 56 119 del 10;
#X obj 56 99 t b b;
#X text 244 80 1.) set pos and size of main window;
#X msg 172 115 \$3;
#X obj 118 132 f;
#X text 151 143 minus frame sizes, f 11;
#X text 124 266 2.) set name of title;
#X obj 56 141 s \$0-lb;
#X obj 118 107 r \$0-lb;
#X obj 29 244 r \$0-lb;
#X obj 29 406 unpack 0 s;
#X text 175 530 3.) set description;
#X obj 263 262 s \$0-frame2-r;
#X obj 182 463 s \$0-text1-r;
#X obj 29 626 cnv 3 68 15 empty empty empty 2 7 0 10 -257985 -66577
0;
#N canvas 341 335 425 542 tosymbol 0;
#X obj 67 94 list length;
#X obj 67 42 list;
#X obj 101 226 list, f 7;
#X obj 67 175 f, f 10;
#X obj 154 175 + 1;
#X obj 67 150 until;
#X obj 101 251 list split;
#X msg 157 94 0;
#X obj 139 276 list split 1;
#X obj 139 361 list fromsymbol;
#X obj 139 302 route symbol float;
#X obj 191 329 makefilename %s;
#X obj 139 435 textfile;
#X msg 202 94 clear;
#X obj 139 387 list prepend add2;
#X obj 67 201 t b b b f;
#X obj 79 276 + 1;
#X obj 67 122 t f f;
#X obj 78 300 <;
#X obj 20 335 spigot;
#X msg 20 394 add2 32;
#X obj 139 411 list trim;
#X obj 67 335 f;
#X obj 67 361 sel 0;
#X obj 139 463 list tosymbol;
#X obj 67 68 t l l b b, f 23;
#X text 184 486 symbol out with correct spaces;
#X text 57 2 string in;
#X msg 136 25 #/zi 3 4 oo ä;
#X msg 229 25 1.23457e+019;
#X floatatom 315 28 5 0 0 0 - - -, f 5;
#X obj 67 22 cnv 13 34 15 empty empty empty 2 2 0 9 -163816 -66577
0;
#X obj 139 487 cnv 14 40 15 empty empty empty 2 2 0 9 -163840 -66577
0;
#X obj 67 21 inlet;
#X obj 139 486 outlet;
#X connect 0 0 17 0;
#X connect 1 0 25 0;
#X connect 2 0 6 0;
#X connect 3 0 4 0;
#X connect 3 0 15 0;
#X connect 4 0 3 1;
#X connect 5 0 3 0;
#X connect 6 1 8 0;
#X connect 7 0 3 1;
#X connect 8 0 10 0;
#X connect 9 0 14 0;
#X connect 10 0 9 0;
#X connect 10 1 11 0;
#X connect 11 0 9 0;
#X connect 12 0 24 0;
#X connect 13 0 12 0;
#X connect 14 0 21 0;
#X connect 15 0 22 0;
#X connect 15 1 19 0;
#X connect 15 2 2 0;
#X connect 15 3 6 1;
#X connect 15 3 16 0;
#X connect 16 0 18 0;
#X connect 17 0 5 0;
#X connect 17 1 18 1;
#X connect 18 0 19 1;
#X connect 18 0 22 1;
#X connect 19 0 20 0;
#X connect 20 0 12 0;
#X connect 21 0 12 0;
#X connect 22 0 23 0;
#X connect 23 0 12 0;
#X connect 24 0 34 0;
#X connect 25 0 0 0;
#X connect 25 1 2 1;
#X connect 25 2 7 0;
#X connect 25 3 13 0;
#X connect 28 0 1 0;
#X connect 29 0 1 0;
#X connect 30 0 1 0;
#X connect 33 0 1 0;
#X restore 28 625 pd tosymbol;
#X obj 199 390 r \$0-lb;
#X obj 199 413 t b b;
#X obj 268 463 s \$0-text2-r;
#X obj 354 463 s \$0-text3-r;
#X msg 28 488 bang;
#X msg 118 195 vis_size \$1 45;
#X msg 263 240 vis_size \$1 43;
#X text 349 389 init text labels;
#X obj 28 719 pack s 0 0;
#X msg 28 740 label \$1 \, label_pos \$2 \$3;
#X obj 531 524 unpack;
#X msg 531 500 117 -33;
#X floatatom 493 391 5 0 0 0 - - -, f 5;
#X floatatom 531 391 5 0 0 0 - - -, f 5;
#X obj 531 421 t b f;
#X msg 545 471 set \$1 \$2;
#X obj 493 471 t b b l;
#X text 503 370 x;
#X text 540 370 y;
#X text 466 352 4.) set label position;
#X obj 564 545 f;
#X msg 321 367 color \$1 \$1 \$1;
#X msg 263 161 vis_size \$1 55;
#X floatatom 79 174 5 0 0 0 - - -, f 5;
#X obj 118 153 - 13;
#X obj 263 122 + 10;
#X obj 263 219 - 254;
#X obj 56 56 t b f;
#X msg 260 390 -1.47533e+006;
#X msg 260 368 set \$1;
#X obj 56 11 loadbang;
#N canvas 36 456 791 300 better_colors 0;
#X obj 89 19 inlet;
#X obj 320 262 outlet;
#X obj 89 40 random 10;
#X obj 89 61 sel 0 1 2 3 4 5 6 7 8 9, f 83;
#X obj 320 239 expr ($f1*(-65536)+$f2*(-256)+$f3*(-1))-1;
#X msg 16 162 140 0 0;
#X msg 69 162 0 156 144;
#X msg 136 162 0 140 0;
#X msg 252 162 231 112 0;
#X msg 191 162 100 0 255;
#X msg 317 162 100 100 100;
#X msg 397 162 255 255 0;
#X msg 541 162 123 33 5;
#X msg 464 162 22 131 5;
#X msg 607 163 147 0 163;
#X connect 0 0 2 0;
#X connect 2 0 3 0;
#X connect 3 0 5 0;
#X connect 3 1 6 0;
#X connect 3 2 7 0;
#X connect 3 3 9 0;
#X connect 3 4 8 0;
#X connect 3 5 10 0;
#X connect 3 6 11 0;
#X connect 3 7 13 0;
#X connect 3 8 12 0;
#X connect 3 9 14 0;
#X connect 4 0 1 0;
#X connect 5 0 4 0;
#X connect 6 0 4 0;
#X connect 7 0 4 0;
#X connect 8 0 4 0;
#X connect 9 0 4 0;
#X connect 10 0 4 0;
#X connect 11 0 4 0;
#X connect 12 0 4 0;
#X connect 13 0 4 0;
#X connect 14 0 4 0;
#X restore 56 34 pd better_colors;
#X obj 56 78 del 50;
#X msg 170 17 bang;
#X text 200 114 width;
#X msg 29 428 label_pos \$1 21;
#X obj 479 124 list prepend set;
#X obj 479 146 list trim;
#X text 246 10 probably dangerous when initialized with loadbang!;
#X msg 29 383 66 ol_menu+;
#X obj 28 775 s \$0-text1-r;
#X obj 195 719 pack s 0 0;
#X obj 195 775 s \$0-text2-r;
#X obj 351 719 pack s 0 0;
#X msg 351 740 label \$1 \, label_pos \$2 \$3;
#X obj 351 775 s \$0-text3-r;
#X obj 28 648 list prepend 0;
#X obj 564 567 + 14;
#X obj 564 590 + 14;
#X obj 28 510 t b b b b b b b, f 20;
#X obj 28 672 route 1 2 3, f 66;
#X msg 86 532 2, f 1;
#X msg 125 531 1, f 1;
#X msg 47 532 3, f 1;
#X msg 153 608 empty;
#X obj 531 272 loadbang;
#X msg 531 293 set -26;
#X floatatom 73 292 5 0 0 0 - - -, f 5;
#X symbolatom 108 292 20 0 0 0 - - -, f 20;
#X obj 73 333 pack 0 s;
#X obj 108 310 t b s;
#X obj 73 354 t b l;
#X msg 113 354 set \$1 \$2;
#X msg 73 261 set 66;
#X obj 493 448 pack 0 -26;
#X msg 195 740 label \$1 \, label_pos \$2 \$3 \, label_font 1 10,
f 23;
#X msg 135 584 (uses TOF's [menubutton] object);
#X msg 479 80 300 50 800 800;
#X msg 106 560 customisable menu with browser function;
#X msg 260 413 size 1 \, pos 300 65 \, vis_size 1 1 \, color \$1 \$1
2 \, label_font 1 11 \, label, f 26;
#X connect 4 0 5 0;
#X connect 6 0 16 0;
#X connect 8 0 34 0;
#X connect 8 0 54 0;
#X connect 8 0 55 0;
#X connect 10 0 9 0;
#X connect 11 0 51 0;
#X connect 13 0 20 0;
#X connect 14 0 13 0;
#X connect 14 1 6 0;
#X connect 16 0 17 1;
#X connect 17 0 53 0;
#X connect 21 0 17 0;
#X connect 22 0 68 0;
#X connect 22 0 92 0;
#X connect 23 0 64 0;
#X connect 23 1 10 0;
#X connect 28 0 75 0;
#X connect 29 0 30 0;
#X connect 30 0 78 0;
#X connect 30 1 40 0;
#X connect 30 1 57 0;
#X connect 33 0 78 0;
#X connect 34 0 7 0;
#X connect 35 0 25 0;
#X connect 37 0 38 0;
#X connect 38 0 69 0;
#X connect 39 0 37 1;
#X connect 39 0 70 1;
#X connect 39 0 72 1;
#X connect 39 1 49 0;
#X connect 40 0 39 0;
#X connect 41 0 93 0;
#X connect 42 0 43 0;
#X connect 43 0 93 0;
#X connect 43 1 93 1;
#X connect 44 0 40 0;
#X connect 45 0 33 0;
#X connect 45 1 40 0;
#X connect 45 2 44 0;
#X connect 49 0 37 2;
#X connect 49 0 76 0;
#X connect 50 0 12 0;
#X connect 51 0 12 0;
#X connect 52 0 34 0;
#X connect 53 0 8 0;
#X connect 54 0 11 0;
#X connect 55 0 35 0;
#X connect 56 0 61 0;
#X connect 56 1 58 0;
#X connect 57 0 98 0;
#X connect 57 0 50 0;
#X connect 58 0 57 0;
#X connect 59 0 60 0;
#X connect 60 0 56 0;
#X connect 61 0 14 0;
#X connect 62 0 60 0;
#X connect 64 0 9 0;
#X connect 65 0 66 0;
#X connect 66 0 6 0;
#X connect 68 0 23 0;
#X connect 70 0 94 0;
#X connect 72 0 73 0;
#X connect 73 0 74 0;
#X connect 75 0 79 0;
#X connect 76 0 70 2;
#X connect 76 0 77 0;
#X connect 77 0 72 2;
#X connect 78 0 83 0;
#X connect 78 1 82 0;
#X connect 78 2 95 0;
#X connect 78 3 80 0;
#X connect 78 4 97 0;
#X connect 78 5 81 0;
#X connect 79 0 37 0;
#X connect 79 1 70 0;
#X connect 79 2 72 0;
#X connect 80 0 75 1;
#X connect 81 0 75 1;
#X connect 82 0 75 1;
#X connect 83 0 28 0;
#X connect 84 0 85 0;
#X connect 85 0 42 0;
#X connect 86 0 88 0;
#X connect 87 0 89 0;
#X connect 88 0 90 0;
#X connect 89 0 86 0;
#X connect 89 1 88 1;
#X connect 90 0 68 0;
#X connect 90 1 91 0;
#X connect 91 0 68 0;
#X connect 92 0 86 0;
#X connect 93 0 45 0;
#X connect 94 0 71 0;
#X connect 95 0 28 0;
#X connect 96 0 4 0;
#X connect 96 0 65 0;
#X connect 97 0 28 0;
#X connect 98 0 26 0;
#X connect 98 0 31 0;
#X connect 98 0 32 0;
#X restore 19 48 pd init;
#X obj 11 11 cnv 8 797 55 \$0-bgnd \$0-bgnd-r empty 0 20 0 4 -22530
-22530 0;
#X obj 15 16 cnv 8 787 45 \$0-frame \$0-frame-r empty 20 20 0 14 -1
-262144 0;
#X obj 16 17 cnv 15 250 43 \$0-title \$0-title-r ol_menu+ 66 21 1 24
-236864 -64 0;
#X obj 268 17 cnv 15 533 43 \$0-frame2 \$0-frame2-r empty 25 18 1 24
-216384 -4160 0;
#X obj 300 65 cnv 1 1 1 \$0-text1 \$0-text1-r customisable menu with browser function
117 -33 1 11 -22530 -66577 0;
#X obj 300 65 cnv 1 1 1 \$0-text2 \$0-text2-r (uses TOF's [menubutton] object)
117 -19 1 10 -22530 -66577 0;
#X obj 300 65 cnv 1 1 1 \$0-text3 \$0-text3-r empty 117 -5 1 11 -22530
-66577 0;
#X obj 20 635 cnv 10 230 20 empty empty needs ZEXY IEMGUTS HCS TOF
10 11 0 14 -4160 -262144 0;
#X obj 30 364 print index_out_1;
#X obj 143 364 print sym_out_1;
#X obj 305 639 cnv 15 110 15 empty empty empty 2 7 0 10 -257985 -66577
0;
#X obj 432 639 cnv 15 70 15 empty empty empty 2 7 0 10 -257985 -66577
0;
#N canvas 947 388 691 475 more 0;
#X text 86 107 align right;
#X text 86 85 align center;
#X text 86 64 align left;
#X obj 24 133 s \$0-mymenu-r;
#X obj 24 23 cnv 15 140 25 empty empty ALIGNMENT: 10 13 0 20 -204786
-66577 0;
#X obj 357 132 s \$0-mymenu-r;
#X msg 357 84 update;
#X msg 357 105 bang;
#X obj 360 22 cnv 15 77 25 empty empty MISC: 10 13 0 20 -204786 -66577
0;
#X text 413 85 update folder content;
#X text 398 105 resend last selected item;
#X msg 24 65 align 0;
#X msg 24 86 align 1;
#X msg 24 108 align 2;
#X obj 18 133 cnv 5 5 17 empty empty empty 20 12 0 14 -194593 -66577
0;
#X obj 351 132 cnv 5 5 17 empty empty empty 20 12 0 14 -194593 -66577
0;
#N canvas 0 50 450 300 ___ 0;
#X obj 1 1 cnv 15 198 158 empty empty ol_menu+_in_a_GOP: 43 10 0 12
-204786 -66577 0;
#X obj 80 17 cnv 3 70 1 empty empty empty 0 0 0 7 -204786 -66577 0
;
#X text 21 27 ... needs a "goplevel 2" message (or the attribute "@goplevel
2") to work., f 26;
#X obj 36 84 cnv 3 3 3 empty empty The GOP's margins 0 0 1 13 -233017
-258113 0;
#X obj 27 102 cnv 3 3 3 empty empty MUST be set to (0 0) !!!
0 0 1 13 -233017 -258113 0;
#X text 29 139 [ol_menu+ \$0-menuingop];
#X obj 36 119 ol_menu+ \$0-menuingop;
#X coords 0 -1 1 1 200 160 2 0 0;
#X restore 23 240 pd ___ [ol_menu+] inside a GOP;
#X obj 245 334 s \$0-menuingop-r;
#X msg 245 290 clear \, add yksi kaksi kolme neljä \, set 0, f 22
;
#X obj 245 364 r \$0-menuingop;
#X obj 245 390 print INSIDE_GOP;
#X obj 24 213 s \$0-menuingop-r;
#X msg 24 189 goplevel 2;
#X text 244 265 ATM this only works when the GOP's margins are 0 0
!;
#X text 100 188 <---- click here;
#X text 243 237 using drag and drop for [ol_menu+] inside another GOP
won't work unless you define it's level with the message "goplevel
[1|2|3] \, default: 1, f 72;
#X obj 407 425 s \$0-menuingop-r;
#X msg 407 352 item with space;
#X msg 407 401 add \$1;
#X obj 408 378 cnv 3 68 15 empty empty empty 2 7 0 10 -257985 -66577
0;
#N canvas 261 250 327 493 tosymbol 0;
#X text 65 454 symbol out with correct spaces;
#X text 81 12 string in;
#X obj 91 31 inlet;
#X obj 91 431 outlet;
#X obj 85 31 cnv 5 5 17 empty empty empty 20 12 0 14 -118750 -66577
0;
#X obj 85 431 cnv 5 5 17 empty empty empty 20 12 0 14 -102336 -66577
0;
#X obj 91 55 list;
#X obj 91 193 list store, f 13;
#X obj 91 102 until;
#X obj 91 128 f, f 7;
#X obj 153 128 + 1;
#X msg 91 171 get \$1 1;
#X obj 134 103 0;
#X obj 91 263 list fromsymbol;
#X obj 91 215 route symbol float;
#X obj 109 239 makefilename %s;
#X obj 91 150 t f f;
#X obj 91 380 list store, f 19;
#X obj 91 355 list trim;
#X obj 91 332 list prepend append;
#X obj 157 286 spigot;
#X obj 91 286 t l b, f 9;
#X obj 91 77 t b b a b, f 19;
#X obj 91 404 list tosymbol;
#X msg 157 308 160;
#X text 185 307 <- non breaking space;
#X connect 2 0 6 0;
#X connect 6 0 22 0;
#X connect 7 0 14 0;
#X connect 7 1 8 1;
#X connect 7 1 17 0;
#X connect 8 0 9 0;
#X connect 9 0 10 0;
#X connect 9 0 16 0;
#X connect 10 0 9 1;
#X connect 11 0 7 0;
#X connect 12 0 9 1;
#X connect 13 0 21 0;
#X connect 14 0 13 0;
#X connect 14 1 15 0;
#X connect 15 0 13 0;
#X connect 16 0 11 0;
#X connect 16 1 20 1;
#X connect 17 0 23 0;
#X connect 18 0 17 0;
#X connect 19 0 18 0;
#X connect 20 0 24 0;
#X connect 21 0 19 0;
#X connect 21 1 20 0;
#X connect 22 0 8 0;
#X connect 22 1 12 0;
#X connect 22 2 7 1;
#X connect 22 3 17 1;
#X connect 23 0 3 0;
#X connect 24 0 19 0;
#X restore 407 377 pd tosymbol;
#X obj 239 334 cnv 5 5 17 empty empty empty 20 12 0 14 -194593 -66577
0;
#X obj 401 425 cnv 5 5 17 empty empty empty 20 12 0 14 -194593 -66577
0;
#X text 408 288 if you need spaces in item names \, use ascii 160 (non
breaking space) instead of ascii 32 (white space). or use message "items"
instead., f 39;
#X connect 6 0 5 0;
#X connect 7 0 5 0;
#X connect 11 0 3 0;
#X connect 12 0 3 0;
#X connect 13 0 3 0;
#X connect 18 0 17 0;
#X connect 19 0 20 0;
#X connect 22 0 21 0;
#X connect 27 0 30 0;
#X connect 28 0 26 0;
#X connect 30 0 28 0;
#X restore 506 218 pd more examples;
#X obj 431 638 ol_z_colors;
#X msg 30 298 clear \, add one two 3 four \, set 0;
#X obj 507 192 cnv 15 85 16 empty empty empty 2 7 0 10 -257985 -66577
0;
#X obj 304 638 ol_z_info OL_MENU+;
#X obj 31 491 r \$0-mymenu;
#X obj 306 574 s \$0-mymenu-r;
#X msg 306 403 size 200 100 10;
#X text 399 382 width \, height \, border;
#X msg 306 424 size;
#X obj 31 519 list prepend set;
#X msg 31 563 4 five;
#X obj 31 541 list trim;
#X obj 25 563 cnv 5 5 17 empty empty empty 20 12 0 14 -137280 -66577
0;
#X obj 559 571 s \$0-mymenu-r;
#X text 110 483 receive: outputs list (index \, value), f 21;
#X msg 559 515 clear \, items dva sedm|osm [bracket-test]|even_underscores
are_possible, f 31;
#X obj 25 491 cnv 5 5 17 empty empty empty 20 12 0 14 -260626 -66577
0;
#X obj 300 574 cnv 5 5 17 empty empty empty 20 12 0 14 -194593 -66577
0;
#X obj 553 571 cnv 5 5 17 empty empty empty 20 12 0 14 -194593 -66577
0;
#X text 343 425 defaults;
#X text 30 113 Remote Name (optional);
#X obj 31 105 cnv 1 146 1 empty empty ARGUMENTS: (defaults) 1 -7 0
12 -66577 -66577 0;
#X text 30 149 1.) width (120);
#X text 30 162 2.) height (20);
#X text 30 176 3.) border (1);
#X text 47 127 (see "ol_z_info" for details);
#X obj 304 105 cnv 1 50 1 empty empty INLETS: 1 -7 0 12 -66577 -66577
0;
#X text 303 110 1.) messages;
#X obj 304 155 cnv 1 55 1 empty empty OUTLETS: 1 -7 0 12 -66577 -66577
0;
#X text 303 160 1.) Menu index out;
#X text 303 173 2.) Menu symbol out;
#X floatatom 306 301 5 0 0 0 - - -, f 5;
#X msg 306 546 align \$1;
#X obj 315 523 hradio 15 1 0 3 empty empty empty 0 -8 0 10 -262144
-1 -1 0;
#X msg 306 382 size 100 30 5;
#X text 380 545 left /center / right;
#X obj 118 225 cnv 5 5 5 empty empty * 0 5 0 15 -262144 -66577 0;
#X obj 367 552 cnv 5 5 5 empty empty * 0 5 0 15 -262144 -66577 0;
#X msg 306 495 colors;
#X msg 306 471 colors blue white green yellow;
#X text 313 452 background \, text \, highlight \, border;
#X text 353 495 defaults;
#X msg 306 350 clear;
#X text 605 295 fill the menu;
#X obj 559 272 loadbang;
#X obj 559 295 del 20;
#X msg 306 321 symbol four;
#X msg 559 370 set four;
#X msg 559 349 set 2;
#X msg 559 395 bang;
#X text 596 395 output item;
#X obj 305 286 cnv 1 60 1 empty empty MESSAGES: 1 -7 0 12 -66577 -66577
0;
#X msg 559 318 clear \, add cc vv one four five \, set 0;
#X text 347 299 menu index (starts at 0);
#X text 387 321 output by symbol;
#X text 352 350 clear the menu;
#X text 604 348 set menu index;
#X text 619 370 set by symbol;
#X obj 575 166 cnv 5 5 5 empty empty ** 0 5 0 15 -262144 -66577 0;
#X obj 536 517 cnv 5 5 5 empty empty ** 0 5 0 15 -262144 -66577 0;
#X text 503 133 The output symbol is NOT affected by this \, it's only
a display thing (see the message "items" as an example)., f 49;
#X text 503 87 Since [ol_menu] uses TOF's [menubutton] object \, some
symbols that are not allowed by Tcl/Tk have to be replaced by "Tk-safe"
characters., f 49;
#X text 568 423 "items" does the same as "add" \, but allows spaces.
internally \, white space (ascii 32) are converted to non-breaking
space (ascii 160)., f 36;
#X text 563 484 items are separated by "|" (ascii 124);
#X text 159 317 <--- created without any arguments, f 13;
#X text 55 343 [ol_menu+];
#X text 30 190 4.) browsermode (0);
#X text 30 204 5.) location (0/none);
#X text 30 218 6.) align (0);
#N canvas 384 179 774 598 browsermode 0;
#X obj 408 95 print DROPPED;
#X text 494 94 <-- dropped folder name;
#X text 524 48 r [name]-info: receive infos;
#X obj 408 72 route dropped flag;
#X obj 408 555 cnv 1 220 1 empty empty PLEASE REFER TO "00_README.txt"
1 -7 0 12 -4160 -4160 0;
#X obj 408 575 cnv 1 226 1 empty empty FOR DRAG AND DROP REQUIREMENTS !
1 -7 0 12 -4160 -4160 0;
#X obj 402 48 cnv 5 5 17 empty empty empty 20 12 0 14 -260626 -66577
0;
#X obj 408 48 r \$0-browser-info;
#X msg 34 244 browsermode \$1;
#X obj 34 212 tgl 20 0 empty empty empty 17 7 0 10 -262144 -1 -1 0
1;
#X text 62 206 in browsermode \, ol_menu+ navigates into folders. also
a ".." button appears, f 39;
#X obj 28 555 cnv 5 5 17 empty empty empty 20 12 0 14 -194593 -66577
0;
#X obj 34 555 s \$0-browser-r;
#X msg 34 406 panel;
#X msg 34 277 ext wav;
#X text 417 283 all files \, select folder with relative path name
;
#X text 418 329 only wav files \, select folder with relative path
name;
#X msg 34 300 ext;
#X msg 34 360 folder ..;
#X msg 34 526 update;
#X msg 410 306 ext \, folder ./ol_gifs;
#X msg 410 349 ext wav \, folder ./ol_media;
#X obj 404 402 cnv 5 5 17 empty empty empty 20 12 0 14 -194593 -66577
0;
#X obj 410 402 s \$0-browser-r;
#X msg 34 383 folder C:/Temp;
#X text 86 526 re-scan folder;
#X text 287 461 0 = alphabetically;
#X text 482 462 0 = all;
#X text 482 473 1 = just FOLDERS;
#X text 482 485 2 = just FILES;
#X text 287 497 3 = by date oldest first;
#X text 287 473 1 = alphabetically reverse;
#X text 287 485 2 = by date newest first;
#X text 263 447 1.) sort;
#X text 458 446 2.) types;
#X text 628 461 append folder/file flag (0/1), f 11;
#X text 605 446 3.) flag;
#X obj 408 222 cnv 1 60 1 empty empty EXAMPLES: 1 -7 0 12 -66577 -66577
0;
#X text 93 277 search filter (by extension):;
#X text 67 299 no search filter (show all files);
#X msg 34 454 mode 0 0 0;
#X msg 34 475 mode 2 0 1;
#X msg 34 495 mode 2 2 0;
#X text 112 453 mode: set sort/types/flag in one message, f 15;
#X text 108 495 (send "update" after !);
#X text 104 360 relative path;
#X text 137 383 absolute path;
#X text 78 405 dialog;
#X text 44 340 select folder to browse for:;
#X text 35 95 [ol_menu+ \$0-browser 200 30 0 0];
#X text 33 16 Use [ol_menu+] to scan folders and display their content
inside the menu:, f 40;
#X obj 34 62 ol_menu+ \$0-browser 200 30 0 0;
#X text 406 16 DROP A FOLDER FROM YOUR FILE BROWSER ONTO [OL_MENU+]
!;
#X obj 27 128 cnv 5 5 17 empty empty empty 20 12 0 14 -260626 -66577
0;
#X obj 33 128 r \$0-browser;
#X obj 33 153 print [ol_menu+]_OUT;
#X obj 399 237 loadbang;
#X obj 399 260 del 100;
#X msg 399 377 align 1;
#X obj 396 124 cnv 3 350 70 empty empty empty 20 12 0 14 -261234 -66577
0;
#X text 406 127 Due to a restriction in the objects [folder_list] and
[stat] (from the HCS externals) which do the readout of the dropped
folder \, its name must not contain any german umlauts \, else it won't
be read. !, f 54;
#X connect 3 0 0 0;
#X connect 7 0 3 0;
#X connect 8 0 12 0;
#X connect 9 0 8 0;
#X connect 13 0 12 0;
#X connect 14 0 12 0;
#X connect 17 0 12 0;
#X connect 18 0 12 0;
#X connect 19 0 12 0;
#X connect 20 0 23 0;
#X connect 21 0 23 0;
#X connect 24 0 12 0;
#X connect 40 0 12 0;
#X connect 41 0 12 0;
#X connect 42 0 12 0;
#X connect 54 0 55 0;
#X connect 56 0 57 0;
#X connect 57 0 20 0;
#X connect 57 0 58 0;
#X connect 58 0 23 0;
#X restore 506 191 pd browsermode;
#X obj 30 323 ol_menu+;
#X text 156 424 <--- remote version;
#X text 30 445 [ol_menu+ \$0-mymenu];
#X obj 30 423 ol_menu+ \$0-mymenu;
#X connect 0 0 87 0;
#X connect 18 0 87 0;
#X connect 21 0 26 0;
#X connect 23 0 22 0;
#X connect 25 0 22 0;
#X connect 26 0 28 0;
#X connect 28 0 27 0;
#X connect 32 0 30 0;
#X connect 48 0 22 0;
#X connect 49 0 22 0;
#X connect 50 0 49 0;
#X connect 51 0 22 0;
#X connect 55 0 22 0;
#X connect 56 0 22 0;
#X connect 59 0 22 0;
#X connect 61 0 62 0;
#X connect 62 0 69 0;
#X connect 63 0 22 0;
#X connect 64 0 30 0;
#X connect 65 0 30 0;
#X connect 66 0 30 0;
#X connect 69 0 30 0;
#X connect 87 0 12 0;
#X connect 87 1 13 0;
