#N canvas 706 50 818 890 10;
#X obj 147 834 outlet;
#X obj 332 91 loadbang;
#X obj 331 174 list 0 \$1 \$2;
#X obj 331 195 route 0;
#X obj 338 289 f;
#X obj 243 260 moses 2;
#X obj 331 221 unpack;
#X obj 0 0 hradio 16 1 0 1 \$0-radio \$0-radio-r empty 2 3 0 7 -262131
-262131 -262131 0;
#X obj 48 222 sel 0 1;
#X obj 48 364 s \$0-radio-r;
#X msg 48 341 color \$1 \$2 \$3;
#X obj 169 288 t b;
#X obj 169 347 == 0;
#X obj 169 324 f;
#X msg 424 150 0;
#X obj 169 265 r \$0-radio;
#X obj 131 106 inlet;
#X obj 141 834 cnv 5 5 17 empty empty empty 20 12 0 14 -102336 -66577
0;
#X obj 42 364 cnv 5 5 17 empty empty empty 20 12 0 14 -194593 -66577
0;
#X obj 42 185 cnv 5 5 17 empty empty empty 20 12 0 14 -260626 -66577
0;
#X obj 125 106 cnv 5 5 17 empty empty empty 20 12 0 14 -118750 -66577
0;
#X obj 163 370 cnv 5 5 17 empty empty empty 20 12 0 14 -194593 -66577
0;
#X obj 332 312 cnv 5 5 17 empty empty empty 20 12 0 14 -194593 -66577
0;
#X obj 418 174 cnv 5 5 17 empty empty empty 20 12 0 14 -194593 -66577
0;
#X obj 171 199 cnv 5 5 17 empty empty empty 20 12 0 14 -194593 -66577
0;
#X obj 163 265 cnv 5 5 17 empty empty empty 20 12 0 14 -260626 -66577
0;
#X obj 559 334 cnv 5 5 17 empty empty empty 20 12 0 14 -260626 -66577
0;
#X text 558 36 args: 1.) on/off or ms;
#X text 594 49 2.) ms;
#X obj 565 334 r \$0-m;
#X obj 565 357 metro 1000;
#X obj 616 334 cnv 5 5 17 empty empty empty 20 12 0 14 -260626 -66577
0;
#X obj 622 334 r \$0-ms;
#X obj 424 174 s \$0-m;
#X obj 169 370 s \$0-m;
#X obj 48 185 r \$0-m;
#X obj 177 199 s \$0-m;
#X obj 297 260 max 0;
#X obj 338 312 s \$0-ms-r;
#X obj 416 233 cnv 5 5 17 empty empty empty 20 12 0 14 -194593 -66577
0;
#X obj 422 233 s \$0-ms-r;
#X obj 364 259 route 0;
#X obj 122 175 moses 0;
#X obj 177 175 moses 2;
#X obj 559 11 namecanvas \$0-ol_metrocounter;
#X obj 114 553 f, f 5;
#X obj 184 553 + 1, f 9;
#X obj 16 0 nbx 4 16 0 1e+037 0 0 \$0-ms \$0-ms-r empty 0 0 1 11 -262144
-1 -1 40 256;
#X obj 59 1 hradio 12 1 0 3 \$0-reset \$0-reset-r empty 0 4 0 10 -262144
-1 -1 1;
#X obj 56 1 cnv 14 44 14 \$0-num-cnv \$0-num-cnv-r empty 5 7 1 10 -128992
-262144 0;
#X obj 149 581 cnv 5 5 17 empty empty empty 20 12 0 14 -260626 -66577
0;
#X obj 155 581 r \$0-min;
#X obj 213 581 cnv 5 5 17 empty empty empty 20 12 0 14 -260626 -66577
0;
#X obj 219 581 r \$0-max;
#X obj 28 436 cnv 5 5 17 empty empty empty 20 12 0 14 -260626 -66577
0;
#X obj 34 436 r \$0-reset;
#X obj 227 349 cnv 5 5 17 empty empty empty 20 12 0 14 -260626 -66577
0;
#X obj 233 349 r \$0-dir;
#X obj 114 606 clip 0 10, f 18;
#X obj 114 713 select;
#X obj 29 777 t b;
#X obj 528 260 cnv 5 5 17 empty empty empty 20 12 0 14 -194593 -66577
0;
#X obj 534 260 s \$0-ms-r;
#X obj 560 234 cnv 5 5 17 empty empty empty 20 12 0 14 -194593 -66577
0;
#X obj 566 234 s \$0-min-r;
#X obj 592 208 cnv 5 5 17 empty empty empty 20 12 0 14 -194593 -66577
0;
#X obj 598 208 s \$0-max-r;
#X obj 624 184 cnv 5 5 17 empty empty empty 20 12 0 14 -194593 -66577
0;
#X obj 630 184 s \$0-dir-r;
#X obj 238 810 makefilename %d;
#X msg 238 831 label \$1;
#X obj 232 853 cnv 5 5 17 empty empty empty 20 12 0 14 -194593 -66577
0;
#X obj 238 853 s \$0-num-cnv-r;
#X obj 312 120 t b b b;
#X obj 270 174 cnv 5 5 17 empty empty empty 20 12 0 14 -194593 -66577
0;
#X obj 276 174 s \$0-lb;
#X obj 350 814 cnv 5 5 17 empty empty empty 20 12 0 14 -260626 -66577
0;
#X obj 356 814 r \$0-lb;
#X msg 356 836 label;
#X obj 410 332 cnv 5 5 17 empty empty empty 20 12 0 14 -260626 -66577
0;
#X obj 416 332 r \$0-lb;
#X obj 410 397 cnv 5 5 17 empty empty empty 20 12 0 14 -194593 -66577
0;
#X obj 416 397 s \$0-in;
#X msg 218 527 1;
#X msg 247 527 -1;
#X obj 470 477 cnv 5 5 17 empty empty empty 20 12 0 14 -260626 -66577
0;
#X obj 476 477 r \$0-max;
#X obj 451 449 cnv 5 5 17 empty empty empty 20 12 0 14 -260626 -66577
0;
#X obj 457 449 r \$0-min;
#X obj 457 531 pack;
#X obj 476 503 t b f;
#X obj 552 605 list store;
#X msg 552 582 get \$1 1;
#X floatatom 508 622 5 0 0 0 - - -, f 5;
#X obj 367 605 list store, f 13;
#X floatatom 466 622 5 0 0 0 - - -, f 5;
#X obj 233 466 t f f, f 13;
#X msg 367 581 get \$1 1;
#X msg 422 209 40;
#X obj 416 353 t b b;
#X obj 16 16 nbx 5 14 0 1e+037 0 0 \$0-min \$0-min-r empty 0 0 1 9
-262144 -1 -1 0 256;
#X obj 56 16 nbx 5 14 0 1e+037 0 0 \$0-max \$0-max-r empty 0 0 1 9
-262144 -1 -1 50 256;
#X obj 618 840 cnv 5 5 17 empty empty empty 20 12 0 14 -194593 -66577
0;
#X obj 624 840 s \$0-dir-cnv-r;
#X obj 503 801 list prepend label;
#X obj 503 823 list trim;
#X msg 488 769 ->;
#X msg 523 769 <-;
#X msg 558 768 <->;
#X obj 0 18 vsl 16 9 0 3 0 0 \$0-dir \$0-dir-r empty 0 0 0 10 -262144
-1 -1 0 1;
#X obj 1 17 cnv 12 14 12 \$0-dir-cnv \$0-dir-cnv-r -> 2 6 0 9 -262130
-66577 0;
#X obj 233 370 int;
#X obj 233 392 clip 0 2;
#X obj 233 414 change;
#X msg 347 397 set -1;
#X msg 637 813 label_pos \$1 6;
#X obj 302 489 cnv 5 5 17 empty empty empty 20 12 0 14 -194593 -66577
0;
#X obj 308 489 s \$0-dirrr;
#X obj 233 489 sel 0 1 2;
#X obj 546 532 cnv 5 5 17 empty empty empty 20 12 0 14 -260626 -66577
0;
#X obj 552 532 r \$0-dirrr;
#X obj 529 705 cnv 5 5 17 empty empty empty 20 12 0 14 -260626 -66577
0;
#X obj 535 705 r \$0-dirrr;
#X obj 535 727 sel 0 1 2;
#X msg 661 784 1;
#X msg 631 784 2;
#X obj 361 531 cnv 5 5 17 empty empty empty 20 12 0 14 -260626 -66577
0;
#X obj 367 531 r \$0-dirrr;
#X obj 361 628 cnv 5 5 17 empty empty empty 20 12 0 14 -194593 -66577
0;
#X obj 367 628 s \$0-realmin;
#X obj 546 628 cnv 5 5 17 empty empty empty 20 12 0 14 -194593 -66577
0;
#X obj 552 628 s \$0-realmax;
#X obj 135 492 cnv 5 5 17 empty empty empty 20 12 0 14 -260626 -66577
0;
#X obj 141 492 r \$0-realmin;
#X obj 141 686 cnv 5 5 17 empty empty empty 20 12 0 14 -260626 -66577
0;
#X obj 147 686 r \$0-realmax;
#X obj 141 518 f;
#X obj 367 651 v \$0-realminv;
#X obj 34 493 v \$0-realminv;
#X obj 361 651 cnv 5 5 17 empty empty empty 20 12 0 14 -194048 -66577
0;
#X obj 28 493 cnv 5 5 17 empty empty empty 20 12 0 14 -194048 -66577
0;
#X obj 233 435 f;
#X obj 457 553 t b l;
#X obj 546 650 cnv 5 5 17 empty empty empty 20 12 0 14 -194048 -66577
0;
#X obj 552 650 v \$0-realmaxv;
#X obj 108 737 cnv 5 5 17 empty empty empty 20 12 0 14 -194048 -66577
0;
#X obj 114 737 v \$0-realmaxv;
#X obj 147 793 f;
#X obj 114 760 t b f;
#X obj 237 605 cnv 5 5 17 empty empty empty 20 12 0 14 -260626 -66577
0;
#X obj 243 605 r \$0-dirrr;
#X floatatom 256 631 5 0 0 0 - - -, f 5;
#X obj 243 685 t f f f;
#X obj 285 739 ==;
#X obj 251 738 ==;
#X obj 296 713 cnv 5 5 17 empty empty empty 20 12 0 14 -260626 -66577
0;
#X obj 302 713 r \$0-realmax;
#X obj 208 712 cnv 5 5 17 empty empty empty 20 12 0 14 -260626 -66577
0;
#X obj 214 712 r \$0-realmin;
#X obj 285 762 sel 1;
#X obj 244 763 sel 1;
#X floatatom 282 544 5 0 0 0 - - -, f 5;
#X obj 367 553 == 1;
#X obj 552 557 != 1;
#X obj 33 589 bng 15 250 50 0 empty empty empty 17 7 0 10 -262144 -1
-1;
#X floatatom 44 624 5 0 0 0 - - -, f 5;
#X floatatom 294 583 5 0 0 0 - - -, f 5;
#X msg 416 375 min 0 \, max 50 \, dir 0;
#X msg 48 319 5 \$1 5;
#X msg 48 286 5;
#X msg 76 286 18;
#X obj 306 61 cnv 5 5 17 empty empty empty 20 12 0 14 -260626 -66577
0;
#X obj 312 61 r ol_GUI_reinit;
#X text 289 41 force loadbang from outside;
#X obj 701 109 inlet;
#X obj 695 109 cnv 5 5 17 empty empty empty 20 12 0 14 -118750 -66577
0;
#X text 678 84 external bang;
#X obj 77 527 cnv 5 5 17 empty empty empty 20 12 0 14 -260626 -66577
0;
#X obj 559 379 cnv 5 5 17 empty empty empty 20 12 0 14 -194593 -66577
0;
#X obj 565 379 s \$0-mb;
#X obj 695 136 cnv 5 5 17 empty empty empty 20 12 0 14 -194593 -66577
0;
#X obj 701 136 s \$0-mb;
#X obj 173 106 cnv 5 5 17 empty empty empty 20 12 0 14 -260626 -66577
0;
#X obj 179 106 r \$0-in;
#X obj 36 547 bng 15 250 50 0 empty empty empty 17 7 0 10 -262144 -1
-1;
#X obj 83 527 r \$0-mb;
#X obj 154 141 route float bang;
#X obj 534 158 route time min max dir set;
#X obj 114 654 route 0 1 2, f 22;
#X obj 114 630 list prepend 0, f 22;
#X connect 1 0 73 0;
#X connect 2 0 3 0;
#X connect 3 0 6 0;
#X connect 4 0 38 0;
#X connect 5 0 34 0;
#X connect 5 1 37 0;
#X connect 6 0 5 0;
#X connect 6 1 41 0;
#X connect 8 0 169 0;
#X connect 8 1 170 0;
#X connect 10 0 9 0;
#X connect 11 0 13 0;
#X connect 12 0 34 0;
#X connect 13 0 12 0;
#X connect 14 0 33 0;
#X connect 15 0 11 0;
#X connect 16 0 186 0;
#X connect 29 0 30 0;
#X connect 30 0 179 0;
#X connect 32 0 30 1;
#X connect 35 0 8 0;
#X connect 35 0 13 1;
#X connect 37 0 4 0;
#X connect 41 1 4 0;
#X connect 42 1 43 0;
#X connect 43 0 36 0;
#X connect 43 1 40 0;
#X connect 45 0 58 0;
#X connect 45 0 165 0;
#X connect 46 0 45 1;
#X connect 46 0 166 0;
#X connect 51 0 58 1;
#X connect 53 0 58 2;
#X connect 55 0 138 0;
#X connect 57 0 111 0;
#X connect 58 0 189 0;
#X connect 59 0 146 0;
#X connect 59 1 147 0;
#X connect 60 0 136 0;
#X connect 69 0 70 0;
#X connect 70 0 72 0;
#X connect 73 0 75 0;
#X connect 73 1 2 0;
#X connect 73 2 14 0;
#X connect 73 2 98 0;
#X connect 77 0 78 0;
#X connect 78 0 72 0;
#X connect 80 0 99 0;
#X connect 83 0 46 1;
#X connect 83 0 161 0;
#X connect 84 0 46 1;
#X connect 84 0 161 0;
#X connect 86 0 90 0;
#X connect 88 0 89 0;
#X connect 89 0 142 0;
#X connect 90 0 89 0;
#X connect 90 1 89 1;
#X connect 91 0 93 0;
#X connect 91 0 131 0;
#X connect 91 0 144 0;
#X connect 92 0 91 0;
#X connect 94 0 95 0;
#X connect 94 0 129 0;
#X connect 94 0 137 0;
#X connect 96 0 118 0;
#X connect 96 1 117 0;
#X connect 97 0 94 0;
#X connect 98 0 40 0;
#X connect 99 0 167 0;
#X connect 99 1 114 0;
#X connect 104 0 105 0;
#X connect 105 0 103 0;
#X connect 106 0 104 0;
#X connect 107 0 104 0;
#X connect 108 0 104 0;
#X connect 111 0 112 0;
#X connect 112 0 113 0;
#X connect 113 0 141 0;
#X connect 114 0 113 0;
#X connect 115 0 103 0;
#X connect 118 0 83 0;
#X connect 118 1 84 0;
#X connect 120 0 163 0;
#X connect 122 0 123 0;
#X connect 123 0 106 0;
#X connect 123 0 125 0;
#X connect 123 1 107 0;
#X connect 123 1 125 0;
#X connect 123 2 108 0;
#X connect 123 2 124 0;
#X connect 124 0 115 0;
#X connect 125 0 115 0;
#X connect 127 0 162 0;
#X connect 133 0 136 0;
#X connect 135 0 59 1;
#X connect 136 0 45 1;
#X connect 138 0 136 0;
#X connect 141 0 96 0;
#X connect 142 0 141 0;
#X connect 142 1 94 1;
#X connect 142 1 91 1;
#X connect 146 0 148 0;
#X connect 147 0 0 0;
#X connect 147 0 69 0;
#X connect 147 0 46 0;
#X connect 148 0 60 0;
#X connect 148 1 147 0;
#X connect 150 0 151 0;
#X connect 150 0 189 1;
#X connect 152 0 147 0;
#X connect 152 1 154 0;
#X connect 152 2 153 0;
#X connect 153 0 159 0;
#X connect 154 0 160 0;
#X connect 156 0 153 1;
#X connect 158 0 154 1;
#X connect 159 0 84 0;
#X connect 160 0 83 0;
#X connect 162 0 97 0;
#X connect 163 0 92 0;
#X connect 164 0 45 0;
#X connect 167 0 82 0;
#X connect 168 0 10 0;
#X connect 169 0 168 0;
#X connect 170 0 168 0;
#X connect 172 0 73 0;
#X connect 174 0 181 0;
#X connect 183 0 186 0;
#X connect 185 0 45 0;
#X connect 185 0 184 0;
#X connect 186 0 42 0;
#X connect 186 1 7 0;
#X connect 186 2 187 0;
#X connect 187 0 62 0;
#X connect 187 1 64 0;
#X connect 187 2 66 0;
#X connect 187 3 68 0;
#X connect 187 4 45 1;
#X connect 188 0 59 0;
#X connect 188 1 59 0;
#X connect 188 2 152 0;
#X connect 189 0 188 0;
#X coords 0 -1 1 1 100 30 2 0 0;
