#N canvas 534 51 826 794 10;
#X msg 31 225 clear;
#X obj 31 441 r \$0-mymenu;
#X obj 306 524 s \$0-mymenu-r;
#X msg 306 353 size 200 100 10;
#X text 399 332 width \, height \, border;
#X msg 306 374 size;
#X obj 464 48 namecanvas \$0-ol_help;
#N canvas 1140 50 626 800 init 0;
#X obj 470 388 cnv 8 120 25 empty empty empty 20 12 0 14 -204786 -66577
0;
#X obj 97 553 cnv 8 300 80 empty empty empty 20 12 0 14 -204786 -66577
0;
#X obj 461 76 cnv 8 120 26 empty empty empty 20 12 0 14 -204786 -66577
0;
#X obj 60 287 cnv 8 200 25 empty empty empty 20 12 0 14 -204786 -66577
0;
#X msg 245 33 vis 0 \, relocate \$3x\$4+0+0 0x0+\$1+\$2 \, vis 1 \,
editmode 0;
#X obj 245 55 s \$0-ol_help;
#X msg 118 64 300 50 800 800;
#X obj 118 219 s \$0-frame-r;
#X floatatom 118 176 5 0 0 0 - - -, f 5;
#X obj 28 450 s \$0-title-r;
#X msg 98 406 label \$1;
#X floatatom 263 143 5 0 0 0 - - -, f 5;
#X obj 263 183 s \$0-bgnd-r;
#X obj 56 119 del 10;
#X obj 56 99 t b b;
#X text 244 80 1.) set pos and size of main window;
#X msg 172 115 \$3;
#X obj 118 132 f;
#X text 151 143 minus frame sizes, f 11;
#X text 124 266 2.) set name of title;
#X obj 56 141 s \$0-lb;
#X obj 118 107 r \$0-lb;
#X obj 29 244 r \$0-lb;
#X obj 29 406 unpack 0 s;
#X text 175 530 3.) set description;
#X obj 263 262 s \$0-frame2-r;
#X obj 182 463 s \$0-text1-r;
#X obj 29 626 cnv 3 68 15 empty empty empty 2 7 0 10 -257985 -66577
0;
#N canvas 341 335 425 542 tosymbol 0;
#X obj 67 94 list length;
#X obj 67 42 list;
#X obj 101 226 list, f 7;
#X obj 67 175 f, f 10;
#X obj 154 175 + 1;
#X obj 67 150 until;
#X obj 101 251 list split;
#X msg 157 94 0;
#X obj 139 276 list split 1;
#X obj 139 361 list fromsymbol;
#X obj 139 302 route symbol float;
#X obj 191 329 makefilename %s;
#X obj 139 435 textfile;
#X msg 202 94 clear;
#X obj 139 387 list prepend add2;
#X obj 67 201 t b b b f;
#X obj 79 276 + 1;
#X obj 67 122 t f f;
#X obj 78 300 <;
#X obj 20 335 spigot;
#X msg 20 394 add2 32;
#X obj 139 411 list trim;
#X obj 67 335 f;
#X obj 67 361 sel 0;
#X obj 139 463 list tosymbol;
#X obj 67 68 t l l b b, f 23;
#X text 184 486 symbol out with correct spaces;
#X text 57 2 string in;
#X msg 136 25 #/zi 3 4 oo ä;
#X msg 229 25 1.23457e+019;
#X floatatom 315 28 5 0 0 0 - - -, f 5;
#X obj 67 22 cnv 13 34 15 empty empty empty 2 2 0 9 -163816 -66577
0;
#X obj 139 487 cnv 14 40 15 empty empty empty 2 2 0 9 -163840 -66577
0;
#X obj 67 21 inlet;
#X obj 139 486 outlet;
#X connect 0 0 17 0;
#X connect 1 0 25 0;
#X connect 2 0 6 0;
#X connect 3 0 4 0;
#X connect 3 0 15 0;
#X connect 4 0 3 1;
#X connect 5 0 3 0;
#X connect 6 1 8 0;
#X connect 7 0 3 1;
#X connect 8 0 10 0;
#X connect 9 0 14 0;
#X connect 10 0 9 0;
#X connect 10 1 11 0;
#X connect 11 0 9 0;
#X connect 12 0 24 0;
#X connect 13 0 12 0;
#X connect 14 0 21 0;
#X connect 15 0 22 0;
#X connect 15 1 19 0;
#X connect 15 2 2 0;
#X connect 15 3 6 1;
#X connect 15 3 16 0;
#X connect 16 0 18 0;
#X connect 17 0 5 0;
#X connect 17 1 18 1;
#X connect 18 0 19 1;
#X connect 18 0 22 1;
#X connect 19 0 20 0;
#X connect 20 0 12 0;
#X connect 21 0 12 0;
#X connect 22 0 23 0;
#X connect 23 0 12 0;
#X connect 24 0 34 0;
#X connect 25 0 0 0;
#X connect 25 1 2 1;
#X connect 25 2 7 0;
#X connect 25 3 13 0;
#X connect 28 0 1 0;
#X connect 29 0 1 0;
#X connect 30 0 1 0;
#X connect 33 0 1 0;
#X restore 28 625 pd tosymbol;
#X obj 199 390 r \$0-lb;
#X obj 199 413 t b b;
#X obj 268 463 s \$0-text2-r;
#X obj 354 463 s \$0-text3-r;
#X msg 28 488 bang;
#X msg 118 195 vis_size \$1 45;
#X msg 263 240 vis_size \$1 43;
#X text 349 389 init text labels;
#X obj 28 719 pack s 0 0;
#X msg 28 740 label \$1 \, label_pos \$2 \$3;
#X obj 531 524 unpack;
#X msg 531 500 126 -33;
#X floatatom 493 391 5 0 0 0 - - -, f 5;
#X floatatom 531 391 5 0 0 0 - - -, f 5;
#X obj 531 421 t b f;
#X msg 545 471 set \$1 \$2;
#X obj 493 471 t b b l;
#X text 503 370 x;
#X text 540 370 y;
#X text 466 352 4.) set label position;
#X obj 564 545 f;
#X msg 321 367 color \$1 \$1 \$1;
#X msg 263 161 vis_size \$1 55;
#X floatatom 79 174 5 0 0 0 - - -, f 5;
#X obj 118 153 - 13;
#X obj 263 122 + 10;
#X obj 263 219 - 254;
#X obj 56 56 t b f;
#X msg 260 390 -1.47533e+006;
#X msg 260 368 set \$1;
#X obj 56 11 loadbang;
#N canvas 36 456 791 300 better_colors 0;
#X obj 89 19 inlet;
#X obj 320 262 outlet;
#X obj 89 40 random 10;
#X obj 89 61 sel 0 1 2 3 4 5 6 7 8 9, f 83;
#X obj 320 239 expr ($f1*(-65536)+$f2*(-256)+$f3*(-1))-1;
#X msg 16 162 140 0 0;
#X msg 69 162 0 156 144;
#X msg 136 162 0 140 0;
#X msg 252 162 231 112 0;
#X msg 191 162 100 0 255;
#X msg 317 162 100 100 100;
#X msg 397 162 255 255 0;
#X msg 541 162 123 33 5;
#X msg 464 162 22 131 5;
#X msg 607 163 147 0 163;
#X connect 0 0 2 0;
#X connect 2 0 3 0;
#X connect 3 0 5 0;
#X connect 3 1 6 0;
#X connect 3 2 7 0;
#X connect 3 3 9 0;
#X connect 3 4 8 0;
#X connect 3 5 10 0;
#X connect 3 6 11 0;
#X connect 3 7 13 0;
#X connect 3 8 12 0;
#X connect 3 9 14 0;
#X connect 4 0 1 0;
#X connect 5 0 4 0;
#X connect 6 0 4 0;
#X connect 7 0 4 0;
#X connect 8 0 4 0;
#X connect 9 0 4 0;
#X connect 10 0 4 0;
#X connect 11 0 4 0;
#X connect 12 0 4 0;
#X connect 13 0 4 0;
#X connect 14 0 4 0;
#X restore 56 34 pd better_colors;
#X obj 56 78 del 50;
#X msg 170 17 bang;
#X text 200 114 width;
#X msg 29 428 label_pos \$1 21;
#X obj 479 124 list prepend set;
#X obj 479 146 list trim;
#X text 246 10 probably dangerous when initialized with loadbang!;
#X msg 29 383 66 ol_menu;
#X obj 28 775 s \$0-text1-r;
#X obj 195 719 pack s 0 0;
#X obj 195 775 s \$0-text2-r;
#X obj 351 719 pack s 0 0;
#X msg 351 740 label \$1 \, label_pos \$2 \$3;
#X obj 351 775 s \$0-text3-r;
#X obj 28 648 list prepend 0;
#X obj 564 567 + 14;
#X obj 564 590 + 14;
#X obj 28 510 t b b b b b b b, f 20;
#X obj 28 672 route 1 2 3, f 66;
#X msg 86 532 2, f 1;
#X msg 125 531 1, f 1;
#X msg 47 532 3, f 1;
#X msg 153 608 empty;
#X obj 531 272 loadbang;
#X msg 531 293 set -26;
#X floatatom 73 292 5 0 0 0 - - -, f 5;
#X symbolatom 108 292 20 0 0 0 - - -, f 20;
#X obj 73 333 pack 0 s;
#X obj 108 310 t b s;
#X obj 73 354 t b l;
#X msg 113 354 set \$1 \$2;
#X msg 73 261 set 66;
#X obj 493 448 pack 0 -26;
#X msg 195 740 label \$1 \, label_pos \$2 \$3 \, label_font 1 10,
f 23;
#X msg 135 584 (uses TOF's [menubutton] object);
#X msg 479 80 300 50 800 800;
#X msg 106 560 customisable menu (simple version);
#X msg 260 413 size 1 \, pos 300 65 \, vis_size 1 1 \, color \$1 \$1
2 \, label_font 1 11 \, label, f 26;
#X connect 4 0 5 0;
#X connect 6 0 16 0;
#X connect 8 0 34 0;
#X connect 8 0 54 0;
#X connect 8 0 55 0;
#X connect 10 0 9 0;
#X connect 11 0 51 0;
#X connect 13 0 20 0;
#X connect 14 0 13 0;
#X connect 14 1 6 0;
#X connect 16 0 17 1;
#X connect 17 0 53 0;
#X connect 21 0 17 0;
#X connect 22 0 68 0;
#X connect 22 0 92 0;
#X connect 23 0 64 0;
#X connect 23 1 10 0;
#X connect 28 0 75 0;
#X connect 29 0 30 0;
#X connect 30 0 78 0;
#X connect 30 1 40 0;
#X connect 30 1 57 0;
#X connect 33 0 78 0;
#X connect 34 0 7 0;
#X connect 35 0 25 0;
#X connect 37 0 38 0;
#X connect 38 0 69 0;
#X connect 39 0 37 1;
#X connect 39 0 70 1;
#X connect 39 0 72 1;
#X connect 39 1 49 0;
#X connect 40 0 39 0;
#X connect 41 0 93 0;
#X connect 42 0 43 0;
#X connect 43 0 93 0;
#X connect 43 1 93 1;
#X connect 44 0 40 0;
#X connect 45 0 33 0;
#X connect 45 1 40 0;
#X connect 45 2 44 0;
#X connect 49 0 37 2;
#X connect 49 0 76 0;
#X connect 50 0 12 0;
#X connect 51 0 12 0;
#X connect 52 0 34 0;
#X connect 53 0 8 0;
#X connect 54 0 11 0;
#X connect 55 0 35 0;
#X connect 56 0 61 0;
#X connect 56 1 58 0;
#X connect 57 0 98 0;
#X connect 57 0 50 0;
#X connect 58 0 57 0;
#X connect 59 0 60 0;
#X connect 60 0 56 0;
#X connect 61 0 14 0;
#X connect 62 0 60 0;
#X connect 64 0 9 0;
#X connect 65 0 66 0;
#X connect 66 0 6 0;
#X connect 68 0 23 0;
#X connect 70 0 94 0;
#X connect 72 0 73 0;
#X connect 73 0 74 0;
#X connect 75 0 79 0;
#X connect 76 0 70 2;
#X connect 76 0 77 0;
#X connect 77 0 72 2;
#X connect 78 0 83 0;
#X connect 78 1 82 0;
#X connect 78 2 95 0;
#X connect 78 3 80 0;
#X connect 78 4 97 0;
#X connect 78 5 81 0;
#X connect 79 0 37 0;
#X connect 79 1 70 0;
#X connect 79 2 72 0;
#X connect 80 0 75 1;
#X connect 81 0 75 1;
#X connect 82 0 75 1;
#X connect 83 0 28 0;
#X connect 84 0 85 0;
#X connect 85 0 42 0;
#X connect 86 0 88 0;
#X connect 87 0 89 0;
#X connect 88 0 90 0;
#X connect 89 0 86 0;
#X connect 89 1 88 1;
#X connect 90 0 68 0;
#X connect 90 1 91 0;
#X connect 91 0 68 0;
#X connect 92 0 86 0;
#X connect 93 0 45 0;
#X connect 94 0 71 0;
#X connect 95 0 28 0;
#X connect 96 0 4 0;
#X connect 96 0 65 0;
#X connect 97 0 28 0;
#X connect 98 0 26 0;
#X connect 98 0 31 0;
#X connect 98 0 32 0;
#X restore 19 48 pd init;
#X obj 11 11 cnv 8 797 55 \$0-bgnd \$0-bgnd-r empty 0 20 0 4 -22530
-22530 0;
#X obj 15 16 cnv 8 787 45 \$0-frame \$0-frame-r empty 20 20 0 14 -1
-262144 0;
#X obj 16 17 cnv 15 250 43 \$0-title \$0-title-r ol_menu 66 21 1 24
-236864 -64 0;
#X obj 268 17 cnv 15 533 43 \$0-frame2 \$0-frame2-r empty 25 18 1 24
-216384 -4160 0;
#X obj 300 65 cnv 1 1 1 \$0-text1 \$0-text1-r customisable menu (simple version)
126 -33 1 11 -22530 -66577 0;
#X obj 300 65 cnv 1 1 1 \$0-text2 \$0-text2-r (uses TOF's [menubutton] object)
126 -19 1 10 -22530 -66577 0;
#X obj 300 65 cnv 1 1 1 \$0-text3 \$0-text3-r empty 126 -5 1 11 -22530
-66577 0;
#X obj 595 745 cnv 10 200 20 empty empty needs ZEXY IEMGUTS TOF
10 11 0 14 -4160 -262144 0;
#X obj 31 469 list prepend set;
#X msg 31 513 1 osm [bracket-test];
#X obj 31 491 list trim;
#X obj 25 513 cnv 5 5 17 empty empty empty 20 12 0 14 -137280 -66577
0;
#X obj 31 324 print index_out_1;
#X obj 144 324 print sym_out_1;
#X obj 559 521 s \$0-mymenu-r;
#X obj 680 602 cnv 15 103 16 empty empty empty 2 7 0 10 -257985 -66577
0;
#X obj 679 601 ol_z_info OL_MENU;
#N canvas 0 50 450 300 ___ 0;
#X obj 1 1 cnv 15 198 158 empty empty ol_menu_in_a_GOP: 43 10 0 12
-204786 -66577 0;
#X obj 80 17 cnv 3 70 1 empty empty empty 0 0 0 7 -204786 -66577 0
;
#X text 32 139 [ol_menu \$0-menuingop];
#X text 34 26 ... needs no special message \, since no DND features
are active, f 23;
#X obj 40 112 ol_menu \$0-menuingop;
#X coords 0 -1 1 1 200 160 2 0 0;
#X restore 29 605 pd ___ [ol_menu] inside a GOP;
#X obj 278 654 s \$0-menuingop-r;
#X msg 278 605 clear \, add yksi kaksi kolme neljä \, set 0, f 18
;
#X obj 278 721 r \$0-menuingop;
#X obj 278 747 print INSIDE_GOP;
#X text 29 398 [ol_menu \$0-mymenu];
#X text 159 381 <--- remote version;
#X text 159 276 <--- created without any arguments, f 14;
#X text 36 294 [ol_menu];
#X obj 32 582 cnv 2 2 2 empty empty see also the much more powerful "ol_menu+" object !
0 0 0 16 -262144 -4160 0;
#X text 110 433 receive: outputs list (index \, value), f 21;
#X obj 457 747 s \$0-menuingop-r;
#X msg 457 674 item with space;
#X msg 457 723 add \$1;
#X obj 458 700 cnv 3 68 15 empty empty empty 2 7 0 10 -257985 -66577
0;
#N canvas 261 250 327 493 tosymbol 0;
#X text 65 454 symbol out with correct spaces;
#X text 81 12 string in;
#X obj 91 31 inlet;
#X obj 91 431 outlet;
#X obj 85 31 cnv 5 5 17 empty empty empty 20 12 0 14 -118750 -66577
0;
#X obj 85 431 cnv 5 5 17 empty empty empty 20 12 0 14 -102336 -66577
0;
#X obj 91 55 list;
#X obj 91 193 list store, f 13;
#X obj 91 102 until;
#X obj 91 128 f, f 7;
#X obj 153 128 + 1;
#X msg 91 171 get \$1 1;
#X obj 134 103 0;
#X obj 91 263 list fromsymbol;
#X obj 91 215 route symbol float;
#X obj 109 239 makefilename %s;
#X obj 91 150 t f f;
#X obj 91 380 list store, f 19;
#X obj 91 355 list trim;
#X obj 91 332 list prepend append;
#X obj 157 286 spigot;
#X obj 91 286 t l b, f 9;
#X obj 91 77 t b b a b, f 19;
#X obj 91 404 list tosymbol;
#X msg 157 308 160;
#X text 185 307 <- non breaking space;
#X connect 2 0 6 0;
#X connect 6 0 22 0;
#X connect 7 0 14 0;
#X connect 7 1 8 1;
#X connect 7 1 17 0;
#X connect 8 0 9 0;
#X connect 9 0 10 0;
#X connect 9 0 16 0;
#X connect 10 0 9 1;
#X connect 11 0 7 0;
#X connect 12 0 9 1;
#X connect 13 0 21 0;
#X connect 14 0 13 0;
#X connect 14 1 15 0;
#X connect 15 0 13 0;
#X connect 16 0 11 0;
#X connect 16 1 20 1;
#X connect 17 0 23 0;
#X connect 18 0 17 0;
#X connect 19 0 18 0;
#X connect 20 0 24 0;
#X connect 21 0 19 0;
#X connect 21 1 20 0;
#X connect 22 0 8 0;
#X connect 22 1 12 0;
#X connect 22 2 7 1;
#X connect 22 3 17 1;
#X connect 23 0 3 0;
#X connect 24 0 19 0;
#X restore 457 699 pd tosymbol;
#X msg 31 250 clear \, add one 2 three four \, set 0;
#X msg 559 465 clear \, items dva sedm|osm [bracket-test]|even_underscores
are_possible, f 31;
#X obj 25 441 cnv 5 5 17 empty empty empty 20 12 0 14 -260626 -66577
0;
#X obj 300 524 cnv 5 5 17 empty empty empty 20 12 0 14 -194593 -66577
0;
#X obj 553 521 cnv 5 5 17 empty empty empty 20 12 0 14 -194593 -66577
0;
#X obj 272 654 cnv 5 5 17 empty empty empty 20 12 0 14 -194593 -66577
0;
#X obj 451 747 cnv 5 5 17 empty empty empty 20 12 0 14 -194593 -66577
0;
#X text 343 375 defaults;
#X text 455 598 if you need spaces in item names \, use ascii 160 (non
breaking space) instead of ascii 32 (white space). or use message "items"
instead., f 29;
#X text 30 113 Remote Name (optional);
#X obj 31 105 cnv 1 146 1 empty empty ARGUMENTS: (defaults) 1 -7 0
12 -66577 -66577 0;
#X text 30 149 1.) width (120);
#X text 30 162 2.) height (20);
#X text 30 176 3.) border (1);
#X obj 680 624 cnv 15 70 16 empty empty empty 2 7 0 10 -257985 -66577
0;
#X obj 679 623 ol_z_colors;
#X text 47 129 (see "ol_z_info" for details);
#X obj 304 105 cnv 1 50 1 empty empty INLETS: 1 -7 0 12 -66577 -66577
0;
#X text 303 110 1.) messages;
#X obj 304 155 cnv 1 55 1 empty empty OUTLETS: 1 -7 0 12 -66577 -66577
0;
#X text 303 160 1.) Menu index out;
#X text 303 173 2.) Menu symbol out;
#X floatatom 306 251 5 0 0 0 - - -, f 5;
#X msg 306 496 align \$1;
#X obj 315 473 hradio 15 1 0 3 empty empty empty 0 -8 0 10 -262144
-1 -1 0;
#X msg 306 332 size 100 30 5;
#X text 380 495 left /center / right;
#X text 31 190 4.) align (0);
#X obj 117 197 cnv 5 5 5 empty empty * 0 5 0 15 -262144 -66577 0;
#X obj 367 502 cnv 5 5 5 empty empty * 0 5 0 15 -262144 -66577 0;
#X msg 306 445 colors;
#X msg 306 421 colors blue white green yellow;
#X text 313 402 background \, text \, highlight \, border;
#X text 353 445 defaults;
#X msg 306 300 clear;
#X text 605 245 fill the menu;
#X obj 559 222 loadbang;
#X obj 559 245 del 20;
#X msg 306 271 symbol four;
#X msg 559 320 set four;
#X msg 559 299 set 2;
#X msg 559 345 bang;
#X text 596 345 output item;
#X obj 305 236 cnv 1 60 1 empty empty MESSAGES: 1 -7 0 12 -66577 -66577
0;
#X msg 559 268 clear \, add cc vv one four five \, set 0;
#X text 347 249 menu index (starts at 0);
#X text 387 271 output by symbol;
#X text 352 300 clear the menu;
#X obj 31 275 ol_menu;
#X text 604 298 set menu index;
#X text 619 320 set by symbol;
#X obj 575 166 cnv 5 5 5 empty empty ** 0 5 0 15 -262144 -66577 0;
#X obj 536 467 cnv 5 5 5 empty empty ** 0 5 0 15 -262144 -66577 0;
#X text 503 133 The output symbol is NOT affected by this \, it's only
a display thing (see the message "items" as an example)., f 49;
#X text 503 87 Since [ol_menu] uses TOF's [menubutton] object \, some
symbols that are not allowed by Tcl/Tk have to be replaced by "Tk-safe"
characters., f 49;
#X obj 31 379 ol_menu \$0-mymenu;
#X text 568 373 "items" does the same as "add" \, but allows spaces.
internally \, white space (ascii 32) are converted to non-breaking
space (ascii 160)., f 36;
#X text 563 434 items are separated by "|" (ascii 124);
#X connect 0 0 89 0;
#X connect 1 0 16 0;
#X connect 3 0 2 0;
#X connect 5 0 2 0;
#X connect 16 0 18 0;
#X connect 18 0 17 0;
#X connect 27 0 26 0;
#X connect 28 0 29 0;
#X connect 37 0 40 0;
#X connect 38 0 36 0;
#X connect 40 0 38 0;
#X connect 41 0 89 0;
#X connect 42 0 22 0;
#X connect 63 0 2 0;
#X connect 64 0 2 0;
#X connect 65 0 64 0;
#X connect 66 0 2 0;
#X connect 71 0 2 0;
#X connect 72 0 2 0;
#X connect 75 0 2 0;
#X connect 77 0 78 0;
#X connect 78 0 85 0;
#X connect 79 0 2 0;
#X connect 80 0 22 0;
#X connect 81 0 22 0;
#X connect 82 0 22 0;
#X connect 85 0 22 0;
#X connect 89 0 20 0;
#X connect 89 1 21 0;
