#N canvas 47 283 1172 652 10;
#X declare -stdlib zexy -lib zexy  -path zexy;
#X declare -stdpath iemguts -path iemguts;
#X declare -stdpath tof -path tof;
#X obj 31 61 tof/menubutton 118 18 \$0-menu \$0-menu-r 0 grey90 black
grey95 black -1;
#X obj 29 395 inlet;
#X obj 30 60 cnv 2 120 20 empty \$0-cnv empty 20 12 0 14 -1 -66577
0;
#X obj 415 562 outlet;
#X text 415 581 symbol;
#X obj 23 395 cnv 5 5 17 empty empty empty 20 12 0 14 -118750 -66577
0;
#X obj 377 439 cnv 5 5 17 empty empty empty 20 12 0 14 -194593 -66577
0;
#X obj 409 562 cnv 5 5 17 empty empty empty 20 12 0 14 -102336 -66577
0;
#X obj 32 62 cnv 1 1 1 \$0-upcnv \$0-upcnv-r empty 2 55 1 12 -233017
-66577 0;
#X obj 383 417 list trim;
#X obj 893 37 cnv 5 250 80 empty empty empty 2 2 0 9 -261682 -66577
0;
#X obj 894 135 cnv 8 129 15 empty empty empty 20 12 0 14 -233024 -66577
0;
#X obj 895 465 cnv 13 43 15 empty empty empty 2 7 0 10 -257985 -66577
0;
#X obj 895 488 cnv 10 80 15 empty empty empty 2 7 0 9 -257985 -66577
0;
#N canvas 1163 248 640 689 remotename 0;
#X obj 260 9 cnv 10 330 640 empty empty for_the_ol_sss_system: 80 16
1 16 -229368 -66577 0;
#X obj 20 321 cnv 10 200 200 empty empty REMOTE 100 17 1 20 -261682
-4160 0;
#X obj 148 441 spigot;
#X obj 37 441 spigot;
#X obj 148 463 s \$0-in;
#X obj 37 417 r \$0-out;
#X obj 58 352 r \$0-remotename;
#X obj 142 463 cnv 5 5 17 empty empty empty 20 12 0 14 -194593 -66577
0;
#X obj 31 417 cnv 5 5 17 empty empty empty 20 12 0 14 -260626 -66577
0;
#X obj 52 352 cnv 5 5 17 empty empty empty 20 12 0 14 -260626 -66577
0;
#X obj 51 378 sel none;
#X msg 97 404 0, f 1;
#X msg 107 404 1, f 1;
#X obj 107 378 t b;
#X obj 101 424 f;
#X floatatom 101 449 2 0 0 0 - - -, f 2;
#X obj 313 159 spigot;
#X symbolatom 326 280 20 0 0 0 - - -, f 20;
#X obj 313 129 r get_ol_sss_objects;
#X obj 313 544 s get_ol_sss_object_names;
#X obj 364 331 makefilename %s-r;
#X text 476 331 receive name;
#X text 475 543 global send !;
#X text 448 128 global receive !;
#X obj 307 129 cnv 5 5 17 empty empty empty 20 12 0 14 -260626 -66577
0;
#X obj 307 544 cnv 5 5 17 empty empty empty 20 12 0 14 -194593 -66577
0;
#X obj 360 236 cnv 5 5 17 empty empty empty 20 12 0 14 -260626 -66577
0;
#X obj 313 253 symbol;
#X obj 313 308 t b s s, f 9;
#X obj 313 380 v \$0-nameflag;
#X obj 307 380 cnv 5 5 17 empty empty empty 20 12 0 14 -194048 -66577
0;
#X obj 313 413 pack 0 s s;
#X text 430 519 <--- put init value here;
#X obj 27 568 r \$0-getname;
#X msg 27 612 name: \$2 \$2-r;
#X obj 27 590 pack 0 s, f 16;
#X obj 21 568 cnv 5 5 17 empty empty empty 20 12 0 14 -260097 -66577
0;
#X obj 114 568 cnv 5 5 17 empty empty empty 20 12 0 14 -260097 -66577
0;
#X obj 120 568 r \$0-remotename;
#X obj 165 369 outlet;
#X obj 159 369 cnv 5 5 17 empty empty empty 20 12 0 14 -102336 -66577
0;
#X obj 142 416 cnv 5 5 17 empty empty empty 20 12 0 14 -260626 -66577
0;
#X obj 148 416 r \$0-rin;
#X obj 160 392 cnv 3 45 15 empty empty empty 2 7 0 10 -257985 -66577
0;
#N canvas 213 773 440 146 \$0-r 0;
#X restore 159 391 pd \$0-r;
#X obj 27 634 print [ol_menu]:;
#X obj 31 465 cnv 5 5 17 empty empty empty 20 12 0 14 -194593 -66577
0;
#X obj 37 465 send;
#X obj 279 572 print MENU_SEND;
#X obj 394 413 cnv 5 5 17 empty empty empty 20 12 0 14 -260626 -66577
0;
#X obj 400 413 r \$0-out;
#X obj 457 413 cnv 5 5 17 empty empty empty 20 12 0 14 -260626 -66577
0;
#X obj 463 413 r \$0-outset;
#X obj 313 519 list append 0 0;
#X obj 400 493 list trim;
#X obj 142 196 cnv 3 92 15 empty empty empty 2 7 0 10 -257985 -66577
0;
#N canvas 785 61 440 265 make 0;
#X obj 62 40 r \$0-remotename;
#X obj 56 40 cnv 5 5 17 empty empty empty 20 12 0 14 -260626 -66577
0;
#X obj 62 66 sel none;
#X obj 56 193 cnv 5 5 17 empty empty empty 20 12 0 14 -194593 -66577
0;
#X obj 62 193 s pd-\$0-r;
#X msg 62 171 clear;
#X obj 107 88 pack s \$0;
#X msg 107 111 clear \, obj 20 20 receive \$1-r \, obj 20 60 send \$2-rin
\, connect 0 0 1 0, f 21;
#X text 202 40 because [r] can't be set \, aaaah !;
#X connect 0 0 2 0;
#X connect 2 0 5 0;
#X connect 2 1 6 0;
#X connect 5 0 4 0;
#X connect 6 0 7 0;
#X connect 7 0 4 0;
#X restore 141 195 pd make receive;
#X obj 22 85 bang;
#X obj 22 62 route float symbol;
#X obj 22 195 s \$0-remotename;
#X obj 16 195 cnv 5 5 17 empty empty empty 20 12 0 14 -194593 -66577
0;
#X msg 22 111 symbol none;
#X obj 58 85 sel none empty;
#X obj 16 39 cnv 5 5 17 empty empty empty 20 12 0 14 -260626 -66577
0;
#X obj 22 39 r \$0-arg1;
#X obj 42 160 cnv 3 88 15 empty empty empty 2 7 0 10 -257985 -66577
0;
#N canvas 1137 211 605 622 check_$____ 0;
#X text 50 6 string in;
#X obj 60 25 inlet;
#X obj 311 524 outlet;
#X obj 54 25 cnv 5 5 17 empty empty empty 20 12 0 14 -118750 -66577
0;
#X obj 305 524 cnv 5 5 17 empty empty empty 20 12 0 14 -102336 -66577
0;
#X obj 60 69 list fromsymbol;
#X obj 60 216 list store, f 16;
#X obj 60 117 until;
#X obj 60 141 f;
#X obj 101 141 + 1;
#X msg 60 193 get \$1 1;
#X msg 101 117 0;
#X text 165 69 list drip;
#X obj 60 92 t b b l b, f 22;
#X msg 189 306 0;
#X obj 410 507 list tosymbol;
#X obj 60 47 t s s, f 26;
#X obj 60 239 sel 36, f 7;
#X text 112 239 detect dollar;
#X msg 60 291 1;
#X msg 132 294 0;
#X obj 99 323 spigot;
#X obj 99 367 sel 48;
#X obj 99 345 t f b, f 11;
#X msg 99 389 1;
#X obj 145 367 t b;
#X text 38 367 detect 0;
#X msg 145 389 2;
#X text 220 306 normal name;
#X text 175 389 \$1 \, \$2 etc;
#X text 72 390 \$0;
#X obj 152 425 f;
#X obj 99 263 t b f;
#X obj 335 241 f;
#X obj 60 165 t f f;
#X obj 293 46 sel 0 1 2, f 28;
#X obj 311 98 symbol;
#X obj 416 179 list fromsymbol;
#X obj 403 331 list store, f 16;
#X obj 403 238 until;
#X obj 403 262 f;
#X obj 444 262 + 1;
#X msg 403 308 get \$1 1;
#X msg 444 238 0;
#X obj 403 213 t b b l b, f 22;
#X obj 403 286 t f f;
#X obj 403 353 sel 92, f 7;
#X text 456 354 remove bsl;
#X obj 442 399 list store;
#X msg 442 376 append \$1;
#X obj 504 469 inlet;
#X obj 498 469 cnv 5 5 17 empty empty empty 20 12 0 14 -118750 -66577
0;
#X obj 504 494 list fromsymbol, f 10;
#X obj 410 484 list prepend;
#X obj 333 180 list split;
#X obj 442 422 demux 0 1 2;
#X obj 333 152 list store;
#X obj 152 448 t f f f, f 17;
#X obj 416 82 symbol \$1;
#X text 481 82 <---;
#X text 427 104 this method makes sure that in case of \$1 \, \$2 etc
in the remote name \, the arguments get expanded correctly, f 25;
#X text 298 21 0: normal / 1:\$0 / 2: \$1 etc;
#X text 321 261 split point after \$0, f 12;
#X obj 152 497 v \$0-nameflag;
#X obj 146 497 cnv 5 5 17 empty empty empty 20 12 0 14 -194048 -66577
0;
#X obj 152 473 == 1;
#X obj 305 446 cnv 5 5 17 empty empty empty 20 12 0 14 -194593 -66577
0;
#X obj 323 416 list tosymbol;
#X obj 311 446 s \$0-sss_remotename;
#X connect 1 0 16 0;
#X connect 5 0 13 0;
#X connect 6 0 17 0;
#X connect 6 1 7 1;
#X connect 6 1 31 0;
#X connect 7 0 8 0;
#X connect 8 0 34 0;
#X connect 9 0 8 1;
#X connect 9 0 33 1;
#X connect 10 0 6 0;
#X connect 11 0 8 1;
#X connect 13 0 7 0;
#X connect 13 1 11 0;
#X connect 13 2 6 1;
#X connect 13 2 56 1;
#X connect 13 3 14 0;
#X connect 14 0 31 1;
#X connect 14 0 21 1;
#X connect 15 0 2 0;
#X connect 16 0 5 0;
#X connect 16 1 36 1;
#X connect 17 0 19 0;
#X connect 17 1 32 0;
#X connect 19 0 21 1;
#X connect 20 0 21 1;
#X connect 21 0 23 0;
#X connect 22 0 24 0;
#X connect 22 0 33 0;
#X connect 22 1 25 0;
#X connect 23 0 22 0;
#X connect 23 1 20 0;
#X connect 24 0 31 1;
#X connect 25 0 27 0;
#X connect 27 0 31 1;
#X connect 31 0 57 0;
#X connect 32 0 20 0;
#X connect 32 1 21 0;
#X connect 33 0 54 1;
#X connect 34 0 10 0;
#X connect 34 1 9 0;
#X connect 35 0 36 0;
#X connect 35 1 56 0;
#X connect 35 2 58 0;
#X connect 36 0 2 0;
#X connect 36 0 68 0;
#X connect 37 0 44 0;
#X connect 38 0 46 0;
#X connect 38 1 39 1;
#X connect 38 1 48 0;
#X connect 39 0 40 0;
#X connect 40 0 45 0;
#X connect 41 0 40 1;
#X connect 42 0 38 0;
#X connect 43 0 40 1;
#X connect 44 0 39 0;
#X connect 44 1 43 0;
#X connect 44 2 38 1;
#X connect 44 3 48 1;
#X connect 45 0 42 0;
#X connect 45 1 41 0;
#X connect 46 1 49 0;
#X connect 48 0 55 0;
#X connect 48 0 67 0;
#X connect 49 0 48 0;
#X connect 50 0 52 0;
#X connect 52 0 53 1;
#X connect 53 0 15 0;
#X connect 54 1 44 0;
#X connect 55 1 53 0;
#X connect 55 2 15 0;
#X connect 56 0 54 0;
#X connect 57 0 65 0;
#X connect 57 1 35 0;
#X connect 57 2 55 1;
#X connect 58 0 37 0;
#X connect 65 0 63 0;
#X connect 67 0 68 0;
#X restore 41 159 pd check_$____;
#X obj 122 136 canvasdollarzero 2;
#X obj 116 110 cnv 5 5 17 empty empty empty 20 12 0 14 -260626 -66577
0;
#X obj 122 110 r \$0-lbinit;
#X text 23 6 any float \, "none" or "empty" as 1st argument: no remote
name, f 35;
#X obj 366 236 r \$0-sss_remotename;
#X connect 2 0 4 0;
#X connect 3 0 47 0;
#X connect 5 0 3 0;
#X connect 6 0 10 0;
#X connect 6 0 39 0;
#X connect 6 0 47 1;
#X connect 10 0 11 0;
#X connect 10 1 13 0;
#X connect 11 0 14 0;
#X connect 12 0 14 0;
#X connect 13 0 12 0;
#X connect 14 0 3 1;
#X connect 14 0 2 1;
#X connect 14 0 15 0;
#X connect 14 0 16 1;
#X connect 16 0 27 0;
#X connect 18 0 16 0;
#X connect 20 0 31 2;
#X connect 27 0 28 0;
#X connect 27 0 17 0;
#X connect 28 0 29 0;
#X connect 28 1 31 1;
#X connect 28 2 20 0;
#X connect 29 0 31 0;
#X connect 31 0 53 0;
#X connect 33 0 35 0;
#X connect 34 0 45 0;
#X connect 35 0 34 0;
#X connect 38 0 35 1;
#X connect 42 0 2 0;
#X connect 50 0 54 0;
#X connect 52 0 54 0;
#X connect 53 0 19 0;
#X connect 54 0 53 1;
#X connect 57 0 61 0;
#X connect 58 0 57 0;
#X connect 58 1 62 0;
#X connect 61 0 59 0;
#X connect 62 0 61 0;
#X connect 62 1 61 0;
#X connect 62 2 66 0;
#X connect 64 0 58 0;
#X connect 66 0 59 0;
#X connect 67 0 66 1;
#X connect 69 0 67 0;
#X connect 71 0 27 1;
#X restore 894 487 pd remotename;
#X symbolatom 894 510 15 0 0 0 - - -, f 15;
#N canvas 1107 224 705 720 INIT 0;
#X obj 21 24 cnv 5 5 17 empty empty empty 20 12 0 14 -260626 -66577
0;
#X obj 27 24 r \$0-args;
#X obj 20 209 cnv 5 5 17 empty empty empty 20 12 0 14 -260097 -66577
0;
#X text 441 341 color;
#X obj 420 629 list trim;
#X obj 414 651 cnv 5 5 17 empty empty empty 20 12 0 14 -194593 -66577
0;
#X obj 420 651 s \$0-in;
#X obj 59 453 list split 1;
#X obj 498 5 cnv 10 200 100 empty empty GOP 140 17 1 20 -204786 -4160
0;
#X obj 508 15 r \$0-GOP;
#X obj 502 15 cnv 5 5 17 empty empty empty 20 12 0 14 -260097 -66577
0;
#X obj 502 75 cnv 5 5 17 empty empty empty 20 12 0 14 -173398 -66577
0;
#X obj 420 382 list prepend colors, f 13;
#X msg 508 39 donecanvasdialog 1 -1 3 0 -1 1 1 \$1 \$2 \$3 \$4 \, dirty
0, f 28;
#X obj 508 75 s \$0-ol_menu;
#X text 250 41 2.) width (120);
#X text 250 54 3.) height (20);
#X text 250 68 4.) border (1);
#X obj 93 498 list split 3;
#X text 113 480 size;
#X obj 332 515 list split 1;
#X obj 93 612 list prepend size;
#X msg 332 537 align \$1;
#X msg 323 179 clear;
#X obj 323 201 s \$0-txt;
#X obj 317 201 cnv 5 5 17 empty empty empty 20 12 0 14 -194593 -66577
0;
#X msg 200 179 0;
#X obj 194 203 cnv 5 5 17 empty empty empty 20 12 0 14 -194593 -66577
0;
#X obj 200 203 s \$0-browsermode;
#X obj 200 157 t b b, f 21;
#X obj 109 276 cnv 5 5 17 empty empty empty 20 12 0 14 -173398 -66577
0;
#X obj 115 276 s \$0-argumentslist;
#X obj 317 253 cnv 5 5 17 empty empty empty 20 12 0 14 -194593 -66577
0;
#X obj 323 253 s \$0-currentext;
#X msg 323 230 symbol *;
#X obj 323 280 path current;
#X obj 323 301 l2s;
#X obj 317 322 cnv 5 5 17 empty empty empty 20 12 0 14 -194593 -66577
0;
#X obj 323 322 s \$0-currentdir;
#X obj 60 395 cnv 4 62 15 empty empty empty 2 7 0 10 -257985 -66577
0;
#N canvas 0 50 334 272 achange 0;
#X obj 47 40 inlet;
#X obj 196 25 inlet;
#X text 193 4 reset;
#X text 96 231 list out;
#X obj 47 231 outlet;
#X obj 47 62 list;
#X obj 196 75 text define;
#X obj 62 205 text set -s text t;
#X msg 196 52 clear \, bang;
#X msg 239 25 bang;
#X obj 196 99 t p;
#X obj 86 132 text search -s text t;
#X obj 86 155 == -1;
#X obj 47 178 spigot;
#X obj 47 85 t l l, f 7;
#X text 40 5 anything in;
#X obj 112 25 cnv 5 5 17 empty empty empty 20 12 0 14 -260626 -66577
0;
#X obj 118 25 r \$0-lbinit;
#X connect 0 0 5 0;
#X connect 1 0 8 0;
#X connect 5 0 14 0;
#X connect 6 0 10 0;
#X connect 8 0 6 0;
#X connect 9 0 8 0;
#X connect 10 0 7 3;
#X connect 10 0 11 1;
#X connect 11 0 12 0;
#X connect 12 0 13 1;
#X connect 13 0 4 0;
#X connect 13 0 7 0;
#X connect 14 0 13 0;
#X connect 14 1 11 0;
#X connect 17 0 8 0;
#X restore 59 394 pd achange;
#X obj 110 371 cnv 5 5 17 empty empty empty 20 12 0 14 -260626 -66577
0;
#X obj 116 371 r \$0-lbinit;
#X text 501 157 -----COLORS:-----;
#X text 501 231 -----------------;
#X obj 380 196 cnv 5 5 17 empty empty empty 20 12 0 14 -194593 -66577
0;
#X obj 386 196 s \$0-in;
#X msg 226 444 0;
#X obj 220 468 cnv 5 5 17 empty empty empty 20 12 0 14 -194593 -66577
0;
#X obj 226 468 s \$0-initspig;
#X msg 57 527 1;
#X text 94 24 bang = defaults;
#X obj 28 49 cnv 4 122 15 empty empty empty 2 7 0 10 -257985 -66577
0;
#N canvas 147 163 840 734 prepare_arguments 0;
#X obj 27 16 inlet;
#X obj 21 16 cnv 5 5 17 empty empty empty 20 12 0 14 -118750 -66577
0;
#X obj 51 685 outlet;
#X obj 45 685 cnv 5 5 17 empty empty empty 20 12 0 14 -102336 -66577
0;
#X obj 392 698 text set \$0-defaults 0;
#X text 395 565 defaults:;
#X obj 124 612 text set \$0-defaults 0;
#X obj 54 501 list split 1;
#X obj 27 525 list split 1;
#X obj 124 587 list trim;
#X msg 51 633 0;
#X obj 61 548 route float;
#X obj 61 570 sel 0;
#X obj 210 683 outlet;
#X obj 204 683 cnv 5 5 17 empty empty empty 20 12 0 14 -102336 -66577
0;
#X text 210 700 bang to set extra defaults;
#X text 52 701 real arguments list;
#X obj 183 504 t b b;
#X obj 51 658 text get \$0-defaults;
#X obj 763 378 cnv 5 5 17 empty empty empty 20 12 0 14 -173398 -66577
0;
#X obj 769 378 s \$0-in;
#X obj 482 527 text set \$0-defaults 0, f 28;
#X obj 482 484 list split 1;
#X obj 582 483 t s b;
#X text 239 334 attributes that are also arguments will replace them
\, all others get sent to \$0-in, f 82;
#X text 675 423 size;
#X msg 244 379 \$1 2;
#X msg 291 379 \$1 3;
#X msg 339 379 \$1 4;
#X msg 673 380 \$1 2 \, \$2 3 \, \$3 4, f 5;
#X obj 582 460 l2s;
#X obj 530 378 list;
#X obj 418 625 route 0;
#X obj 412 670 cnv 5 5 17 empty empty empty 20 12 0 14 -173398 -66577
0;
#X obj 418 670 s \$0-defaultslist;
#X obj 418 648 list;
#X obj 144 464 t b b;
#X obj 27 465 t l l;
#X obj 278 37 bng 15 250 50 0 empty empty a 17 7 0 10 -262144 -1 -1
;
#X obj 137 39 bng 15 250 50 0 empty empty sym 17 7 0 10 -262144 -1
-1;
#X obj 83 39 bng 15 250 50 0 empty empty float 17 7 0 10 -262144 -1
-1;
#X obj 38 39 bng 15 250 50 0 empty empty list 17 7 0 10 -262144 -1
-1;
#X obj 28 439 cnv 3 80 15 empty empty empty 2 7 0 9 -257985 -66577
0;
#X obj 27 61 route list float symbol bang init;
#X obj 225 37 bng 15 250 50 0 empty empty init 17 7 0 10 -262144 -1
-1;
#X obj 28 126 cnv 3 122 15 empty empty empty 2 7 0 10 -257985 -66577
0;
#X obj 156 163 bng 15 250 50 0 empty empty empty 17 7 0 10 -262144
-1 -1;
#X obj 119 438 bng 15 250 50 0 empty empty empty 17 7 0 10 -262144
-1 -1;
#N canvas 696 50 522 608 args 0;
#X obj 85 25 inlet;
#X obj 79 25 cnv 5 5 17 empty empty empty 20 12 0 14 -118750 -66577
0;
#X obj 27 177 cnv 5 5 17 empty empty empty 20 12 0 14 -102336 -66577
0;
#X obj 85 48 list;
#X obj 227 237 list store, f 14;
#X obj 227 141 until;
#X obj 227 165 f;
#X obj 268 165 + 1;
#X msg 227 214 get \$1 1;
#X msg 268 141 0;
#X text 257 92 list drip;
#X obj 227 111 t b b l b, f 20;
#X symbolatom 316 510 10 0 0 0 - - -, f 10;
#X obj 316 524 list fromsymbol;
#X floatatom 316 541 5 0 0 0 - - -, f 5;
#X obj 33 123 list store, f 11;
#X obj 227 261 route symbol;
#X obj 227 189 t f f;
#X obj 227 285 list fromsymbol;
#X obj 227 308 route 64;
#X obj 227 362 f, f 5;
#X obj 227 338 t b;
#X obj 227 409 list store, f 14;
#X msg 227 385 append \$1;
#X obj 33 149 list split;
#X msg 227 481 999999;
#X obj 284 481 list split 1;
#X msg 129 45 0 mysymbol 7 -120 4 456 fff;
#X obj 227 456 route bang;
#X obj 84 372 list store, f 12;
#X obj 227 506 f;
#X obj 33 96 t b f;
#X obj 227 432 t l l, f 10;
#X obj 84 408 list split 1;
#X obj 84 433 list fromsymbol;
#X obj 84 457 route 64;
#X obj 84 482 list tosymbol;
#X obj 84 505 list append;
#X obj 33 178 outlet;
#X obj 167 545 outlet;
#X obj 360 254 t b b;
#X obj 161 545 cnv 5 5 17 empty empty empty 20 12 0 14 -102336 -66577
0;
#X text 28 198 args list;
#X text 153 563 attributes;
#X obj 359 73 inlet;
#X obj 353 73 cnv 5 5 17 empty empty empty 20 12 0 14 -118750 -66577
0;
#X obj 84 528 list trim;
#X obj 27 238 list store;
#X obj 27 262 route bang;
#X obj 155 249 list length, f 6;
#X obj 84 291 list append;
#X obj 8 238 bng 15 250 50 0 empty empty empty 17 7 0 10 -262144 -1
-1;
#X obj 85 71 t l l l, f 19;
#X text 353 42 bang to output attributes, f 15;
#X obj 85 315 cnv 4 92 15 empty empty empty 2 7 0 10 -257985 -66577
0;
#N canvas 0 50 323 298 drip_special 0;
#X obj 107 14 inlet;
#X obj 101 14 cnv 5 5 17 empty empty empty 20 12 0 14 -118750 -66577
0;
#X obj 69 156 list store;
#X obj 107 39 t b l b;
#X msg 69 134 get \$1 2;
#X obj 69 79 until;
#X obj 69 112 f;
#X obj 100 114 + 1;
#X msg 176 84 0, f 1;
#X obj 69 180 t l l;
#X msg 69 203 \$1;
#X msg 113 180 \$2 \$1;
#X obj 113 203 -;
#X obj 69 228 pack;
#X obj 69 252 outlet;
#X obj 63 252 cnv 5 5 17 empty empty empty 20 12 0 14 -102336 -66577
0;
#X obj 221 250 outlet;
#X obj 215 250 cnv 5 5 17 empty empty empty 20 12 0 14 -102336 -66577
0;
#X connect 0 0 3 0;
#X connect 2 0 9 0;
#X connect 2 1 5 1;
#X connect 2 1 16 0;
#X connect 3 0 5 0;
#X connect 3 1 2 1;
#X connect 3 2 8 0;
#X connect 4 0 2 0;
#X connect 5 0 6 0;
#X connect 6 0 7 0;
#X connect 6 0 4 0;
#X connect 7 0 6 1;
#X connect 8 0 6 1;
#X connect 9 0 10 0;
#X connect 9 1 11 0;
#X connect 10 0 13 0;
#X connect 11 0 12 0;
#X connect 12 0 13 1;
#X connect 13 0 14 0;
#X restore 84 314 pd drip_special;
#X text 65 5 arguments in;
#X msg 84 348 get \$1 \$2;
#X msg 129 24 0 mysymbol 7 -120 4 @size 120 30 -1 @height 45 @goplevel
2;
#X obj 440 331 outlet;
#X obj 434 331 cnv 5 5 17 empty empty empty 20 12 0 14 -102336 -66577
0;
#X text 426 349 finish bang;
#X connect 0 0 3 0;
#X connect 3 0 52 0;
#X connect 4 0 16 0;
#X connect 4 1 40 0;
#X connect 5 0 6 0;
#X connect 6 0 7 0;
#X connect 6 0 17 0;
#X connect 7 0 6 1;
#X connect 8 0 4 0;
#X connect 9 0 6 1;
#X connect 11 0 5 0;
#X connect 11 1 9 0;
#X connect 11 2 4 1;
#X connect 11 3 22 1;
#X connect 12 0 13 0;
#X connect 13 0 14 0;
#X connect 15 0 24 0;
#X connect 16 0 18 0;
#X connect 17 0 8 0;
#X connect 17 1 20 1;
#X connect 18 0 19 0;
#X connect 19 0 21 0;
#X connect 20 0 23 0;
#X connect 21 0 20 0;
#X connect 22 0 32 0;
#X connect 23 0 22 0;
#X connect 24 0 38 0;
#X connect 24 2 38 0;
#X connect 25 0 30 0;
#X connect 26 0 30 0;
#X connect 27 0 52 0;
#X connect 28 0 25 0;
#X connect 28 1 26 0;
#X connect 29 0 33 0;
#X connect 30 0 31 0;
#X connect 31 0 15 0;
#X connect 31 1 24 1;
#X connect 32 0 28 0;
#X connect 32 1 47 1;
#X connect 33 0 34 0;
#X connect 33 1 37 1;
#X connect 34 0 35 0;
#X connect 35 0 36 0;
#X connect 36 0 37 0;
#X connect 37 0 46 0;
#X connect 40 0 22 0;
#X connect 40 1 5 1;
#X connect 44 0 47 0;
#X connect 46 0 39 0;
#X connect 47 0 48 0;
#X connect 48 0 59 0;
#X connect 48 1 50 0;
#X connect 49 0 50 1;
#X connect 50 0 55 0;
#X connect 51 0 47 0;
#X connect 52 0 11 0;
#X connect 52 1 29 1;
#X connect 52 1 15 1;
#X connect 52 2 49 0;
#X connect 55 0 57 0;
#X connect 55 1 59 0;
#X connect 57 0 29 0;
#X connect 58 0 52 0;
#X restore 27 125 pd args & attributes;
#X text 139 429 listfunnel finish, f 10;
#X text 176 153 attributes sent, f 10;
#X obj 178 38 bng 15 250 50 0 empty empty bang 17 7 0 10 -262144 -1
-1;
#X obj 27 98 list prepend 0;
#X obj 27 157 t l l;
#X obj 74 157 list length;
#X obj 27 182 spigot;
#X obj 74 182 > 1;
#X obj 74 206 sel 0;
#X text 118 191 if list is only one element \, it must be 0 \, so only
attributes are being sent, f 28;
#X obj 27 242 list split 1;
#X obj 27 354 list, f 17;
#X obj 104 266 list split 1, f 38;
#X obj 104 290 route float;
#X obj 61 266 t l l;
#X obj 27 378 list, f 32;
#X obj 104 314 list prepend none;
#X obj 9 33 cnv 3 3 400 empty empty empty 20 12 0 14 -159808 -66577
0;
#N canvas 0 50 441 281 listfunnel 0;
#X obj 20 17 inlet;
#X obj 28 224 outlet;
#X obj 90 246 outlet;
#X text 135 244 signal end of list;
#X text 14 205 list items;
#X obj 242 190 f;
#X obj 269 190 + 1;
#X obj 138 63 route symbol float;
#X obj 138 113 t s b;
#X obj 190 89 t f b;
#X obj 138 140 list prepend symbol, f 8;
#X obj 14 17 cnv 5 5 17 empty empty empty 20 12 0 14 -118750 -66577
0;
#X obj 22 224 cnv 5 5 17 empty empty empty 20 12 0 14 -102336 -66577
0;
#X obj 84 246 cnv 5 5 17 empty empty empty 20 12 0 14 -102336 -66577
0;
#X obj 272 125 inlet;
#X obj 266 125 cnv 5 5 17 empty empty empty 20 12 0 14 -118750 -66577
0;
#X obj 21 170 list store, f 12;
#X obj 21 86 until;
#X obj 21 115 f;
#X obj 51 115 + 1;
#X msg 21 142 get \$1 1;
#X obj 64 86 0;
#X obj 21 62 t b b a, f 12;
#X obj 20 39 t a b, f 40;
#X obj 138 207 list prepend;
#X obj 90 193 t b b;
#X text 286 147 leading number, f 11;
#X text 273 86 index 1 = remote name, f 20;
#X obj 257 155 f 0;
#X connect 0 0 23 0;
#X connect 5 0 6 0;
#X connect 5 0 24 1;
#X connect 6 0 5 1;
#X connect 7 0 8 0;
#X connect 7 1 9 0;
#X connect 8 0 10 0;
#X connect 8 1 5 0;
#X connect 9 0 24 0;
#X connect 9 1 5 0;
#X connect 10 0 24 0;
#X connect 14 0 28 1;
#X connect 16 0 7 0;
#X connect 16 1 25 0;
#X connect 17 0 18 0;
#X connect 18 0 20 0;
#X connect 18 0 19 0;
#X connect 19 0 18 1;
#X connect 20 0 16 0;
#X connect 21 0 18 1;
#X connect 22 0 17 0;
#X connect 22 1 21 0;
#X connect 22 2 16 1;
#X connect 23 0 22 0;
#X connect 23 1 28 0;
#X connect 24 0 1 0;
#X connect 25 0 2 0;
#X connect 25 1 17 1;
#X connect 28 0 5 1;
#X restore 27 438 pd listfunnel;
#X text 127 399 special case for items !!!;
#X obj 244 356 route width height border browsermode location align
colors goplevel items size name, f 88;
#X msg 721 431 \$1 1;
#X obj 721 397 l2s;
#X obj 718 380 cnv 3 30 3 empty empty empty 20 12 0 14 -159808 -66577
0;
#X text 720 448 name;
#X msg 482 378 \$1 5;
#X text 495 626 0 = no items;
#X msg 392 587 0 none 120 20 1 0 grey90 black grey95 black 1 no_items
, f 39;
#X msg 530 401 \$1 6 \, \$2 7 \, \$3 8 \, \$4 9, f 6;
#X msg 624 483 11, f 2;
#X msg 578 378 \$1 10;
#X obj 27 402 list split 13, f 15;
#X connect 0 0 43 0;
#X connect 7 0 6 2;
#X connect 8 1 11 0;
#X connect 9 0 6 0;
#X connect 10 0 18 0;
#X connect 11 0 12 0;
#X connect 11 1 9 0;
#X connect 12 1 9 0;
#X connect 17 0 76 0;
#X connect 17 1 13 0;
#X connect 18 0 2 0;
#X connect 22 0 21 0;
#X connect 22 1 21 2;
#X connect 23 0 21 0;
#X connect 23 1 78 0;
#X connect 26 0 22 0;
#X connect 27 0 22 0;
#X connect 28 0 22 0;
#X connect 29 0 22 0;
#X connect 30 0 23 0;
#X connect 31 0 77 0;
#X connect 32 0 35 0;
#X connect 35 0 34 0;
#X connect 36 0 10 0;
#X connect 36 1 17 0;
#X connect 37 0 8 0;
#X connect 37 1 7 0;
#X connect 43 0 41 0;
#X connect 43 0 52 0;
#X connect 43 1 40 0;
#X connect 43 1 52 0;
#X connect 43 2 39 0;
#X connect 43 2 52 0;
#X connect 43 3 51 0;
#X connect 43 3 36 0;
#X connect 43 4 44 0;
#X connect 43 4 17 0;
#X connect 43 5 52 0;
#X connect 43 5 38 0;
#X connect 48 0 53 0;
#X connect 48 1 69 0;
#X connect 48 2 46 0;
#X connect 48 2 10 0;
#X connect 52 0 48 0;
#X connect 53 0 55 0;
#X connect 53 1 54 0;
#X connect 54 0 56 0;
#X connect 55 0 59 0;
#X connect 56 0 55 1;
#X connect 56 0 57 0;
#X connect 57 0 48 1;
#X connect 59 0 60 0;
#X connect 59 1 63 0;
#X connect 60 0 64 0;
#X connect 61 0 62 0;
#X connect 61 1 64 1;
#X connect 62 0 65 0;
#X connect 62 1 60 1;
#X connect 63 1 61 0;
#X connect 64 0 80 0;
#X connect 65 0 60 1;
#X connect 67 0 37 0;
#X connect 67 1 48 1;
#X connect 67 1 47 0;
#X connect 69 0 26 0;
#X connect 69 1 27 0;
#X connect 69 2 28 0;
#X connect 69 5 74 0;
#X connect 69 6 31 0;
#X connect 69 7 79 0;
#X connect 69 8 30 0;
#X connect 69 9 29 0;
#X connect 69 10 71 0;
#X connect 69 11 20 0;
#X connect 70 0 22 0;
#X connect 71 0 70 0;
#X connect 74 0 22 0;
#X connect 76 0 4 0;
#X connect 76 0 32 0;
#X connect 77 0 22 0;
#X connect 78 0 21 2;
#X connect 79 0 22 0;
#X connect 80 0 67 0;
#X connect 80 1 30 0;
#X connect 80 2 67 0;
#X restore 27 48 pd prepare_arguments;
#X text 329 454 * align is changed to 0 \, 1 \, 2 instead of -1 \,
0 \, 1, f 14;
#X obj 61 117 list split 1;
#X obj 55 140 cnv 5 5 17 empty empty empty 20 12 0 14 -173398 -66577
0;
#X obj 61 140 s \$0-arg1;
#X obj 27 72 list split 1;
#X obj 25 209 r \$0-remotename;
#X text 106 294 final list of arguments;
#X text 78 348 DISTRIBUTE ARGUMENTS:;
#X obj 59 427 t l b;
#X text 475 410 goplevel;
#X obj 454 428 list split 1;
#X obj 454 573 list prepend goplevel;
#X obj 61 94 t l l, f 7;
#X obj 25 230 t b;
#X obj 25 253 list store, f 13;
#X text 48 157 first: take care of remote name, f 16;
#X text 53 229 then do the rest;
#X obj 25 276 t b l l, f 12;
#X text 504 116 EXTRA ARGUMENTS via "properties": (defaults), f 24
;
#X text 250 27 1.) send/receive name (0/none);
#X obj 153 411 print \$0_MENU_ARGS;
#X text 80 670 internal loadbang, f 8;
#X obj 30 678 s \$0-lb;
#X obj 30 654 del 10;
#X obj 24 678 cnv 5 5 17 empty empty empty 20 12 0 14 -173398 -66577
0;
#X obj 30 505 t b b;
#X text 250 83 5.) align* (0);
#X text 510 171 6.) background;
#X text 510 196 8.) highlight;
#X obj 488 600 list prepend items;
#X text 510 209 9.) border;
#X text 504 245 10.) goplevel (1), f 20;
#X text 504 258 11.) - items (no_items) - separated by |, f 26;
#X obj 420 359 list split 4;
#X text 510 184 7.) text;
#X connect 1 0 53 0;
#X connect 4 0 6 0;
#X connect 7 0 79 0;
#X connect 7 1 18 0;
#X connect 9 0 13 0;
#X connect 12 0 4 0;
#X connect 13 0 14 0;
#X connect 18 0 21 0;
#X connect 18 1 20 0;
#X connect 20 0 22 0;
#X connect 20 1 87 0;
#X connect 21 0 4 0;
#X connect 22 0 4 0;
#X connect 23 0 24 0;
#X connect 23 0 46 0;
#X connect 26 0 28 0;
#X connect 29 0 26 0;
#X connect 29 1 23 0;
#X connect 29 1 34 0;
#X connect 29 1 35 0;
#X connect 34 0 33 0;
#X connect 35 0 36 0;
#X connect 36 0 38 0;
#X connect 40 0 62 0;
#X connect 42 0 40 1;
#X connect 47 0 49 0;
#X connect 50 0 49 0;
#X connect 53 0 58 0;
#X connect 53 1 29 0;
#X connect 55 0 57 0;
#X connect 58 1 66 0;
#X connect 59 0 67 0;
#X connect 62 0 7 0;
#X connect 62 1 47 0;
#X connect 64 0 65 0;
#X connect 64 1 83 0;
#X connect 65 0 4 0;
#X connect 66 0 55 0;
#X connect 66 1 68 1;
#X connect 67 0 68 0;
#X connect 68 0 71 0;
#X connect 71 1 40 0;
#X connect 71 2 31 0;
#X connect 77 0 76 0;
#X connect 79 0 77 0;
#X connect 79 1 50 0;
#X connect 83 0 4 0;
#X connect 87 0 12 0;
#X connect 87 1 64 0;
#X restore 894 464 pd INIT;
#X msg 894 351 bang;
#X obj 893 564 canvasargs;
#X obj 887 589 cnv 5 5 17 empty empty empty 20 12 0 14 -194593 -66577
0;
#X obj 893 589 s \$0-args;
#X obj 905 330 cnv 8 50 15 empty empty empty 20 12 0 14 -3586 -66577
0;
#X text 962 323 load defaults first !, f 8;
#X obj 887 542 cnv 5 5 17 empty empty empty 20 12 0 14 -260626 -66577
0;
#X obj 893 542 r \$0-canvasargs;
#X obj 907 416 cnv 5 5 17 empty empty empty 20 12 0 14 -194593 -66577
0;
#X obj 913 416 s \$0-args;
#X obj 888 438 cnv 5 5 17 empty empty empty 20 12 0 14 -194593 -66577
0;
#X obj 894 438 s \$0-canvasargs;
#X obj 998 379 cnv 15 140 60 empty empty empty 20 12 0 14 -232576 -66577
0;
#X text 1063 391 GOP offset;
#X obj 1017 416 s \$0-gopoffset;
#X obj 1011 416 cnv 5 5 17 empty empty empty 20 12 0 14 -194593 -66577
0;
#X obj 893 134 namecanvas \$0-ol_menu;
#X msg 1017 389 30 60;
#X obj 894 372 t b b b;
#X obj 1016 464 cnv 10 70 15 empty empty empty 2 7 0 10 -257985 -66577
0;
#X obj 23 417 cnv 5 5 17 empty empty empty 20 12 0 14 -194593 -66577
0;
#X obj 29 417 s \$0-in;
#X obj 377 394 cnv 5 5 17 empty empty empty 20 12 0 14 -260626 -66577
0;
#X obj 383 394 r \$0-tomenu;
#N canvas 68 471 860 508 messages 0;
#X obj 36 15 r \$0-in;
#X obj 30 15 cnv 5 5 17 empty empty empty 20 12 0 14 -260626 -66577
0;
#X obj 36 140 s \$0-size;
#X obj 30 140 cnv 5 5 17 empty empty empty 20 12 0 14 -194593 -66577
0;
#X obj 36 66 route bang;
#X obj 106 15 cnv 5 5 17 empty empty empty 20 12 0 14 -260097 -66577
0;
#X obj 111 15 r \$0-defaultslist;
#X obj 36 115 list store, f 13;
#X msg 36 90 get 1 3;
#X msg 262 114 color \$1 22;
#X obj 262 137 s \$0-cnv;
#X obj 262 91 route float;
#X obj 256 137 cnv 5 5 17 empty empty empty 20 12 0 14 -194593 -66577
0;
#X msg 280 297 clear;
#X obj 360 366 list length, f 12;
#X obj 280 383 - 1;
#X obj 280 431 s \$0-length;
#X obj 280 406 max 0;
#X obj 274 318 cnv 5 5 17 empty empty empty 20 12 0 14 -194593 -66577
0;
#X obj 274 431 cnv 5 5 17 empty empty empty 20 12 0 14 -194593 -66577
0;
#X obj 253 273 t b b;
#X obj 447 389 l2s;
#X obj 360 342 t l l, f 15;
#X obj 37 339 clip 0 1, f 9;
#X floatatom 103 339 5 0 0 0 - - -, f 5;
#X obj 88 315 r \$0-length;
#X obj 66 260 t b;
#X obj 82 315 cnv 5 5 17 empty empty empty 20 12 0 14 -260626 -66577
0;
#X obj 31 468 cnv 5 5 17 empty empty empty 20 12 0 14 -194593 -66577
0;
#X obj 66 282 v \$0-index;
#X obj 60 282 cnv 5 5 17 empty empty empty 20 12 0 14 -194048 -66577
0;
#X obj 629 277 route float, f 6;
#X obj 494 289 t b a b;
#X obj 527 340 cnv 5 5 17 empty empty empty 20 12 0 14 -194593 -66577
0;
#X obj 253 349 t 0 0;
#X obj 360 318 list;
#X obj 134 75 cnv 3 73 15 empty empty empty 2 7 0 9 -257985 -66577
0;
#N canvas 227 108 758 630 colorlist 0;
#X obj 47 56 inlet;
#X obj 110 545 outlet;
#X obj 141 111 list;
#X obj 141 76 t b a;
#X obj 110 521 route 0;
#X obj 152 158 list split 1;
#X obj 110 158 t b l;
#X obj 235 158 list split 1;
#X obj 320 158 list split 1;
#X obj 501 248 list split 1;
#X obj 152 182 t a b;
#X obj 235 182 t a b;
#X obj 320 182 t a b;
#X text 38 22 list can have up to 5 elements;
#X text 188 95 <-- in case the list consists of symbols only, f 24
;
#X obj 141 56 bng 15 250 50 0 empty empty empty 17 7 0 10 -262144 -1
-1;
#X obj 47 86 route bang;
#X obj 41 56 cnv 5 5 17 empty empty empty 20 12 0 14 -118750 -66577
0;
#X obj 104 545 cnv 5 5 17 empty empty empty 20 12 0 14 -102336 -66577
0;
#X obj 243 22 cnv 5 5 17 empty empty empty 20 12 0 14 -260097 -66577
0;
#X obj 249 22 r \$0-defaultslist;
#X text 367 70 color;
#X text 514 23 tk color names, f 16;
#X msg 360 182 3, f 2;
#X msg 274 182 2, f 2;
#X msg 191 182 1, f 2;
#X obj 503 45 cnv 15 122 15 empty empty empty 20 12 0 14 -180224 -66577
0;
#X obj 502 44 text define -k \$0-tk;
#A set aquamarine 127 255 212 \; azure 240 255 255 \; beige 245 245
220 \; bisque 255 228 196 \; black 0 0 0 \; blue 0 0 255 \; BlueViolet
138 43 226 \; brown 165 42 42 \; CadetBlue 95 158 160 \; chartreuse
127 255 0 \; chocolate 210 105 30 \; coral 255 127 80 \; CornflowerBlue
100 149 237 \; cyan 0 255 255 \; DarkBlue 0 0 139 \; DarkCyan 0 139
139 \; DarkGoldenrod 184 134 11 \; DarkGreen 0 100 0 \; DarkGrey 169
169 169 \; DarkMagenta 139 0 139 \; DarkOrange 255 140 0 \; DarkOrchid
153 50 204 \; DarkRed 139 0 0 \; DarkSeaGreen 143 188 143 \; DarkTurquoise
0 206 209 \; DarkViolet 148 0 211 \; DeepPink 255 20 147 \; DeepSkyBlue
0 191 255 \; DodgerBlue 30 144 255 \; firebrick 178 34 34 \; GhostWhite
248 248 255 \; gold 255 215 0 \; green 0 255 0 \; GreenYellow 173 255
47 \; grey 190 190 190 \; grey20 51 51 51 \; grey40 102 102 102 \;
grey60 153 153 153 \; grey80 204 204 204 \; grey90 229 229 229 \; grey95
240 240 240 \; khaki 240 230 140 \; lavender 230 230 250 \; LightBlue
173 216 230 \; LightCoral 240 128 128 \; LightCyan 224 255 255 \; LightGreen
144 238 144 \; LightSeaGreen 32 178 170 \; LightSkyBlue 135 206 250
\; LightSlateBlue 132 112 255 \; LightYellow 255 255 224 \; LimeGreen
50 205 50 \; linen 250 240 230 \; magenta 255 0 255 \; maroon 176 48
96 \; MediumAquamarine 102 205 170 \; MediumBlue 0 0 205 \; MediumOrchid
186 85 211 \; MediumPurple 147 112 219 \; MediumSeaGreen 60 179 113
\; MediumTurquoise 72 209 204 \; MediumVioletRed 199 21 133 \; MintCream
245 255 250 \; MistyRose 255 228 225 \; moccasin 255 228 181 \; OldLace
253 245 230 \; orange 255 165 0 \; OrangeRed 255 69 0 \; orchid 218
112 214 \; PaleGreen 152 251 152 \; PaleTurquoise 175 238 238 \; PaleVioletRed
219 112 147 \; pink 255 192 203 \; plum 221 160 221 \; purple 160 32
240 \; red 255 0 0 \; RosyBrown 188 143 143 \; RoyalBlue 65 105 225
\; SaddleBrown 139 69 19 \; salmon 250 128 114 \; SandyBrown 244 164
96 \; SeaGreen 46 139 87 \; seashell 255 245 238 \; sienna 160 82 45
\; SkyBlue 135 206 235 \; SlateBlue 106 90 205 \; SlateGray 112 128
144 \; snow 255 250 250 \; SpringGreen3 0 205 102 \; SpringGreen 0
255 127 \; SteelBlue 70 130 180 \; thistle 216 191 216 \; tomato 255
99 71 \; turquoise 64 224 208 \; violet 238 130 238 \; VioletRed 208
32 144 \; wheat 245 222 179 \; white 255 255 255 \; WhiteSmoke 245
245 245 \; yellow 255 255 0 \;;
#X obj 47 111 list store, f 12;
#X obj 257 326 print [ol_menu]::;
#X msg 257 282 bang;
#X msg 257 303 color must be tk name !;
#X text 589 437 defaults:;
#X obj 501 437 list store, f 12;
#X obj 556 489 outlet;
#X obj 550 489 cnv 5 5 17 empty empty empty 20 12 0 14 -102336 -66577
0;
#X obj 419 243 f;
#X obj 501 393 bang;
#X obj 501 272 route float symbol, f 19;
#X obj 587 387 expr ($f1*(-65536)+$f2*(-256)+$f3*(-1))-1, f 24;
#X obj 556 299 text search \$0-tk;
#X obj 603 322 text get \$0-tk;
#X obj 556 322 sel -1;
#X obj 603 349 list split 1;
#X obj 152 259 route symbol float;
#X obj 204 282 t b;
#X obj 204 306 f;
#X obj 204 371 list store, f 14;
#X msg 204 349 get \$1 1;
#X obj 204 328 - 1;
#X text 201 387 any float = default;
#X msg 501 415 get 4 1;
#X obj 501 460 route symbol float, f 19;
#X text 431 394 any float = default, f 10;
#X text 501 183 So we also use tk name for the border \, but since
it's a PD-native GUI we have to calculate the Tcl/Tk code, f 27;
#X msg 556 349 0 0 0;
#X text 154 137 SPECIAL CASE HERE: MENU ONLY ACCEPTS TK NAMES \, ANY
FLOAT = DEFAULT VALUE, f 73;
#X obj 371 105 cnv 5 5 17 empty empty empty 20 12 0 14 -194593 -66577
0;
#X obj 377 105 s \$0-defaultcolors;
#X obj 283 71 list split 4;
#X obj 249 48 list split 5;
#X obj 122 445 demux 0 1 2 3;
#X obj 110 473 pack 0 s s s;
#X obj 110 497 list append black;
#X text 226 497 contour = always black;
#X connect 0 0 16 0;
#X connect 2 0 6 0;
#X connect 3 0 2 0;
#X connect 3 1 2 1;
#X connect 4 0 1 0;
#X connect 5 0 10 0;
#X connect 5 1 7 0;
#X connect 6 0 62 0;
#X connect 6 1 5 0;
#X connect 7 0 11 0;
#X connect 7 1 8 0;
#X connect 8 0 12 0;
#X connect 8 1 9 0;
#X connect 9 0 38 0;
#X connect 10 0 44 0;
#X connect 10 1 25 0;
#X connect 11 0 44 0;
#X connect 11 1 24 0;
#X connect 12 0 44 0;
#X connect 12 1 23 0;
#X connect 16 0 28 0;
#X connect 16 1 15 0;
#X connect 16 1 3 0;
#X connect 20 0 60 0;
#X connect 23 0 36 0;
#X connect 24 0 36 0;
#X connect 25 0 36 0;
#X connect 28 0 6 0;
#X connect 30 0 31 0;
#X connect 31 0 29 0;
#X connect 33 0 52 0;
#X connect 36 0 46 1;
#X connect 36 0 61 1;
#X connect 37 0 51 0;
#X connect 38 0 37 0;
#X connect 38 1 40 0;
#X connect 38 2 37 0;
#X connect 39 0 34 0;
#X connect 40 0 42 0;
#X connect 41 0 43 0;
#X connect 42 0 55 0;
#X connect 42 1 41 0;
#X connect 43 1 39 0;
#X connect 44 0 61 0;
#X connect 44 1 45 0;
#X connect 44 2 30 0;
#X connect 45 0 46 0;
#X connect 46 0 49 0;
#X connect 47 0 61 0;
#X connect 48 0 47 0;
#X connect 49 0 48 0;
#X connect 51 0 33 0;
#X connect 52 0 40 0;
#X connect 52 1 34 0;
#X connect 55 0 39 0;
#X connect 59 0 28 1;
#X connect 59 0 47 1;
#X connect 59 0 33 1;
#X connect 59 0 58 0;
#X connect 60 1 59 0;
#X connect 61 1 62 1;
#X connect 61 2 62 2;
#X connect 61 3 62 3;
#X connect 62 0 63 0;
#X connect 63 0 4 0;
#X restore 133 74 pd colorlist;
#X obj 127 161 cnv 5 5 17 empty empty empty 20 12 0 14 -194593 -66577
0;
#X obj 133 161 s \$0-tomenu;
#X obj 133 137 list prepend colors;
#X obj 693 176 s2l |;
#X obj 381 407 cnv 3 45 15 empty empty empty 2 7 0 10 -257985 -66577
0;
#N canvas 0 50 299 167 shut 0;
#X obj 30 20 inlet;
#X obj 30 134 outlet;
#X obj 30 51 t b a;
#X msg 30 75 0;
#X obj 80 20 inlet;
#X obj 80 50 t b;
#X msg 80 73 1;
#X text 150 24 right inlet opens \, left inlet passes first item \,
then closes, f 18;
#X obj 24 20 cnv 5 5 17 empty empty empty 20 12 0 14 -118750 -66577
0;
#X obj 24 134 cnv 5 5 17 empty empty empty 20 12 0 14 -102336 -66577
0;
#X obj 74 20 cnv 5 5 17 empty empty empty 20 12 0 14 -118750 -66577
0;
#X obj 30 111 spigot 0;
#X obj 105 126 cnv 15 170 25 empty empty shut_by_default_! 20 13 0
14 -233017 -66577 0;
#X obj 105 146 cnv 2 170 2 empty empty empty 20 12 0 14 -233017 -66577
0;
#X connect 0 0 2 0;
#X connect 2 0 3 0;
#X connect 2 1 11 0;
#X connect 3 0 11 1;
#X connect 4 0 5 0;
#X connect 5 0 6 0;
#X connect 6 0 11 1;
#X connect 11 0 1 0;
#X restore 380 406 pd shut;
#X msg 380 449 1;
#X obj 380 428 t b;
#X obj 378 81 cnv 5 5 17 empty empty empty 20 12 0 14 -194593 -66577
0;
#X obj 384 81 s \$0-setgoplevel;
#X obj 679 290 l2s;
#X obj 533 340 s \$0-outdemux;
#X obj 447 443 text set \$0-menucontent 999999;
#X text 587 404 ROUTER FOR NORMAL SYMBOLS: -888888, f 17;
#X obj 448 367 cnv 3 44 15 empty empty empty 2 7 0 10 -257985 -66577
0;
#N canvas 0 50 322 192 drip 0;
#X obj 33 15 inlet;
#X obj 33 125 list store, f 15;
#X obj 33 59 until;
#X obj 33 81 f;
#X obj 63 81 + 1;
#X msg 33 103 get \$1 1;
#X obj 76 60 0;
#X obj 33 147 outlet;
#X obj 120 147 outlet;
#X obj 33 37 t b b a, f 15;
#X text 177 17 needs pd 0.48 !;
#X text 175 56 like [zl iter] or ZEXY's [drip], f 19;
#X connect 0 0 9 0;
#X connect 1 0 7 0;
#X connect 1 1 8 0;
#X connect 1 1 2 1;
#X connect 2 0 3 0;
#X connect 3 0 5 0;
#X connect 3 0 4 0;
#X connect 4 0 3 1;
#X connect 5 0 1 0;
#X connect 6 0 3 1;
#X connect 9 0 2 0;
#X connect 9 1 6 0;
#X connect 9 2 1 1;
#X restore 447 366 pd drip;
#X obj 447 412 list prepend -888888;
#X obj 480 389 cnv 5 5 17 empty empty empty 20 12 0 14 -194593 -66577
0;
#X obj 486 389 s \$0-updatemenu;
#X text 362 247 add;
#X text 293 247 clear;
#X text 484 57 align;
#X text 100 248 bang;
#X text 27 248 float;
#X msg 533 314 1;
#X msg 494 314 0;
#X text 233 14 THESE MESSAGES CAN ALSO BE SET WITH ATTRIBUTES !!!;
#X obj 493 129 list prepend align;
#X obj 487 154 cnv 5 5 17 empty empty empty 20 12 0 14 -194593 -66577
0;
#X obj 493 154 s \$0-tomenu;
#X obj 493 80 clip 0 2;
#X obj 493 105 - 1;
#X text 460 173 * align is changed to 0 \, 1 \, 2 instead of -1 \,
0 \, 1, f 24;
#X obj 166 339 l2s;
#X obj 36 40 route size colors location browsermode goplevel align
items, f 102;
#X text 570 56 items;
#X obj 624 129 l2s;
#X obj 618 202 cnv 5 5 17 empty empty empty 20 12 0 14 -194593 -66577
0;
#X obj 624 202 s \$0-in;
#X msg 624 176 clear;
#X text 163 247 symbol;
#X text 420 246 set;
#X obj 719 466 print [OL_MENU];
#X obj 719 391 l2s;
#X msg 719 413 ::: "\$1" ::: message not defined !, f 13;
#X obj 624 153 sel no_items;
#X obj 37 231 route float bang symbol list clear add set, f 76;
#X text 228 246 list;
#X text 163 247 symbol;
#X obj 188 299 list split 1, f 7;
#X text 218 202 sent from;
#X text 225 212 ol_sss;
#X text 230 191 list:;
#X obj 567 79 route symbol list;
#X obj 37 399 spigot 1;
#X obj 77 372 cnv 5 5 17 empty empty empty 20 12 0 14 -260097 -66577
0;
#X obj 82 372 r \$0-floatspigot;
#X obj 374 470 cnv 5 5 17 empty empty empty 20 12 0 14 -194593 -66577
0;
#X obj 380 470 s \$0-floatspigot;
#X obj 247 470 cnv 5 5 17 empty empty empty 20 12 0 14 -194593 -66577
0;
#X obj 253 470 s \$0-floatspigot;
#X obj 94 399 tgl 15 0 empty empty empty 17 7 0 10 -262144 -1 -1 0
1;
#X obj 280 318 s \$0-tomenu;
#X obj 37 468 s \$0-tomenu;
#X obj 126 399 text search \$0-menucontent 1, f 17;
#X obj 126 434 sel -1;
#X obj 661 322 cnv 5 5 17 empty empty empty 20 12 0 14 -194593 -66577
0;
#X obj 667 322 s \$0-in;
#X connect 0 0 72 0;
#X connect 4 0 8 0;
#X connect 4 1 2 0;
#X connect 6 0 7 1;
#X connect 7 0 2 0;
#X connect 8 0 7 0;
#X connect 9 0 10 0;
#X connect 11 0 9 0;
#X connect 13 0 100 0;
#X connect 14 0 15 0;
#X connect 15 0 17 0;
#X connect 17 0 16 0;
#X connect 20 0 34 0;
#X connect 20 1 13 0;
#X connect 20 1 43 0;
#X connect 21 0 43 0;
#X connect 21 0 54 0;
#X connect 22 0 14 0;
#X connect 22 1 53 0;
#X connect 23 0 92 0;
#X connect 25 0 23 2;
#X connect 25 0 24 0;
#X connect 26 0 29 0;
#X connect 29 0 23 0;
#X connect 31 0 105 0;
#X connect 31 1 48 0;
#X connect 32 0 63 0;
#X connect 32 1 31 0;
#X connect 32 2 62 0;
#X connect 34 0 98 0;
#X connect 34 1 15 0;
#X connect 35 0 22 0;
#X connect 37 0 40 0;
#X connect 37 1 11 0;
#X connect 40 0 39 0;
#X connect 41 0 22 0;
#X connect 43 0 45 0;
#X connect 44 0 96 0;
#X connect 45 0 44 0;
#X connect 48 0 105 0;
#X connect 53 0 21 0;
#X connect 53 1 56 0;
#X connect 54 0 50 0;
#X connect 62 0 49 0;
#X connect 63 0 49 0;
#X connect 65 0 67 0;
#X connect 68 0 69 0;
#X connect 69 0 65 0;
#X connect 71 0 102 0;
#X connect 72 0 4 0;
#X connect 72 1 37 0;
#X connect 72 4 47 0;
#X connect 72 5 68 0;
#X connect 72 6 91 0;
#X connect 72 7 84 0;
#X connect 74 0 83 0;
#X connect 77 0 76 0;
#X connect 81 0 82 0;
#X connect 82 0 80 0;
#X connect 83 0 77 0;
#X connect 83 1 41 0;
#X connect 84 0 23 0;
#X connect 84 1 26 0;
#X connect 84 2 71 0;
#X connect 84 3 87 0;
#X connect 84 4 20 0;
#X connect 84 5 35 0;
#X connect 84 6 32 0;
#X connect 84 7 81 0;
#X connect 87 1 71 0;
#X connect 91 0 74 0;
#X connect 91 1 74 0;
#X connect 91 2 74 0;
#X connect 92 0 101 0;
#X connect 94 0 92 1;
#X connect 94 0 99 0;
#X connect 102 0 103 0;
#X connect 103 1 101 0;
#X restore 1015 463 pd messages;
#X obj 1032 338 cnv 5 5 17 empty empty empty 20 12 0 14 -194593 -66577
0;
#X obj 1038 338 s \$0-lbinit;
#X obj 1014 516 propertybang;
#X obj 1015 539 cnv 5 92 15 empty empty empty 2 7 0 10 -257985 -66577
0;
#N canvas 308 288 1003 627 propertyguts 0;
#X obj 534 140 s pd-\$0-properties;
#X obj 528 140 cnv 5 5 17 empty empty empty 20 12 0 14 -194593 -66577
0;
#X obj 507 51 t b b;
#X obj 508 582 s pd-\$0-properties;
#X obj 502 582 cnv 5 5 17 empty empty empty 20 12 0 14 -194593 -66577
0;
#X obj 501 26 cnv 5 5 17 empty empty empty 20 12 0 14 -118750 -66577
0;
#X obj 507 26 inlet;
#X obj 508 427 r \$0-properties_cancel;
#X obj 502 427 cnv 5 5 17 empty empty empty 20 12 0 14 -260626 -66577
0;
#X obj 65 37 cnv 5 5 17 empty empty empty 20 12 0 14 -260626 -66577
0;
#X obj 71 37 r \$0-properties_apply;
#X obj 558 169 cnv 5 5 17 empty empty empty 20 12 0 14 -260626 -66577
0;
#X obj 564 169 r \$0-argumentslist;
#X obj 507 193 list store;
#X obj 501 375 cnv 5 5 17 empty empty empty 20 12 0 14 -194593 -66577
0;
#X obj 507 375 s \$0-prop_name-r;
#X obj 507 219 list split 1;
#X obj 507 245 route symbol;
#X obj 523 271 t b;
#X msg 523 293 symbol none;
#X obj 729 151 cnv 5 5 17 empty empty empty 20 12 0 14 -260626 -66577
0;
#X obj 735 176 t b b;
#X obj 735 151 r \$0-properties_def;
#X obj 775 176 cnv 5 5 17 empty empty empty 20 12 0 14 -194593 -66577
0;
#X obj 781 176 s \$0-args;
#X obj 219 21 cnv 5 5 17 empty empty empty 20 12 0 14 -260626 -66577
0;
#X obj 225 21 r \$0-properties_autoapply;
#X obj 131 449 cnv 5 5 17 empty empty empty 20 12 0 14 -260626 -66577
0;
#X obj 137 449 r \$0-prop_name;
#X obj 137 472 sel none empty;
#X obj 71 520 list prepend, f 15;
#X msg 451 34 bang;
#X obj 28 449 list split 1, f 15;
#X msg 302 88 args;
#X msg 302 130 canvasargs;
#X obj 71 543 send, f 39;
#X obj 66 543 cnv 5 5 17 empty empty empty 20 12 0 14 -194593 -66577
0;
#X msg 302 199 symbol \$2-\$1;
#X obj 302 176 pack s \$0;
#X obj 302 154 symbol;
#X obj 48 135 cnv 5 5 17 empty empty empty 20 12 0 14 -194593 -66577
0;
#X obj 54 135 s \$0-canvasargs;
#X obj 31 89 cnv 5 5 17 empty empty empty 20 12 0 14 -260626 -66577
0;
#X obj 37 89 r \$0-properties_ok;
#X obj 37 113 t b b b b;
#X obj 526 450 cnv 5 5 17 empty empty empty 20 12 0 14 -260626 -66577
0;
#X obj 532 450 r \$0-properties_ok;
#X obj 508 475 b;
#X obj 746 584 print =;
#X msg 746 521 . \, ============================== \, DON'T FORGET
TO SAVE THE PARENT \, PATCH TO MAKE CHANGES PERSISTENT ! \, ==============================
, f 37;
#X msg 508 558 vis \$1;
#X msg 508 498 0;
#X obj 508 521 t f f, f 10;
#X obj 559 559 cnv 5 5 17 empty empty empty 20 12 0 14 -194593 -66577
0;
#X obj 565 559 s \$0-properties_autoapply-r, f 28;
#X obj 543 497 sendcanvas 2;
#X msg 543 474 dirty 1;
#X obj 508 322 cnv 3 80 15 empty empty empty 2 7 0 10 -257985 -66577
0;
#N canvas 268 376 320 353 remove_bsl 0;
#X text 50 6 string in;
#X obj 60 25 inlet;
#X obj 99 293 outlet;
#X obj 54 25 cnv 5 5 17 empty empty empty 20 12 0 14 -118750 -66577
0;
#X obj 93 293 cnv 5 5 17 empty empty empty 20 12 0 14 -102336 -66577
0;
#X obj 60 49 list fromsymbol;
#X obj 60 171 list store, f 14;
#X obj 60 102 until;
#X obj 60 126 f;
#X obj 101 126 + 1;
#X msg 60 148 get \$1 1;
#X msg 101 102 0;
#X text 192 71 list drip;
#X obj 60 72 t b b l b, f 20;
#X obj 99 268 list tosymbol;
#X obj 60 198 sel 92, f 7;
#X text 119 198 remove backslashes;
#X obj 99 245 list store;
#X msg 99 222 append \$1;
#X connect 1 0 5 0;
#X connect 5 0 13 0;
#X connect 6 0 15 0;
#X connect 6 1 7 1;
#X connect 6 1 17 0;
#X connect 7 0 8 0;
#X connect 8 0 9 0;
#X connect 8 0 10 0;
#X connect 9 0 8 1;
#X connect 10 0 6 0;
#X connect 11 0 8 1;
#X connect 13 0 7 0;
#X connect 13 1 11 0;
#X connect 13 2 6 1;
#X connect 13 3 17 1;
#X connect 14 0 2 0;
#X connect 15 1 18 0;
#X connect 17 0 14 0;
#X connect 18 0 17 0;
#X restore 507 321 pd remove_bsl;
#X msg 534 99 vis 0 \, relocate \$1x\$2+0+0 0x0+\$3+\$4 \, vis 1 \,
editmode 0, f 28;
#X text 554 52 size x y \, pos x y;
#X obj 225 44 metro 100;
#X text 781 201 color;
#X obj 71 415 list append;
#X obj 71 61 t b b b b, f 39;
#X obj 190 374 list split 1;
#X obj 198 317 cnv 13 80 15 empty empty empty 2 7 0 10 -257985 -66577
0;
#N canvas 133 110 963 554 tk-presets 0;
#X obj 20 15 cnv 5 5 17 empty empty empty 20 12 0 14 -260097 -66577
0;
#X obj 26 15 r \$0-tkpresets_1;
#X obj 26 40 text get \$0-tk;
#X obj 26 154 list split 1, f 21;
#X msg 26 189 label \$1;
#X obj 20 263 cnv 5 5 17 empty empty empty 20 12 0 14 -194593 -66577
0;
#X obj 26 263 send;
#X msg 47 241 symbol \$2-tkpresets-cnv_\$1-r;
#X obj 41 68 cnv 5 5 17 empty empty empty 20 12 0 14 -260097 -66577
0;
#X obj 47 68 r \$0-lb;
#X msg 47 93 1;
#X obj 47 117 pack 0 \$0;
#X obj 63 394 text size \$0-tk;
#X obj 46 396 bng 15 250 50 0 empty empty empty 17 7 0 10 -262144 -1
-1;
#X obj 63 417 - 1;
#X obj 199 438 send;
#X msg 220 390 symbol \$2-tkpresets_\$1-r;
#X msg 63 460 1 \, 2 \, 3 \, 4 \, 5;
#X obj 63 438 t b f, f 11;
#X obj 199 349 t l l, f 25;
#X obj 63 483 pack 0 \$0 0;
#X msg 199 414 range 0 \$3;
#X obj 193 438 cnv 5 5 17 empty empty empty 20 12 0 14 -194593 -66577
0;
#X obj 255 491 send;
#X obj 249 491 cnv 5 5 17 empty empty empty 20 12 0 14 -194593 -66577
0;
#X msg 276 413 symbol \$2-tkpresets-cnv_\$1-r;
#X obj 255 444 t b;
#X msg 573 409 color \$1 22 22;
#X obj 573 384 expr ($f1*(-65536)+$f2*(-256)+$f3*(-1))-1, f 42;
#X obj 81 214 cnv 5 5 17 empty empty empty 20 12 0 14 -194593 -66577
0;
#X obj 87 214 s \$0-calculatetcltkvalue;
#X obj 567 339 cnv 5 5 17 empty empty empty 20 12 0 14 -260097 -66577
0;
#X obj 573 339 r \$0-calculatetcltkvalue;
#X obj 567 459 cnv 5 5 17 empty empty empty 20 12 0 14 -194593 -66577
0;
#X obj 573 459 send;
#X obj 87 189 list append 0;
#X obj 573 361 list split 3, f 13;
#X msg 594 434 symbol \$2-testfleck_\$1-r;
#X obj 244 13 cnv 5 5 17 empty empty empty 20 12 0 14 -260097 -66577
0;
#X obj 250 38 text get \$0-tk;
#X obj 250 152 list split 1, f 21;
#X msg 250 187 label \$1;
#X obj 244 261 cnv 5 5 17 empty empty empty 20 12 0 14 -194593 -66577
0;
#X obj 250 261 send;
#X msg 271 239 symbol \$2-tkpresets-cnv_\$1-r;
#X obj 265 66 cnv 5 5 17 empty empty empty 20 12 0 14 -260097 -66577
0;
#X obj 271 66 r \$0-lb;
#X obj 271 115 pack 0 \$0;
#X obj 305 212 cnv 5 5 17 empty empty empty 20 12 0 14 -194593 -66577
0;
#X obj 311 212 s \$0-calculatetcltkvalue;
#X obj 311 187 list append 0;
#X obj 484 11 cnv 5 5 17 empty empty empty 20 12 0 14 -260097 -66577
0;
#X obj 490 36 text get \$0-tk;
#X obj 490 150 list split 1, f 21;
#X msg 490 185 label \$1;
#X obj 484 259 cnv 5 5 17 empty empty empty 20 12 0 14 -194593 -66577
0;
#X obj 490 259 send;
#X msg 511 237 symbol \$2-tkpresets-cnv_\$1-r;
#X obj 505 64 cnv 5 5 17 empty empty empty 20 12 0 14 -260097 -66577
0;
#X obj 511 64 r \$0-lb;
#X obj 511 113 pack 0 \$0;
#X obj 545 210 cnv 5 5 17 empty empty empty 20 12 0 14 -194593 -66577
0;
#X obj 551 210 s \$0-calculatetcltkvalue;
#X obj 551 185 list append 0;
#X msg 271 91 2;
#X msg 511 89 3;
#X obj 250 13 r \$0-tkpresets_2;
#X obj 490 11 r \$0-tkpresets_3;
#X obj 723 10 cnv 5 5 17 empty empty empty 20 12 0 14 -260097 -66577
0;
#X obj 729 35 text get \$0-tk;
#X obj 729 149 list split 1, f 21;
#X msg 729 184 label \$1;
#X obj 723 258 cnv 5 5 17 empty empty empty 20 12 0 14 -194593 -66577
0;
#X obj 729 258 send;
#X msg 750 236 symbol \$2-tkpresets-cnv_\$1-r;
#X obj 744 63 cnv 5 5 17 empty empty empty 20 12 0 14 -260097 -66577
0;
#X obj 750 63 r \$0-lb;
#X obj 750 112 pack 0 \$0;
#X obj 784 209 cnv 5 5 17 empty empty empty 20 12 0 14 -194593 -66577
0;
#X obj 790 209 s \$0-calculatetcltkvalue;
#X obj 790 184 list append 0;
#X obj 729 10 r \$0-tkpresets_4;
#X msg 750 88 4;
#X msg 255 467 label;
#X obj 319 515 cnv 5 5 17 empty empty empty 20 12 0 14 -194593 -66577
0;
#X obj 325 515 send;
#X msg 346 490 symbol \$2-testfleck_\$1-r;
#X obj 325 444 t b;
#X obj 89 266 symbol;
#X obj 89 288 outlet;
#X obj 83 288 cnv 5 5 17 empty empty empty 20 12 0 14 -102336 -66577
0;
#X obj 306 262 symbol;
#X obj 306 284 outlet;
#X obj 300 284 cnv 5 5 17 empty empty empty 20 12 0 14 -102336 -66577
0;
#X obj 539 260 symbol;
#X obj 539 282 outlet;
#X obj 533 282 cnv 5 5 17 empty empty empty 20 12 0 14 -102336 -66577
0;
#X obj 776 258 symbol;
#X obj 776 280 outlet;
#X obj 770 280 cnv 5 5 17 empty empty empty 20 12 0 14 -102336 -66577
0;
#X obj 63 370 del 100;
#X obj 57 347 cnv 5 5 17 empty empty empty 20 12 0 14 -260626 -66577
0;
#X obj 63 347 r \$0-lbinit;
#X msg 325 467 vis_size 34 24;
#X connect 1 0 2 0;
#X connect 2 0 3 0;
#X connect 3 0 4 0;
#X connect 3 0 88 0;
#X connect 3 1 35 0;
#X connect 4 0 6 0;
#X connect 7 0 6 1;
#X connect 9 0 10 0;
#X connect 10 0 11 0;
#X connect 11 0 7 0;
#X connect 11 0 35 1;
#X connect 12 0 14 0;
#X connect 13 0 12 0;
#X connect 14 0 18 0;
#X connect 16 0 15 1;
#X connect 17 0 20 0;
#X connect 18 0 17 0;
#X connect 18 1 20 2;
#X connect 19 0 21 0;
#X connect 19 0 26 0;
#X connect 19 1 16 0;
#X connect 19 1 25 0;
#X connect 19 1 86 0;
#X connect 20 0 19 0;
#X connect 21 0 15 0;
#X connect 25 0 23 1;
#X connect 26 0 83 0;
#X connect 26 0 87 0;
#X connect 27 0 34 0;
#X connect 28 0 27 0;
#X connect 32 0 36 0;
#X connect 35 0 30 0;
#X connect 36 0 28 0;
#X connect 36 1 37 0;
#X connect 37 0 34 1;
#X connect 39 0 40 0;
#X connect 40 0 41 0;
#X connect 40 0 91 0;
#X connect 40 1 50 0;
#X connect 41 0 43 0;
#X connect 44 0 43 1;
#X connect 46 0 64 0;
#X connect 47 0 44 0;
#X connect 47 0 50 1;
#X connect 50 0 49 0;
#X connect 52 0 53 0;
#X connect 53 0 54 0;
#X connect 53 0 94 0;
#X connect 53 1 63 0;
#X connect 54 0 56 0;
#X connect 57 0 56 1;
#X connect 59 0 65 0;
#X connect 60 0 57 0;
#X connect 60 0 63 1;
#X connect 63 0 62 0;
#X connect 64 0 47 0;
#X connect 65 0 60 0;
#X connect 66 0 39 0;
#X connect 67 0 52 0;
#X connect 69 0 70 0;
#X connect 70 0 71 0;
#X connect 70 0 97 0;
#X connect 70 1 80 0;
#X connect 71 0 73 0;
#X connect 74 0 73 1;
#X connect 76 0 82 0;
#X connect 77 0 74 0;
#X connect 77 0 80 1;
#X connect 80 0 79 0;
#X connect 81 0 69 0;
#X connect 82 0 77 0;
#X connect 83 0 23 0;
#X connect 86 0 85 1;
#X connect 87 0 103 0;
#X connect 88 0 89 0;
#X connect 91 0 92 0;
#X connect 94 0 95 0;
#X connect 97 0 98 0;
#X connect 100 0 12 0;
#X connect 102 0 100 0;
#X connect 103 0 85 0;
#X restore 198 316 pd tk-presets;
#X obj 623 394 cnv 5 5 17 empty empty empty 20 12 0 14 -194593 -66577
0;
#X obj 645 369 cnv 5 5 17 empty empty empty 20 12 0 14 -194593 -66577
0;
#X obj 667 347 cnv 5 5 17 empty empty empty 20 12 0 14 -194593 -66577
0;
#X obj 629 394 s \$0-prop_width-r;
#X obj 651 369 s \$0-prop_height-r;
#X obj 673 347 s \$0-prop_border-r;
#X obj 710 274 cnv 5 5 17 empty empty empty 20 12 0 14 -194593 -66577
0;
#X obj 82 165 cnv 5 5 17 empty empty empty 20 12 0 14 -260626 -66577
0;
#X obj 101 188 cnv 5 5 17 empty empty empty 20 12 0 14 -260626 -66577
0;
#X obj 117 211 cnv 5 5 17 empty empty empty 20 12 0 14 -260626 -66577
0;
#X obj 88 165 r \$0-prop_width;
#X obj 106 188 r \$0-prop_height;
#X obj 123 211 r \$0-prop_border;
#X obj 170 285 cnv 5 5 17 empty empty empty 20 12 0 14 -260626 -66577
0;
#X obj 716 274 s \$0-prop_align-r;
#X obj 176 285 r \$0-prop_align;
#X obj 319 245 cnv 5 5 17 empty empty empty 20 12 0 14 -194593 -66577
0;
#X msg 325 223 1;
#X obj 325 245 s \$0-properties_autoapply-r;
#X obj 827 462 cnv 5 5 17 empty empty empty 20 12 0 14 -194593 -66577
0;
#X obj 833 462 s \$0-prop_items-r;
#X obj 339 350 cnv 5 5 17 empty empty empty 20 12 0 14 -260626 -66577
0;
#X obj 345 350 r \$0-prop_items;
#X obj 224 398 list append;
#X msg 534 74 499 503 30 30;
#X obj 799 302 list split 1;
#X obj 123 292 sel 0;
#X msg 123 318 -1;
#X obj 793 352 cnv 5 5 17 empty empty empty 20 12 0 14 -194593 -66577
0;
#X obj 799 352 s \$0-prop_goplevel-r;
#X obj 799 327 - 1;
#X obj 324 299 + 1;
#X obj 325 323 cnv 3 92 15 empty empty empty 2 7 0 10 -257985 -66577
0;
#N canvas 547 207 374 353 goplevel_cnv 0;
#X text 50 6 string in;
#X obj 60 25 inlet;
#X obj 54 25 cnv 5 5 17 empty empty empty 20 12 0 14 -118750 -66577
0;
#X obj 61 51 sel 1 2 3, f 19;
#X obj 92 301 cnv 5 5 17 empty empty empty 20 12 0 14 -194593 -66577
0;
#X obj 98 301 s \$0-prop_goplevel-r;
#X obj 98 185 list split 1;
#X obj 98 235 pack s 0;
#X msg 98 125 IN_A_GOP -3;
#X obj 98 210 symbol;
#X msg 135 151 IN_A_GOP_IN_A_GOP -30;
#X msg 98 269 label \$1 \, label_pos \$2 -9;
#X msg 61 86 IN_PARENT_WINDOW -30;
#X connect 1 0 3 0;
#X connect 3 0 12 0;
#X connect 3 1 8 0;
#X connect 3 2 10 0;
#X connect 6 0 9 0;
#X connect 6 1 7 1;
#X connect 7 0 11 0;
#X connect 8 0 6 0;
#X connect 9 0 7 0;
#X connect 10 0 6 0;
#X connect 11 0 5 0;
#X connect 12 0 6 0;
#X restore 324 322 pd goplevel_cnv;
#X obj 318 277 cnv 5 5 17 empty empty empty 20 12 0 14 -260626 -66577
0;
#X obj 324 277 r \$0-prop_goplevel;
#X text 855 280 goplevel;
#X text 883 304 items;
#X obj 382 108 cnv 5 5 17 empty empty empty 20 12 0 14 -260626 -66577
0;
#X obj 388 108 r \$0-lbinit;
#X msg 399 228 0;
#X msg 158 496 symbol none, f 12;
#X obj 629 219 list split 4;
#X obj 629 243 unpack 0 0 0 0, f 15;
#X obj 71 351 pack 0 0 0 0 0;
#X msg 854 419 symbol no_items, f 8;
#X obj 848 396 cnv 5 5 17 empty empty empty 20 12 0 14 -260626 -66577
0;
#X obj 854 396 r \$0-prop_no_items;
#X obj 372 420 l2s;
#X obj 387 397 list tosymbol;
#X msg 387 375 160;
#X obj 327 444 symbol no_items, f 8;
#X obj 345 379 s2l;
#X obj 833 327 route list symbol;
#X obj 765 219 list split 4;
#X obj 765 244 cnv 4 93 15 empty empty empty 2 7 0 10 -257985 -66577
0;
#N canvas 924 380 924 296 colorparsing 0;
#X obj 41 15 inlet;
#X obj 41 125 text search \$0-tk;
#X obj 41 153 sel -1;
#X obj 74 182 s \$0-tkpresets_1-r;
#X obj 68 182 cnv 5 5 17 empty empty empty 20 12 0 14 -194593 -66577
0;
#X obj 209 125 text search \$0-tk;
#X obj 209 153 sel -1;
#X obj 236 182 cnv 5 5 17 empty empty empty 20 12 0 14 -194593 -66577
0;
#X obj 378 124 text search \$0-tk;
#X obj 378 152 sel -1;
#X obj 405 181 cnv 5 5 17 empty empty empty 20 12 0 14 -194593 -66577
0;
#X obj 547 124 text search \$0-tk;
#X obj 547 152 sel -1;
#X obj 574 181 cnv 5 5 17 empty empty empty 20 12 0 14 -194593 -66577
0;
#X obj 242 182 s \$0-tkpresets_2-r;
#X obj 411 181 s \$0-tkpresets_3-r;
#X obj 580 181 s \$0-tkpresets_4-r;
#X obj 142 38 cnv 5 5 17 empty empty empty 20 12 0 14 -260097 -66577
0;
#X obj 148 38 r \$0-defaultcolors;
#X obj 91 65 list store;
#X obj 85 15 cnv 5 5 17 empty empty empty 20 12 0 14 -260097 -66577
0;
#X obj 91 15 r \$0-recalldefaultcolors;
#X obj 91 38 t b;
#X obj 41 100 unpack s s s s, f 85;
#X connect 0 0 23 0;
#X connect 1 0 2 0;
#X connect 2 1 3 0;
#X connect 5 0 6 0;
#X connect 6 1 14 0;
#X connect 8 0 9 0;
#X connect 9 1 15 0;
#X connect 11 0 12 0;
#X connect 12 1 16 0;
#X connect 18 0 19 1;
#X connect 19 0 23 0;
#X connect 21 0 22 0;
#X connect 22 0 19 0;
#X connect 23 0 1 0;
#X connect 23 1 5 0;
#X connect 23 2 8 0;
#X connect 23 3 11 0;
#X restore 765 243 pd colorparsing;
#X obj 190 351 pack 0 s s s s 1;
#X connect 2 0 13 0;
#X connect 2 0 85 0;
#X connect 2 1 92 0;
#X connect 6 0 2 0;
#X connect 7 0 47 0;
#X connect 10 0 64 0;
#X connect 12 0 13 1;
#X connect 13 0 16 0;
#X connect 16 0 17 0;
#X connect 16 1 110 0;
#X connect 17 0 58 0;
#X connect 17 1 18 0;
#X connect 18 0 19 0;
#X connect 19 0 15 0;
#X connect 21 0 13 0;
#X connect 21 1 24 0;
#X connect 22 0 21 0;
#X connect 26 0 61 0;
#X connect 28 0 29 0;
#X connect 29 0 109 0;
#X connect 29 1 109 0;
#X connect 29 2 30 1;
#X connect 30 0 35 0;
#X connect 31 0 2 0;
#X connect 32 1 30 0;
#X connect 33 0 39 0;
#X connect 34 0 39 0;
#X connect 37 0 35 1;
#X connect 38 0 37 0;
#X connect 39 0 38 0;
#X connect 43 0 44 0;
#X connect 44 1 41 0;
#X connect 44 2 112 0;
#X connect 44 3 34 0;
#X connect 46 0 47 0;
#X connect 46 0 56 0;
#X connect 47 0 51 0;
#X connect 49 0 48 0;
#X connect 50 0 3 0;
#X connect 51 0 52 0;
#X connect 52 0 50 0;
#X connect 52 1 54 0;
#X connect 56 0 55 0;
#X connect 58 0 15 0;
#X connect 59 0 0 0;
#X connect 61 0 64 0;
#X connect 63 0 32 0;
#X connect 64 0 112 0;
#X connect 64 1 125 0;
#X connect 64 2 119 0;
#X connect 64 3 33 0;
#X connect 65 1 91 0;
#X connect 67 0 125 1;
#X connect 67 1 125 2;
#X connect 67 2 125 3;
#X connect 67 3 125 4;
#X connect 78 0 112 1;
#X connect 79 0 112 2;
#X connect 80 0 94 0;
#X connect 83 0 112 4;
#X connect 85 0 86 0;
#X connect 90 0 120 0;
#X connect 91 0 63 1;
#X connect 92 0 59 0;
#X connect 93 0 98 0;
#X connect 93 1 121 0;
#X connect 94 0 95 0;
#X connect 94 1 112 3;
#X connect 95 0 112 3;
#X connect 98 0 97 0;
#X connect 99 0 101 0;
#X connect 99 0 125 5;
#X connect 103 0 99 0;
#X connect 107 0 108 0;
#X connect 107 0 118 0;
#X connect 108 0 86 0;
#X connect 109 0 30 1;
#X connect 110 0 111 0;
#X connect 110 1 122 0;
#X connect 111 0 71 0;
#X connect 111 1 72 0;
#X connect 111 2 73 0;
#X connect 111 3 82 0;
#X connect 112 0 63 0;
#X connect 113 0 88 0;
#X connect 115 0 113 0;
#X connect 116 0 119 1;
#X connect 117 0 116 1;
#X connect 118 0 117 0;
#X connect 119 0 91 1;
#X connect 120 0 116 0;
#X connect 121 0 88 0;
#X connect 121 1 88 0;
#X connect 122 0 124 0;
#X connect 122 1 93 0;
#X connect 125 0 65 0;
#X restore 1014 538 pd propertyguts;
#X obj 1015 562 cnv 5 100 15 empty empty empty 2 7 0 10 -257985 -66577
0;
#N canvas 30 50 499 503 \$0-properties 0;
#X obj 208 292 hradio 15 1 0 5 \$0-recalldefaultcolors \$0-recalldefaultcolors-r
empty 0 -8 0 10 -262144 -1 -1 2;
#X obj 1 1 cnv 5 496 500 empty empty PROPERTIES: 190 18 1 16 -220544
-122932 0;
#X obj 6 36 cnv 4 484 430 empty empty empty 20 20 0 14 -1 -262144 0
;
#X obj 7 37 cnv 14 482 428 empty empty empty 79 21 1 24 -262130 -64
0;
#X obj 95 475 cnv 5 300 18 empty empty empty 20 20 0 14 -1 -262144
0;
#X obj 96 476 cnv 10 298 16 empty empty DON'T_FORGET_TO_SAVE_THE_PARENT_PATCH_!
6 9 1 12 -261234 -66577 0;
#X obj 96 490 cnv 2 298 1 empty empty empty 6 -20 1 8 -261234 -66577
0;
#X obj 111 440 hradio 14 1 0 2 \$0-properties_ok \$0-properties_ok-r
empty 0 -8 0 10 -262144 -1 -1 1;
#X obj 152 440 hradio 14 1 0 3 \$0-properties_apply \$0-properties_apply-r
empty 0 -8 0 10 -262144 -1 -1 1;
#X obj 153 441 cnv 12 40 12 \$0-properties_apply_cnv \$0-properties_apply_cnv-r
APPLY 3 7 1 11 -261057 -99865 0;
#X obj 325 440 hradio 14 1 0 4 \$0-properties_cancel \$0-properties_cancel-r
empty 0 -8 0 10 -262144 -1 -1 1;
#X obj 140 132 nbx 5 15 40 600 0 0 \$0-prop_width \$0-prop_width-r
width 52 7 1 10 -262144 -1 -1 40 256;
#X obj 233 132 nbx 5 15 10 300 0 0 \$0-prop_height \$0-prop_height-r
height 55 7 1 10 -262144 -1 -1 10 256;
#X obj 330 132 nbx 5 15 0 25 0 0 \$0-prop_border \$0-prop_border-r
border 55 7 1 10 -262144 -1 -1 0 256;
#X obj 194 440 tgl 14 0 \$0-properties_autoapply \$0-properties_autoapply-r
auto 20 7 1 10 -261057 -1 -1 0 1;
#X obj 242 440 hradio 14 1 0 5 \$0-properties_original \$0-properties_original-r
empty 0 -8 0 10 -262144 -1 -1 4;
#X obj 326 441 cnv 12 54 12 \$0-properties_cancel_cnv \$0-properties_cancel_cnv-r
CANCEL 5 7 1 11 -261234 -99865 0;
#X obj 112 441 cnv 12 26 12 \$0-properties_ok_cnv \$0-properties_ok_cnv-r
OK 4 6 1 12 -204786 -99865 0;
#X obj 243 441 cnv 12 68 12 \$0-properties_original_cnv \$0-properties_original_cnv-r
ORIGINAL 8 7 1 11 -203904 -99865 0;
#X obj 479 14 bng 10 250 50 0 \$0-properties_def \$0-properties_def-r
defaults -42 5 1 10 -262130 -1 -159808;
#X obj 216 64 cnv 1 168 13 empty empty empty 20 12 0 14 -262144 -66577
0;
#X symbolatom 216 64 28 0 0 2 - #0-prop_name-r #0-prop_name, f 28
;
#X obj 93 140 cnv 3 3 3 empty empty SIZE: 0 0 1 14 -262130 -64 0;
#X obj 215 300 cnv 5 5 5 empty empty COLORS: 0 0 1 16 -262130 -64 0
;
#X obj 45 330 cnv 5 5 5 empty empty Background 0 0 1 11 -262130 -64
0;
#X obj 273 330 cnv 5 5 5 empty empty Highlight 0 0 1 11 -262130 -64
0;
#X obj 233 178 nbx 5 16 0 2 0 0 \$0-prop_align \$0-prop_align-r empty
33 7 1 10 -262144 -1 -1 0 256;
#X obj 57 356 nbx 3 14 0 99 0 0 \$0-tkpresets_1 \$0-tkpresets_1-r presets
0 -7 1 10 -262144 -1 -1 0 256;
#X obj 57 380 cnv 5 1 1 \$0-tkpresets-cnv_1 \$0-tkpresets-cnv_1-r empty
0 0 1 9 -262130 -99865 0;
#X obj 56 389 cnv 1 34 24 \$0-testfleck_1 \$0-testfleck_1-r empty 0
0 0 8 -237178 -1 0;
#X obj 167 356 nbx 3 14 0 99 0 0 \$0-tkpresets_2 \$0-tkpresets_2-r
presets 0 -7 1 10 -262144 -1 -1 0 256;
#X obj 167 380 cnv 5 1 1 \$0-tkpresets-cnv_2 \$0-tkpresets-cnv_2-r
empty 0 0 1 9 -262130 -99865 0;
#X obj 166 389 cnv 1 34 24 \$0-testfleck_2 \$0-testfleck_2-r empty
0 0 0 8 -1 -1 0;
#X obj 279 356 nbx 3 14 0 99 0 0 \$0-tkpresets_3 \$0-tkpresets_3-r
presets 0 -7 1 10 -262144 -1 -1 0 256;
#X obj 279 380 cnv 5 1 1 \$0-tkpresets-cnv_3 \$0-tkpresets-cnv_3-r
empty 0 0 1 9 -262130 -99865 0;
#X obj 278 389 cnv 1 34 24 \$0-testfleck_3 \$0-testfleck_3-r empty
0 0 0 8 -249661 -1 0;
#X obj 400 355 nbx 3 14 0 99 0 0 \$0-tkpresets_4 \$0-tkpresets_4-r
presets 0 -7 1 10 -262144 -1 -1 0 256;
#X obj 400 379 cnv 5 1 1 \$0-tkpresets-cnv_4 \$0-tkpresets-cnv_4-r
empty 0 0 1 9 -262130 -99865 0;
#X obj 399 388 cnv 1 34 24 \$0-testfleck_4 \$0-testfleck_4-r empty
0 0 0 8 -1 -1 0;
#X obj 172 330 cnv 5 5 5 empty empty Text 0 0 1 11 -262130 -64 0;
#X obj 399 329 cnv 5 5 5 empty empty Border 0 0 1 11 -262130 -64 0
;
#X obj 171 188 cnv 5 5 5 empty empty ALIGN: 0 0 1 14 -262130 -64 0
;
#X obj 23 246 cnv 5 5 5 empty empty ITEMS: 0 0 1 14 -262130 -64 0;
#X obj 23 258 cnv 1 452 13 empty empty empty 20 12 0 14 -262144 -66577
0;
#X symbolatom 23 257 75 0 0 2 - #0-prop_items-r #0-prop_items, f 75
;
#X obj 77 246 cnv 5 30 1 empty empty (seperate_items_with_a_"|") 0
0 1 10 -262130 -1 0;
#X obj 120 251 cnv 5 80 1 empty empty empty 0 0 1 4 -262130 -64 0;
#X obj 93 73 cnv 3 3 3 empty empty REMOTE_NAME: 0 0 1 14 -262130 -64
0;
#X obj 162 79 cnv 5 30 2 empty empty empty 0 0 1 4 -262130 -64 0;
#X obj 460 239 bng 14 250 50 0 \$0-prop_no_items \$0-prop_no_items-r
clear -30 7 1 10 -262144 -1 -1;
#X obj 209 86 cnv 5 5 5 empty empty (use"empty"or"none"fornoname)
0 2 1 10 -262130 -64 0;
#X obj 297 298 cnv 5 5 5 empty empty (clicktoloaddefaults)
0 2 1 9 -262130 -64 0;
#X restore 1014 561 pd \$0-properties;
#X obj 995 516 bng 15 250 50 0 empty empty empty 17 7 0 10 -262144
-1 -1;
#X obj 326 563 outlet;
#X obj 102 395 r \$0-menu;
#X text 328 583 index;
#X obj 320 563 cnv 5 5 17 empty empty empty 20 12 0 14 -102336 -66577
0;
#X obj 96 395 cnv 5 5 17 empty empty empty 20 12 0 14 -260626 -66577
0;
#X obj 899 43 declare -stdlib zexy -lib zexy  -path zexy;
#X obj 899 60 declare -stdpath iemguts -path iemguts;
#X obj 899 77 declare -stdpath tof -path tof;
#X obj 102 418 list split 1, f 8;
#X obj 165 551 cnv 5 5 17 empty empty empty 20 12 0 14 -194593 -66577
0;
#X obj 171 551 s \$0-outset;
#X msg 913 394 init;
#X obj 904 329 loadbang;
#X obj 888 303 cnv 5 5 17 empty empty empty 20 12 0 14 -260626 -66577
0;
#X obj 894 303 r ol_GUI_reinit;
#X obj 894 159 cnv 4 140 15 empty empty empty 20 12 0 14 -228864 -66577
0;
#X obj 893 158 text define \$0-defaults;
#X text 893 284 force loadbang from outside;
#X obj 896 237 r \$0-remotename;
#X obj 890 237 cnv 5 5 17 empty empty empty 20 12 0 14 -260626 -66577
0;
#X symbolatom 896 260 10 0 0 0 - - -, f 10;
#X obj 383 439 s \$0-menu-r;
#X obj 1016 487 cnv 15 92 15 empty empty empty 2 7 0 10 -257985 -66577
0;
#N canvas 601 332 522 608 calculations 0;
#X msg 205 258 size \$1 \$2;
#X text 197 504 resize: zuerst menu \, dann GOP !, f 16;
#X obj 164 482 s \$0-cnv;
#X text 239 482 Rahmen;
#X obj 136 15 r \$0-size;
#X obj 137 511 s \$0-GOP;
#X obj 136 90 unpack 0 0 0;
#X obj 205 210 -;
#X obj 259 210 -;
#X obj 205 236 pack, f 9;
#X obj 274 162 * 2;
#X msg 164 459 vis_size \$1 \$2 \, pos \$3 \$4;
#X obj 188 308 expr 31-$f1 \; 61-$f1;
#X obj 54 221 t f f;
#X obj 199 282 cnv 5 5 17 empty empty empty 20 12 0 14 -194593 -66577
0;
#X obj 158 482 cnv 5 5 17 empty empty empty 20 12 0 14 -194593 -66577
0;
#X obj 130 15 cnv 5 5 17 empty empty empty 20 12 0 14 -260626 -66577
0;
#X obj 131 511 cnv 5 5 17 empty empty empty 20 12 0 14 -194593 -66577
0;
#X obj 137 431 t l l l;
#X obj 137 373 pack 0 0 0 0, f 17;
#X obj 136 64 t l b l, f 40;
#X obj 22 466 cnv 5 5 17 empty empty empty 20 12 0 14 -194593 -66577
0;
#X obj 28 466 s \$0-gopgutsin;
#X obj 54 199 clip 40 600;
#X obj 170 179 clip 10 300;
#X obj 54 107 sel 0;
#X obj 170 111 sel 0;
#X obj 240 14 cnv 5 5 17 empty empty empty 20 12 0 14 -260097 -66577
0;
#X obj 245 14 r \$0-defaultslist;
#X obj 54 149 list store, f 13;
#X msg 54 128 get 1 1;
#X obj 170 153 list store, f 13;
#X msg 170 132 get 2 1;
#X obj 54 178 f;
#X obj 28 442 pack 0 0 0, f 14;
#X obj 28 417 unpack;
#X obj 274 107 clip 0 25;
#X msg 274 86 0;
#X obj 362 272 t f f;
#X obj 356 248 cnv 5 5 17 empty empty empty 20 12 0 14 -260626 -66577
0;
#X obj 362 248 r \$0-initspig;
#X obj 362 325 sel 1, f 7;
#X obj 403 272 tgl 15 0 empty empty empty 17 7 0 10 -262144 -1 -1 1
1;
#X obj 137 400 spigot;
#X obj 205 282 s \$0-tomenu;
#X connect 0 0 44 0;
#X connect 4 0 20 0;
#X connect 6 0 25 0;
#X connect 6 1 26 0;
#X connect 6 2 36 0;
#X connect 7 0 9 0;
#X connect 8 0 9 1;
#X connect 9 0 0 0;
#X connect 10 0 8 1;
#X connect 10 0 7 1;
#X connect 11 0 2 0;
#X connect 12 0 19 2;
#X connect 12 1 19 3;
#X connect 13 0 19 0;
#X connect 13 1 7 0;
#X connect 18 0 5 0;
#X connect 18 1 11 0;
#X connect 19 0 43 0;
#X connect 20 0 6 0;
#X connect 20 1 37 0;
#X connect 23 0 13 0;
#X connect 24 0 8 0;
#X connect 24 0 19 1;
#X connect 25 0 30 0;
#X connect 25 1 33 0;
#X connect 26 0 32 0;
#X connect 26 1 24 0;
#X connect 28 0 29 1;
#X connect 28 0 31 1;
#X connect 29 0 33 0;
#X connect 30 0 29 0;
#X connect 31 0 24 0;
#X connect 32 0 31 0;
#X connect 33 0 23 0;
#X connect 34 0 22 0;
#X connect 35 0 34 0;
#X connect 35 1 34 1;
#X connect 36 0 10 0;
#X connect 36 0 12 0;
#X connect 36 0 34 2;
#X connect 37 0 36 0;
#X connect 38 0 41 0;
#X connect 38 1 42 0;
#X connect 38 1 43 1;
#X connect 40 0 38 0;
#X connect 41 0 33 0;
#X connect 43 0 18 0;
#X connect 43 0 35 0;
#X restore 1015 486 pd calculations;
#X obj 481 395 cnv 4 92 15 empty empty empty 2 7 0 10 -257985 -66577
0;
#N canvas 737 391 620 443 menu_content 0;
#X obj 142 342 cnv 8 170 30 empty empty empty 20 12 0 14 -232576 -66577
0;
#X obj 148 349 text define \$0-menucontent;
#X obj 333 321 list prepend add;
#X obj 327 372 cnv 5 5 17 empty empty empty 20 12 0 14 -194593 -66577
0;
#X obj 333 144 text sequence \$0-menucontent;
#X msg 333 119 line 0 \, step;
#X obj 334 297 cnv 3 88 15 empty empty empty 2 7 0 10 -257985 -66577
0;
#N canvas 696 119 601 462 sym_replace 0;
#X text 153 433 symbol out with correct spaces;
#X text 50 6 string in;
#X obj 60 25 inlet;
#X obj 258 414 outlet;
#X obj 54 25 cnv 5 5 17 empty empty empty 20 12 0 14 -118750 -66577
0;
#X obj 252 414 cnv 5 5 17 empty empty empty 20 12 0 14 -102336 -66577
0;
#X obj 258 387 list tosymbol;
#X obj 60 48 list;
#X obj 60 210 list store, f 13;
#X obj 60 115 until;
#X obj 60 141 f, f 7;
#X obj 122 141 + 1;
#X msg 60 184 get \$1 1;
#X obj 103 116 0;
#X obj 60 286 list fromsymbol;
#X obj 60 238 route symbol float;
#X obj 78 262 makefilename %s;
#X obj 60 163 t f f;
#X obj 60 403 list store, f 19;
#X obj 60 378 list trim;
#X obj 60 355 list prepend append;
#X obj 126 309 spigot;
#X msg 126 331 32;
#X obj 60 309 t l b, f 9;
#X obj 60 90 t b b a b, f 19;
#X obj 217 192 list store, f 14;
#X obj 217 120 until;
#X obj 217 144 f;
#X obj 258 144 + 1;
#X msg 217 169 get \$1 1;
#X msg 258 120 0;
#X text 249 70 list drip;
#X obj 258 359 list store, f 13;
#X obj 258 314 list prepend append;
#X obj 258 336 list trim;
#X obj 217 90 t b b l b, f 20;
#X symbolatom 217 17 10 0 0 0 - - -, f 10;
#X obj 217 31 list fromsymbol;
#X floatatom 217 48 5 0 0 0 - - -, f 5;
#X msg 212 279 168;
#X msg 324 279 171;
#X msg 354 279 187;
#X msg 267 279 166;
#X obj 416 413 outlet;
#X obj 410 413 cnv 5 5 17 empty empty empty 20 12 0 14 -102336 -66577
0;
#X text 419 432 bang;
#X obj 416 248 t b b b;
#X msg 381 279 167;
#X obj 217 248 select 34 91 92 93 123 125 36;
#X text 224 213 qoutes \, open_bracket \, backslash \, close_bracket
\, open_brace \, close_brace \, dollar, f 47;
#X msg 240 279 25;
#X msg 294 279 23;
#X obj 416 359 del 1;
#X connect 2 0 7 0;
#X connect 6 0 3 0;
#X connect 7 0 24 0;
#X connect 8 0 15 0;
#X connect 8 1 9 1;
#X connect 8 1 18 0;
#X connect 9 0 10 0;
#X connect 10 0 11 0;
#X connect 10 0 17 0;
#X connect 11 0 10 1;
#X connect 12 0 8 0;
#X connect 13 0 10 1;
#X connect 14 0 23 0;
#X connect 15 0 14 0;
#X connect 15 1 16 0;
#X connect 16 0 14 0;
#X connect 17 0 12 0;
#X connect 17 1 21 1;
#X connect 18 0 35 0;
#X connect 19 0 18 0;
#X connect 20 0 19 0;
#X connect 21 0 22 0;
#X connect 22 0 20 0;
#X connect 23 0 20 0;
#X connect 23 1 21 0;
#X connect 24 0 9 0;
#X connect 24 1 13 0;
#X connect 24 2 8 1;
#X connect 24 3 18 1;
#X connect 25 0 48 0;
#X connect 25 1 46 0;
#X connect 26 0 27 0;
#X connect 27 0 28 0;
#X connect 27 0 29 0;
#X connect 28 0 27 1;
#X connect 29 0 25 0;
#X connect 30 0 27 1;
#X connect 32 0 6 0;
#X connect 33 0 34 0;
#X connect 34 0 32 0;
#X connect 35 0 26 0;
#X connect 35 1 30 0;
#X connect 35 2 25 1;
#X connect 35 3 32 1;
#X connect 36 0 37 0;
#X connect 37 0 38 0;
#X connect 39 0 33 0;
#X connect 40 0 33 0;
#X connect 41 0 33 0;
#X connect 42 0 33 0;
#X connect 46 0 52 0;
#X connect 46 1 32 0;
#X connect 46 2 26 1;
#X connect 47 0 33 0;
#X connect 48 0 39 0;
#X connect 48 1 50 0;
#X connect 48 2 42 0;
#X connect 48 3 51 0;
#X connect 48 4 40 0;
#X connect 48 5 41 0;
#X connect 48 6 47 0;
#X connect 48 7 33 0;
#X connect 50 0 33 0;
#X connect 51 0 33 0;
#X connect 52 0 43 0;
#X restore 333 296 pd sym_replace;
#X text 471 288 take care of special ascii symbols that will throw
a Tcl/Tk error when added to menubutton, f 22;
#X msg 431 296 step;
#X msg 516 144 set 0;
#X obj 510 169 cnv 5 5 17 empty empty empty 20 12 0 14 -194593 -66577
0;
#X obj 333 269 l2s;
#X obj 300 25 cnv 5 5 17 empty empty empty 20 12 0 14 -260626 -66577
0;
#X obj 305 25 r \$0-updatemenu;
#X msg 447 233 clear;
#X obj 24 397 cnv 5 5 17 empty empty empty 20 12 0 14 -194593 -66577
0;
#X obj 30 397 s \$0-updatemenu;
#X obj 93 214 cnv 5 5 17 empty empty empty 20 12 0 14 -260626 -66577
0;
#X obj 98 214 r \$0-menu-r;
#X obj 98 264 route clear;
#X msg 148 315 clear;
#X obj 305 48 text size \$0-menucontent;
#X obj 305 71 > 0;
#X obj 333 71 sel 1;
#X obj 98 239 spigot 1;
#X obj 333 95 t b b b;
#X msg 409 94 0;
#X msg 479 169 1;
#X obj 473 201 cnv 5 5 17 empty empty empty 20 12 0 14 -194593 -66577
0;
#X obj 479 201 s \$0-floatspigot;
#X obj 98 288 t b b;
#X obj 62 331 del 1;
#X obj 333 372 s \$0-tomenu;
#X obj 516 169 s \$0-tomenu;
#X obj 333 170 route -888888;
#X connect 2 0 33 0;
#X connect 4 0 35 0;
#X connect 4 1 10 0;
#X connect 4 1 28 0;
#X connect 5 0 4 0;
#X connect 7 0 2 0;
#X connect 7 1 9 0;
#X connect 9 0 4 0;
#X connect 10 0 34 0;
#X connect 12 0 7 0;
#X connect 14 0 22 0;
#X connect 15 0 33 0;
#X connect 19 0 25 0;
#X connect 20 0 31 0;
#X connect 21 0 1 0;
#X connect 22 0 23 0;
#X connect 23 0 24 0;
#X connect 24 0 26 0;
#X connect 25 0 20 0;
#X connect 26 0 5 0;
#X connect 26 1 15 0;
#X connect 26 2 27 0;
#X connect 27 0 25 1;
#X connect 27 0 30 0;
#X connect 28 0 25 1;
#X connect 28 0 30 0;
#X connect 31 0 32 0;
#X connect 31 1 21 0;
#X connect 32 0 17 0;
#X connect 35 0 12 0;
#X restore 481 394 pd menu_content;
#X obj 25 504 v \$0-index;
#X obj 19 504 cnv 5 5 17 empty empty empty 20 12 0 14 -194048 -66577
0;
#X obj 166 504 cnv 5 5 17 empty empty empty 20 12 0 14 -260626 -66577
0;
#X obj 171 504 r \$0-outdemux;
#X obj 102 527 demux, f 12;
#X obj 102 456 t f f;
#X obj 147 456 text get \$0-menucontent;
#X obj 147 479 route -888888;
#X obj 102 504 list, f 8;
#X obj 96 551 cnv 5 5 17 empty empty empty 20 12 0 14 -194593 -66577
0;
#X obj 102 551 s \$0-out;
#X obj 360 498 cnv 5 5 17 empty empty empty 20 12 0 14 -260626 -66577
0;
#X obj 366 498 r \$0-out;
#X obj 366 522 list split 1;
#X obj 995 303 cnv 5 5 17 empty empty empty 20 12 0 14 -260626 -66577
0;
#X obj 1001 303 r \$0-properties_original;
#X obj 893 11 cnv 10 200 20 empty empty needsZEXYIEMGUTSTOF 10
11 0 14 -4160 -262144 0;
#X connect 1 0 38 0;
#X connect 9 0 71 0;
#X connect 14 0 15 0;
#X connect 17 0 35 0;
#X connect 18 0 20 0;
#X connect 24 0 18 0;
#X connect 34 0 31 0;
#X connect 35 0 28 0;
#X connect 35 1 61 0;
#X connect 35 2 34 0;
#X connect 35 2 43 0;
#X connect 40 0 9 0;
#X connect 44 0 46 0;
#X connect 49 0 46 0;
#X connect 51 0 58 0;
#X connect 58 0 76 0;
#X connect 58 0 81 0;
#X connect 61 0 26 0;
#X connect 62 0 17 0;
#X connect 64 0 17 0;
#X connect 68 0 70 0;
#X connect 79 0 80 1;
#X connect 80 0 86 0;
#X connect 80 1 60 0;
#X connect 81 0 84 0;
#X connect 81 1 82 0;
#X connect 82 0 83 0;
#X connect 83 0 84 1;
#X connect 84 0 80 0;
#X connect 88 0 89 0;
#X connect 89 0 50 0;
#X connect 89 1 3 0;
#X connect 91 0 17 0;
#X coords 0 -1 1 1 120 20 2 30 60;
