#N canvas 76 207 510 461 10;
#X obj 26 150 outlet;
#X obj 311 87 loadbang;
#X obj 311 164 list 0 \$1 \$2;
#X obj 311 185 route 0;
#X obj 277 314 f;
#X obj 223 250 moses 2;
#X obj 311 211 unpack;
#X obj 0 0 hradio 16 1 0 1 \$0-radio \$0-radio-r empty 2 3 0 7 -225271
-225271 -225271 0;
#X obj 28 292 sel 0 1;
#X obj 28 384 s \$0-radio-r;
#X msg 28 361 color \$1 \$2 \$3;
#X msg 28 320 6 6 6;
#X obj 149 278 t b;
#X obj 149 337 == 0;
#X obj 149 314 f;
#X obj 311 140 t b b;
#X msg 404 140 0;
#X obj 149 255 r \$0-radio;
#X obj 154 119 inlet;
#X obj 20 150 cnv 5 5 17 empty empty empty 20 12 0 14 -102336 -66577
0;
#X obj 22 384 cnv 5 5 17 empty empty empty 20 12 0 14 -194593 -66577
0;
#X obj 22 255 cnv 5 5 17 empty empty empty 20 12 0 14 -260626 -66577
0;
#X obj 148 119 cnv 5 5 17 empty empty empty 20 12 0 14 -118750 -66577
0;
#X obj 143 360 cnv 5 5 17 empty empty empty 20 12 0 14 -194593 -66577
0;
#X obj 271 337 cnv 5 5 17 empty empty empty 20 12 0 14 -194593 -66577
0;
#X obj 398 164 cnv 5 5 17 empty empty empty 20 12 0 14 -194593 -66577
0;
#X obj 171 189 cnv 5 5 17 empty empty empty 20 12 0 14 -194593 -66577
0;
#X obj 143 255 cnv 5 5 17 empty empty empty 20 12 0 14 -260626 -66577
0;
#X obj 20 103 cnv 5 5 17 empty empty empty 20 12 0 14 -260626 -66577
0;
#X obj 25 41 namecanvas \$0-ol_metro;
#X text 24 66 args: 1.) on/off or ms;
#X text 60 78 2.) ms;
#X obj 16 0 nbx 5 16 0 1e+037 0 0 \$0-ms \$0-ms-r empty 0 0 0 11 -262144
-1 -1 1000 256;
#X obj 26 103 r \$0-m;
#X obj 26 126 metro 1000;
#X obj 77 103 cnv 5 5 17 empty empty empty 20 12 0 14 -260626 -66577
0;
#X obj 83 103 r \$0-ms;
#X obj 404 164 s \$0-m;
#X obj 149 360 s \$0-m;
#X obj 28 255 r \$0-m;
#X obj 177 189 s \$0-m;
#X obj 277 250 max 0;
#X obj 277 337 s \$0-ms-r;
#X obj 396 223 cnv 5 5 17 empty empty empty 20 12 0 14 -194593 -66577
0;
#X obj 402 223 s \$0-ms-r;
#X msg 402 199 1000;
#X msg 73 320 6 18 6;
#X obj 344 249 route 0;
#X obj 122 165 moses 0;
#X obj 177 165 moses 2;
#X obj 154 141 route float bang;
#X obj 279 40 cnv 5 5 17 empty empty empty 20 12 0 14 -260626 -66577
0;
#X obj 285 40 r ol_GUI_reinit;
#X text 262 20 force loadbang from outside;
#X connect 1 0 15 0;
#X connect 2 0 3 0;
#X connect 3 0 6 0;
#X connect 4 0 42 0;
#X connect 5 0 38 0;
#X connect 5 1 41 0;
#X connect 6 0 5 0;
#X connect 6 1 47 0;
#X connect 8 0 11 0;
#X connect 8 1 46 0;
#X connect 10 0 9 0;
#X connect 11 0 10 0;
#X connect 12 0 14 0;
#X connect 13 0 38 0;
#X connect 14 0 13 0;
#X connect 15 0 2 0;
#X connect 15 1 16 0;
#X connect 15 1 45 0;
#X connect 16 0 37 0;
#X connect 17 0 12 0;
#X connect 18 0 50 0;
#X connect 33 0 34 0;
#X connect 34 0 0 0;
#X connect 36 0 34 1;
#X connect 39 0 8 0;
#X connect 39 0 14 1;
#X connect 41 0 4 0;
#X connect 45 0 44 0;
#X connect 46 0 10 0;
#X connect 47 1 4 0;
#X connect 48 1 49 0;
#X connect 49 0 40 0;
#X connect 49 1 44 0;
#X connect 50 0 48 0;
#X connect 50 1 14 0;
#X connect 52 0 15 0;
#X coords 0 -1 1 1 75 16 2 0 0;
