#N canvas 53 113 889 537 10;
#X declare -stdpath iemguts -path iemguts;
#X declare -stdlib zexy -lib zexy;
#X obj 349 476 s \$0-bgnd-r;
#X msg 349 452 pos 1 1;
#X msg 349 426 pos 500 1;
#X obj 699 375 cnv 10 80 15 empty empty empty 2 7 0 9 -257985 -66577
0;
#N canvas 1207 346 325 558 remotename 0;
#X obj 22 66 bang;
#X obj 22 43 route float symbol;
#X obj 22 186 s \$0-remotename;
#X obj 16 186 cnv 5 5 17 empty empty empty 20 12 0 14 -194593 -66577
0;
#X msg 22 92 symbol none;
#X obj 20 227 cnv 10 200 200 empty empty REMOTE 100 17 1 20 -261682
-4160 0;
#X obj 148 371 spigot;
#X obj 37 371 spigot;
#X obj 148 394 s \$0-in;
#X obj 37 347 r \$0-out;
#X obj 58 262 r \$0-remotename;
#X obj 31 395 cnv 5 5 17 empty empty empty 20 12 0 14 -194593 -66577
0;
#X obj 142 394 cnv 5 5 17 empty empty empty 20 12 0 14 -194593 -66577
0;
#X obj 31 347 cnv 5 5 17 empty empty empty 20 12 0 14 -260626 -66577
0;
#X obj 52 262 cnv 5 5 17 empty empty empty 20 12 0 14 -260626 -66577
0;
#X obj 51 288 sel none;
#X msg 97 334 0, f 1;
#X msg 107 334 1, f 1;
#X obj 107 288 t b;
#X obj 101 354 f;
#X floatatom 101 379 2 0 0 0 - - -, f 2;
#X text 87 12 any float or "none" as 1st argument: no remote name,
f 27;
#X obj 27 448 r \$0-getname;
#X msg 27 492 name: \$2 \$2-r;
#X obj 27 470 pack 0 s, f 16;
#X obj 21 448 cnv 5 5 17 empty empty empty 20 12 0 14 -260097 -66577
0;
#X obj 114 448 cnv 5 5 17 empty empty empty 20 12 0 14 -260097 -66577
0;
#X obj 120 448 r \$0-remotename;
#X obj 165 279 outlet;
#X obj 159 279 cnv 5 5 17 empty empty empty 20 12 0 14 -102336 -66577
0;
#X obj 37 395 send;
#X obj 58 66 sel none empty;
#X obj 16 20 cnv 5 5 17 empty empty empty 20 12 0 14 -260626 -66577
0;
#X obj 22 20 r \$0-arg1;
#X obj 53 122 cnv 3 88 15 empty empty empty 2 7 0 10 -257985 -66577
0;
#N canvas 503 158 374 470 check_\$0___ 0;
#X text 50 6 string in;
#X obj 60 25 inlet;
#X obj 23 415 outlet;
#X obj 54 25 cnv 5 5 17 empty empty empty 20 12 0 14 -118750 -66577
0;
#X obj 17 415 cnv 5 5 17 empty empty empty 20 12 0 14 -102336 -66577
0;
#X obj 60 49 list fromsymbol;
#X obj 119 281 &&, f 13;
#X msg 119 231 1;
#X msg 178 229 1;
#X obj 167 252 t b f;
#X obj 62 281 f, f 7;
#X obj 60 171 list store, f 14;
#X obj 60 102 until;
#X obj 60 126 f;
#X obj 101 126 + 1;
#X msg 60 148 get \$1 1;
#X msg 101 102 0;
#X text 192 71 list drip;
#X obj 60 72 t b b l b, f 20;
#X obj 60 203 sel 92 36 48, f 30;
#X msg 177 172 0;
#X obj 62 335 list store, f 27;
#X msg 62 306 prepend \$1 \, bang;
#X msg 237 305 append \$1;
#X text 250 202 check for \$0;
#X obj 62 359 route 0 1;
#X obj 23 390 list tosymbol;
#X obj 119 390 list tosymbol;
#X obj 119 413 outlet;
#X obj 113 413 cnv 5 5 17 empty empty empty 20 12 0 14 -102336 -66577
0;
#X connect 1 0 5 0;
#X connect 5 0 18 0;
#X connect 6 0 10 1;
#X connect 7 0 6 0;
#X connect 8 0 9 0;
#X connect 9 0 6 0;
#X connect 9 1 6 1;
#X connect 10 0 22 0;
#X connect 11 0 19 0;
#X connect 11 1 12 1;
#X connect 11 1 10 0;
#X connect 12 0 13 0;
#X connect 13 0 14 0;
#X connect 13 0 15 0;
#X connect 14 0 13 1;
#X connect 15 0 11 0;
#X connect 16 0 13 1;
#X connect 18 0 12 0;
#X connect 18 1 16 0;
#X connect 18 2 11 1;
#X connect 18 3 20 0;
#X connect 18 3 21 1;
#X connect 19 1 7 0;
#X connect 19 2 8 0;
#X connect 19 3 23 0;
#X connect 20 0 9 0;
#X connect 20 0 6 0;
#X connect 21 0 25 0;
#X connect 22 0 21 0;
#X connect 23 0 21 0;
#X connect 25 0 26 0;
#X connect 25 1 27 0;
#X connect 26 0 2 0;
#X connect 27 0 28 0;
#X restore 52 121 pd check_\$0___;
#X obj 138 93 canvasdollarzero 2;
#X obj 100 93 t s b;
#X obj 145 121 pack s s;
#X msg 145 144 symbol \$2\$1;
#X obj 142 346 cnv 5 5 17 empty empty empty 20 12 0 14 -260626 -66577
0;
#X obj 148 346 r \$0-rin;
#X obj 160 311 cnv 3 45 15 empty empty empty 2 7 0 10 -257985 -66577
0;
#N canvas 213 773 440 146 \$0-r 0;
#X restore 159 310 pd \$0-r;
#X obj 127 187 cnv 3 92 15 empty empty empty 2 7 0 10 -257985 -66577
0;
#N canvas 785 61 440 265 make 0;
#X obj 62 40 r \$0-remotename;
#X obj 56 40 cnv 5 5 17 empty empty empty 20 12 0 14 -260626 -66577
0;
#X obj 62 66 sel none;
#X obj 56 193 cnv 5 5 17 empty empty empty 20 12 0 14 -194593 -66577
0;
#X obj 62 193 s pd-\$0-r;
#X msg 62 171 clear;
#X obj 107 88 pack s \$0;
#X msg 107 111 clear \, obj 20 20 receive \$1-r \, obj 20 60 send \$2-rin
\, connect 0 0 1 0, f 21;
#X text 202 40 because [r] can't be set \, aaaah !;
#X connect 0 0 2 0;
#X connect 2 0 5 0;
#X connect 2 1 6 0;
#X connect 5 0 4 0;
#X connect 6 0 7 0;
#X connect 7 0 4 0;
#X restore 126 186 pd make receive;
#X text 242 277 No OL_SSS because it doesn't make sense, f 10;
#X obj 27 514 print [ol_net]:;
#X connect 0 0 4 0;
#X connect 1 0 0 0;
#X connect 1 1 31 0;
#X connect 4 0 2 0;
#X connect 6 0 8 0;
#X connect 7 0 30 0;
#X connect 9 0 7 0;
#X connect 10 0 15 0;
#X connect 10 0 28 0;
#X connect 10 0 30 1;
#X connect 15 0 16 0;
#X connect 15 1 18 0;
#X connect 16 0 19 0;
#X connect 17 0 19 0;
#X connect 18 0 17 0;
#X connect 19 0 7 1;
#X connect 19 0 6 1;
#X connect 19 0 20 0;
#X connect 22 0 24 0;
#X connect 23 0 47 0;
#X connect 24 0 23 0;
#X connect 27 0 24 1;
#X connect 31 0 4 0;
#X connect 31 1 4 0;
#X connect 31 2 37 0;
#X connect 33 0 1 0;
#X connect 35 0 2 0;
#X connect 35 1 38 0;
#X connect 36 0 38 1;
#X connect 37 0 35 0;
#X connect 37 1 36 0;
#X connect 38 0 39 0;
#X connect 39 0 2 0;
#X connect 41 0 6 0;
#X restore 698 374 pd remotename;
#X symbolatom 698 399 15 0 0 0 - - -, f 15;
#X obj 582 451 canvasargs;
#X obj 576 474 cnv 5 5 17 empty empty empty 20 12 0 14 -194593 -66577
0;
#X obj 582 474 s \$0-args;
#X obj 576 429 cnv 5 5 17 empty empty empty 20 12 0 14 -260626 -66577
0;
#X obj 582 429 r \$0-canvasargs;
#X msg 582 295 bang;
#X obj 593 271 cnv 8 50 15 empty empty empty 20 12 0 14 -3586 -66577
0;
#X text 650 264 load defaults first !, f 8;
#X obj 595 365 cnv 5 5 17 empty empty empty 20 12 0 14 -194593 -66577
0;
#X obj 601 365 s \$0-args;
#X obj 576 388 cnv 5 5 17 empty empty empty 20 12 0 14 -194593 -66577
0;
#X obj 582 388 s \$0-canvasargs;
#X obj 582 319 t b b b;
#X obj 636 319 cnv 5 5 17 empty empty empty 20 12 0 14 -194593 -66577
0;
#X obj 642 319 s \$0-lbinit;
#X msg 601 342 init;
#X obj 592 270 loadbang;
#X obj 576 243 cnv 5 5 17 empty empty empty 20 12 0 14 -260626 -66577
0;
#X obj 582 243 r ol_GUI_reinit;
#X text 581 224 force loadbang from outside;
#X obj 581 149 cnv 4 140 15 empty empty empty 20 12 0 14 -204800 -66577
0;
#X obj 580 148 text define \$0-defaults;
#X obj 699 351 cnv 13 44 15 empty empty empty 2 7 0 10 -257985 -66577
0;
#N canvas 745 80 723 671 INIT 0;
#X obj 21 24 cnv 5 5 17 empty empty empty 20 12 0 14 -260626 -66577
0;
#X obj 27 24 r \$0-args;
#X obj 20 239 cnv 5 5 17 empty empty empty 20 12 0 14 -260097 -66577
0;
#X obj 93 517 list trim;
#X obj 87 633 cnv 5 5 17 empty empty empty 20 12 0 14 -194593 -66577
0;
#X obj 93 633 s \$0-in;
#X obj 59 444 list split 1;
#X obj 109 306 cnv 5 5 17 empty empty empty 20 12 0 14 -173398 -66577
0;
#X obj 115 306 s \$0-argumentslist;
#X obj 60 395 cnv 4 62 15 empty empty empty 2 7 0 10 -257985 -66577
0;
#N canvas 0 50 334 272 achange 0;
#X obj 47 40 inlet;
#X obj 196 25 inlet;
#X text 193 4 reset;
#X text 96 231 list out;
#X obj 47 231 outlet;
#X obj 47 62 list;
#X obj 196 75 text define;
#X obj 62 205 text set -s text t;
#X msg 196 52 clear \, bang;
#X msg 239 25 bang;
#X obj 196 99 t p;
#X obj 86 132 text search -s text t;
#X obj 86 155 == -1;
#X obj 47 178 spigot;
#X obj 47 85 t l l, f 7;
#X text 40 5 anything in;
#X connect 0 0 5 0;
#X connect 1 0 8 0;
#X connect 5 0 14 0;
#X connect 6 0 10 0;
#X connect 8 0 6 0;
#X connect 9 0 8 0;
#X connect 10 0 7 3;
#X connect 10 0 11 1;
#X connect 11 0 12 0;
#X connect 12 0 13 1;
#X connect 13 0 4 0;
#X connect 13 0 7 0;
#X connect 14 0 13 0;
#X connect 14 1 11 0;
#X restore 59 394 pd achange;
#X obj 110 371 cnv 5 5 17 empty empty empty 20 12 0 14 -260626 -66577
0;
#X obj 116 371 r \$0-lbinit;
#X text 92 25 bang = defaults;
#X obj 28 49 cnv 4 122 15 empty empty empty 2 7 0 10 -257985 -66577
0;
#N canvas 127 73 782 719 prepare_arguments 0;
#X obj 27 16 inlet;
#X obj 21 16 cnv 5 5 17 empty empty empty 20 12 0 14 -118750 -66577
0;
#X obj 31 665 outlet;
#X obj 25 665 cnv 5 5 17 empty empty empty 20 12 0 14 -102336 -66577
0;
#X obj 380 676 text set \$0-defaults 0;
#X text 383 543 defaults:;
#X obj 124 592 text set \$0-defaults 0;
#X obj 27 443 t l l;
#X obj 54 481 list split 1;
#X obj 27 505 list split 1;
#X obj 124 567 list trim;
#X msg 31 613 0;
#X obj 61 528 route float;
#X obj 61 550 sel 0;
#X obj 210 663 outlet;
#X obj 204 663 cnv 5 5 17 empty empty empty 20 12 0 14 -102336 -66577
0;
#X text 210 680 bang to set extra defaults;
#X text 32 681 real arguments list;
#X obj 183 480 t b b;
#X obj 31 638 text get \$0-defaults;
#X obj 711 145 cnv 5 5 17 empty empty empty 20 12 0 14 -173398 -66577
0;
#X obj 717 145 s \$0-in;
#X obj 474 289 text set \$0-defaults 0, f 28;
#X obj 511 246 list split 1;
#X text 464 106 attributes that are also arguments will replace them
\, all others get sent to \$0-in, f 45;
#X obj 406 603 route 0;
#X obj 400 648 cnv 5 5 17 empty empty empty 20 12 0 14 -173398 -66577
0;
#X obj 406 648 s \$0-defaultslist;
#X obj 406 626 list;
#X obj 550 620 list length;
#X floatatom 550 644 5 0 0 0 - - -, f 5;
#X msg 465 168 \$1 2;
#X msg 503 168 \$1 3;
#X msg 540 168 \$1 4;
#X msg 578 168 \$1 5;
#X msg 616 168 \$1 6;
#X obj 278 40 bng 15 250 50 0 empty empty a 17 7 0 10 -262144 -1 -1
;
#X obj 137 42 bng 15 250 50 0 empty empty sym 17 7 0 10 -262144 -1
-1;
#X obj 83 42 bng 15 250 50 0 empty empty float 17 7 0 10 -262144 -1
-1;
#X obj 38 42 bng 15 250 50 0 empty empty list 17 7 0 10 -262144 -1
-1;
#X obj 28 412 cnv 3 80 15 empty empty empty 2 7 0 9 -257985 -66577
0;
#X obj 27 64 route list float symbol bang init;
#X obj 225 40 bng 15 250 50 0 empty empty init 17 7 0 10 -262144 -1
-1;
#X text 83 4 "init" just sets defaults !;
#X text 83 15 "bang" also loads them;
#X obj 28 129 cnv 3 122 15 empty empty empty 2 7 0 10 -257985 -66577
0;
#X obj 156 166 bng 15 250 50 0 empty empty empty 17 7 0 10 -262144
-1 -1;
#X obj 119 411 bng 15 250 50 0 empty empty empty 17 7 0 10 -262144
-1 -1;
#N canvas 696 50 522 608 args 0;
#X obj 85 25 inlet;
#X obj 79 25 cnv 5 5 17 empty empty empty 20 12 0 14 -118750 -66577
0;
#X obj 27 177 cnv 5 5 17 empty empty empty 20 12 0 14 -102336 -66577
0;
#X obj 85 48 list;
#X obj 227 237 list store, f 14;
#X obj 227 141 until;
#X obj 227 165 f;
#X obj 268 165 + 1;
#X msg 227 214 get \$1 1;
#X msg 268 141 0;
#X text 257 92 list drip;
#X obj 227 111 t b b l b, f 20;
#X symbolatom 316 510 10 0 0 0 - - -, f 10;
#X obj 316 524 list fromsymbol;
#X floatatom 316 541 5 0 0 0 - - -, f 5;
#X obj 33 123 list store, f 11;
#X obj 227 261 route symbol;
#X obj 227 189 t f f;
#X obj 227 285 list fromsymbol;
#X obj 227 308 route 64;
#X obj 227 362 f, f 5;
#X obj 227 338 t b;
#X obj 227 409 list store, f 14;
#X msg 227 385 append \$1;
#X obj 33 149 list split;
#X msg 227 481 999999;
#X obj 284 481 list split 1;
#X msg 129 45 0 mysymbol 7 -120 4 456 fff;
#X obj 227 456 route bang;
#X obj 84 372 list store, f 12;
#X obj 227 506 f;
#X obj 33 96 t b f;
#X obj 227 432 t l l, f 10;
#X obj 84 408 list split 1;
#X obj 84 433 list fromsymbol;
#X obj 84 457 route 64;
#X obj 84 482 list tosymbol;
#X obj 84 505 list append;
#X obj 33 178 outlet;
#X obj 167 545 outlet;
#X obj 360 254 t b b;
#X obj 161 545 cnv 5 5 17 empty empty empty 20 12 0 14 -102336 -66577
0;
#X text 28 198 args list;
#X text 153 563 attributes;
#X obj 359 73 inlet;
#X obj 353 73 cnv 5 5 17 empty empty empty 20 12 0 14 -118750 -66577
0;
#X obj 84 528 list trim;
#X obj 27 238 list store;
#X obj 27 262 route bang;
#X obj 155 249 list length, f 6;
#X obj 84 291 list append;
#X obj 8 238 bng 15 250 50 0 empty empty empty 17 7 0 10 -262144 -1
-1;
#X obj 85 71 t l l l, f 19;
#X text 353 42 bang to output attributes, f 15;
#X obj 85 315 cnv 4 92 15 empty empty empty 2 7 0 10 -257985 -66577
0;
#N canvas 0 50 323 298 drip_special 0;
#X obj 107 14 inlet;
#X obj 101 14 cnv 5 5 17 empty empty empty 20 12 0 14 -118750 -66577
0;
#X obj 69 156 list store;
#X obj 107 39 t b l b;
#X msg 69 134 get \$1 2;
#X obj 69 79 until;
#X obj 69 112 f;
#X obj 100 114 + 1;
#X msg 176 84 0, f 1;
#X obj 69 180 t l l;
#X msg 69 203 \$1;
#X msg 113 180 \$2 \$1;
#X obj 113 203 -;
#X obj 69 228 pack;
#X obj 69 252 outlet;
#X obj 63 252 cnv 5 5 17 empty empty empty 20 12 0 14 -102336 -66577
0;
#X obj 221 250 outlet;
#X obj 215 250 cnv 5 5 17 empty empty empty 20 12 0 14 -102336 -66577
0;
#X connect 0 0 3 0;
#X connect 2 0 9 0;
#X connect 2 1 5 1;
#X connect 2 1 16 0;
#X connect 3 0 5 0;
#X connect 3 1 2 1;
#X connect 3 2 8 0;
#X connect 4 0 2 0;
#X connect 5 0 6 0;
#X connect 6 0 7 0;
#X connect 6 0 4 0;
#X connect 7 0 6 1;
#X connect 8 0 6 1;
#X connect 9 0 10 0;
#X connect 9 1 11 0;
#X connect 10 0 13 0;
#X connect 11 0 12 0;
#X connect 12 0 13 1;
#X connect 13 0 14 0;
#X restore 84 314 pd drip_special;
#X text 65 5 arguments in;
#X msg 84 348 get \$1 \$2;
#X msg 129 24 0 mysymbol 7 -120 4 @size 120 30 -1 @height 45 @goplevel
2;
#X obj 440 331 outlet;
#X obj 434 331 cnv 5 5 17 empty empty empty 20 12 0 14 -102336 -66577
0;
#X text 426 349 finish bang;
#X connect 0 0 3 0;
#X connect 3 0 52 0;
#X connect 4 0 16 0;
#X connect 4 1 40 0;
#X connect 5 0 6 0;
#X connect 6 0 7 0;
#X connect 6 0 17 0;
#X connect 7 0 6 1;
#X connect 8 0 4 0;
#X connect 9 0 6 1;
#X connect 11 0 5 0;
#X connect 11 1 9 0;
#X connect 11 2 4 1;
#X connect 11 3 22 1;
#X connect 12 0 13 0;
#X connect 13 0 14 0;
#X connect 15 0 24 0;
#X connect 16 0 18 0;
#X connect 17 0 8 0;
#X connect 17 1 20 1;
#X connect 18 0 19 0;
#X connect 19 0 21 0;
#X connect 20 0 23 0;
#X connect 21 0 20 0;
#X connect 22 0 32 0;
#X connect 23 0 22 0;
#X connect 24 0 38 0;
#X connect 24 2 38 0;
#X connect 25 0 30 0;
#X connect 26 0 30 0;
#X connect 27 0 52 0;
#X connect 28 0 25 0;
#X connect 28 1 26 0;
#X connect 29 0 33 0;
#X connect 30 0 31 0;
#X connect 31 0 15 0;
#X connect 31 1 24 1;
#X connect 32 0 28 0;
#X connect 32 1 47 1;
#X connect 33 0 34 0;
#X connect 33 1 37 1;
#X connect 34 0 35 0;
#X connect 35 0 36 0;
#X connect 36 0 37 0;
#X connect 37 0 46 0;
#X connect 40 0 22 0;
#X connect 40 1 5 1;
#X connect 44 0 47 0;
#X connect 46 0 39 0;
#X connect 47 0 48 0;
#X connect 48 0 59 0;
#X connect 48 1 50 0;
#X connect 49 0 50 1;
#X connect 50 0 55 0;
#X connect 51 0 47 0;
#X connect 52 0 11 0;
#X connect 52 1 29 1;
#X connect 52 1 15 1;
#X connect 52 2 49 0;
#X connect 55 0 57 0;
#X connect 55 1 59 0;
#X connect 57 0 29 0;
#X connect 58 0 52 0;
#X restore 27 128 pd args & attributes;
#X text 139 402 listfunnel finish, f 10;
#X text 176 156 attributes sent, f 10;
#X obj 178 41 bng 15 250 50 0 empty empty bang 17 7 0 10 -262144 -1
-1;
#X obj 27 101 list prepend 0;
#X obj 27 160 t l l;
#X obj 74 160 list length;
#X obj 27 185 spigot;
#X obj 74 185 > 1;
#X obj 74 209 sel 0;
#X text 118 194 if list is only one element \, it must be 0 \, so only
attributes are being sent, f 28;
#X obj 27 245 list split 1;
#X obj 27 357 list, f 17;
#X obj 104 269 list split 1, f 38;
#X obj 61 269 t l l;
#X obj 27 381 list, f 32;
#X obj 104 317 list prepend none;
#X obj 9 36 cnv 3 3 400 empty empty empty 20 12 0 14 -159808 -66577
0;
#N canvas 0 50 441 281 listfunnel 0;
#X obj 20 17 inlet;
#X obj 28 224 outlet;
#X obj 90 246 outlet;
#X text 135 244 signal end of list;
#X text 14 205 list items;
#X obj 242 190 f;
#X obj 269 190 + 1;
#X obj 138 63 route symbol float;
#X obj 138 113 t s b;
#X obj 190 89 t f b;
#X obj 138 140 list prepend symbol, f 8;
#X obj 14 17 cnv 5 5 17 empty empty empty 20 12 0 14 -118750 -66577
0;
#X obj 22 224 cnv 5 5 17 empty empty empty 20 12 0 14 -102336 -66577
0;
#X obj 84 246 cnv 5 5 17 empty empty empty 20 12 0 14 -102336 -66577
0;
#X obj 272 125 inlet;
#X obj 266 125 cnv 5 5 17 empty empty empty 20 12 0 14 -118750 -66577
0;
#X obj 21 170 list store, f 12;
#X obj 21 86 until;
#X obj 21 115 f;
#X obj 51 115 + 1;
#X msg 21 142 get \$1 1;
#X obj 64 86 0;
#X obj 21 62 t b b a, f 12;
#X obj 20 39 t a b, f 40;
#X obj 138 207 list prepend;
#X obj 90 193 t b b;
#X text 286 147 leading number, f 11;
#X text 273 86 index 1 = remote name, f 20;
#X obj 257 155 f 0;
#X connect 0 0 23 0;
#X connect 5 0 6 0;
#X connect 5 0 24 1;
#X connect 6 0 5 1;
#X connect 7 0 8 0;
#X connect 7 1 9 0;
#X connect 8 0 10 0;
#X connect 8 1 5 0;
#X connect 9 0 24 0;
#X connect 9 1 5 0;
#X connect 10 0 24 0;
#X connect 14 0 28 1;
#X connect 16 0 7 0;
#X connect 16 1 25 0;
#X connect 17 0 18 0;
#X connect 18 0 20 0;
#X connect 18 0 19 0;
#X connect 19 0 18 1;
#X connect 20 0 16 0;
#X connect 21 0 18 1;
#X connect 22 0 17 0;
#X connect 22 1 21 0;
#X connect 22 2 16 1;
#X connect 23 0 22 0;
#X connect 23 1 28 0;
#X connect 24 0 1 0;
#X connect 25 0 2 0;
#X connect 25 1 17 1;
#X connect 28 0 5 1;
#X restore 27 411 pd listfunnel;
#X obj 465 145 route protocol ip in out timestamp name;
#X obj 144 441 t b b;
#X text 346 222 if arguments first element is a float \, assume no
name. (attribute can still be the name), f 19;
#X msg 657 207 \$1 1;
#X obj 657 183 l2s;
#X obj 654 170 cnv 3 30 3 empty empty empty 20 12 0 14 -159808 -66577
0;
#X text 656 224 name;
#X obj 104 293 route float symbol, f 42;
#X text 452 315 <--- special case here: if symbol is anything else
but "OSC TCP TCP-b UDP UDP-b" \, it is the remote name, f 41;
#X obj 228 316 sel OSC TCP TCP-b UDP UDP-b;
#X msg 250 360 0;
#X msg 279 360 1;
#X msg 308 360 2;
#X msg 337 360 3;
#X msg 366 360 4;
#X obj 279 394 f;
#X msg 380 565 0 none 0 0 4444 5555 0 0, f 39;
#X connect 0 0 41 0;
#X connect 7 0 9 0;
#X connect 7 1 8 0;
#X connect 8 0 6 2;
#X connect 9 1 12 0;
#X connect 10 0 6 0;
#X connect 11 0 19 0;
#X connect 12 0 13 0;
#X connect 12 1 10 0;
#X connect 13 1 10 0;
#X connect 18 0 83 0;
#X connect 18 1 14 0;
#X connect 19 0 2 0;
#X connect 23 0 22 0;
#X connect 23 1 22 2;
#X connect 25 0 28 0;
#X connect 25 0 29 0;
#X connect 28 0 27 0;
#X connect 29 0 30 0;
#X connect 31 0 23 0;
#X connect 32 0 23 0;
#X connect 33 0 23 0;
#X connect 34 0 23 0;
#X connect 35 0 23 0;
#X connect 41 0 39 0;
#X connect 41 0 52 0;
#X connect 41 1 38 0;
#X connect 41 1 52 0;
#X connect 41 2 37 0;
#X connect 41 2 52 0;
#X connect 41 3 51 0;
#X connect 41 3 68 0;
#X connect 41 4 42 0;
#X connect 41 4 18 0;
#X connect 41 5 52 0;
#X connect 41 5 36 0;
#X connect 48 0 53 0;
#X connect 48 1 67 0;
#X connect 48 2 46 0;
#X connect 48 2 11 0;
#X connect 52 0 48 0;
#X connect 53 0 55 0;
#X connect 53 1 54 0;
#X connect 54 0 56 0;
#X connect 55 0 59 0;
#X connect 56 0 55 1;
#X connect 56 0 57 0;
#X connect 57 0 48 1;
#X connect 59 0 60 0;
#X connect 59 1 62 0;
#X connect 60 0 63 0;
#X connect 61 0 74 0;
#X connect 61 1 63 1;
#X connect 62 1 61 0;
#X connect 63 0 66 0;
#X connect 64 0 60 1;
#X connect 66 0 7 0;
#X connect 66 1 48 1;
#X connect 66 1 47 0;
#X connect 67 0 31 0;
#X connect 67 1 32 0;
#X connect 67 2 33 0;
#X connect 67 3 34 0;
#X connect 67 4 35 0;
#X connect 67 5 71 0;
#X connect 67 6 21 0;
#X connect 68 0 11 0;
#X connect 68 1 18 0;
#X connect 70 0 23 0;
#X connect 71 0 70 0;
#X connect 74 0 64 0;
#X connect 74 1 76 0;
#X connect 76 0 77 0;
#X connect 76 1 78 0;
#X connect 76 2 79 0;
#X connect 76 3 80 0;
#X connect 76 4 81 0;
#X connect 76 5 60 1;
#X connect 77 0 82 0;
#X connect 78 0 82 0;
#X connect 79 0 82 0;
#X connect 80 0 82 0;
#X connect 81 0 82 0;
#X connect 82 0 64 0;
#X connect 83 0 4 0;
#X connect 83 0 25 0;
#X restore 27 48 pd prepare_arguments;
#X obj 61 117 list split 1;
#X obj 55 140 cnv 5 5 17 empty empty empty 20 12 0 14 -173398 -66577
0;
#X obj 61 140 s \$0-arg1;
#X obj 27 72 list split 1;
#X obj 25 239 r \$0-remotename;
#X text 106 324 final list of arguments;
#X text 78 348 DISTRIBUTE ARGUMENTS:;
#X obj 59 420 t l b;
#X obj 61 94 t l l, f 7;
#X obj 25 260 t b;
#X obj 25 283 list store, f 13;
#X text 48 157 first: take care of remote name, f 16;
#X text 53 259 then do the rest;
#X obj 25 306 t b l l, f 12;
#X obj 198 25 cnv 10 200 100 empty empty GOP 140 17 1 20 -204786 -4160
0;
#X obj 213 35 r \$0-GOP;
#X obj 207 35 cnv 5 5 17 empty empty empty 20 12 0 14 -260097 -66577
0;
#X obj 207 99 cnv 5 5 17 empty empty empty 20 12 0 14 -173398 -66577
0;
#X msg 213 60 donecanvasdialog 1 -1 3 0 -1 1 1 \$1 \$2 0 0 \, dirty
0, f 28;
#X obj 139 411 print \$0_NET_ARGS;
#X text 208 131 1.) remote name (0 / none);
#X obj 213 99 s \$0-ol_net;
#X text 421 25 PROTOCOLS:;
#X text 421 42 0 = OSC (UDP);
#X text 421 58 1 = TCP;
#X text 421 73 2 = TCP binary;
#X text 421 90 3 = UDP;
#X text 421 105 4 = UDP binary;
#X obj 288 253 operating_system, f 17;
#X obj 288 274 select windows macos linux;
#X msg 288 295 0;
#X msg 337 295 1;
#X msg 387 295 2;
#X obj 337 320 s \$0-OS;
#X obj 331 320 cnv 5 5 17 empty empty empty 20 12 0 14 -194593 -66577
0;
#X obj 164 255 print zzzzzz;
#X obj 165 277 print ppppp;
#X text 208 145 2.) protocol (OSC / float \, symbol);
#X text 208 174 4.) in-port (4444);
#X text 208 189 5.) out-port (5555);
#X text 208 160 3.) IP-address (localhost / symbol);
#X obj 93 493 list prepend set;
#X obj 93 468 list split 4;
#X obj 373 432 time, f 10;
#X obj 373 410 metro 1000;
#X obj 373 390 tgl 15 0 empty empty empty 17 7 0 10 -262144 -1 -1 1
1;
#X obj 358 625 cnv 5 5 17 empty empty empty 20 12 0 14 -194593 -66577
0;
#X obj 364 625 s \$0-msgin;
#X obj 364 601 list trim;
#X obj 159 567 pipe 1000;
#X obj 485 368 cnv 5 5 17 empty empty empty 20 12 0 14 -260626 -66577
0;
#X obj 491 368 r \$0-prot;
#X obj 312 457 makefilename %02d, f 12;
#X obj 392 457 makefilename %02d, f 12;
#X obj 472 457 makefilename %02d, f 12;
#X obj 364 517 l2s :;
#X obj 364 494 pack s s s;
#X obj 364 541 demux, f 17;
#X obj 364 565 list prepend timestamp, f 13;
#X obj 491 390 == 0;
#X obj 504 426 tgl 15 0 empty empty empty 17 7 0 10 -262144 -1 -1 0
1;
#X obj 463 565 oscformat timestamp;
#X obj 463 588 list prepend send;
#X obj 463 611 list trim;
#X obj 463 633 s \$0-send-in;
#X obj 457 633 cnv 5 5 17 empty empty empty 20 12 0 14 -194593 -66577
0;
#X text 500 542 OSC:;
#X obj 367 367 cnv 5 5 17 empty empty empty 20 12 0 14 -260626 -66577
0;
#X obj 373 367 r \$0-timestamp;
#X msg 159 590 timestamp \$1;
#X text 208 204 6.) send timestamp (0);
#X text 208 219 7.) use direct oscformat (0);
#X obj 159 542 list split 1;
#X obj 245 542 list split 1;
#X msg 245 590 oscformat \$1;
#X connect 1 0 15 0;
#X connect 3 0 5 0;
#X connect 6 1 58 0;
#X connect 10 0 23 0;
#X connect 12 0 10 1;
#X connect 15 0 19 0;
#X connect 15 1 44 0;
#X connect 16 0 18 0;
#X connect 19 1 24 0;
#X connect 20 0 25 0;
#X connect 23 0 6 0;
#X connect 24 0 16 0;
#X connect 24 1 26 1;
#X connect 25 0 26 0;
#X connect 26 0 29 0;
#X connect 29 1 10 0;
#X connect 29 2 8 0;
#X connect 31 0 34 0;
#X connect 34 0 37 0;
#X connect 44 0 45 0;
#X connect 45 0 46 0;
#X connect 45 1 47 0;
#X connect 45 2 48 0;
#X connect 46 0 49 0;
#X connect 47 0 49 0;
#X connect 48 0 49 0;
#X connect 57 0 3 0;
#X connect 58 0 57 0;
#X connect 58 1 88 0;
#X connect 59 0 68 0;
#X connect 59 1 69 0;
#X connect 59 2 70 0;
#X connect 60 0 59 0;
#X connect 61 0 60 0;
#X connect 64 0 63 0;
#X connect 65 0 85 0;
#X connect 67 0 75 0;
#X connect 68 0 72 0;
#X connect 69 0 72 1;
#X connect 70 0 72 2;
#X connect 71 0 73 0;
#X connect 72 0 71 0;
#X connect 73 0 74 0;
#X connect 73 1 77 0;
#X connect 74 0 64 0;
#X connect 75 0 73 1;
#X connect 75 0 76 0;
#X connect 77 0 78 0;
#X connect 78 0 79 0;
#X connect 79 0 80 0;
#X connect 84 0 61 0;
#X connect 85 0 5 0;
#X connect 88 0 65 0;
#X connect 88 1 89 0;
#X connect 89 0 90 0;
#X connect 90 0 5 0;
#X restore 698 350 pd INIT;
#X obj 580 10 cnv 10 160 20 empty empty needs IEMGUTS ZEXY 7 11 0
14 -4160 -262144 0;
#X obj 581 41 cnv 14 230 15 empty empty empty 2 2 0 9 -253181 -66577
0;
#X obj 581 126 cnv 8 122 15 empty empty empty 20 12 0 14 -233024 -66577
0;
#X obj 580 40 declare -stdpath iemguts -path iemguts;
#X obj 581 58 cnv 14 230 15 empty empty empty 2 2 0 9 -253181 -66577
0;
#X obj 580 57 declare -stdlib zexy -lib zexy, f 38;
#X obj 580 125 namecanvas \$0-ol_net;
#X obj 20 141 inlet;
#X obj 67 51 cnv 3 68 15 empty empty empty 2 7 0 9 -257985 -66577 0
;
#N canvas 60 146 1201 792 messages 0;
#X obj 30 16 inlet;
#X obj 24 16 cnv 5 5 17 empty empty empty 20 12 0 14 -118750 -66577
0;
#X obj 30 350 route float;
#X msg 93 397 0;
#X msg 127 397 1;
#X msg 161 397 2;
#X msg 195 397 3;
#X msg 229 397 4;
#X obj 30 374 clip 0 4;
#X obj 93 374 route OSC TCP TCP-b UDP UDP-b;
#X obj 208 721 cnv 5 5 17 empty empty empty 20 12 0 14 -194593 -66577
0;
#X msg 96 22 protocol OSC;
#X obj 214 648 f \$0;
#X obj 106 632 cnv 5 5 17 empty empty empty 20 12 0 14 -194593 -66577
0;
#X obj 112 493 sel 0 1 2 3 4, f 22;
#X msg 186 22 protocol UDP-b;
#X obj 214 721 s pd-\$0-send;
#X obj 112 632 s pd-\$0-send;
#X obj 34 532 cnv 5 5 17 empty empty empty 20 12 0 14 -194593 -66577
0;
#X obj 40 532 s \$0-prot;
#X obj 548 106 list split 1;
#X obj 548 132 list prepend protocol, f 13;
#X obj 548 226 list store;
#X obj 548 171 t b l;
#X obj 583 277 cnv 5 5 17 empty empty empty 20 12 0 14 -194593 -66577
0;
#X obj 589 277 s \$0-in;
#X obj 589 171 list trim;
#X msg 424 234 protocol \$1;
#X obj 424 210 t b b;
#X obj 418 259 cnv 5 5 17 empty empty empty 20 12 0 14 -194593 -66577
0;
#X obj 424 259 s \$0-in;
#X obj 428 69 list prepend protocol;
#X obj 455 126 list trim;
#X obj 428 92 t b l;
#X msg 214 671 clear \, obj 10 10 r \$1-send-in \, obj 10 120 s \$1-in-state
, f 19;
#X obj 121 207 t f b;
#X obj 162 324 cnv 5 5 17 empty empty empty 20 12 0 14 -194593 -66577
0;
#X msg 168 207 disconnect;
#X obj 121 260 sel 0;
#X obj 168 324 s \$0-send-in;
#X obj 575 456 s \$0-inport-1-r;
#X obj 569 456 cnv 5 5 17 empty empty empty 20 12 0 14 -194593 -66577
0;
#X obj 121 104 route float list;
#X obj 121 70 list;
#X msg 178 299 connect \$2 \$1;
#X obj 178 277 pack 0 s;
#X obj 223 255 l2s;
#X obj 121 129 t f b;
#X msg 213 231 localhost;
#X obj 167 130 list;
#X obj 213 130 list split 1;
#X obj 167 152 t l l;
#X msg 167 180 \$2;
#X obj 386 374 r \$0-out-1;
#X obj 386 397 t b;
#X obj 386 421 symbol;
#X obj 386 465 print IP-address OUT;
#X obj 386 443 list trim;
#X msg 291 22 in 9999 \, out 9998;
#X msg 464 22 out 169.254.34.130 5555;
#X obj 93 422 f, f 4;
#X obj 93 445 change;
#X obj 93 468 t f f b;
#X obj 380 374 cnv 5 5 17 empty empty empty 20 12 0 14 -260626 -66577
0;
#X msg 294 428 set -1;
#X obj 193 649 bng 15 250 50 0 empty empty empty 17 7 0 10 -262144
-1 -1;
#X obj 548 198 del 100;
#X msg 548 249 out \$1 \$2 \, in \$3;
#X obj 288 374 cnv 5 5 17 empty empty empty 20 12 0 14 -260626 -66577
0;
#X obj 294 374 r \$0-lbinit;
#X obj 213 154 route float;
#X obj 213 176 t b;
#X obj 121 236 pipe 100;
#X text 127 53 out;
#X text 227 53 in;
#X obj 102 152 max 1000;
#X obj 316 74 route float, f 6;
#X obj 621 66 cnv 5 5 17 empty empty empty 20 12 0 14 -194593 -66577
0;
#X obj 627 66 s \$0-msgin;
#X obj 45 70 list store, f 11;
#X obj 316 110 max 1000;
#X obj 316 145 f;
#X text 731 68 reconnect;
#X obj 170 467 bng 15 250 50 0 empty empty empty 17 7 0 10 -262144
-1 -1;
#X obj 726 225 t b;
#X obj 726 91 route out in bang;
#X obj 575 410 makefilename %d;
#X msg 575 384 0;
#X msg 575 432 label \$1;
#X obj 679 455 cnv 5 5 17 empty empty empty 20 12 0 14 -194593 -66577
0;
#X obj 685 409 makefilename %d;
#X msg 685 383 0;
#X msg 685 431 label \$1;
#X obj 685 455 s \$0-outport-1-r;
#X obj 316 168 change;
#X obj 317 192 cnv 4 92 15 empty empty empty 2 7 0 10 -257985 -66577
0;
#N canvas 882 532 391 244 speedlim 0;
#X obj 42 13 inlet;
#X obj 42 213 outlet;
#X obj 184 12 inlet;
#X obj 36 13 cnv 5 5 17 empty empty empty 20 12 0 14 -118750 -66577
0;
#X obj 36 213 cnv 5 5 17 empty empty empty 20 12 0 14 -102336 -66577
0;
#X obj 178 12 cnv 5 5 17 empty empty empty 20 12 0 14 -118750 -66577
0;
#X msg 155 131 0;
#X msg 42 136 1;
#X obj 42 69 spigot 1;
#X obj 116 69 == 0;
#X obj 184 73 f;
#X obj 42 36 t b b a, f 19;
#X obj 42 190 list store;
#X obj 297 9 loadbang;
#X msg 297 32 500;
#X text 221 32 init here !;
#X obj 155 108 delay, f 6;
#X obj 42 167 metro;
#X connect 0 0 11 0;
#X connect 2 0 10 0;
#X connect 6 0 9 0;
#X connect 6 0 17 0;
#X connect 7 0 9 0;
#X connect 7 0 17 0;
#X connect 8 0 7 0;
#X connect 9 0 8 1;
#X connect 10 0 16 1;
#X connect 10 0 17 1;
#X connect 11 0 8 0;
#X connect 11 1 16 0;
#X connect 11 2 12 1;
#X connect 12 0 1 0;
#X connect 13 0 14 0;
#X connect 14 0 10 0;
#X connect 16 0 6 0;
#X connect 17 0 12 0;
#X restore 316 191 pd speedlim 500;
#X obj 605 747 cnv 5 5 17 empty empty empty 20 12 0 14 -194593 -66577
0;
#X obj 611 747 s pd-\$0-receive;
#X msg 137 544 obj 10 40 netsend \, connect 0 0 2 0 \, connect 2 0
1 0;
#X msg 163 569 obj 10 40 netsend -b \, connect 0 0 2 0 \, connect 2
0 1 0;
#X msg 189 592 obj 10 40 netsend -u \, connect 0 0 2 0 \, connect 2
0 1 0, f 55;
#X msg 215 615 obj 10 40 netsend -u -b \, connect 0 0 2 0 \, connect
2 0 1 0, f 58;
#X obj 611 588 demux 0 1 2 3 4;
#X obj 692 562 cnv 5 5 17 empty empty empty 20 12 0 14 -260626 -66577
0;
#X obj 698 562 r \$0-prot;
#X floatatom 716 588 5 0 0 0 - - -, f 5;
#X obj 316 221 pipe 200;
#X obj 611 564 t f b;
#X msg 638 717 clear \, obj 10 120 s \$1-receive-out;
#X obj 638 694 \$0;
#X msg 611 613 obj 10 20 netreceive -u -b \$1 \, connect 1 0 0 0;
#X msg 632 635 obj 10 20 netreceive \$1 \, connect 1 0 0 0;
#X msg 654 655 obj 10 20 netreceive -b \$1 \, connect 1 0 0 0;
#X msg 676 675 obj 10 20 netreceive -u \$1 \, connect 1 0 0 0;
#X msg 698 695 obj 10 20 netreceive -u -b \$1 \, connect 1 0 0 0;
#X obj 126 299 bng 15 250 50 0 empty empty empty 17 7 0 10 -262144
-1 -1;
#X obj 316 248 t b f;
#X obj 316 274 del 500;
#X text 315 294 re-connect;
#X obj 759 255 t b b;
#X msg 786 278 set -1;
#X obj 405 681 cnv 5 5 17 empty empty empty 20 12 0 14 -260626 -66577
0;
#X obj 411 681 r \$0-lbinit;
#X msg 411 704 clear;
#X obj 845 145 inlet;
#X obj 839 145 cnv 5 5 17 empty empty empty 20 12 0 14 -118750 -66577
0;
#X text 831 123 reconnect;
#X obj 822 247 print [ol_net];
#X obj 817 180 t b b;
#X msg 822 221 RE-CONNECTING;
#X msg 729 343 out 4444;
#X msg 112 519 obj 10 40 netsend -u -b \, connect 0 0 2 0 \, connect
2 0 1 0, f 58;
#X obj 925 67 route float;
#X obj 925 91 clip 0 1;
#X obj 919 115 cnv 5 5 17 empty empty empty 20 12 0 14 -194593 -66577
0;
#X obj 925 115 s \$0-timestamp;
#X obj 30 39 route protocol out in float symbol set send reconnect
bang timestamp oscformat, f 183;
#X obj 938 172 route float;
#X obj 938 196 clip 0 1;
#X obj 932 220 cnv 5 5 17 empty empty empty 20 12 0 14 -194593 -66577
0;
#X obj 938 220 s \$0-oscformat;
#X connect 0 0 137 0;
#X connect 2 0 8 0;
#X connect 2 1 9 0;
#X connect 3 0 60 0;
#X connect 4 0 60 0;
#X connect 5 0 60 0;
#X connect 6 0 60 0;
#X connect 7 0 60 0;
#X connect 8 0 60 0;
#X connect 9 0 3 0;
#X connect 9 1 4 0;
#X connect 9 2 5 0;
#X connect 9 3 6 0;
#X connect 9 4 7 0;
#X connect 11 0 137 0;
#X connect 12 0 34 0;
#X connect 14 0 132 0;
#X connect 14 1 99 0;
#X connect 14 2 100 0;
#X connect 14 3 101 0;
#X connect 14 4 102 0;
#X connect 15 0 137 0;
#X connect 20 0 21 0;
#X connect 20 1 22 1;
#X connect 21 0 23 0;
#X connect 22 0 67 0;
#X connect 23 0 66 0;
#X connect 23 1 26 0;
#X connect 26 0 25 0;
#X connect 27 0 30 0;
#X connect 28 0 27 0;
#X connect 28 1 87 0;
#X connect 28 1 91 0;
#X connect 31 0 33 0;
#X connect 32 0 30 0;
#X connect 33 0 87 0;
#X connect 33 1 32 0;
#X connect 34 0 16 0;
#X connect 35 0 72 0;
#X connect 35 1 37 0;
#X connect 37 0 39 0;
#X connect 38 0 87 0;
#X connect 38 1 45 0;
#X connect 42 0 47 0;
#X connect 42 1 49 0;
#X connect 43 0 42 0;
#X connect 43 0 79 1;
#X connect 44 0 39 0;
#X connect 45 0 44 0;
#X connect 46 0 45 1;
#X connect 46 0 55 1;
#X connect 47 0 75 0;
#X connect 47 1 48 0;
#X connect 48 0 46 0;
#X connect 49 0 51 0;
#X connect 50 0 70 0;
#X connect 51 0 52 0;
#X connect 51 1 50 0;
#X connect 52 0 35 0;
#X connect 53 0 54 0;
#X connect 54 0 55 0;
#X connect 55 0 57 0;
#X connect 57 0 56 0;
#X connect 58 0 137 0;
#X connect 59 0 137 0;
#X connect 60 0 61 0;
#X connect 61 0 62 0;
#X connect 62 0 19 0;
#X connect 62 1 14 0;
#X connect 62 2 12 0;
#X connect 62 2 83 0;
#X connect 64 0 61 0;
#X connect 65 0 12 0;
#X connect 66 0 22 0;
#X connect 67 0 25 0;
#X connect 69 0 64 0;
#X connect 70 0 71 0;
#X connect 70 1 46 0;
#X connect 71 0 48 0;
#X connect 72 0 38 0;
#X connect 72 0 86 0;
#X connect 75 0 35 0;
#X connect 76 0 80 0;
#X connect 79 0 42 0;
#X connect 80 0 81 0;
#X connect 81 0 94 0;
#X connect 84 0 79 0;
#X connect 85 0 84 0;
#X connect 85 1 120 0;
#X connect 85 2 84 0;
#X connect 85 2 120 0;
#X connect 86 0 88 0;
#X connect 87 0 86 0;
#X connect 88 0 40 0;
#X connect 90 0 92 0;
#X connect 91 0 90 0;
#X connect 92 0 93 0;
#X connect 94 0 96 0;
#X connect 96 0 107 0;
#X connect 99 0 17 0;
#X connect 100 0 17 0;
#X connect 101 0 17 0;
#X connect 102 0 17 0;
#X connect 103 0 111 0;
#X connect 103 1 112 0;
#X connect 103 2 113 0;
#X connect 103 3 114 0;
#X connect 103 4 115 0;
#X connect 105 0 103 1;
#X connect 105 0 106 0;
#X connect 107 0 90 0;
#X connect 107 0 117 0;
#X connect 108 0 103 0;
#X connect 108 1 110 0;
#X connect 109 0 98 0;
#X connect 110 0 109 0;
#X connect 111 0 98 0;
#X connect 112 0 98 0;
#X connect 113 0 98 0;
#X connect 114 0 98 0;
#X connect 115 0 98 0;
#X connect 116 0 45 0;
#X connect 117 0 118 0;
#X connect 117 1 108 0;
#X connect 118 0 79 0;
#X connect 120 0 81 0;
#X connect 120 1 121 0;
#X connect 121 0 94 0;
#X connect 123 0 124 0;
#X connect 124 0 16 0;
#X connect 124 0 98 0;
#X connect 125 0 129 0;
#X connect 129 0 120 0;
#X connect 129 1 130 0;
#X connect 130 0 128 0;
#X connect 131 0 25 0;
#X connect 132 0 17 0;
#X connect 133 0 134 0;
#X connect 134 0 136 0;
#X connect 137 0 2 0;
#X connect 137 1 43 0;
#X connect 137 2 76 0;
#X connect 137 3 28 0;
#X connect 137 4 31 0;
#X connect 137 5 20 0;
#X connect 137 6 78 0;
#X connect 137 7 85 0;
#X connect 137 8 129 0;
#X connect 137 9 133 0;
#X connect 137 10 138 0;
#X connect 138 0 139 0;
#X connect 139 0 141 0;
#X restore 66 50 pd messages;
#X obj 104 6 cnv 5 5 17 empty empty empty 20 12 0 14 -260626 -66577
0;
#X obj 110 6 r \$0-in;
#X obj 14 141 cnv 5 5 17 empty empty empty 20 12 0 14 -118750 -66577
0;
#X obj 178 6 inlet;
#X obj 172 6 cnv 5 5 17 empty empty empty 20 12 0 14 -118750 -66577
0;
#X obj 251 164 cnv 3 61 15 empty empty empty 2 7 0 9 -257985 -66577
0;
#X obj 251 186 cnv 3 80 15 empty empty empty 2 7 0 9 -257985 -66577
0;
#N canvas 2 302 339 156 \$0-send 0;
#X obj 10 10 r 1243-send-in;
#X obj 10 120 s 1243-in-state;
#X obj 10 40 netsend;
#X connect 0 0 2 0;
#X connect 2 0 1 0;
#X restore 250 163 pd \$0-send;
#N canvas 56 836 337 157 \$0-receive 0;
#X obj 10 120 s 1243-receive-out;
#X obj 10 20 netreceive 7778;
#X connect 1 0 0 0;
#X restore 250 185 pd \$0-receive;
#X obj 249 238 cnv 5 5 17 empty empty empty 20 12 0 14 -260626 -66577
0;
#X obj 255 238 r \$0-prot;
#X obj 380 236 cnv 5 5 17 empty empty empty 20 12 0 14 -260626 -66577
0;
#X obj 386 236 r \$0-in-state;
#X obj 386 258 sel 0 1;
#X msg 411 283 19;
#X msg 377 283 21;
#X obj 398 356 s \$0-in-cnv-1-r;
#X obj 255 259 sel 0 1 2 3 4;
#X obj 398 311 pack;
#X obj 268 350 s \$0-in-cnv-1-r;
#X msg 268 328 label \$1;
#X obj 474 236 cnv 5 5 17 empty empty empty 20 12 0 14 -260626 -66577
0;
#X obj 480 236 r \$0-prot;
#X obj 480 263 sel 2 4;
#X obj 533 263 t b;
#X msg 489 294 18;
#X msg 533 294 22;
#X obj 268 306 symbol;
#X msg 250 283 OSC;
#X msg 280 283 TCP;
#X msg 309 283 UDP;
#X obj 395 58 demux 0 1 2 3 4, f 19;
#X obj 500 31 cnv 5 5 17 empty empty empty 20 12 0 14 -260626 -66577
0;
#X obj 506 31 r \$0-prot;
#X obj 249 81 outlet;
#X obj 472 189 cnv 5 5 17 empty empty empty 20 12 0 14 -194593 -66577
0;
#X obj 478 189 s \$0-out;
#X obj 243 6 cnv 5 5 17 empty empty empty 20 12 0 14 -260626 -66577
0;
#X obj 249 6 r \$0-out;
#X obj 506 87 fudiparse;
#X obj 414 134 cnv 3 80 15 empty empty empty 2 7 0 9 -257985 -66577
0;
#N canvas 740 321 456 417 TCP_binary 0;
#X obj 75 29 inlet;
#X obj 166 236 list tosymbol;
#X obj 166 303 list trim;
#X obj 166 282 s2l;
#X obj 166 259 list;
#X obj 254 21 r \$0-OS;
#X obj 75 51 demux 0 1 2, f 26;
#X text 323 11 0 = win;
#X text 323 23 1 = mac;
#X text 323 36 2 = lin;
#X floatatom 270 51 5 0 0 0 - - -, f 5;
#X obj 166 214 list store;
#X msg 194 172 append \$1;
#X msg 75 97 1, f 1;
#X msg 100 97 1, f 1;
#X obj 80 119 &&;
#X obj 80 141 sel 1;
#X msg 80 196 0, f 2;
#X obj 75 74 sel 10 13;
#X obj 164 74 sel 10;
#X obj 254 74 sel 10;
#X text 306 74 --- not sure ...;
#X obj 69 29 cnv 5 5 17 empty empty empty 20 12 0 14 -118750 -66577
0;
#X obj 80 172 t b b;
#X obj 134 172 t b b;
#X obj 166 334 outlet;
#X obj 160 334 cnv 5 5 17 empty empty empty 20 12 0 14 -102336 -66577
0;
#X connect 0 0 6 0;
#X connect 1 0 4 0;
#X connect 2 0 25 0;
#X connect 3 0 2 0;
#X connect 4 0 3 0;
#X connect 5 0 6 1;
#X connect 5 0 10 0;
#X connect 6 0 18 0;
#X connect 6 1 19 0;
#X connect 6 2 20 0;
#X connect 11 0 1 0;
#X connect 12 0 11 0;
#X connect 13 0 15 0;
#X connect 14 0 15 1;
#X connect 15 0 16 0;
#X connect 16 0 23 0;
#X connect 17 0 15 1;
#X connect 18 0 13 0;
#X connect 18 1 14 0;
#X connect 18 2 12 0;
#X connect 19 0 24 0;
#X connect 19 1 12 0;
#X connect 20 0 24 0;
#X connect 20 1 12 0;
#X connect 23 0 17 0;
#X connect 23 1 24 0;
#X connect 24 0 11 1;
#X connect 24 1 11 0;
#X restore 413 132 pd TCP_binary;
#X obj 20 196 demux 0 1 2 3 4;
#X obj 101 174 cnv 5 5 17 empty empty empty 20 12 0 14 -260626 -66577
0;
#X obj 107 174 r \$0-prot;
#X floatatom 125 199 5 0 0 0 - - -, f 5;
#X obj 177 471 s \$0-send-in;
#X obj 171 471 cnv 5 5 17 empty empty empty 20 12 0 14 -194593 -66577
0;
#X obj 63 241 list fromsymbol;
#X obj 63 264 list 13 10;
#X obj 63 219 l2s;
#X obj 177 448 list trim;
#X obj 177 413 list prepend send, f 13;
#X obj 107 219 fudiformat;
#X obj 434 453 s \$0-in-cnv-1-r;
#X obj 434 476 s \$0-out-cnv-1-r;
#X msg 434 429 size 1 \, vis_size 8 1;
#X floatatom 528 60 5 0 0 0 - - -, f 5;
#X obj 318 5 r \$0-receive-out;
#X obj 243 81 cnv 5 5 17 empty empty empty 20 12 0 14 -102336 -66577
0;
#X msg 398 334 color \$1 \$1 \$2;
#X obj 698 429 propertybang;
#X obj 699 454 cnv 5 92 15 empty empty empty 2 7 0 10 -257985 -66577
0;
#N canvas 519 349 1096 580 propertyguts 0;
#X obj 550 131 s pd-\$0-properties;
#X obj 544 131 cnv 5 5 17 empty empty empty 20 12 0 14 -194593 -66577
0;
#X obj 523 42 t b b;
#X obj 524 545 s pd-\$0-properties;
#X obj 518 545 cnv 5 5 17 empty empty empty 20 12 0 14 -194593 -66577
0;
#X obj 517 17 cnv 5 5 17 empty empty empty 20 12 0 14 -118750 -66577
0;
#X obj 523 17 inlet;
#X obj 524 390 r \$0-properties_cancel;
#X obj 518 390 cnv 5 5 17 empty empty empty 20 12 0 14 -260626 -66577
0;
#X obj 65 28 cnv 5 5 17 empty empty empty 20 12 0 14 -260626 -66577
0;
#X obj 71 28 r \$0-properties_apply;
#X obj 574 160 cnv 5 5 17 empty empty empty 20 12 0 14 -260626 -66577
0;
#X obj 580 160 r \$0-argumentslist;
#X obj 523 184 list store;
#X obj 517 346 cnv 5 5 17 empty empty empty 20 12 0 14 -194593 -66577
0;
#X obj 523 346 s \$0-prop_name-r;
#X obj 523 210 list split 1;
#X obj 523 236 route symbol;
#X obj 539 262 t b;
#X msg 539 284 symbol none;
#X obj 745 142 cnv 5 5 17 empty empty empty 20 12 0 14 -260626 -66577
0;
#X obj 751 167 t b b;
#X obj 751 142 r \$0-properties_def;
#X obj 791 167 cnv 5 5 17 empty empty empty 20 12 0 14 -194593 -66577
0;
#X obj 797 167 s \$0-args;
#X obj 219 12 cnv 5 5 17 empty empty empty 20 12 0 14 -260626 -66577
0;
#X obj 225 12 r \$0-properties_autoapply;
#X obj 131 389 cnv 5 5 17 empty empty empty 20 12 0 14 -260626 -66577
0;
#X obj 137 389 r \$0-prop_name;
#X obj 71 460 list prepend, f 15;
#X msg 467 25 bang;
#X obj 28 389 list split 1, f 15;
#X msg 302 79 args;
#X msg 287 121 canvasargs;
#X obj 71 483 send, f 39;
#X obj 66 483 cnv 5 5 17 empty empty empty 20 12 0 14 -194593 -66577
0;
#X msg 302 190 symbol \$2-\$1;
#X obj 302 167 pack s \$0;
#X obj 302 145 symbol;
#X obj 48 126 cnv 5 5 17 empty empty empty 20 12 0 14 -194593 -66577
0;
#X obj 54 126 s \$0-canvasargs;
#X obj 31 80 cnv 5 5 17 empty empty empty 20 12 0 14 -260626 -66577
0;
#X obj 37 80 r \$0-properties_ok;
#X obj 37 104 t b b b b;
#X obj 542 413 cnv 5 5 17 empty empty empty 20 12 0 14 -260626 -66577
0;
#X obj 548 413 r \$0-properties_ok;
#X obj 524 438 b;
#X obj 679 492 print =;
#X msg 679 429 . \, ============================== \, DON'T FORGET
TO SAVE THE PARENT \, PATCH TO MAKE CHANGES PERSISTENT ! \, ==============================
, f 37;
#X msg 524 521 vis \$1;
#X msg 524 461 0;
#X obj 524 484 t f f, f 10;
#X obj 575 522 cnv 5 5 17 empty empty empty 20 12 0 14 -194593 -66577
0;
#X obj 581 522 s \$0-properties_autoapply-r, f 28;
#X obj 559 460 sendcanvas 2;
#X msg 559 437 dirty 1;
#X obj 524 313 cnv 3 80 15 empty empty empty 2 7 0 10 -257985 -66577
0;
#N canvas 268 376 320 353 remove_bsl 0;
#X text 50 6 string in;
#X obj 60 25 inlet;
#X obj 99 293 outlet;
#X obj 54 25 cnv 5 5 17 empty empty empty 20 12 0 14 -118750 -66577
0;
#X obj 93 293 cnv 5 5 17 empty empty empty 20 12 0 14 -102336 -66577
0;
#X obj 60 49 list fromsymbol;
#X obj 60 171 list store, f 14;
#X obj 60 102 until;
#X obj 60 126 f;
#X obj 101 126 + 1;
#X msg 60 148 get \$1 1;
#X msg 101 102 0;
#X text 192 71 list drip;
#X obj 60 72 t b b l b, f 20;
#X obj 99 268 list tosymbol;
#X obj 60 198 sel 92, f 7;
#X text 119 198 remove backslashes;
#X obj 99 245 list store;
#X msg 99 222 append \$1;
#X connect 1 0 5 0;
#X connect 5 0 13 0;
#X connect 6 0 15 0;
#X connect 6 1 7 1;
#X connect 6 1 17 0;
#X connect 7 0 8 0;
#X connect 8 0 9 0;
#X connect 8 0 10 0;
#X connect 9 0 8 1;
#X connect 10 0 6 0;
#X connect 11 0 8 1;
#X connect 13 0 7 0;
#X connect 13 1 11 0;
#X connect 13 2 6 1;
#X connect 13 3 17 1;
#X connect 14 0 2 0;
#X connect 15 1 18 0;
#X connect 17 0 14 0;
#X connect 18 0 17 0;
#X restore 523 312 pd remove_bsl;
#X msg 550 90 vis 0 \, relocate \$1x\$2+0+0 0x0+\$3+\$4 \, vis 1 \,
editmode 0, f 28;
#X text 570 43 size x y \, pos x y;
#X obj 225 35 metro 100;
#X obj 71 52 t b b b b, f 39;
#X obj 330 483 cnv 5 5 17 empty empty empty 20 12 0 14 -194593 -66577
0;
#X msg 336 461 1;
#X obj 336 483 s \$0-properties_autoapply-r;
#X obj 202 88 bng 15 250 50 0 empty empty empty 17 7 0 10 -262144 -1
-1;
#X obj 624 346 cnv 5 5 17 empty empty empty 20 12 0 14 -194593 -66577
0;
#X obj 361 411 cnv 5 5 17 empty empty empty 20 12 0 14 -260626 -66577
0;
#X obj 367 411 r \$0-lbinit;
#X msg 367 461 0;
#X msg 550 65 400 464 30 30;
#X obj 630 210 list split 1;
#X obj 630 346 s \$0-prop_protocol-r;
#X msg 647 312 0;
#X msg 681 312 1;
#X msg 715 312 2;
#X msg 749 312 3;
#X msg 783 312 4;
#X obj 630 232 route float symbol, f 12;
#X obj 647 289 sel OSC TCP TCP-b UDP UDP-b;
#X text 645 191 protocol;
#X obj 716 210 list split 1;
#X text 731 191 IP;
#X obj 806 210 list split 1;
#X text 821 191 in;
#X obj 860 245 list split 1;
#X text 875 226 out;
#X obj 716 232 route float symbol, f 12;
#X obj 744 401 cnv 5 5 17 empty empty empty 20 12 0 14 -194593 -66577
0;
#X obj 750 401 s \$0-prop_IP-r;
#X obj 716 267 t b;
#X msg 716 370 symbol localhost;
#X obj 806 232 route float, f 6;
#X obj 806 267 max 1000;
#X obj 867 267 route float, f 6;
#X obj 867 303 max 1000;
#X obj 800 345 cnv 5 5 17 empty empty empty 20 12 0 14 -194593 -66577
0;
#X obj 806 345 s \$0-prop_inport-r;
#X obj 824 371 cnv 5 5 17 empty empty empty 20 12 0 14 -194593 -66577
0;
#X obj 830 370 s \$0-prop_outport-r;
#X obj 91 157 cnv 5 5 17 empty empty empty 20 12 0 14 -260626 -66577
0;
#X obj 97 157 r \$0-prop_protocol;
#X obj 108 183 cnv 5 5 17 empty empty empty 20 12 0 14 -260626 -66577
0;
#X obj 114 183 r \$0-prop_IP;
#X obj 218 265 cnv 5 5 17 empty empty empty 20 12 0 14 -260626 -66577
0;
#X obj 224 265 r \$0-prop_inport;
#X obj 240 290 cnv 5 5 17 empty empty empty 20 12 0 14 -260626 -66577
0;
#X obj 246 290 r \$0-prop_outport;
#X msg 114 301 symbol localhost;
#X obj 114 207 l2s;
#X obj 114 253 list fromsymbol;
#X obj 114 230 t s s, f 14;
#X obj 114 328 symbol;
#X obj 114 276 sel 48;
#X obj 161 277 t b;
#X obj 16 207 text get \$0-protocols 1, f 14;
#X obj 385 90 cnv 5 5 17 empty empty empty 20 12 0 14 -260626 -66577
0;
#X obj 391 90 r \$0-prop_click;
#X obj 929 280 list split 1;
#X obj 929 302 route float, f 6;
#X text 937 261 timestamp;
#X obj 929 337 s \$0-prop_timestamp-r;
#X obj 923 337 cnv 5 5 17 empty empty empty 20 12 0 14 -194593 -66577
0;
#X obj 263 317 cnv 5 5 17 empty empty empty 20 12 0 14 -260626 -66577
0;
#X obj 269 317 r \$0-prop_timestamp;
#X obj 137 412 sel none empty;
#X msg 158 436 symbol none, f 13;
#X obj 927 411 list split 1;
#X obj 927 433 route float, f 6;
#X obj 921 468 cnv 5 5 17 empty empty empty 20 12 0 14 -194593 -66577
0;
#X obj 927 468 s \$0-prop_oscformat-r;
#X text 935 392 oscformat;
#X obj 284 344 cnv 5 5 17 empty empty empty 20 12 0 14 -260626 -66577
0;
#X obj 290 344 r \$0-prop_oscformat;
#X obj 71 361 pack 0 s s 0 0 0 0;
#X connect 2 0 13 0;
#X connect 2 0 63 0;
#X connect 2 1 70 0;
#X connect 6 0 2 0;
#X connect 7 0 46 0;
#X connect 10 0 61 0;
#X connect 12 0 13 1;
#X connect 13 0 16 0;
#X connect 16 0 17 0;
#X connect 16 1 71 0;
#X connect 17 0 57 0;
#X connect 17 1 18 0;
#X connect 18 0 19 0;
#X connect 19 0 15 0;
#X connect 21 0 13 0;
#X connect 21 1 24 0;
#X connect 22 0 21 0;
#X connect 26 0 60 0;
#X connect 28 0 125 0;
#X connect 29 0 34 0;
#X connect 30 0 2 0;
#X connect 31 1 29 0;
#X connect 32 0 38 0;
#X connect 33 0 38 0;
#X connect 36 0 34 1;
#X connect 37 0 36 0;
#X connect 38 0 37 0;
#X connect 42 0 43 0;
#X connect 43 1 40 0;
#X connect 43 2 134 0;
#X connect 43 3 33 0;
#X connect 45 0 46 0;
#X connect 45 0 55 0;
#X connect 46 0 50 0;
#X connect 48 0 47 0;
#X connect 49 0 3 0;
#X connect 50 0 51 0;
#X connect 51 0 49 0;
#X connect 51 1 53 0;
#X connect 55 0 54 0;
#X connect 57 0 15 0;
#X connect 58 0 0 0;
#X connect 60 0 61 0;
#X connect 60 0 65 0;
#X connect 61 0 134 0;
#X connect 61 3 32 0;
#X connect 63 0 64 0;
#X connect 68 0 69 0;
#X connect 69 0 64 0;
#X connect 70 0 58 0;
#X connect 71 0 78 0;
#X connect 71 1 81 0;
#X connect 73 0 72 0;
#X connect 74 0 72 0;
#X connect 75 0 72 0;
#X connect 76 0 72 0;
#X connect 77 0 72 0;
#X connect 78 0 72 0;
#X connect 78 1 79 0;
#X connect 79 0 73 0;
#X connect 79 1 74 0;
#X connect 79 2 75 0;
#X connect 79 3 76 0;
#X connect 79 4 77 0;
#X connect 81 0 87 0;
#X connect 81 1 83 0;
#X connect 83 0 92 0;
#X connect 83 1 85 0;
#X connect 85 0 94 0;
#X connect 85 1 118 0;
#X connect 87 0 90 0;
#X connect 87 1 89 0;
#X connect 90 0 91 0;
#X connect 91 0 89 0;
#X connect 92 0 93 0;
#X connect 93 0 97 0;
#X connect 94 0 95 0;
#X connect 95 0 99 0;
#X connect 101 0 115 0;
#X connect 103 0 109 0;
#X connect 105 0 134 3;
#X connect 107 0 134 4;
#X connect 108 0 112 0;
#X connect 109 0 111 0;
#X connect 110 0 113 0;
#X connect 111 0 110 0;
#X connect 111 1 112 1;
#X connect 112 0 134 2;
#X connect 113 0 108 0;
#X connect 113 1 114 0;
#X connect 114 0 112 0;
#X connect 115 0 134 1;
#X connect 117 0 91 0;
#X connect 118 0 119 0;
#X connect 118 1 127 0;
#X connect 119 0 121 0;
#X connect 124 0 134 5;
#X connect 125 0 126 0;
#X connect 125 1 126 0;
#X connect 125 2 29 1;
#X connect 126 0 29 1;
#X connect 127 0 128 0;
#X connect 128 0 130 0;
#X connect 133 0 134 6;
#X connect 134 0 31 0;
#X restore 698 453 pd propertyguts;
#X obj 699 479 cnv 5 100 15 empty empty empty 2 7 0 10 -257985 -66577
0;
#N canvas 30 30 400 464 \$0-properties 0;
#X obj 1 1 cnv 5 396 460 empty empty PROPERTIES: 150 18 1 16 -220544
-122932 0;
#X obj 6 36 cnv 4 384 410 empty empty empty 20 20 0 14 -1 -262144 0
;
#X obj 7 37 cnv 14 382 408 empty empty empty 79 21 1 24 -262130 -64
0;
#X obj 45 415 cnv 5 300 18 empty empty empty 20 20 0 14 -1 -262144
0;
#X obj 46 416 cnv 10 298 16 empty empty DON'T_FORGET_TO_SAVE_THE_PARENT_PATCH_!
6 9 1 12 -261234 -66577 0;
#X obj 46 430 cnv 2 298 1 empty empty empty 6 -20 1 8 -261234 -66577
0;
#X obj 61 383 hradio 14 1 0 2 \$0-properties_ok \$0-properties_ok-r
empty 0 -8 0 10 -262144 -1 -1 0;
#X obj 102 383 hradio 14 1 0 3 \$0-properties_apply \$0-properties_apply-r
empty 0 -8 0 10 -262144 -1 -1 1;
#X obj 103 384 cnv 12 40 12 \$0-properties_apply_cnv \$0-properties_apply_cnv-r
APPLY 3 7 1 11 -261057 -99865 0;
#X obj 275 383 hradio 14 1 0 4 \$0-properties_cancel \$0-properties_cancel-r
empty 0 -8 0 10 -262144 -1 -1 3;
#X obj 144 383 tgl 14 0 \$0-properties_autoapply \$0-properties_autoapply-r
auto 20 7 1 10 -261057 -1 -1 1 1;
#X obj 192 383 hradio 14 1 0 5 \$0-properties_original \$0-properties_original-r
empty 0 -8 0 10 -262144 -1 -1 4;
#X obj 276 384 cnv 12 54 12 \$0-properties_cancel_cnv \$0-properties_cancel_cnv-r
CANCEL 5 7 1 11 -261234 -99865 0;
#X obj 62 384 cnv 12 26 12 \$0-properties_ok_cnv \$0-properties_ok_cnv-r
OK 4 6 1 12 -204786 -99865 0;
#X obj 193 384 cnv 12 68 12 \$0-properties_original_cnv \$0-properties_original_cnv-r
ORIGINAL 8 7 1 11 -203904 -99865 0;
#X obj 379 14 bng 10 250 50 0 \$0-properties_def \$0-properties_def-r
defaults -42 5 1 10 -262130 -1 -159808;
#X obj 119 85 cnv 1 168 13 empty empty empty 20 12 0 14 -262144 -66577
0;
#X symbolatom 119 85 28 0 0 2 - #0-prop_name-r #0-prop_name, f 28
;
#X obj 148 72 cnv 3 3 3 empty empty REMOTE_NAME: 0 0 1 14 -262130 -64
0;
#X obj 190 78 cnv 5 30 2 empty empty empty 0 0 1 4 -262130 -64 0;
#X obj 111 108 cnv 5 5 5 empty empty (use "empty" or "none" for no name)
0 2 1 10 -262130 -64 0;
#X obj 116 226 cnv 1 168 13 empty empty empty 20 12 0 14 -262144 -66577
0;
#X symbolatom 116 226 28 0 0 2 - #0-prop_IP-r #0-prop_IP, f 28;
#X obj 168 214 cnv 5 5 5 empty empty IP address: 0 2 1 12 -262130
-64 0;
#X obj 114 158 hradio 24 1 0 5 \$0-prop_protocol \$0-prop_protocol-r
Protocol: 35 -15 1 12 -262144 -1 -4160 1;
#X obj 42 225 cnv 5 5 5 empty empty click for 0 2 1 10 -262130 -64
0;
#X obj 117 276 nbx 5 16 1000 99999 0 0 \$0-prop_inport \$0-prop_inport-r
Send Port: 0 -8 1 12 -262144 -1 -4160 7777 256;
#X obj 227 275 nbx 5 16 1000 99999 0 0 \$0-prop_outport \$0-prop_outport-r
Receive Port: 0 -8 1 12 -262144 -1 -4160 7778 256;
#X obj 277 139 cnv 5 5 5 empty empty 0 = OSC (udp) 0 2 1 11 -262130
-64 0;
#X obj 277 152 cnv 5 5 5 empty empty 1 = TCP 0 2 1 11 -262130 -64
0;
#X obj 277 165 cnv 5 5 5 empty empty 2 = TCP binary 0 2 1 11
-262130 -64 0;
#X obj 277 178 cnv 5 5 5 empty empty 3 = UDP 0 2 1 11 -262130 -64
0;
#X obj 277 191 cnv 5 5 5 empty empty 4 = UDP binary 0 2 1 11
-262130 -64 0;
#X obj 102 226 bng 14 250 50 0 \$0-prop_click \$0-prop_click-r empty
17 7 0 10 -262144 -1 -1;
#X obj 36 235 cnv 5 5 5 empty empty "localhost" 0 2 1 10 -262130 -64
0;
#X obj 116 312 tgl 15 0 \$0-prop_timestamp \$0-prop_timestamp-r send timestamp
20 7 1 11 -262144 -1 -4160 1 1;
#X obj 116 339 tgl 15 0 \$0-prop_oscformat \$0-prop_oscformat-r oscformat
20 7 1 11 -262144 -1 -4160 0 1;
#X restore 698 478 pd \$0-properties;
#X obj 679 453 bng 15 250 50 0 empty empty empty 17 7 0 10 -262144
-1 -1;
#X obj 9 90 text define -k \$0-protocols;
#A set 0 OSC \; 1 TCP \; 2 TCP-b \; 3 UDP \; 4 UDP-b \;;
#X obj 318 81 outlet;
#X obj 312 81 cnv 5 5 17 empty empty empty 20 12 0 14 -102336 -66577
0;
#X obj 62 141 cnv 5 5 17 empty empty empty 20 12 0 14 -260626 -66577
0;
#X obj 68 141 r \$0-msgin;
#X obj 318 58 symbol;
#X obj 413 188 t a;
#X obj 41 1 bng 24 250 50 0 empty empty empty 17 7 0 10 -262144 -1
-1;
#X obj 4 2 hradio 10 1 0 2 \$0-out-1 \$0-out-1-r empty 0 0 0 10 -262144
-1 -1 0;
#X obj 4 15 hradio 10 1 0 2 \$0-in-1 \$0-in-1-r empty 0 0 0 10 -262144
-1 -1 0;
#X obj 1 1 cnv 5 64 24 \$0-bgnd \$0-bgnd-r empty 0 0 0 7 -262130 -66577
0;
#X obj 1 0 cnv 1 8 1 \$0-in-cnv-1 \$0-in-cnv-1-r TCP 2 13 1 11 -250685
-1 0;
#X obj 0 25 cnv 1 8 1 \$0-out-cnv-1 \$0-out-cnv-1-r empty 2 -6 1 11
-66577 -66577 0;
#X obj 34 1 cnv 3 31 24 empty empty empty 20 12 0 14 -1 -66577 0;
#X obj 35 1 cnv 11 30 11 \$0-inport-1 \$0-inport-1-r 7777 2 5 1 9 -204786
-1 0;
#X obj 35 14 cnv 11 30 11 \$0-outport-1 \$0-outport-1-r 7778 2 5 1
9 -204224 -1 0;
#X obj 608 195 cnv 5 5 17 empty empty empty 20 12 0 14 -260626 -66577
0;
#X obj 614 195 r \$0-properties_original;
#X obj 741 147 print ggggggggg;
#X obj 737 124 cnv 5 5 17 empty empty empty 20 12 0 14 -260626 -66577
0;
#X obj 743 124 r \$0-send-in;
#X obj 354 268 tgl 15 0 empty empty empty 17 7 0 10 -262144 -1 -1 1
1;
#X obj 59 471 oscformat;
#X obj 59 441 list trim;
#X obj 20 319 list split 1;
#X obj 60 369 cnv 4 62 15 empty empty empty 2 7 0 10 -257985 -66577
0;
#N canvas 0 50 334 272 achange 0;
#X obj 134 25 loadbang;
#X obj 47 40 inlet;
#X obj 196 25 inlet;
#X text 193 4 reset;
#X text 96 231 list out;
#X obj 47 231 outlet;
#X obj 47 62 list;
#X obj 196 75 text define;
#X obj 62 205 text set -s text t;
#X msg 196 52 clear \, bang;
#X msg 239 25 bang;
#X obj 196 99 t p;
#X obj 86 132 text search -s text t;
#X obj 86 155 == -1;
#X obj 47 178 spigot;
#X obj 47 85 t l l, f 7;
#X text 40 5 anything in;
#X connect 0 0 9 0;
#X connect 1 0 6 0;
#X connect 2 0 9 0;
#X connect 6 0 15 0;
#X connect 7 0 11 0;
#X connect 9 0 7 0;
#X connect 10 0 9 0;
#X connect 11 0 8 3;
#X connect 11 0 12 1;
#X connect 12 0 13 0;
#X connect 13 0 14 1;
#X connect 14 0 5 0;
#X connect 14 0 8 0;
#X connect 15 0 14 0;
#X connect 15 1 12 0;
#X restore 59 368 pd achange;
#X obj 20 343 t b s, f 7;
#X obj 59 391 s2l /;
#X obj 59 413 list prepend set;
#X obj 20 368 list;
#X obj 395 81 oscparse;
#X obj 395 104 list trim;
#X obj 413 163 route timestamp;
#X obj 312 5 cnv 5 5 17 empty empty empty 20 12 0 14 -260626 -66577
0;
#X obj 318 32 route timestamp;
#X obj 20 295 demux, f 15;
#X obj 123 295 cnv 5 5 17 empty empty empty 20 12 0 14 -260626 -66577
0;
#X obj 129 295 r \$0-oscformat;
#X obj 190 312 tgl 15 0 empty empty empty 17 7 0 10 -262144 -1 -1 0
1;
#X connect 1 0 0 0;
#X connect 2 0 0 0;
#X connect 4 0 5 0;
#X connect 6 0 8 0;
#X connect 10 0 6 0;
#X connect 11 0 18 0;
#X connect 18 0 17 0;
#X connect 18 1 21 0;
#X connect 18 2 20 0;
#X connect 21 0 15 0;
#X connect 22 0 11 0;
#X connect 24 0 11 0;
#X connect 37 0 82 0;
#X connect 41 0 39 0;
#X connect 43 0 39 0;
#X connect 50 0 57 0;
#X connect 52 0 53 0;
#X connect 52 0 128 0;
#X connect 53 0 55 0;
#X connect 53 1 54 0;
#X connect 54 0 58 0;
#X connect 55 0 58 0;
#X connect 57 0 68 0;
#X connect 57 1 69 0;
#X connect 57 2 69 0;
#X connect 57 3 70 0;
#X connect 57 4 70 0;
#X connect 58 0 100 0;
#X connect 60 0 59 0;
#X connect 62 0 63 0;
#X connect 63 0 65 0;
#X connect 63 1 65 0;
#X connect 63 2 64 0;
#X connect 64 0 66 0;
#X connect 65 0 58 1;
#X connect 66 0 58 1;
#X connect 67 0 60 0;
#X connect 68 0 67 0;
#X connect 69 0 67 0;
#X connect 70 0 67 0;
#X connect 71 0 138 0;
#X connect 71 1 76 0;
#X connect 71 2 81 0;
#X connect 71 3 76 0;
#X connect 71 4 79 0;
#X connect 73 0 71 1;
#X connect 73 0 97 0;
#X connect 78 0 74 0;
#X connect 79 0 140 0;
#X connect 81 0 140 0;
#X connect 82 0 143 0;
#X connect 82 1 92 0;
#X connect 82 2 90 0;
#X connect 82 3 92 0;
#X connect 82 4 93 0;
#X connect 84 0 82 1;
#X connect 84 0 85 0;
#X connect 88 0 89 0;
#X connect 89 0 92 0;
#X connect 90 0 88 0;
#X connect 91 0 86 0;
#X connect 92 0 91 0;
#X connect 93 0 92 0;
#X connect 96 0 94 0;
#X connect 96 0 95 0;
#X connect 98 0 142 0;
#X connect 100 0 56 0;
#X connect 101 0 103 0;
#X connect 106 0 103 0;
#X connect 111 0 82 0;
#X connect 112 0 108 0;
#X connect 113 0 112 0;
#X connect 114 0 39 1;
#X connect 124 0 11 0;
#X connect 129 0 92 0;
#X connect 130 0 129 0;
#X connect 131 0 134 0;
#X connect 131 1 137 1;
#X connect 133 0 135 0;
#X connect 134 0 137 0;
#X connect 134 1 133 0;
#X connect 135 0 136 0;
#X connect 136 0 130 0;
#X connect 137 0 129 0;
#X connect 138 0 139 0;
#X connect 139 0 140 0;
#X connect 140 0 113 0;
#X connect 140 1 76 0;
#X connect 142 0 112 0;
#X connect 142 1 71 0;
#X connect 143 0 131 0;
#X connect 143 1 129 0;
#X connect 145 0 143 1;
#X connect 145 0 146 0;
#X coords 0 -1 1 1 66 26 2 0 0;
