#N canvas 320 52 826 826 10;
#X declare -stdpath iemguts -path iemguts;
#X declare -stdlib zexy -lib zexy ;
#X obj 233 520 +;
#X msg 266 497 1;
#X msg 310 503 -1;
#X obj 233 463 t b b, f 6;
#X obj 283 463 t b b;
#X obj 114 428 r \$0-h;
#X obj 3 0 hsl 4 20 0 127 0 0 \$0-h \$0-h-r empty -2 10 0 10 -262144
-1 -1 0 1;
#X obj 233 341 spigot;
#X obj 300 276 r active_ol_number;
#X msg 300 324 1;
#X obj 114 520 del 1000;
#X obj 378 302 t b;
#X msg 378 324 0;
#X obj 300 302 select \$0;
#X obj 458 540 s \$0-canvas;
#X msg 458 516 color \$1 0;
#X obj 347 368 sel 1 0;
#X msg 495 490 29;
#X msg 458 490 16;
#X msg 529 393 set 0;
#X obj 233 497 int, f 4;
#X obj 55 0 hsl 2 20 0 127 0 0 \$0-h2 \$0-h2-r empty -2 10 0 10 -262144
-1 -1 0 1;
#X obj 0 0 nbx 5 20 -1e+037 1e+037 0 0 \$0-num \$0-num-r empty 2 3
1 12 -262144 -45076 -45076 0 256;
#X obj 54 1 cnv 5 5 18 empty \$0-canvas empty 20 12 0 14 -90133 -262144
0;
#X msg 492 416 0;
#X obj 347 572 r \$0-num;
#X obj 233 544 s \$0-num-r;
#X obj 37 644 s \$0-num-r;
#X obj 114 454 t b b b;
#X obj 652 513 cnv 13 43 15 empty empty empty 2 7 0 10 -257985 -66577
0;
#X obj 37 455 r \$0-in;
#X obj 38 480 cnv 4 70 15 empty empty empty 2 7 0 10 -257985 -66577
0;
#N canvas 814 77 696 379 messages 0;
#X obj 34 8 inlet;
#X obj 116 188 s \$0-num-r;
#X obj 116 83 route float;
#X obj 200 82 route float;
#X obj 287 108 outlet;
#X msg 116 163 set \$1;
#X obj 410 254 outlet;
#X text 407 219 use this to set the up/down counter, f 20;
#X obj 358 300 route float;
#X obj 358 323 clip 0 1;
#X obj 358 346 s \$0-select;
#X obj 34 189 f;
#X obj 34 326 s \$0-out;
#X obj 49 163 r \$0-out;
#X obj 223 181 route bang list;
#X msg 250 254 range \$1 \$2;
#X obj 250 285 s \$0-num-r;
#X msg 223 204 -1e+037 1e+037;
#X obj 403 158 v \$0-init;
#X msg 403 109 0;
#X obj 403 86 route bang float;
#X obj 496 110 symbol;
#X obj 496 132 sel on off;
#X obj 496 180 s \$0-initspig;
#X msg 524 155 0;
#X msg 496 155 1;
#X obj 403 132 t f b;
#X obj 28 8 cnv 5 5 17 empty empty empty 20 12 0 14 -118750 -66577
0;
#X obj 194 108 cnv 5 5 17 empty empty empty 20 12 0 14 -194593 -66577
0;
#X obj 110 188 cnv 5 5 17 empty empty empty 20 12 0 14 -194593 -66577
0;
#X obj 281 108 cnv 5 5 17 empty empty empty 20 12 0 14 -102336 -66577
0;
#X obj 404 254 cnv 5 5 17 empty empty empty 20 12 0 14 -102336 -66577
0;
#X obj 352 346 cnv 5 5 17 empty empty empty 20 12 0 14 -194593 -66577
0;
#X obj 28 326 cnv 5 5 17 empty empty empty 20 12 0 14 -194593 -66577
0;
#X obj 43 163 cnv 5 5 17 empty empty empty 20 12 0 14 -260626 -66577
0;
#X obj 244 285 cnv 5 5 17 empty empty empty 20 12 0 14 -194593 -66577
0;
#X obj 397 158 cnv 5 5 17 empty empty empty 20 12 0 14 -194048 -66577
0;
#X obj 490 180 cnv 5 5 17 empty empty empty 20 12 0 14 -194593 -66577
0;
#X obj 223 228 t l l;
#X obj 34 299 clip, f 13;
#X obj 73 245 unpack;
#X floatatom 66 206 5 0 0 0 - - -, f 5;
#X floatatom 95 328 5 0 0 0 - - -, f 5;
#X floatatom 167 289 5 0 0 0 - - -, f 5;
#X floatatom 130 289 5 0 0 0 - - -, f 5;
#X obj 200 108 s \$0-sizes;
#X obj 34 55 route bang float set size colors select range init inc
dec, f 98;
#X obj 612 141 r \$0-out;
#X obj 606 141 cnv 5 5 17 empty empty empty 20 12 0 14 -260626 -66577
0;
#X obj 597 193 +, f 7;
#X obj 575 109 t b b;
#X obj 617 109 t b b;
#X msg 624 167 1;
#X msg 651 167 -1;
#X obj 597 167 int;
#X obj 518 26 bng 15 250 50 0 empty empty empty 17 7 0 10 -262144 -1
-1;
#X obj 591 218 cnv 5 5 17 empty empty empty 20 12 0 14 -194593 -66577
0;
#X obj 597 218 s \$0-in;
#X floatatom 279 17 5 0 0 0 - - -, f 5;
#X obj 288 85 cnv 3 73 15 empty empty empty 2 7 0 9 -257985 -66577
0;
#N canvas 227 108 649 654 colorlist 0;
#X obj 37 9 inlet;
#X obj 131 104 list;
#X obj 131 53 t b a;
#X text 168 96 <-- in case the list consists of symbols only, f 24
;
#X obj 131 33 bng 15 250 50 0 empty empty empty 17 7 0 10 -262144 -1
-1;
#X obj 37 54 route bang;
#X obj 380 32 r \$0-defaultslist;
#X obj 37 104 list store;
#X obj 369 57 cnv 15 250 50 empty empty <---adapt 170 25 0 14 -232576
-66577 0;
#X text 495 83 color;
#X text 151 31 list can have up to 5 elements;
#X text 509 11 tk color names, f 16;
#X obj 498 33 cnv 15 122 15 empty empty empty 20 12 0 14 -180224 -66577
0;
#X obj 497 32 text define -k \$0-tk;
#A set aquamarine 127 255 212 \; azure 240 255 255 \; beige 245 245
220 \; bisque 255 228 196 \; black 0 0 0 \; blue 0 0 255 \; BlueViolet
138 43 226 \; brown 165 42 42 \; CadetBlue 95 158 160 \; chartreuse
127 255 0 \; chocolate 210 105 30 \; coral 255 127 80 \; CornflowerBlue
100 149 237 \; crymson 220 20 60 \; cyan 0 255 255 \; DarkBlue 0 0
139 \; DarkCyan 0 139 139 \; DarkGoldenrod 184 134 11 \; DarkGreen
0 100 0 \; DarkGrey 169 169 169 \; DarkMagenta 139 0 139 \; DarkOrange
255 140 0 \; DarkOrchid 153 50 204 \; DarkRed 139 0 0 \; DarkSeaGreen
143 188 143 \; DarkTurquoise 0 206 209 \; DarkViolet 148 0 211 \; DeepPink
255 20 147 \; DeepSkyBlue 0 191 255 \; DodgerBlue 30 144 255 \; firebrick
178 34 34 \; fuchsia 255 0 255 \; GhostWhite 248 248 255 \; gold 255
215 0 \; green 0 255 0 \; GreenYellow 173 255 47 \; grey 190 190 190
\; grey10 26 26 26 \; grey20 51 51 51 \; grey30 77 77 77 \; grey40
102 102 102 \; grey50 127 127 127 \; grey60 153 153 153 \; grey70 179
179 179 \; grey80 204 204 204 \; grey90 229 229 229 \; khaki 240 230
140 \; lavender 230 230 250 \; LightBlue 173 216 230 \; LightCoral
240 128 128 \; LightCyan 224 255 255 \; LightGreen 144 238 144 \; LightSeaGreen
32 178 170 \; LightSkyBlue 135 206 250 \; LightSlateBlue 132 112 255
\; LightYellow 255 255 224 \; lime 0 255 0 \; LimeGreen 50 205 50 \;
linen 250 240 230 \; magenta 255 0 255 \; maroon 176 48 96 \; MediumAquamarine
102 205 170 \; MediumBlue 0 0 205 \; MediumOrchid 186 85 211 \; MediumPurple
147 112 219 \; MediumSeaGreen 60 179 113 \; MediumTurquoise 72 209
204 \; MediumVioletRed 199 21 133 \; MintCream 245 255 250 \; MistyRose
255 228 225 \; moccasin 255 228 181 \; OldLace 253 245 230 \; orange
255 165 0 \; OrangeRed 255 69 0 \; orchid 218 112 214 \; PaleGreen
152 251 152 \; PaleTurquoise 175 238 238 \; PaleVioletRed 219 112 147
\; pink 255 192 203 \; plum 221 160 221 \; purple 160 32 240 \; red
255 0 0 \; RosyBrown 188 143 143 \; RoyalBlue 65 105 225 \; SaddleBrown
139 69 19 \; salmon 250 128 114 \; SandyBrown 244 164 96 \; SeaGreen
46 139 87 \; seashell 255 245 238 \; sienna 160 82 45 \; silver 192
192 192 \; SkyBlue 135 206 235 \; SlateBlue 106 90 205 \; SlateGray
112 128 144 \; snow 255 250 250 \; SpringGreen3 0 205 102 \; SpringGreen
0 255 127 \; SteelBlue 70 130 180 \; teal 0 128 128 \; thistle 216
191 216 \; tomato 255 99 71 \; turquoise 64 224 208 \; violet 238 130
238 \; VioletRed 208 32 144 \; wheat 245 222 179 \; white 255 255 255
\; WhiteSmoke 245 245 245 \; yellow 255 255 0 \;;
#X obj 31 9 cnv 5 5 17 empty empty empty 20 12 0 14 -118750 -66577
0;
#X obj 374 32 cnv 5 5 17 empty empty empty 20 12 0 14 -260626 -66577
0;
#X obj 414 84 list split 2;
#X obj 85 193 route float symbol, f 37;
#X obj 178 502 list prepend 0, f 16;
#X obj 160 572 route 0;
#X obj 178 475 expr ($f1*(-65536)+$f2*(-256)+$f3*(-1))-1, f 42;
#X msg 85 458 255 255 255;
#X text 295 439 calculate number from RGB values, f 16;
#X obj 237 371 text search \$0-tk;
#X obj 284 394 text get \$0-tk;
#X obj 237 394 sel -1;
#X obj 284 416 list split 1;
#X obj 85 434 sel 0;
#X obj 178 525 route 1 2 3 4 5, f 16;
#X obj 160 549 pack 0 0 0 0 0 0;
#X obj 86 138 cnv 3 80 15 empty empty empty 2 7 0 10 -257985 -66577
0;
#X obj 122 163 + 1;
#N canvas 0 50 341 254 drip+index 0;
#X obj 33 15 inlet;
#X obj 33 165 list store, f 15;
#X obj 33 59 until;
#X obj 33 81 f;
#X obj 63 81 + 1;
#X msg 33 133 get \$1 1;
#X obj 76 60 0;
#X obj 33 197 outlet;
#X obj 134 196 outlet;
#X obj 33 37 t b b a, f 15;
#X text 177 17 needs pd 0.48 !;
#X text 175 56 like [zl iter] or ZEXY's [drip], f 19;
#X obj 84 197 outlet;
#X obj 33 104 t f f;
#X text 33 222 item;
#X text 86 222 index;
#X text 140 221 finish;
#X connect 0 0 9 0;
#X connect 1 0 7 0;
#X connect 1 1 8 0;
#X connect 1 1 2 1;
#X connect 2 0 3 0;
#X connect 3 0 4 0;
#X connect 3 0 13 0;
#X connect 4 0 3 1;
#X connect 5 0 1 0;
#X connect 6 0 3 1;
#X connect 9 0 2 0;
#X connect 9 1 6 0;
#X connect 9 2 1 1;
#X connect 13 0 5 0;
#X connect 13 1 12 0;
#X restore 85 137 pd drip+index;
#X msg 178 435 0 0 0;
#X text 177 415 default black;
#X obj 135 329 s2l _;
#X obj 135 354 route list;
#X text 185 320 if symbol is a list seperated by _ \, interpret them
as RGB values, f 35;
#X obj 211 289 list store, f 13;
#X obj 194 215 sel _ . -;
#X obj 211 244 f;
#X msg 211 266 get \$1 1;
#X text 263 216 if symbol is "_" or "." or "-" \, use default value
, f 28;
#X obj 160 625 outlet;
#X obj 154 625 cnv 5 5 17 empty empty empty 20 12 0 14 -102336 -66577
0;
#X obj 408 113 cnv 5 5 17 empty empty empty 20 12 0 14 -194593 -66577
0;
#X obj 414 113 s \$0-defaultcolors;
#X obj 280 266 cnv 5 5 17 empty empty empty 20 12 0 14 -260626 -66577
0;
#X obj 286 266 r \$0-defaultcolors;
#X obj 88 80 cnv 5 5 17 empty empty empty 20 12 0 14 -260626 -66577
0;
#X obj 94 80 r \$0-defaultcolors;
#X obj 380 61 list split 5;
#X connect 0 0 5 0;
#X connect 1 0 32 0;
#X connect 2 0 1 0;
#X connect 2 1 1 1;
#X connect 5 0 7 0;
#X connect 5 1 4 0;
#X connect 5 1 2 0;
#X connect 6 0 51 0;
#X connect 7 0 32 0;
#X connect 16 0 46 0;
#X connect 17 0 27 0;
#X connect 17 1 39 0;
#X connect 18 0 28 0;
#X connect 19 0 43 0;
#X connect 20 0 18 0;
#X connect 21 0 20 0;
#X connect 23 0 25 0;
#X connect 24 0 26 0;
#X connect 25 0 33 0;
#X connect 25 1 24 0;
#X connect 26 1 20 0;
#X connect 27 0 21 0;
#X connect 27 1 18 0;
#X connect 28 0 29 1;
#X connect 28 1 29 2;
#X connect 28 2 29 3;
#X connect 28 3 29 4;
#X connect 28 4 29 5;
#X connect 29 0 19 0;
#X connect 31 0 18 1;
#X connect 32 0 17 0;
#X connect 32 1 31 0;
#X connect 32 1 40 1;
#X connect 32 2 29 0;
#X connect 33 0 20 0;
#X connect 35 0 36 0;
#X connect 36 0 20 0;
#X connect 36 1 23 0;
#X connect 38 0 35 0;
#X connect 39 0 40 0;
#X connect 39 1 40 0;
#X connect 39 2 40 0;
#X connect 39 3 35 0;
#X connect 40 0 41 0;
#X connect 41 0 38 0;
#X connect 48 0 38 1;
#X connect 50 0 7 1;
#X connect 51 1 16 0;
#X restore 287 84 pd colorlist;
#X connect 0 0 46 0;
#X connect 2 0 5 0;
#X connect 2 0 6 0;
#X connect 2 0 11 1;
#X connect 3 0 45 0;
#X connect 3 0 58 0;
#X connect 5 0 1 0;
#X connect 8 0 9 0;
#X connect 9 0 10 0;
#X connect 11 0 5 0;
#X connect 11 0 39 0;
#X connect 11 0 41 0;
#X connect 13 0 11 1;
#X connect 14 0 17 0;
#X connect 14 1 38 0;
#X connect 15 0 16 0;
#X connect 17 0 38 0;
#X connect 19 0 26 0;
#X connect 20 0 19 0;
#X connect 20 1 26 0;
#X connect 20 2 21 0;
#X connect 21 0 22 0;
#X connect 22 0 25 0;
#X connect 22 1 24 0;
#X connect 24 0 23 0;
#X connect 25 0 23 0;
#X connect 26 0 18 0;
#X connect 26 1 25 0;
#X connect 38 0 40 0;
#X connect 38 1 15 0;
#X connect 39 0 12 0;
#X connect 39 0 42 0;
#X connect 40 0 39 1;
#X connect 40 0 44 0;
#X connect 40 1 39 2;
#X connect 40 1 43 0;
#X connect 46 0 11 0;
#X connect 46 1 11 0;
#X connect 46 2 2 0;
#X connect 46 3 3 0;
#X connect 46 4 60 0;
#X connect 46 5 8 0;
#X connect 46 6 14 0;
#X connect 46 7 20 0;
#X connect 46 8 50 0;
#X connect 46 8 55 0;
#X connect 46 9 51 0;
#X connect 47 0 54 1;
#X connect 49 0 57 0;
#X connect 50 0 54 0;
#X connect 50 1 52 0;
#X connect 51 0 54 0;
#X connect 51 1 53 0;
#X connect 52 0 49 1;
#X connect 53 0 49 1;
#X connect 54 0 49 0;
#X connect 60 0 4 0;
#X restore 37 480 pd messages;
#X obj 37 573 list, f 5;
#X obj 84 573 list;
#X obj 37 521 t b l;
#X msg 37 620 color \$1 \$2 \$2;
#X obj 34 759 r \$0-out;
#X obj 267 769 s active_ol_number;
#X obj 267 733 \$0;
#X obj 267 710 t b;
#X msg 186 769 stop \, bang;
#X msg 212 734 -1;
#X obj 212 710 r \$0-h2;
#X text 123 725 deactivate active number, f 14;
#X obj 475 346 t b b b b;
#X obj 529 416 s \$0-in;
#X obj 475 323 r \$0-lb;
#X obj 551 363 s \$0-h2;
#X msg 84 597 color \$1 13 13;
#X obj 233 367 pack 0 s;
#X msg 233 391 \$2 \$1;
#X obj 233 436 sel 1;
#X obj 278 436 sel 1;
#X obj 233 316 keyname, f 8;
#X floatatom 66 428 5 0 0 0 - - -, f 5;
#X obj 20 428 inlet;
#X obj 34 786 outlet;
#X obj 212 656 r \$0-select;
#X obj 212 679 sel 0 1;
#X obj 399 789 s \$0-out;
#X obj 347 623 route float;
#X obj 347 599 spigot 1;
#X obj 413 572 r \$0-numspigot;
#X obj 347 504 sel 1;
#X obj 347 527 v \$0-init;
#X obj 380 455 r \$0-initspig;
#X obj 347 481 spigot;
#X floatatom 346 550 5 0 0 0 - - -, f 5;
#X obj 293 657 cnv 4 90 15 empty empty empty 2 7 0 10 -257985 -66577
0;
#N canvas 882 532 347 244 speedlim 0;
#X obj 25 15 inlet;
#X obj 25 215 outlet;
#X obj 167 14 inlet;
#X msg 80 137 0;
#X msg 25 138 1;
#X obj 25 71 spigot 1;
#X obj 99 71 == 0;
#X obj 167 37 f;
#X obj 25 38 t b b a, f 19;
#X obj 25 192 list store;
#X obj 151 104 delay 500, f 11;
#X obj 25 169 metro 500;
#X obj 19 15 cnv 5 5 17 empty empty empty 20 12 0 14 -118750 -66577
0;
#X obj 19 215 cnv 5 5 17 empty empty empty 20 12 0 14 -102336 -66577
0;
#X obj 161 14 cnv 5 5 17 empty empty empty 20 12 0 14 -118750 -66577
0;
#X connect 0 0 8 0;
#X connect 2 0 7 0;
#X connect 3 0 6 0;
#X connect 3 0 11 0;
#X connect 4 0 6 0;
#X connect 4 0 11 0;
#X connect 5 0 4 0;
#X connect 6 0 5 1;
#X connect 7 0 10 1;
#X connect 7 0 11 1;
#X connect 8 0 5 0;
#X connect 8 1 10 0;
#X connect 8 2 9 1;
#X connect 9 0 1 0;
#X connect 10 0 3 0;
#X connect 11 0 9 0;
#X restore 292 656 pd speedlim 500;
#X obj 399 767 change;
#X obj 233 414 route Up Down BackSpace Return;
#X obj 455 663 timer;
#X obj 455 640 t b;
#X obj 399 745 f;
#X obj 482 617 sel 1;
#X obj 482 639 del 5;
#X obj 455 684 < 10;
#X obj 455 706 sel 1;
#X obj 455 728 t b b;
#X msg 482 750 set -1e+037;
#X text 447 770 to avoid doubles;
#X text 499 672 to force send on typing, f 13;
#X obj 27 373 cnv 13 50 15 empty empty empty 2 7 0 10 -257985 -66577
0;
#N canvas 93 419 678 395 sizes 0;
#X obj 515 353 s \$0-canvas;
#X obj 299 297 s \$0-h-r;
#X obj 386 353 s \$0-h2-r;
#X obj 148 343 s \$0-num-r;
#X msg 182 315 size \$1 \$2;
#X obj 58 269 s \$0-GOP;
#X msg 386 324 size \$1 \$2;
#X msg 299 268 size \$1 \$2;
#X msg 515 325 vis_size \$1 \$2 \, size \$1;
#X text 365 158 canvas = green area;
#X text 366 134 h = triangle slider;
#X text 366 146 h2 = green area slider;
#X msg 148 268 label_font \$1 \$2 \, bang;
#X obj 141 72 text define -k;
#A set 60 20 1 12 5 20 4 20 2 20 55 0 5 18 54 1 \; 22 10 0 8 2 10 0
9 0 10 17 0 2 8 19 1 \; 36 10 0 8 4 10 0 9 0 10 32 0 2 8 33 1 \; 32
12 1 10 3 12 0 11 2 12 28 0 3 10 28 1 \; 40 12 1 10 4 12 0 11 2 12
36 0 3 10 36 1 \; 47 12 1 10 5 12 0 11 2 12 43 0 3 10 43 1 \; 43 16
1 12 3 16 4 16 3 16 37 0 6 14 36 1 \; 48 16 1 12 4 16 4 16 3 16 43
0 6 14 41 1 \; 57 16 1 12 5 16 4 16 3 16 52 0 6 14 50 1 \; 60 20 1
12 5 20 4 20 2 20 55 0 5 18 54 1 \; 60 20 1 15 4 20 4 20 2 20 55 0
5 18 54 1 \; 69 22 1 18 4 22 4 22 2 22 65 0 6 20 62 1 \; 76 24 1 20
4 24 4 24 4 24 69 0 7 22 68 1 \; 90 28 1 24 4 28 4 28 4 28 84 0 8 26
81 1 \; 89 36 1 30 3 36 5 36 6 36 81 0 9 34 79 1 \; 117 46 1 40 3 46
7 46 7 46 108 0 10 44 106 1 \;;
#X obj 36 46 t f b, f 18;
#X obj 36 98 text get -s text t;
#X text 313 16 SIZES:;
#X text 365 16 1: GOP x \; 2: GOP y \; 3: font \; 4: font size \; 5:
num size x \; 6: num size y \; 7: h size x \; 8: h size Y \;;
#X text 471 15 9: h2 size x \; 10: h2 size y \; 11: h2 pos x \; 12:
h2 pos y \; 13: canvas size x \; 14: canvas size y \; 15: canvas pos
x \; 16: canvas pos y \;;
#X obj 36 123 t b l b, f 8;
#X obj 28 194 s \$0-numspigot;
#X msg 46 170 0;
#X obj 10 149 del 2;
#X msg 10 170 1;
#X obj 36 20 r \$0-sizes;
#X obj 58 244 list split 2;
#X obj 148 244 list split 2;
#X obj 182 293 list split 2;
#X obj 299 242 list split 2;
#X obj 386 241 list split 2;
#X obj 420 267 list split 2;
#X obj 515 242 list split 2;
#X obj 549 265 list split 2;
#X text 77 221 GOP;
#X text 172 222 NUM;
#X text 327 220 H;
#X text 409 219 H2;
#X text 533 219 CANVAS;
#X obj 509 353 cnv 5 5 17 empty empty empty 20 12 0 14 -194593 -66577
0;
#X obj 293 297 cnv 5 5 17 empty empty empty 20 12 0 14 -194593 -66577
0;
#X obj 380 353 cnv 5 5 17 empty empty empty 20 12 0 14 -194593 -66577
0;
#X obj 142 343 cnv 5 5 17 empty empty empty 20 12 0 14 -194593 -66577
0;
#X obj 52 269 cnv 5 5 17 empty empty empty 20 12 0 14 -194593 -66577
0;
#X obj 22 194 cnv 5 5 17 empty empty empty 20 12 0 14 -194593 -66577
0;
#X obj 30 20 cnv 5 5 17 empty empty empty 20 12 0 14 -260626 -66577
0;
#X msg 420 296 pos \$1 \$2;
#X msg 549 300 pos \$1 \$2;
#X floatatom 202 32 5 0 0 0 - - -, f 5;
#X obj 202 13 bng 15 250 50 0 empty empty empty 17 7 0 10 -262144 -1
-1;
#X obj 36 72 clip 0 15;
#X connect 4 0 3 0;
#X connect 6 0 2 0;
#X connect 7 0 1 0;
#X connect 8 0 0 0;
#X connect 12 0 3 0;
#X connect 13 0 15 3;
#X connect 14 0 49 0;
#X connect 14 1 13 0;
#X connect 15 0 19 0;
#X connect 19 0 22 0;
#X connect 19 1 25 0;
#X connect 19 2 21 0;
#X connect 21 0 20 0;
#X connect 22 0 23 0;
#X connect 23 0 20 0;
#X connect 24 0 14 0;
#X connect 25 0 5 0;
#X connect 25 1 26 0;
#X connect 26 0 12 0;
#X connect 26 1 27 0;
#X connect 27 0 4 0;
#X connect 27 1 28 0;
#X connect 28 0 7 0;
#X connect 28 1 29 0;
#X connect 29 0 6 0;
#X connect 29 1 30 0;
#X connect 30 0 45 0;
#X connect 30 1 31 0;
#X connect 31 0 8 0;
#X connect 31 1 32 0;
#X connect 32 0 46 0;
#X connect 45 0 2 0;
#X connect 46 0 0 0;
#X connect 47 0 14 0;
#X connect 48 0 47 0;
#X connect 49 0 15 0;
#X restore 26 372 pd sizes;
#X obj 108 428 cnv 5 5 17 empty empty empty 20 12 0 14 -260626 -66577
0;
#X obj 294 276 cnv 5 5 17 empty empty empty 20 12 0 14 -260626 -66577
0;
#X obj 452 540 cnv 5 5 17 empty empty empty 20 12 0 14 -194593 -66577
0;
#X obj 341 572 cnv 5 5 17 empty empty empty 20 12 0 14 -260626 -66577
0;
#X obj 227 544 cnv 5 5 17 empty empty empty 20 12 0 14 -194593 -66577
0;
#X obj 31 644 cnv 5 5 17 empty empty empty 20 12 0 14 -194593 -66577
0;
#X obj 31 455 cnv 5 5 17 empty empty empty 20 12 0 14 -260626 -66577
0;
#X obj 28 759 cnv 5 5 17 empty empty empty 20 12 0 14 -260626 -66577
0;
#X obj 261 769 cnv 5 5 17 empty empty empty 20 12 0 14 -194593 -66577
0;
#X obj 206 710 cnv 5 5 17 empty empty empty 20 12 0 14 -260626 -66577
0;
#X obj 523 416 cnv 5 5 17 empty empty empty 20 12 0 14 -194593 -66577
0;
#X obj 469 323 cnv 5 5 17 empty empty empty 20 12 0 14 -260626 -66577
0;
#X obj 545 363 cnv 5 5 17 empty empty empty 20 12 0 14 -194593 -66577
0;
#X obj 14 428 cnv 5 5 17 empty empty empty 20 12 0 14 -118750 -66577
0;
#X obj 28 786 cnv 5 5 17 empty empty empty 20 12 0 14 -102336 -66577
0;
#X obj 206 656 cnv 5 5 17 empty empty empty 20 12 0 14 -260626 -66577
0;
#X obj 393 789 cnv 5 5 17 empty empty empty 20 12 0 14 -194593 -66577
0;
#X obj 407 572 cnv 5 5 17 empty empty empty 20 12 0 14 -260626 -66577
0;
#X obj 341 527 cnv 5 5 17 empty empty empty 20 12 0 14 -194048 -66577
0;
#X obj 374 455 cnv 5 5 17 empty empty empty 20 12 0 14 -260626 -66577
0;
#X obj 652 537 cnv 10 80 15 empty empty empty 2 7 0 9 -257985 -66577
0;
#N canvas 62 66 640 557 remotename 0;
#X obj 260 9 cnv 10 330 470 empty empty for_the_ol_sss_system: 80 16
1 16 -229368 -66577 0;
#X obj 20 237 cnv 10 200 200 empty empty REMOTE 100 17 1 20 -261682
-4160 0;
#X obj 148 388 spigot;
#X obj 37 388 spigot;
#X obj 37 412 send;
#X obj 148 411 s \$0-in;
#X obj 37 364 r \$0-out;
#X obj 58 272 r \$0-remotename;
#X obj 31 412 cnv 5 5 17 empty empty empty 20 12 0 14 -194593 -66577
0;
#X obj 142 411 cnv 5 5 17 empty empty empty 20 12 0 14 -194593 -66577
0;
#X obj 31 364 cnv 5 5 17 empty empty empty 20 12 0 14 -260626 -66577
0;
#X obj 52 272 cnv 5 5 17 empty empty empty 20 12 0 14 -260626 -66577
0;
#X obj 51 298 sel none;
#X msg 97 351 0, f 1;
#X msg 107 351 1, f 1;
#X obj 107 298 t b;
#X obj 101 371 f;
#X floatatom 101 396 2 0 0 0 - - -, f 2;
#X obj 313 79 spigot;
#X symbolatom 326 197 20 0 0 0 - - -, f 20;
#X obj 313 49 r get_ol_sss_objects;
#X obj 313 439 s get_ol_sss_object_names;
#X obj 364 251 makefilename %s-r;
#X text 477 238 receive name;
#X text 475 438 global send !;
#X text 448 48 global receive !;
#X obj 307 49 cnv 5 5 17 empty empty empty 20 12 0 14 -260626 -66577
0;
#X obj 307 439 cnv 5 5 17 empty empty empty 20 12 0 14 -194593 -66577
0;
#X obj 360 156 cnv 5 5 17 empty empty empty 20 12 0 14 -260626 -66577
0;
#X obj 313 173 symbol;
#X obj 313 228 t b s s, f 9;
#X obj 418 299 r \$0-out;
#X obj 412 299 cnv 5 5 17 empty empty empty 20 12 0 14 -260626 -66577
0;
#X obj 313 300 v \$0-nameflag;
#X obj 307 300 cnv 5 5 17 empty empty empty 20 12 0 14 -194048 -66577
0;
#X obj 313 333 pack 0 s s;
#X obj 313 405 list append 0;
#X text 406 405 <--- put init value here;
#X obj 165 289 outlet;
#X obj 159 289 cnv 5 5 17 empty empty empty 20 12 0 14 -102336 -66577
0;
#X obj 142 366 cnv 5 5 17 empty empty empty 20 12 0 14 -260626 -66577
0;
#X obj 148 366 r \$0-rin;
#X obj 160 321 cnv 3 45 15 empty empty empty 2 7 0 10 -257985 -66577
0;
#N canvas 213 773 440 146 \$0-r 0;
#X restore 159 320 pd \$0-r;
#X obj 142 196 cnv 3 92 15 empty empty empty 2 7 0 10 -257985 -66577
0;
#N canvas 785 61 440 265 make 0;
#X obj 62 40 r \$0-remotename;
#X obj 56 40 cnv 5 5 17 empty empty empty 20 12 0 14 -260626 -66577
0;
#X obj 62 66 sel none;
#X obj 56 193 cnv 5 5 17 empty empty empty 20 12 0 14 -194593 -66577
0;
#X obj 62 193 s pd-\$0-r;
#X msg 62 171 clear;
#X obj 107 88 pack s \$0;
#X msg 107 111 clear \, obj 20 20 receive \$1-r \, obj 20 60 send \$2-rin
\, connect 0 0 1 0, f 21;
#X text 202 40 because [r] can't be set \, aaaah !;
#X connect 0 0 2 0;
#X connect 2 0 5 0;
#X connect 2 1 6 0;
#X connect 5 0 4 0;
#X connect 6 0 7 0;
#X connect 7 0 4 0;
#X restore 141 195 pd make receive;
#X obj 27 448 r \$0-getname;
#X msg 27 492 name: \$2 \$2-r;
#X obj 27 470 pack 0 s, f 16;
#X obj 21 448 cnv 5 5 17 empty empty empty 20 12 0 14 -260097 -66577
0;
#X obj 114 448 cnv 5 5 17 empty empty empty 20 12 0 14 -260097 -66577
0;
#X obj 120 448 r \$0-remotename;
#X obj 27 514 print [ol_num]:;
#X obj 22 85 bang;
#X obj 22 62 route float symbol;
#X obj 22 195 s \$0-remotename;
#X obj 16 195 cnv 5 5 17 empty empty empty 20 12 0 14 -194593 -66577
0;
#X msg 22 111 symbol none;
#X obj 58 85 sel none empty;
#X obj 16 39 cnv 5 5 17 empty empty empty 20 12 0 14 -260626 -66577
0;
#X obj 22 39 r \$0-arg1;
#X obj 42 160 cnv 3 88 15 empty empty empty 2 7 0 10 -257985 -66577
0;
#N canvas 1137 211 605 622 check_$____ 0;
#X text 50 6 string in;
#X obj 60 25 inlet;
#X obj 311 524 outlet;
#X obj 54 25 cnv 5 5 17 empty empty empty 20 12 0 14 -118750 -66577
0;
#X obj 305 524 cnv 5 5 17 empty empty empty 20 12 0 14 -102336 -66577
0;
#X obj 60 69 list fromsymbol;
#X obj 60 216 list store, f 16;
#X obj 60 117 until;
#X obj 60 141 f;
#X obj 101 141 + 1;
#X msg 60 193 get \$1 1;
#X msg 101 117 0;
#X text 165 69 list drip;
#X obj 60 92 t b b l b, f 22;
#X msg 189 306 0;
#X obj 410 507 list tosymbol;
#X obj 60 47 t s s, f 26;
#X obj 60 239 sel 36, f 7;
#X text 112 239 detect dollar;
#X msg 60 291 1;
#X msg 132 294 0;
#X obj 99 323 spigot;
#X obj 99 367 sel 48;
#X obj 99 345 t f b, f 11;
#X msg 99 389 1;
#X obj 145 367 t b;
#X text 38 367 detect 0;
#X msg 145 389 2;
#X text 220 306 normal name;
#X text 175 389 \$1 \, \$2 etc;
#X text 72 390 \$0;
#X obj 152 425 f;
#X obj 99 263 t b f;
#X obj 335 241 f;
#X obj 60 165 t f f;
#X obj 293 46 sel 0 1 2, f 28;
#X obj 311 98 symbol;
#X obj 416 179 list fromsymbol;
#X obj 403 331 list store, f 16;
#X obj 403 238 until;
#X obj 403 262 f;
#X obj 444 262 + 1;
#X msg 403 308 get \$1 1;
#X msg 444 238 0;
#X obj 403 213 t b b l b, f 22;
#X obj 403 286 t f f;
#X obj 403 353 sel 92, f 7;
#X text 456 354 remove bsl;
#X obj 442 399 list store;
#X msg 442 376 append \$1;
#X obj 504 469 inlet;
#X obj 498 469 cnv 5 5 17 empty empty empty 20 12 0 14 -118750 -66577
0;
#X obj 504 494 list fromsymbol, f 10;
#X obj 410 484 list prepend;
#X obj 333 180 list split;
#X obj 442 422 demux 0 1 2;
#X obj 333 152 list store;
#X obj 152 448 t f f f, f 17;
#X obj 416 82 symbol \$1;
#X text 481 82 <---;
#X text 427 104 this method makes sure that in case of \$1 \, \$2 etc
in the remote name \, the arguments get expanded correctly, f 25;
#X text 298 21 0: normal / 1:\$0 / 2: \$1 etc;
#X text 321 261 split point after \$0, f 12;
#X obj 152 497 v \$0-nameflag;
#X obj 146 497 cnv 5 5 17 empty empty empty 20 12 0 14 -194048 -66577
0;
#X obj 152 473 == 1;
#X obj 305 446 cnv 5 5 17 empty empty empty 20 12 0 14 -194593 -66577
0;
#X obj 323 416 list tosymbol;
#X obj 311 446 s \$0-sss_remotename;
#X connect 1 0 16 0;
#X connect 5 0 13 0;
#X connect 6 0 17 0;
#X connect 6 1 7 1;
#X connect 6 1 31 0;
#X connect 7 0 8 0;
#X connect 8 0 34 0;
#X connect 9 0 8 1;
#X connect 9 0 33 1;
#X connect 10 0 6 0;
#X connect 11 0 8 1;
#X connect 13 0 7 0;
#X connect 13 1 11 0;
#X connect 13 2 6 1;
#X connect 13 2 56 1;
#X connect 13 3 14 0;
#X connect 14 0 31 1;
#X connect 14 0 21 1;
#X connect 15 0 2 0;
#X connect 16 0 5 0;
#X connect 16 1 36 1;
#X connect 17 0 19 0;
#X connect 17 1 32 0;
#X connect 19 0 21 1;
#X connect 20 0 21 1;
#X connect 21 0 23 0;
#X connect 22 0 24 0;
#X connect 22 0 33 0;
#X connect 22 1 25 0;
#X connect 23 0 22 0;
#X connect 23 1 20 0;
#X connect 24 0 31 1;
#X connect 25 0 27 0;
#X connect 27 0 31 1;
#X connect 31 0 57 0;
#X connect 32 0 20 0;
#X connect 32 1 21 0;
#X connect 33 0 54 1;
#X connect 34 0 10 0;
#X connect 34 1 9 0;
#X connect 35 0 36 0;
#X connect 35 1 56 0;
#X connect 35 2 58 0;
#X connect 36 0 2 0;
#X connect 36 0 68 0;
#X connect 37 0 44 0;
#X connect 38 0 46 0;
#X connect 38 1 39 1;
#X connect 38 1 48 0;
#X connect 39 0 40 0;
#X connect 40 0 45 0;
#X connect 41 0 40 1;
#X connect 42 0 38 0;
#X connect 43 0 40 1;
#X connect 44 0 39 0;
#X connect 44 1 43 0;
#X connect 44 2 38 1;
#X connect 44 3 48 1;
#X connect 45 0 42 0;
#X connect 45 1 41 0;
#X connect 46 1 49 0;
#X connect 48 0 55 0;
#X connect 48 0 67 0;
#X connect 49 0 48 0;
#X connect 50 0 52 0;
#X connect 52 0 53 1;
#X connect 53 0 15 0;
#X connect 54 1 44 0;
#X connect 55 1 53 0;
#X connect 55 2 15 0;
#X connect 56 0 54 0;
#X connect 57 0 65 0;
#X connect 57 1 35 0;
#X connect 57 2 55 1;
#X connect 58 0 37 0;
#X connect 65 0 63 0;
#X connect 67 0 68 0;
#X restore 41 159 pd check_$____;
#X obj 122 136 canvasdollarzero 2;
#X obj 116 110 cnv 5 5 17 empty empty empty 20 12 0 14 -260626 -66577
0;
#X obj 122 110 r \$0-lbinit;
#X text 23 6 any float \, "none" or "empty" as 1st argument: no remote
name, f 35;
#X obj 366 156 r \$0-sss_remotename;
#X connect 2 0 5 0;
#X connect 3 0 4 0;
#X connect 6 0 3 0;
#X connect 7 0 12 0;
#X connect 7 0 38 0;
#X connect 7 0 4 1;
#X connect 12 0 13 0;
#X connect 12 1 15 0;
#X connect 13 0 16 0;
#X connect 14 0 16 0;
#X connect 15 0 14 0;
#X connect 16 0 3 1;
#X connect 16 0 2 1;
#X connect 16 0 17 0;
#X connect 16 0 18 1;
#X connect 18 0 29 0;
#X connect 20 0 18 0;
#X connect 22 0 35 2;
#X connect 29 0 30 0;
#X connect 29 0 19 0;
#X connect 30 0 33 0;
#X connect 30 1 35 1;
#X connect 30 2 22 0;
#X connect 31 0 36 1;
#X connect 33 0 35 0;
#X connect 35 0 36 0;
#X connect 36 0 21 0;
#X connect 41 0 2 0;
#X connect 46 0 48 0;
#X connect 47 0 52 0;
#X connect 48 0 47 0;
#X connect 51 0 48 1;
#X connect 53 0 57 0;
#X connect 54 0 53 0;
#X connect 54 1 58 0;
#X connect 57 0 55 0;
#X connect 58 0 57 0;
#X connect 58 1 57 0;
#X connect 58 2 62 0;
#X connect 60 0 54 0;
#X connect 62 0 55 0;
#X connect 63 0 62 1;
#X connect 65 0 63 0;
#X connect 67 0 29 1;
#X restore 651 536 pd remotename;
#X msg 651 303 bang;
#X obj 662 280 cnv 8 50 15 empty empty empty 20 12 0 14 -3586 -66577
0;
#X obj 661 279 loadbang;
#X text 751 349 load defaults first !, f 8;
#X obj 664 371 cnv 5 5 17 empty empty empty 20 12 0 14 -194593 -66577
0;
#X obj 670 371 s \$0-args;
#X obj 645 404 cnv 5 5 17 empty empty empty 20 12 0 14 -194593 -66577
0;
#X obj 651 404 s \$0-canvasargs;
#N canvas 137 281 583 608 INIT 0;
#X obj 258 11 cnv 10 200 100 empty empty GOP 140 17 1 20 -204786 -4160
0;
#X obj 273 81 s \$0-ol_num;
#X obj 273 21 r \$0-GOP;
#X obj 267 81 cnv 5 5 17 empty empty empty 20 12 0 14 -194593 -66577
0;
#X obj 267 21 cnv 5 5 17 empty empty empty 20 12 0 14 -260626 -66577
0;
#X obj 32 314 cnv 4 62 15 empty empty empty 2 7 0 10 -257985 -66577
0;
#N canvas 0 50 334 272 achange 0;
#X obj 47 40 inlet;
#X obj 196 25 inlet;
#X text 193 4 reset;
#X text 96 231 list out;
#X obj 47 231 outlet;
#X obj 47 62 list;
#X obj 196 75 text define;
#X obj 62 205 text set -s text t;
#X msg 196 52 clear \, bang;
#X msg 239 25 bang;
#X obj 196 99 t p;
#X obj 86 132 text search -s text t;
#X obj 86 155 == -1;
#X obj 47 178 spigot;
#X obj 47 85 t l l, f 7;
#X text 40 5 anything in;
#X connect 0 0 5 0;
#X connect 1 0 8 0;
#X connect 5 0 14 0;
#X connect 6 0 10 0;
#X connect 8 0 6 0;
#X connect 9 0 8 0;
#X connect 10 0 7 3;
#X connect 10 0 11 1;
#X connect 11 0 12 0;
#X connect 12 0 13 1;
#X connect 13 0 4 0;
#X connect 13 0 7 0;
#X connect 14 0 13 0;
#X connect 14 1 11 0;
#X restore 31 313 pd achange;
#X obj 102 313 cnv 5 5 17 empty empty empty 20 12 0 14 -260626 -66577
0;
#X obj 108 313 r \$0-lbinit;
#X obj 31 341 list split 1;
#X obj 165 370 list split 1;
#X obj 199 395 list split 2;
#X obj 233 421 list split 1;
#X obj 267 445 list split 2;
#X obj 225 515 cnv 5 5 17 empty empty empty 20 12 0 14 -194593 -66577
0;
#X obj 231 515 s \$0-in;
#X text 250 370 size;
#X text 284 394 range;
#X text 353 444 colors;
#X msg 126 430 size \$1;
#X msg 150 460 range \$1 \$2;
#X text 320 421 init;
#X msg 172 485 init \$1;
#X msg 231 485 colors \$1 \$2;
#X msg 273 45 donecanvasdialog 1 -1 3 0 -1 1 1 \$1 \$2 0 0 \, dirty
0, f 28;
#X obj 27 14 cnv 5 5 17 empty empty empty 20 12 0 14 -260626 -66577
0;
#X obj 33 14 r \$0-args;
#X text 100 13 load defaults first !;
#X obj 26 189 cnv 5 5 17 empty empty empty 20 12 0 14 -260097 -66577
0;
#X obj 94 283 cnv 5 5 17 empty empty empty 20 12 0 14 -173398 -66577
0;
#X obj 100 283 s \$0-argumentslist;
#X obj 34 38 cnv 4 122 15 empty empty empty 2 7 0 10 -257985 -66577
0;
#N canvas 722 50 696 701 prepare_arguments 0;
#X obj 27 16 inlet;
#X obj 21 16 cnv 5 5 17 empty empty empty 20 12 0 14 -118750 -66577
0;
#X obj 51 655 outlet;
#X obj 45 655 cnv 5 5 17 empty empty empty 20 12 0 14 -102336 -66577
0;
#X obj 410 665 text set \$0-defaults 0;
#X text 413 543 defaults:;
#X obj 124 572 text set \$0-defaults 0;
#X obj 27 438 t l l;
#X obj 54 461 list split 1;
#X obj 27 485 list split 1;
#X obj 124 547 list trim;
#X msg 51 611 0;
#X obj 61 508 route float;
#X obj 61 530 sel 0;
#X obj 210 653 outlet;
#X obj 204 653 cnv 5 5 17 empty empty empty 20 12 0 14 -102336 -66577
0;
#X text 210 670 bang to set extra defaults;
#X text 52 671 real arguments list;
#X obj 183 467 t b b;
#X obj 51 633 text get \$0-defaults;
#X obj 625 380 cnv 5 5 17 empty empty empty 20 12 0 14 -173398 -66577
0;
#X obj 631 380 s \$0-in;
#X obj 415 488 text set \$0-defaults 0, f 23;
#X obj 438 458 list split 1, f 14;
#X text 249 317 attributes that are also arguments will replace them
\, all others get sent to \$0-in, f 46;
#X msg 248 381 \$1 2;
#X msg 295 381 \$1 3;
#X msg 343 381 \$1 4;
#X msg 533 380 \$1 13;
#X obj 436 592 route 0;
#X obj 430 637 cnv 5 5 17 empty empty empty 20 12 0 14 -173398 -66577
0;
#X obj 436 637 s \$0-defaultslist;
#X obj 436 615 list;
#X msg 390 381 \$1 3 \, \$2 4, f 5;
#X obj 485 381 list;
#X msg 485 403 \$1 6 \, \$2 7, f 5;
#X msg 438 381 \$1 5;
#X obj 144 437 t b b;
#X obj 278 40 bng 15 250 50 0 empty empty a 17 7 0 10 -262144 -1 -1
;
#X obj 137 42 bng 15 250 50 0 empty empty sym 17 7 0 10 -262144 -1
-1;
#X obj 83 42 bng 15 250 50 0 empty empty float 17 7 0 10 -262144 -1
-1;
#X obj 38 42 bng 15 250 50 0 empty empty list 17 7 0 10 -262144 -1
-1;
#X obj 28 412 cnv 3 80 15 empty empty empty 2 7 0 9 -257985 -66577
0;
#X obj 27 64 route list float symbol bang init;
#X obj 225 40 bng 15 250 50 0 empty empty init 17 7 0 10 -262144 -1
-1;
#X text 83 4 "init" just sets defaults !;
#X text 83 15 "bang" also loads them;
#X obj 28 129 cnv 3 122 15 empty empty empty 2 7 0 10 -257985 -66577
0;
#X obj 156 166 bng 15 250 50 0 empty empty empty 17 7 0 10 -262144
-1 -1;
#X obj 119 411 bng 15 250 50 0 empty empty empty 17 7 0 10 -262144
-1 -1;
#N canvas 696 50 522 608 args 0;
#X obj 85 25 inlet;
#X obj 79 25 cnv 5 5 17 empty empty empty 20 12 0 14 -118750 -66577
0;
#X obj 27 177 cnv 5 5 17 empty empty empty 20 12 0 14 -102336 -66577
0;
#X obj 85 48 list;
#X obj 227 237 list store, f 14;
#X obj 227 141 until;
#X obj 227 165 f;
#X obj 268 165 + 1;
#X msg 227 214 get \$1 1;
#X msg 268 141 0;
#X text 257 92 list drip;
#X obj 227 111 t b b l b, f 20;
#X symbolatom 316 510 10 0 0 0 - - -, f 10;
#X obj 316 524 list fromsymbol;
#X floatatom 316 541 5 0 0 0 - - -, f 5;
#X obj 33 123 list store, f 11;
#X obj 227 261 route symbol;
#X obj 227 189 t f f;
#X obj 227 285 list fromsymbol;
#X obj 227 308 route 64;
#X obj 227 362 f, f 5;
#X obj 227 338 t b;
#X obj 227 409 list store, f 14;
#X msg 227 385 append \$1;
#X obj 33 149 list split;
#X msg 227 481 999999;
#X obj 284 481 list split 1;
#X msg 129 45 0 mysymbol 7 -120 4 456 fff;
#X obj 227 456 route bang;
#X obj 84 372 list store, f 12;
#X obj 227 506 f;
#X obj 33 96 t b f;
#X obj 227 432 t l l, f 10;
#X obj 84 408 list split 1;
#X obj 84 433 list fromsymbol;
#X obj 84 457 route 64;
#X obj 84 482 list tosymbol;
#X obj 84 505 list append;
#X obj 33 178 outlet;
#X obj 167 545 outlet;
#X obj 360 254 t b b;
#X obj 161 545 cnv 5 5 17 empty empty empty 20 12 0 14 -102336 -66577
0;
#X text 28 198 args list;
#X text 153 563 attributes;
#X obj 359 73 inlet;
#X obj 353 73 cnv 5 5 17 empty empty empty 20 12 0 14 -118750 -66577
0;
#X obj 84 528 list trim;
#X obj 27 238 list store;
#X obj 27 262 route bang;
#X obj 155 249 list length, f 6;
#X obj 84 291 list append;
#X obj 8 238 bng 15 250 50 0 empty empty empty 17 7 0 10 -262144 -1
-1;
#X obj 85 71 t l l l, f 19;
#X text 353 42 bang to output attributes, f 15;
#X obj 85 315 cnv 4 92 15 empty empty empty 2 7 0 10 -257985 -66577
0;
#N canvas 0 50 323 298 drip_special 0;
#X obj 107 14 inlet;
#X obj 101 14 cnv 5 5 17 empty empty empty 20 12 0 14 -118750 -66577
0;
#X obj 69 156 list store;
#X obj 107 39 t b l b;
#X msg 69 134 get \$1 2;
#X obj 69 79 until;
#X obj 69 112 f;
#X obj 100 114 + 1;
#X msg 176 84 0, f 1;
#X obj 69 180 t l l;
#X msg 69 203 \$1;
#X msg 113 180 \$2 \$1;
#X obj 113 203 -;
#X obj 69 228 pack;
#X obj 69 252 outlet;
#X obj 63 252 cnv 5 5 17 empty empty empty 20 12 0 14 -102336 -66577
0;
#X obj 221 250 outlet;
#X obj 215 250 cnv 5 5 17 empty empty empty 20 12 0 14 -102336 -66577
0;
#X connect 0 0 3 0;
#X connect 2 0 9 0;
#X connect 2 1 5 1;
#X connect 2 1 16 0;
#X connect 3 0 5 0;
#X connect 3 1 2 1;
#X connect 3 2 8 0;
#X connect 4 0 2 0;
#X connect 5 0 6 0;
#X connect 6 0 7 0;
#X connect 6 0 4 0;
#X connect 7 0 6 1;
#X connect 8 0 6 1;
#X connect 9 0 10 0;
#X connect 9 1 11 0;
#X connect 10 0 13 0;
#X connect 11 0 12 0;
#X connect 12 0 13 1;
#X connect 13 0 14 0;
#X restore 84 314 pd drip_special;
#X text 65 5 arguments in;
#X msg 84 348 get \$1 \$2;
#X msg 129 24 0 mysymbol 7 -120 4 @size 120 30 -1 @height 45 @goplevel
2;
#X obj 440 331 outlet;
#X obj 434 331 cnv 5 5 17 empty empty empty 20 12 0 14 -102336 -66577
0;
#X text 426 349 finish bang;
#X connect 0 0 3 0;
#X connect 3 0 52 0;
#X connect 4 0 16 0;
#X connect 4 1 40 0;
#X connect 5 0 6 0;
#X connect 6 0 7 0;
#X connect 6 0 17 0;
#X connect 7 0 6 1;
#X connect 8 0 4 0;
#X connect 9 0 6 1;
#X connect 11 0 5 0;
#X connect 11 1 9 0;
#X connect 11 2 4 1;
#X connect 11 3 22 1;
#X connect 12 0 13 0;
#X connect 13 0 14 0;
#X connect 15 0 24 0;
#X connect 16 0 18 0;
#X connect 17 0 8 0;
#X connect 17 1 20 1;
#X connect 18 0 19 0;
#X connect 19 0 21 0;
#X connect 20 0 23 0;
#X connect 21 0 20 0;
#X connect 22 0 32 0;
#X connect 23 0 22 0;
#X connect 24 0 38 0;
#X connect 24 2 38 0;
#X connect 25 0 30 0;
#X connect 26 0 30 0;
#X connect 27 0 52 0;
#X connect 28 0 25 0;
#X connect 28 1 26 0;
#X connect 29 0 33 0;
#X connect 30 0 31 0;
#X connect 31 0 15 0;
#X connect 31 1 24 1;
#X connect 32 0 28 0;
#X connect 32 1 47 1;
#X connect 33 0 34 0;
#X connect 33 1 37 1;
#X connect 34 0 35 0;
#X connect 35 0 36 0;
#X connect 36 0 37 0;
#X connect 37 0 46 0;
#X connect 40 0 22 0;
#X connect 40 1 5 1;
#X connect 44 0 47 0;
#X connect 46 0 39 0;
#X connect 47 0 48 0;
#X connect 48 0 59 0;
#X connect 48 1 50 0;
#X connect 49 0 50 1;
#X connect 50 0 55 0;
#X connect 51 0 47 0;
#X connect 52 0 11 0;
#X connect 52 1 29 1;
#X connect 52 1 15 1;
#X connect 52 2 49 0;
#X connect 55 0 57 0;
#X connect 55 1 59 0;
#X connect 57 0 29 0;
#X connect 58 0 52 0;
#X restore 27 128 pd args & attributes;
#X text 139 402 listfunnel finish, f 10;
#X text 176 156 attributes sent, f 10;
#X obj 178 41 bng 15 250 50 0 empty empty bang 17 7 0 10 -262144 -1
-1;
#X obj 27 101 list prepend 0;
#X obj 27 160 t l l;
#X obj 74 160 list length;
#X obj 27 185 spigot;
#X obj 74 185 > 1;
#X obj 74 209 sel 0;
#X text 118 194 if list is only one element \, it must be 0 \, so only
attributes are being sent, f 28;
#X obj 27 245 list split 1;
#X obj 27 357 list, f 17;
#X obj 104 269 list split 1, f 38;
#X obj 104 293 route float;
#X obj 61 269 t l l;
#X obj 27 381 list, f 32;
#X obj 104 317 list prepend none;
#X obj 9 36 cnv 3 3 400 empty empty empty 20 12 0 14 -159808 -66577
0;
#N canvas 0 50 441 281 listfunnel 0;
#X obj 20 17 inlet;
#X obj 28 224 outlet;
#X obj 90 246 outlet;
#X text 135 244 signal end of list;
#X text 14 205 list items;
#X obj 242 190 f;
#X obj 269 190 + 1;
#X obj 138 63 route symbol float;
#X obj 138 113 t s b;
#X obj 190 89 t f b;
#X obj 138 140 list prepend symbol, f 8;
#X obj 14 17 cnv 5 5 17 empty empty empty 20 12 0 14 -118750 -66577
0;
#X obj 22 224 cnv 5 5 17 empty empty empty 20 12 0 14 -102336 -66577
0;
#X obj 84 246 cnv 5 5 17 empty empty empty 20 12 0 14 -102336 -66577
0;
#X obj 272 125 inlet;
#X obj 266 125 cnv 5 5 17 empty empty empty 20 12 0 14 -118750 -66577
0;
#X obj 21 170 list store, f 12;
#X obj 21 86 until;
#X obj 21 115 f;
#X obj 51 115 + 1;
#X msg 21 142 get \$1 1;
#X obj 64 86 0;
#X obj 21 62 t b b a, f 12;
#X obj 20 39 t a b, f 40;
#X obj 138 207 list prepend;
#X obj 90 193 t b b;
#X text 286 147 leading number, f 11;
#X text 273 86 index 1 = remote name, f 20;
#X obj 257 155 f 0;
#X connect 0 0 23 0;
#X connect 5 0 6 0;
#X connect 5 0 24 1;
#X connect 6 0 5 1;
#X connect 7 0 8 0;
#X connect 7 1 9 0;
#X connect 8 0 10 0;
#X connect 8 1 5 0;
#X connect 9 0 24 0;
#X connect 9 1 5 0;
#X connect 10 0 24 0;
#X connect 14 0 28 1;
#X connect 16 0 7 0;
#X connect 16 1 25 0;
#X connect 17 0 18 0;
#X connect 18 0 20 0;
#X connect 18 0 19 0;
#X connect 19 0 18 1;
#X connect 20 0 16 0;
#X connect 21 0 18 1;
#X connect 22 0 17 0;
#X connect 22 1 21 0;
#X connect 22 2 16 1;
#X connect 23 0 22 0;
#X connect 23 1 28 0;
#X connect 24 0 1 0;
#X connect 25 0 2 0;
#X connect 25 1 17 1;
#X connect 28 0 5 1;
#X restore 27 411 pd listfunnel;
#X obj 248 354 route size min max range init colors goplevel name,
f 64;
#X msg 581 413 \$1 1;
#X obj 581 387 l2s;
#X obj 578 380 cnv 3 30 3 empty empty empty 20 12 0 14 -159808 -66577
0;
#X text 580 430 name;
#X msg 410 565 0 none 0 -1e+037 1e+037 off white 47_0_77;
#X connect 0 0 43 0;
#X connect 7 0 9 0;
#X connect 7 1 8 0;
#X connect 8 0 6 2;
#X connect 9 1 12 0;
#X connect 10 0 6 0;
#X connect 11 0 19 0;
#X connect 12 0 13 0;
#X connect 12 1 10 0;
#X connect 13 1 10 0;
#X connect 18 0 75 0;
#X connect 18 1 14 0;
#X connect 19 0 2 0;
#X connect 23 0 22 0;
#X connect 23 1 22 2;
#X connect 25 0 23 0;
#X connect 26 0 23 0;
#X connect 27 0 23 0;
#X connect 28 0 23 0;
#X connect 29 0 32 0;
#X connect 32 0 31 0;
#X connect 33 0 23 0;
#X connect 34 0 35 0;
#X connect 35 0 23 0;
#X connect 36 0 23 0;
#X connect 37 0 11 0;
#X connect 37 1 18 0;
#X connect 43 0 41 0;
#X connect 43 0 54 0;
#X connect 43 1 40 0;
#X connect 43 1 54 0;
#X connect 43 2 39 0;
#X connect 43 2 54 0;
#X connect 43 3 53 0;
#X connect 43 3 37 0;
#X connect 43 4 44 0;
#X connect 43 4 18 0;
#X connect 43 5 54 0;
#X connect 43 5 38 0;
#X connect 50 0 55 0;
#X connect 50 1 70 0;
#X connect 50 2 48 0;
#X connect 50 2 11 0;
#X connect 54 0 50 0;
#X connect 55 0 57 0;
#X connect 55 1 56 0;
#X connect 56 0 58 0;
#X connect 57 0 61 0;
#X connect 58 0 57 1;
#X connect 58 0 59 0;
#X connect 59 0 50 1;
#X connect 61 0 62 0;
#X connect 61 1 65 0;
#X connect 62 0 66 0;
#X connect 63 0 64 0;
#X connect 63 1 66 1;
#X connect 64 0 67 0;
#X connect 64 1 62 1;
#X connect 65 1 63 0;
#X connect 66 0 69 0;
#X connect 67 0 62 1;
#X connect 69 0 7 0;
#X connect 69 1 50 1;
#X connect 69 1 49 0;
#X connect 70 0 25 0;
#X connect 70 1 26 0;
#X connect 70 2 27 0;
#X connect 70 3 33 0;
#X connect 70 4 36 0;
#X connect 70 5 34 0;
#X connect 70 6 28 0;
#X connect 70 7 72 0;
#X connect 71 0 23 0;
#X connect 72 0 71 0;
#X connect 75 0 4 0;
#X connect 75 0 29 0;
#X restore 33 37 pd prepare_arguments;
#X obj 67 106 list split 1;
#X obj 61 129 cnv 5 5 17 empty empty empty 20 12 0 14 -173398 -66577
0;
#X obj 67 129 s \$0-arg1;
#X obj 33 61 list split 1;
#X obj 31 189 r \$0-remotename;
#X text 113 250 final list of arguments, f 12;
#X obj 67 83 t l l, f 7;
#X obj 31 210 t b;
#X obj 31 233 list store, f 13;
#X text 54 146 first: take care of remote name, f 16;
#X text 59 209 then do the rest;
#X obj 31 256 t l l, f 12;
#X text 225 162 3.) minimum (0 or "none" = no minimum);
#X text 225 175 4.) maximum (0 or "none" = no maximum);
#X text 226 120 Arguments: (defaults);
#X text 225 189 5.) init value (0 = off !);
#X text 225 243 6.) color bgnd;
#X text 225 255 7.) color fgnd;
#X text 225 209 EXTRA ARGUMENTS via "properties": (defaults), f 25
;
#X text 225 136 1.) remote name (0 / none);
#X text 225 149 2.) size (0) (15 sizes);
#X obj 315 473 list split 1;
#X text 401 472 goplevel;
#X msg 315 498 goplevel \$1;
#X text 81 504 internal loadbang, f 8;
#X obj 31 512 s \$0-lb;
#X obj 31 488 del 10;
#X obj 25 512 cnv 5 5 17 empty empty empty 20 12 0 14 -173398 -66577
0;
#X obj 31 464 t b;
#X obj 394 330 print \$0-NUM_ARGS;
#X connect 2 0 24 0;
#X connect 6 0 9 0;
#X connect 8 0 6 1;
#X connect 9 0 61 0;
#X connect 9 1 10 0;
#X connect 10 0 19 0;
#X connect 10 1 11 0;
#X connect 11 0 20 0;
#X connect 11 1 12 0;
#X connect 12 0 22 0;
#X connect 12 1 13 0;
#X connect 13 0 23 0;
#X connect 13 1 54 0;
#X connect 19 0 15 0;
#X connect 20 0 15 0;
#X connect 22 0 15 0;
#X connect 23 0 15 0;
#X connect 24 0 1 0;
#X connect 26 0 32 0;
#X connect 32 0 36 0;
#X connect 33 0 35 0;
#X connect 36 1 39 0;
#X connect 37 0 40 0;
#X connect 39 0 33 0;
#X connect 39 1 41 1;
#X connect 40 0 41 0;
#X connect 41 0 44 0;
#X connect 44 0 6 0;
#X connect 44 1 30 0;
#X connect 54 0 56 0;
#X connect 56 0 15 0;
#X connect 59 0 58 0;
#X connect 61 0 59 0;
#X restore 651 512 pd INIT;
#X symbolatom 651 558 15 0 0 0 - - -, f 15;
#X obj 651 718 canvasargs;
#X obj 645 743 cnv 5 5 17 empty empty empty 20 12 0 14 -194593 -66577
0;
#X obj 651 743 s \$0-args;
#X obj 645 696 cnv 5 5 17 empty empty empty 20 12 0 14 -260626 -66577
0;
#X obj 651 696 r \$0-canvasargs;
#X obj 651 599 propertybang;
#X obj 652 624 cnv 5 92 15 empty empty empty 2 7 0 10 -257985 -66577
0;
#N canvas 375 287 986 618 propertyguts 0;
#X obj 544 131 s pd-\$0-properties;
#X obj 538 131 cnv 5 5 17 empty empty empty 20 12 0 14 -194593 -66577
0;
#X obj 517 37 t b b;
#X obj 513 581 s pd-\$0-properties;
#X obj 507 581 cnv 5 5 17 empty empty empty 20 12 0 14 -194593 -66577
0;
#X obj 511 12 cnv 5 5 17 empty empty empty 20 12 0 14 -118750 -66577
0;
#X obj 517 12 inlet;
#X obj 513 426 r \$0-properties_cancel;
#X obj 507 426 cnv 5 5 17 empty empty empty 20 12 0 14 -260626 -66577
0;
#X obj 65 28 cnv 5 5 17 empty empty empty 20 12 0 14 -260626 -66577
0;
#X obj 71 28 r \$0-properties_apply;
#X obj 568 160 cnv 5 5 17 empty empty empty 20 12 0 14 -260626 -66577
0;
#X obj 574 160 r \$0-argumentslist;
#X obj 517 184 list store;
#X obj 511 366 cnv 5 5 17 empty empty empty 20 12 0 14 -194593 -66577
0;
#X obj 619 340 cnv 5 5 17 empty empty empty 20 12 0 14 -194593 -66577
0;
#X obj 517 366 s \$0-prop_name-r;
#X obj 625 340 s \$0-prop_size-r;
#X obj 517 210 list split 1;
#X obj 517 236 route symbol;
#X obj 533 262 t b;
#X msg 533 284 symbol none;
#X obj 739 142 cnv 5 5 17 empty empty empty 20 12 0 14 -260626 -66577
0;
#X obj 745 167 t b b;
#X obj 745 142 r \$0-properties_def;
#X obj 785 167 cnv 5 5 17 empty empty empty 20 12 0 14 -194593 -66577
0;
#X obj 791 167 s \$0-args;
#X obj 219 12 cnv 5 5 17 empty empty empty 20 12 0 14 -260626 -66577
0;
#X obj 225 12 r \$0-properties_autoapply;
#X obj 131 419 cnv 5 5 17 empty empty empty 20 12 0 14 -260626 -66577
0;
#X obj 137 419 r \$0-prop_name;
#X obj 88 154 cnv 5 5 17 empty empty empty 20 12 0 14 -260626 -66577
0;
#X obj 94 154 r \$0-prop_size;
#X obj 137 442 sel none empty;
#X obj 71 490 list prepend, f 15;
#X msg 461 20 bang;
#X obj 37 419 list split 1;
#X msg 302 69 args;
#X msg 302 121 canvasargs;
#X obj 71 513 send, f 39;
#X obj 66 513 cnv 5 5 17 empty empty empty 20 12 0 14 -194593 -66577
0;
#X msg 302 190 symbol \$2-\$1;
#X obj 302 167 pack s \$0;
#X obj 302 145 symbol;
#X obj 48 126 cnv 5 5 17 empty empty empty 20 12 0 14 -194593 -66577
0;
#X obj 54 126 s \$0-canvasargs;
#X obj 31 80 cnv 5 5 17 empty empty empty 20 12 0 14 -260626 -66577
0;
#X obj 37 80 r \$0-properties_ok;
#X obj 37 104 t b b b b;
#X obj 531 449 cnv 5 5 17 empty empty empty 20 12 0 14 -260626 -66577
0;
#X obj 537 449 r \$0-properties_ok;
#X obj 513 474 b;
#X obj 669 529 print =;
#X msg 669 466 . \, ============================== \, DON'T FORGET
TO SAVE THE PARENT \, PATCH TO MAKE CHANGES PERSISTENT ! \, ==============================
, f 37;
#X msg 513 557 vis \$1;
#X msg 513 497 0;
#X obj 513 520 t f f, f 10;
#X obj 564 558 cnv 5 5 17 empty empty empty 20 12 0 14 -194593 -66577
0;
#X obj 570 558 s \$0-properties_autoapply-r, f 28;
#X obj 548 496 sendcanvas 2;
#X msg 548 473 dirty 1;
#X obj 518 313 cnv 3 80 15 empty empty empty 2 7 0 10 -257985 -66577
0;
#N canvas 268 376 320 353 remove_bsl 0;
#X text 50 6 string in;
#X obj 60 25 inlet;
#X obj 99 293 outlet;
#X obj 54 25 cnv 5 5 17 empty empty empty 20 12 0 14 -118750 -66577
0;
#X obj 93 293 cnv 5 5 17 empty empty empty 20 12 0 14 -102336 -66577
0;
#X obj 60 49 list fromsymbol;
#X obj 60 171 list store, f 14;
#X obj 60 102 until;
#X obj 60 126 f;
#X obj 101 126 + 1;
#X msg 60 148 get \$1 1;
#X msg 101 102 0;
#X text 192 71 list drip;
#X obj 60 72 t b b l b, f 20;
#X obj 99 268 list tosymbol;
#X obj 60 198 sel 92, f 7;
#X text 119 198 remove backslashes;
#X obj 99 245 list store;
#X msg 99 222 append \$1;
#X connect 1 0 5 0;
#X connect 5 0 13 0;
#X connect 6 0 15 0;
#X connect 6 1 7 1;
#X connect 6 1 17 0;
#X connect 7 0 8 0;
#X connect 8 0 9 0;
#X connect 8 0 10 0;
#X connect 9 0 8 1;
#X connect 10 0 6 0;
#X connect 11 0 8 1;
#X connect 13 0 7 0;
#X connect 13 1 11 0;
#X connect 13 2 6 1;
#X connect 13 3 17 1;
#X connect 14 0 2 0;
#X connect 15 1 18 0;
#X connect 17 0 14 0;
#X connect 18 0 17 0;
#X restore 517 312 pd remove_bsl;
#X msg 544 90 vis 0 \, relocate \$1x\$2+0+0 0x0+\$3+\$4 \, vis 1 \,
editmode 0, f 28;
#X text 564 38 size x y \, pos x y;
#X obj 652 314 cnv 5 5 17 empty empty empty 20 12 0 14 -194593 -66577
0;
#X obj 685 289 cnv 5 5 17 empty empty empty 20 12 0 14 -194593 -66577
0;
#X obj 658 314 s \$0-prop_min-r;
#X obj 691 289 s \$0-prop_max-r;
#X obj 736 340 cnv 5 5 17 empty empty empty 20 12 0 14 -194593 -66577
0;
#X obj 742 340 s \$0-prop_initval-r;
#X obj 535 61 cnv 8 120 25 empty empty empty 20 12 0 14 -261234 -66577
0;
#X obj 111 180 cnv 5 5 17 empty empty empty 20 12 0 14 -260626 -66577
0;
#X obj 117 180 r \$0-prop_min;
#X obj 134 204 cnv 5 5 17 empty empty empty 20 12 0 14 -260626 -66577
0;
#X obj 140 204 r \$0-prop_max;
#X obj 346 323 cnv 5 5 17 empty empty empty 20 12 0 14 -260626 -66577
0;
#X obj 352 323 r \$0-prop_initval;
#X obj 225 35 metro 100;
#X obj 332 254 cnv 5 5 17 empty empty empty 20 12 0 14 -194593 -66577
0;
#X msg 338 232 1;
#X obj 338 254 s \$0-properties_autoapply-r;
#X text 871 192 color;
#X obj 855 210 list split 2;
#X msg 544 65 313 524 30 30;
#X obj 392 208 cnv 5 5 17 empty empty empty 20 12 0 14 -260626 -66577
0;
#X obj 398 208 r \$0-lbinit;
#X msg 398 237 0;
#X obj 625 236 unpack 0 0 0, f 13;
#X obj 721 209 list split 1;
#X obj 625 209 list split 3;
#X text 740 191 init;
#X obj 773 259 sel off on;
#X obj 803 312 cnv 5 5 17 empty empty empty 20 12 0 14 -194593 -66577
0;
#X obj 809 312 s \$0-prop_initonoff-r;
#X msg 793 289 0;
#X msg 821 289 1;
#X obj 721 259 t f b;
#X obj 721 235 route float;
#X obj 799 235 symbol;
#X obj 364 347 cnv 5 5 17 empty empty empty 20 12 0 14 -260626 -66577
0;
#X obj 370 347 r \$0-prop_initonoff;
#X obj 71 267 pack 0 0 0 0;
#X obj 71 299 list append;
#X obj 71 382 list append;
#X obj 407 425 sel 0 1;
#X obj 352 425 spigot;
#X obj 370 371 t b f;
#X obj 352 401 f;
#X msg 352 454 symbol off;
#X msg 158 466 symbol none;
#X obj 855 236 cnv 4 93 15 empty empty empty 2 7 0 10 -257985 -66577
0;
#N canvas 625 78 529 614 colorparsing 0;
#X obj 27 17 inlet;
#X obj 28 84 cnv 3 44 15 empty empty empty 2 7 0 10 -257985 -66577
0;
#N canvas 0 50 313 253 drip 0;
#X obj 33 15 inlet;
#X obj 33 165 list store, f 15;
#X obj 33 59 until;
#X obj 33 81 f;
#X obj 63 81 + 1;
#X msg 33 143 get \$1 1;
#X obj 76 60 0;
#X obj 33 198 outlet;
#X obj 185 196 outlet;
#X obj 33 37 t b b a, f 15;
#X text 177 17 needs pd 0.48 !;
#X text 175 56 like [zl iter] or ZEXY's [drip], f 19;
#X obj 106 197 outlet;
#X obj 33 106 t f f;
#X text 37 219 item;
#X text 108 217 index;
#X text 181 216 finish;
#X connect 0 0 9 0;
#X connect 1 0 7 0;
#X connect 1 1 8 0;
#X connect 1 1 2 1;
#X connect 2 0 3 0;
#X connect 3 0 4 0;
#X connect 3 0 13 0;
#X connect 4 0 3 1;
#X connect 5 0 1 0;
#X connect 6 0 3 1;
#X connect 9 0 2 0;
#X connect 9 1 6 0;
#X connect 9 2 1 1;
#X connect 13 0 5 0;
#X connect 13 1 12 0;
#X restore 27 83 pd drip;
#X obj 214 100 + 1;
#X obj 27 125 route symbol float, f 58;
#X obj 84 225 text search \$0-tk;
#X obj 84 250 sel -1;
#X obj 57 351 cnv 5 5 17 empty empty empty 20 12 0 14 -194593 -66577
0;
#X obj 62 351 send;
#X obj 125 297 pack 0 \$0;
#X msg 294 66 list grey70 14 white black grey20;
#X msg 106 321 symbol \$2-tkpresets_\$1-r, f 17;
#X obj 216 271 moses 0;
#X obj 255 300 moses 30;
#X obj 56 388 cnv 5 5 17 empty empty empty 20 12 0 14 -194593 -66577
0;
#X obj 216 383 abs;
#X obj 216 432 t f f, f 12;
#X obj 216 459 div 65536;
#X obj 282 459 mod 65536;
#X obj 282 508 div 256;
#X obj 282 484 t f f;
#X obj 408 501 mod 256;
#X obj 216 407 - 1;
#X msg 106 357 symbol \$2-tcltk_\$1-r, f 14;
#X obj 62 387 send;
#X obj 402 574 cnv 5 5 17 empty empty empty 20 12 0 14 -194593 -66577
0;
#X obj 408 574 send;
#X obj 276 573 cnv 5 5 17 empty empty empty 20 12 0 14 -194593 -66577
0;
#X obj 282 573 send;
#X obj 123 574 cnv 5 5 17 empty empty empty 20 12 0 14 -194593 -66577
0;
#X obj 129 574 send, f 8;
#X msg 429 537 symbol \$2-B_\$1-r, f 14;
#X msg 303 536 symbol \$2-G_\$1-r, f 14;
#X msg 174 536 symbol \$2-R_\$1-r, f 14;
#X obj 358 326 pack 0 \$0;
#X floatatom 157 254 5 0 0 0 - - -, f 5;
#X msg 43 305 0 0 0;
#X text 22 287 default black;
#X obj 27 161 s2l _;
#X obj 27 197 route list;
#X text 69 145 if symbol is a list seperated by _ \, interpret them
as RGB values, f 25;
#X obj 27 432 unpack 0 0 0;
#X obj 142 40 cnv 5 5 17 empty empty empty 20 12 0 14 -260097 -66577
0;
#X obj 148 40 r \$0-defaultcolors;
#X obj 91 66 list store;
#X obj 85 17 cnv 5 5 17 empty empty empty 20 12 0 14 -260097 -66577
0;
#X obj 91 17 r \$0-recalldefaultcolors;
#X obj 91 40 t b;
#X connect 0 0 2 0;
#X connect 2 0 4 0;
#X connect 2 1 3 0;
#X connect 3 0 9 0;
#X connect 3 0 34 0;
#X connect 4 0 38 0;
#X connect 4 1 12 0;
#X connect 5 0 6 0;
#X connect 6 0 36 0;
#X connect 6 1 8 0;
#X connect 9 0 11 0;
#X connect 9 0 23 0;
#X connect 10 0 2 0;
#X connect 11 0 8 1;
#X connect 12 0 15 0;
#X connect 12 1 13 0;
#X connect 13 0 24 0;
#X connect 15 0 22 0;
#X connect 16 0 17 0;
#X connect 16 1 18 0;
#X connect 17 0 30 0;
#X connect 18 0 20 0;
#X connect 19 0 28 0;
#X connect 20 0 19 0;
#X connect 20 1 21 0;
#X connect 21 0 26 0;
#X connect 22 0 16 0;
#X connect 23 0 24 1;
#X connect 31 0 26 1;
#X connect 32 0 28 1;
#X connect 33 0 30 1;
#X connect 34 0 31 0;
#X connect 34 0 32 0;
#X connect 34 0 33 0;
#X connect 35 0 9 0;
#X connect 36 0 41 0;
#X connect 38 0 39 0;
#X connect 39 0 41 0;
#X connect 39 1 5 0;
#X connect 41 0 30 0;
#X connect 41 1 28 0;
#X connect 41 2 26 0;
#X connect 43 0 44 1;
#X connect 44 0 2 0;
#X connect 46 0 47 0;
#X connect 47 0 44 0;
#X restore 855 235 pd colorparsing;
#X obj 323 514 cnv 13 130 15 empty empty empty 2 7 0 10 -257985 -66577
0;
#N canvas 90 154 1497 558 color_calculations 0;
#X obj 178 151 pack 0 0 0, f 13;
#X obj 197 93 t b f;
#X obj 261 93 t b f;
#X obj 437 253 expr ($f1*(-65536)+$f2*(-256)+$f3*(-1))-1, f 18;
#X obj 172 22 cnv 5 5 17 empty empty empty 20 12 0 14 -260097 -66577
0;
#X obj 191 67 cnv 5 5 17 empty empty empty 20 12 0 14 -260097 -66577
0;
#X obj 255 67 cnv 5 5 17 empty empty empty 20 12 0 14 -260097 -66577
0;
#X obj 178 22 r \$0-R_1;
#X obj 197 67 r \$0-G_1;
#X obj 261 67 r \$0-B_1;
#X obj 178 173 list prepend 1;
#X obj 403 225 list split 1;
#X obj 335 172 list prepend 2;
#X obj 478 172 list prepend 3;
#X obj 178 43 int;
#X obj 216 118 int;
#X obj 272 117 int;
#X obj 335 149 pack 0 0 0, f 13;
#X obj 354 91 t b f;
#X obj 418 91 t b f;
#X obj 329 20 cnv 5 5 17 empty empty empty 20 12 0 14 -260097 -66577
0;
#X obj 348 65 cnv 5 5 17 empty empty empty 20 12 0 14 -260097 -66577
0;
#X obj 412 65 cnv 5 5 17 empty empty empty 20 12 0 14 -260097 -66577
0;
#X obj 335 41 int;
#X obj 373 116 int;
#X obj 429 115 int;
#X obj 478 148 pack 0 0 0, f 13;
#X obj 497 90 t b f;
#X obj 561 90 t b f;
#X obj 472 19 cnv 5 5 17 empty empty empty 20 12 0 14 -260097 -66577
0;
#X obj 491 64 cnv 5 5 17 empty empty empty 20 12 0 14 -260097 -66577
0;
#X obj 555 64 cnv 5 5 17 empty empty empty 20 12 0 14 -260097 -66577
0;
#X obj 478 40 int;
#X obj 516 115 int;
#X obj 572 114 int;
#X obj 335 20 r \$0-R_2;
#X obj 354 65 r \$0-G_2;
#X obj 418 65 r \$0-B_2;
#X obj 478 19 r \$0-R_3;
#X obj 497 64 r \$0-G_3;
#X obj 561 64 r \$0-B_3;
#X obj 625 147 pack 0 0 0, f 13;
#X obj 644 89 t b f;
#X obj 708 89 t b f;
#X obj 619 18 cnv 5 5 17 empty empty empty 20 12 0 14 -260097 -66577
0;
#X obj 638 63 cnv 5 5 17 empty empty empty 20 12 0 14 -260097 -66577
0;
#X obj 702 63 cnv 5 5 17 empty empty empty 20 12 0 14 -260097 -66577
0;
#X obj 625 39 int;
#X obj 663 114 int;
#X obj 719 113 int;
#X obj 768 148 pack 0 0 0, f 13;
#X obj 787 90 t b f;
#X obj 851 90 t b f;
#X obj 762 19 cnv 5 5 17 empty empty empty 20 12 0 14 -260097 -66577
0;
#X obj 781 64 cnv 5 5 17 empty empty empty 20 12 0 14 -260097 -66577
0;
#X obj 845 64 cnv 5 5 17 empty empty empty 20 12 0 14 -260097 -66577
0;
#X obj 768 40 int;
#X obj 806 115 int;
#X obj 862 114 int;
#X obj 625 18 r \$0-R_4;
#X obj 644 63 r \$0-G_4;
#X obj 709 63 r \$0-B_4;
#X obj 768 19 r \$0-R_5;
#X obj 787 64 r \$0-G_5;
#X obj 851 64 r \$0-B_5;
#X obj 625 171 list prepend 4;
#X obj 768 172 list prepend 5;
#X obj 403 279 pack;
#X obj 403 305 list append;
#X msg 291 322 \$1 \$3 \$4 \$5;
#X obj 291 347 list split 1;
#X obj 325 371 l2s _;
#X obj 161 388 t l l;
#X obj 291 371 list;
#X obj 283 405 list split 1;
#X obj 161 416 list split 1;
#X obj 195 446 text set \$0-color_temp 0;
#X obj 812 505 cnv 5 5 17 empty empty empty 20 12 0 14 -194593 -66577
0;
#X obj 818 505 send;
#X obj 645 509 cnv 5 5 17 empty empty empty 20 12 0 14 -194593 -66577
0;
#X obj 651 509 send;
#X obj 545 509 cnv 5 5 17 empty empty empty 20 12 0 14 -194593 -66577
0;
#X obj 551 509 send;
#X obj 753 409 pack 0 \$0;
#X obj 600 346 unpack 0 0 0 0, f 26;
#X msg 600 322 \$3 \$4 \$5 \$1;
#X msg 672 458 symbol \$2-color\$1_G_cnv-r, f 9;
#X msg 572 458 symbol \$2-color\$1_R_cnv-r, f 9;
#X msg 839 455 symbol \$2-color\$1_B_cnv-r, f 9;
#X obj 551 409 makefilename %d;
#X msg 551 426 label \$1;
#X obj 651 409 makefilename %d;
#X msg 651 426 label \$1;
#X obj 818 409 makefilename %d;
#X msg 818 426 label \$1;
#X text 684 314 display RGB values, f 11;
#X text 160 470 store colors as symbols or floats in \$0-color_temp
, f 17;
#X obj 981 18 cnv 5 5 17 empty empty empty 20 12 0 14 -260097 -66577
0;
#X obj 987 18 r \$0-tkpresets_1;
#X obj 987 173 text get \$0-tk;
#X obj 987 201 list split 1, f 21;
#X msg 987 325 label \$1;
#X obj 981 502 cnv 5 5 17 empty empty empty 20 12 0 14 -194593 -66577
0;
#X obj 1048 324 unpack 0 0 0;
#X obj 1042 452 cnv 5 5 17 empty empty empty 20 12 0 14 -194593 -66577
0;
#X obj 1076 400 cnv 5 5 17 empty empty empty 20 12 0 14 -194593 -66577
0;
#X obj 1111 347 cnv 5 5 17 empty empty empty 20 12 0 14 -194593 -66577
0;
#X obj 987 502 send;
#X msg 1008 480 symbol \$2-tkpresets-cnv_\$1-r;
#X obj 1048 452 send;
#X obj 1082 400 send;
#X obj 1117 347 send;
#X obj 1138 263 pack 0 \$0;
#X msg 1069 430 symbol \$2-R_\$1-r;
#X msg 1103 377 symbol \$2-G_\$1-r;
#X msg 1138 324 symbol \$2-B_\$1-r;
#X obj 1291 209 text size \$0-tk;
#X obj 1274 211 bng 15 250 50 0 empty empty empty 17 7 0 10 -262144
-1 -1;
#X obj 1291 232 - 1;
#X obj 1291 451 send;
#X msg 1312 359 symbol \$2-tkpresets_\$1-r, f 17;
#X msg 1291 281 1 \, 2 \, 3 \, 4 \, 5;
#X obj 1291 256 t b f, f 11;
#X obj 1291 331 t l l;
#X obj 1291 306 pack 0 \$0 0;
#X msg 1291 427 range 0 \$3;
#X obj 1285 451 cnv 5 5 17 empty empty empty 20 12 0 14 -194593 -66577
0;
#X obj 1347 504 send;
#X obj 1341 504 cnv 5 5 17 empty empty empty 20 12 0 14 -194593 -66577
0;
#X msg 1368 401 symbol \$2-tkpresets-cnv_\$1-r, f 11;
#X msg 1347 480 label;
#X obj 1347 457 t b;
#X obj 1291 186 del 5;
#X obj 1285 163 cnv 5 5 17 empty empty empty 20 12 0 14 -260626 -66577
0;
#X obj 1291 163 r \$0-lbinit;
#X msg 987 41 \$1 1;
#X obj 987 150 unpack;
#X obj 1087 167 t f f, f 9;
#X obj 1008 235 text set \$0-color_temp 0 0;
#X obj 1031 41 cnv 5 5 17 empty empty empty 20 12 0 14 -260097 -66577
0;
#X obj 1081 64 cnv 5 5 17 empty empty empty 20 12 0 14 -260097 -66577
0;
#X obj 1131 87 cnv 5 5 17 empty empty empty 20 12 0 14 -260097 -66577
0;
#X obj 1180 110 cnv 5 5 17 empty empty empty 20 12 0 14 -260097 -66577
0;
#X msg 1037 64 \$1 2;
#X msg 1087 87 \$1 3;
#X msg 1137 110 \$1 4;
#X msg 1186 133 \$1 5;
#X obj 1037 41 r \$0-tkpresets_2;
#X obj 1087 64 r \$0-tkpresets_3;
#X obj 1137 87 r \$0-tkpresets_4;
#X obj 1186 110 r \$0-tkpresets_5;
#X obj 397 505 cnv 5 5 17 empty empty empty 20 12 0 14 -194593 -66577
0;
#X obj 403 505 send;
#X msg 403 444 color \$2 22 22;
#X obj 403 395 t l l;
#X msg 443 395 \$1;
#X obj 443 418 pack 0 \$0;
#X msg 424 468 symbol \$2-testfleck_\$1-r, f 18;
#X text 1132 18 tk presets to RGB sliders;
#X text 848 18 RGB sliders;
#X obj 161 229 t l l, f 31;
#X obj 161 255 list split 1;
#X obj 161 360 list, f 9;
#X obj 21 22 cnv 5 5 17 empty empty empty 20 12 0 14 -260097 -66577
0;
#X obj 27 22 r \$0-tcltk_1;
#X obj 27 45 int;
#X obj 20 94 cnv 5 5 17 empty empty empty 20 12 0 14 -260097 -66577
0;
#X obj 26 116 int;
#X obj 19 167 cnv 5 5 17 empty empty empty 20 12 0 14 -260097 -66577
0;
#X obj 25 189 int;
#X obj 26 94 r \$0-tcltk_2;
#X obj 25 167 r \$0-tcltk_3;
#X obj 17 241 cnv 5 5 17 empty empty empty 20 12 0 14 -260097 -66577
0;
#X obj 23 263 int;
#X obj 16 312 cnv 5 5 17 empty empty empty 20 12 0 14 -260097 -66577
0;
#X obj 22 334 int;
#X obj 23 241 r \$0-tcltk_4;
#X obj 22 312 r \$0-tcltk_5;
#X msg 27 67 1 \$1;
#X msg 26 138 2 \$1;
#X msg 25 212 3 \$1;
#X msg 23 286 4 \$1;
#X msg 22 357 5 \$1;
#X msg 214 333 black;
#X msg 195 308 white;
#X obj 195 282 sel 0 22;
#X msg 845 262 clear;
#X obj 818 359 text set \$0-color_temp 0, f 15;
#X msg 600 283 \$1 5;
#X obj 837 283 cnv 10 100 40 empty empty empty 20 12 0 14 -241024 -66577
0;
#X obj 845 288 text define \$0-color_temp;
#X f 13;
#X msg 818 336 0 0 0 0 0 0;
#X msg 600 257 1 \, 2 \, 3 \, 4 \, 5;
#X obj 793 209 cnv 5 5 17 empty empty empty 20 12 0 14 -260626 -66577
0;
#X obj 799 209 r \$0-lbinit;
#X obj 799 240 t b b b;
#X connect 0 0 10 0;
#X connect 1 0 0 0;
#X connect 1 1 15 0;
#X connect 2 0 0 0;
#X connect 2 1 16 0;
#X connect 3 0 67 1;
#X connect 7 0 14 0;
#X connect 8 0 1 0;
#X connect 9 0 2 0;
#X connect 10 0 11 0;
#X connect 11 0 67 0;
#X connect 11 1 3 0;
#X connect 11 1 68 1;
#X connect 12 0 11 0;
#X connect 13 0 11 0;
#X connect 14 0 0 0;
#X connect 15 0 0 1;
#X connect 16 0 0 2;
#X connect 17 0 12 0;
#X connect 18 0 17 0;
#X connect 18 1 24 0;
#X connect 19 0 17 0;
#X connect 19 1 25 0;
#X connect 23 0 17 0;
#X connect 24 0 17 1;
#X connect 25 0 17 2;
#X connect 26 0 13 0;
#X connect 27 0 26 0;
#X connect 27 1 33 0;
#X connect 28 0 26 0;
#X connect 28 1 34 0;
#X connect 32 0 26 0;
#X connect 33 0 26 1;
#X connect 34 0 26 2;
#X connect 35 0 23 0;
#X connect 36 0 18 0;
#X connect 37 0 19 0;
#X connect 38 0 32 0;
#X connect 39 0 27 0;
#X connect 40 0 28 0;
#X connect 41 0 65 0;
#X connect 42 0 41 0;
#X connect 42 1 48 0;
#X connect 43 0 41 0;
#X connect 43 1 49 0;
#X connect 47 0 41 0;
#X connect 48 0 41 1;
#X connect 49 0 41 2;
#X connect 50 0 66 0;
#X connect 51 0 50 0;
#X connect 51 1 57 0;
#X connect 52 0 50 0;
#X connect 52 1 58 0;
#X connect 56 0 50 0;
#X connect 57 0 50 1;
#X connect 58 0 50 2;
#X connect 59 0 47 0;
#X connect 60 0 42 0;
#X connect 61 0 43 0;
#X connect 62 0 56 0;
#X connect 63 0 51 0;
#X connect 64 0 52 0;
#X connect 65 0 11 0;
#X connect 66 0 11 0;
#X connect 67 0 68 0;
#X connect 68 0 69 0;
#X connect 68 0 85 0;
#X connect 68 0 154 0;
#X connect 69 0 70 0;
#X connect 70 0 73 0;
#X connect 70 1 71 0;
#X connect 71 0 73 1;
#X connect 72 0 75 0;
#X connect 72 1 74 0;
#X connect 73 0 72 0;
#X connect 74 0 76 2;
#X connect 75 1 76 0;
#X connect 83 0 88 0;
#X connect 83 0 86 0;
#X connect 83 0 87 0;
#X connect 84 0 89 0;
#X connect 84 1 91 0;
#X connect 84 2 93 0;
#X connect 84 3 83 0;
#X connect 85 0 84 0;
#X connect 86 0 80 1;
#X connect 87 0 82 1;
#X connect 88 0 78 1;
#X connect 89 0 90 0;
#X connect 90 0 82 0;
#X connect 91 0 92 0;
#X connect 92 0 80 0;
#X connect 93 0 94 0;
#X connect 94 0 78 0;
#X connect 98 0 135 0;
#X connect 99 0 100 0;
#X connect 100 0 101 0;
#X connect 100 0 138 0;
#X connect 100 1 103 0;
#X connect 101 0 107 0;
#X connect 103 0 109 0;
#X connect 103 1 110 0;
#X connect 103 2 111 0;
#X connect 108 0 107 1;
#X connect 112 0 108 0;
#X connect 112 0 113 0;
#X connect 112 0 114 0;
#X connect 112 0 115 0;
#X connect 113 0 109 1;
#X connect 114 0 110 1;
#X connect 115 0 111 1;
#X connect 116 0 118 0;
#X connect 117 0 116 0;
#X connect 118 0 122 0;
#X connect 120 0 119 1;
#X connect 121 0 124 0;
#X connect 122 0 121 0;
#X connect 122 1 124 2;
#X connect 123 0 125 0;
#X connect 123 0 131 0;
#X connect 123 1 120 0;
#X connect 123 1 129 0;
#X connect 124 0 123 0;
#X connect 125 0 119 0;
#X connect 129 0 127 1;
#X connect 130 0 127 0;
#X connect 131 0 130 0;
#X connect 132 0 116 0;
#X connect 134 0 132 0;
#X connect 135 0 136 0;
#X connect 136 0 99 0;
#X connect 136 1 137 0;
#X connect 137 0 138 2;
#X connect 137 1 112 0;
#X connect 143 0 136 0;
#X connect 144 0 136 0;
#X connect 145 0 136 0;
#X connect 146 0 136 0;
#X connect 147 0 143 0;
#X connect 148 0 144 0;
#X connect 149 0 145 0;
#X connect 150 0 146 0;
#X connect 153 0 152 0;
#X connect 154 0 153 0;
#X connect 154 1 155 0;
#X connect 155 0 156 0;
#X connect 156 0 157 0;
#X connect 157 0 152 1;
#X connect 160 0 161 0;
#X connect 160 1 154 0;
#X connect 161 0 162 0;
#X connect 161 1 185 0;
#X connect 162 0 72 0;
#X connect 164 0 165 0;
#X connect 165 0 178 0;
#X connect 167 0 179 0;
#X connect 169 0 180 0;
#X connect 170 0 167 0;
#X connect 171 0 169 0;
#X connect 173 0 181 0;
#X connect 175 0 182 0;
#X connect 176 0 173 0;
#X connect 177 0 175 0;
#X connect 178 0 160 0;
#X connect 179 0 160 0;
#X connect 180 0 160 0;
#X connect 181 0 160 0;
#X connect 182 0 160 0;
#X connect 183 0 162 1;
#X connect 184 0 162 1;
#X connect 185 0 184 0;
#X connect 185 1 183 0;
#X connect 185 2 162 1;
#X connect 186 0 190 0;
#X connect 188 0 154 0;
#X connect 191 0 187 0;
#X connect 192 0 188 0;
#X connect 194 0 195 0;
#X connect 195 0 192 0;
#X connect 195 1 191 0;
#X connect 195 2 186 0;
#X restore 323 513 pd color_calculations;
#X obj 71 52 t b b b, f 25;
#X msg 187 80 0;
#X obj 187 267 text get \$0-color_temp, f 13;
#X obj 187 303 list split 1;
#X obj 221 328 list split 2;
#X text 49 327 how many color values -->, f 27;
#X connect 2 0 13 0;
#X connect 2 0 80 0;
#X connect 2 1 84 0;
#X connect 6 0 2 0;
#X connect 7 0 51 0;
#X connect 10 0 115 0;
#X connect 12 0 13 1;
#X connect 13 0 18 0;
#X connect 18 0 19 0;
#X connect 18 1 90 0;
#X connect 19 0 62 0;
#X connect 19 1 20 0;
#X connect 20 0 21 0;
#X connect 21 0 16 0;
#X connect 23 0 13 0;
#X connect 23 1 26 0;
#X connect 24 0 23 0;
#X connect 28 0 78 0;
#X connect 30 0 33 0;
#X connect 32 0 102 1;
#X connect 33 0 110 0;
#X connect 33 1 110 0;
#X connect 33 2 34 1;
#X connect 34 0 39 0;
#X connect 35 0 2 0;
#X connect 36 1 34 0;
#X connect 37 0 43 0;
#X connect 38 0 43 0;
#X connect 41 0 39 1;
#X connect 42 0 41 0;
#X connect 43 0 42 0;
#X connect 47 0 48 0;
#X connect 48 1 45 0;
#X connect 48 2 102 0;
#X connect 48 3 38 0;
#X connect 50 0 51 0;
#X connect 50 0 60 0;
#X connect 51 0 55 0;
#X connect 53 0 52 0;
#X connect 54 0 3 0;
#X connect 55 0 56 0;
#X connect 56 0 54 0;
#X connect 56 1 58 0;
#X connect 60 0 59 0;
#X connect 62 0 16 0;
#X connect 63 0 0 0;
#X connect 73 0 102 2;
#X connect 75 0 102 3;
#X connect 77 0 108 0;
#X connect 78 0 115 0;
#X connect 80 0 81 0;
#X connect 83 0 112 0;
#X connect 84 0 63 0;
#X connect 86 0 87 0;
#X connect 87 0 81 0;
#X connect 88 0 17 0;
#X connect 88 1 67 0;
#X connect 88 2 68 0;
#X connect 89 0 98 0;
#X connect 89 1 83 0;
#X connect 90 0 88 0;
#X connect 90 1 89 0;
#X connect 92 0 95 0;
#X connect 92 1 96 0;
#X connect 95 0 94 0;
#X connect 95 0 70 0;
#X connect 96 0 94 0;
#X connect 97 0 70 0;
#X connect 97 1 96 0;
#X connect 98 0 97 0;
#X connect 98 1 99 0;
#X connect 99 0 92 0;
#X connect 101 0 107 0;
#X connect 102 0 103 0;
#X connect 103 0 104 0;
#X connect 104 0 36 0;
#X connect 105 0 109 0;
#X connect 106 0 103 1;
#X connect 107 0 108 0;
#X connect 107 1 106 1;
#X connect 107 1 105 0;
#X connect 108 0 106 0;
#X connect 109 0 103 1;
#X connect 110 0 34 1;
#X connect 115 0 102 0;
#X connect 115 1 116 0;
#X connect 115 2 37 0;
#X connect 116 0 117 0;
#X connect 117 0 118 0;
#X connect 118 1 119 0;
#X connect 119 0 104 1;
#X restore 651 623 pd propertyguts;
#X obj 652 649 cnv 5 100 15 empty empty empty 2 7 0 10 -257985 -66577
0;
#N canvas 30 50 313 524 \$0-properties 0;
#X obj 115 257 hradio 15 1 0 5 \$0-recalldefaultcolors \$0-recalldefaultcolors-r
empty 0 -8 0 10 -262144 -1 -1 2;
#X obj 1 1 cnv 5 310 521 empty empty PROPERTIES: 100 18 1 16 -220544
-122932 0;
#X obj 6 36 cnv 8 300 430 empty empty empty 20 20 0 14 -1 -262144 0
;
#X obj 7 37 cnv 15 298 428 empty empty empty 79 21 1 24 -262130 -64
0;
#X obj 6 492 cnv 5 300 18 empty empty empty 20 20 0 14 -1 -262144 0
;
#X obj 7 493 cnv 10 298 16 empty empty DON'T_FORGET_TO_SAVE_THE_PARENT_PATCH_!
6 9 1 12 -261234 -66577 0;
#X obj 7 507 cnv 2 298 1 empty empty empty 6 -20 1 8 -261234 -66577
0;
#X obj 22 442 hradio 14 1 0 2 \$0-properties_ok \$0-properties_ok-r
empty 0 -8 0 10 -262144 -1 -1 0;
#X obj 63 442 hradio 14 1 0 3 \$0-properties_apply \$0-properties_apply-r
empty 0 -8 0 10 -262144 -1 -1 1;
#X obj 64 443 cnv 12 40 12 \$0-properties_apply_cnv \$0-properties_apply_cnv-r
APPLY 3 7 1 11 -261057 -99865 0;
#X obj 236 442 hradio 14 1 0 4 \$0-properties_cancel \$0-properties_cancel-r
empty 0 -8 0 10 -262144 -1 -1 2;
#X obj 128 132 nbx 5 15 0 15 0 0 \$0-prop_size \$0-prop_size-r empty
55 7 1 10 -262144 -1 -1 0 256;
#X obj 170 216 nbx 7 15 -999999 999999 0 0 \$0-prop_max \$0-prop_max-r
max 70 7 1 10 -262144 -1 -1 0 256;
#X obj 68 216 nbx 7 15 -999999 999999 0 0 \$0-prop_min \$0-prop_min-r
min 70 7 1 10 -262144 -1 -1 0 256;
#X obj 105 442 tgl 14 0 \$0-properties_autoapply \$0-properties_autoapply-r
auto 20 7 1 10 -261057 -1 -1 0 1;
#X obj 153 442 hradio 14 1 0 5 \$0-properties_original \$0-properties_original-r
empty 0 -8 0 10 -262144 -1 -1 4;
#X obj 237 443 cnv 12 54 12 \$0-properties_cancel_cnv \$0-properties_cancel_cnv-r
CANCEL 5 7 1 11 -261234 -99865 0;
#X obj 23 443 cnv 12 26 12 \$0-properties_ok_cnv \$0-properties_ok_cnv-r
OK 4 6 1 12 -204786 -99865 0;
#X obj 154 443 cnv 12 68 12 \$0-properties_original_cnv \$0-properties_original_cnv-r
ORIGINAL 8 7 1 11 -203904 -99865 0;
#X obj 295 14 bng 10 250 50 0 \$0-properties_def \$0-properties_def-r
defaults -42 5 1 10 -262130 -1 -159808;
#X obj 128 154 nbx 5 15 -999999 999999 0 0 \$0-prop_initval \$0-prop_initval-r
empty 55 8 1 10 -262144 -1 -33289 0 256;
#X obj 70 80 cnv 1 168 13 empty empty empty 20 12 0 14 -262144 -66577
0;
#X symbolatom 70 80 28 0 0 2 - #0-prop_name-r #0-prop_name, f 28;
#X obj 71 140 cnv 3 3 3 empty empty SIZES: 0 0 1 14 -262130 -64 0;
#X obj 100 68 cnv 3 3 3 empty empty REMOTE_NAME: 0 0 1 14 -262130 -64
0;
#X obj 142 74 cnv 5 30 2 empty empty empty 0 0 1 4 -262130 -64 0;
#X obj 127 197 cnv 3 3 3 empty empty RANGE: 0 0 1 14 -262130 -64 0
;
#X obj 71 163 cnv 3 3 3 empty empty INIT: 0 0 1 14 -262130 -64 0;
#X obj 119 265 cnv 5 5 5 empty empty COLORS: 0 0 1 16 -262130 -64 0
;
#X obj 66 301 cnv 5 5 5 empty empty Background 0 0 1 11 -262130 -64
0;
#X obj 190 301 cnv 5 5 5 empty empty Number 0 0 1 11 -262130 -64 0
;
#X obj 62 328 vsl 12 70 0 255 0 0 \$0-R_1 \$0-R_1-r R 3 -8 1 10 -261234
-1 -1 0 0;
#X obj 74 328 vsl 12 70 0 255 0 0 \$0-G_1 \$0-G_1-r G 3 -8 1 10 -204786
-1 -1 0 0;
#X obj 86 328 vsl 12 70 0 255 0 0 \$0-B_1 \$0-B_1-r B 3 -8 1 10 -203904
-1 -1 0 0;
#X obj 176 328 vsl 12 70 0 255 0 0 \$0-R_2 \$0-R_2-r R 3 -8 1 10 -261234
-1 -1 0 0;
#X obj 188 328 vsl 12 70 0 255 0 0 \$0-G_2 \$0-G_2-r G 3 -8 1 10 -204786
-1 -1 0 0;
#X obj 200 328 vsl 12 70 0 255 0 0 \$0-B_2 \$0-B_2-r B 3 -8 1 10 -203904
-1 -1 0 0;
#X obj 102 387 nbx 3 14 0 29 0 0 \$0-tcltk_1 \$0-tcltk_1-r Tcl/Tk 0
-7 1 10 -262144 -1 -1 0 256;
#X obj 217 387 nbx 3 14 0 29 0 0 \$0-tcltk_2 \$0-tcltk_2-r Tcl/Tk 0
-7 1 10 -262144 -1 -1 0 256;
#X obj 59 409 cnv 4 4 4 \$0-color1_R_cnv \$0-color1_R_cnv-r 255 4 4
1 9 -262130 -258113 0;
#X obj 79 409 cnv 4 4 4 \$0-color1_G_cnv \$0-color1_G_cnv-r 255 4 4
1 9 -262130 -2498 0;
#X obj 99 409 cnv 4 4 4 \$0-color1_B_cnv \$0-color1_B_cnv-r 239 4 4
1 9 -262130 -4160 0;
#X obj 173 409 cnv 4 4 4 \$0-color2_R_cnv \$0-color2_R_cnv-r 255 4
4 1 9 -262130 -258113 0;
#X obj 193 409 cnv 4 4 4 \$0-color2_G_cnv \$0-color2_G_cnv-r 255 4
4 1 9 -262130 -2498 0;
#X obj 213 409 cnv 4 4 4 \$0-color2_B_cnv \$0-color2_B_cnv-r 255 4
4 1 9 -262130 -4160 0;
#X obj 102 326 nbx 3 14 0 107 0 0 \$0-tkpresets_1 \$0-tkpresets_1-r
presets 0 -7 1 10 -262144 -1 -1 0 256;
#X obj 101 346 cnv 5 1 1 \$0-tkpresets-cnv_1 \$0-tkpresets-cnv_1-r
empty 0 0 1 9 -262130 -99865 0;
#X obj 102 356 cnv 1 30 15 \$0-testfleck_1 \$0-testfleck_1-r empty
0 0 0 8 -262131 -1 0;
#X obj 217 326 nbx 3 14 0 107 0 0 \$0-tkpresets_2 \$0-tkpresets_2-r
presets 0 -7 1 10 -262144 -1 -1 0 256;
#X obj 216 346 cnv 5 1 1 \$0-tkpresets-cnv_2 \$0-tkpresets-cnv_2-r
empty 0 0 1 9 -262130 -99865 0;
#X obj 217 356 cnv 1 30 15 \$0-testfleck_2 \$0-testfleck_2-r empty
0 0 0 8 -262131 -1 0;
#X obj 185 167 cnv 3 30 3 empty empty empty 79 21 1 24 -262130 -64
0;
#X obj 184 154 tgl 15 0 \$0-prop_initonoff \$0-prop_initonoff-r on/off
22 8 1 10 -262144 -1 -66577 0 1;
#X obj 61 100 cnv 5 5 5 empty empty (use"empty"or"none"fornoname)
0 2 1 10 -262130 -64 0;
#X obj 102 278 cnv 5 5 5 empty empty (clicktoloaddefaults)
0 2 1 9 -262130 -64 0;
#X restore 651 648 pd \$0-properties;
#X obj 447 374 v \$0-init;
#X obj 441 374 cnv 5 5 17 empty empty empty 20 12 0 14 -194048 -66577
0;
#X obj 486 455 s \$0-num-r;
#X obj 480 455 cnv 5 5 17 empty empty empty 20 12 0 14 -194593 -66577
0;
#X obj 447 416 sel 0;
#X text 558 456 init;
#X obj 558 104 cnv 8 123 15 empty empty empty 20 12 0 14 -233024 -66577
0;
#X obj 557 103 namecanvas \$0-ol_num;
#X obj 704 326 cnv 5 5 17 empty empty empty 20 12 0 14 -194593 -66577
0;
#X obj 710 326 s \$0-lbinit;
#X obj 651 326 t b b b;
#X obj 629 624 bng 15 250 50 0 empty empty empty 17 7 0 10 -262144
-1 -1;
#X obj 558 128 cnv 4 140 15 empty empty empty 20 12 0 14 -204800 -66577
0;
#X obj 557 127 text define \$0-defaults;
#X msg 670 349 init;
#X obj 645 247 cnv 5 5 17 empty empty empty 20 12 0 14 -260626 -66577
0;
#X obj 651 247 r ol_GUI_reinit;
#X text 628 227 force loadbang from outside;
#X obj 558 40 cnv 14 230 33 empty empty empty 2 2 0 9 -253181 -66577
0;
#X obj 557 7 cnv 10 160 20 empty empty needsIEMGUTSZEXY 10 11 0
14 -4160 -262144 0;
#X obj 557 23 cnv 4 130 4 empty empty empty 10 11 0 14 -4160 -262144
0;
#X obj 557 39 declare -stdpath iemguts -path iemguts;
#X obj 557 56 declare -stdlib zexy -lib zexy , f 38;
#X obj 609 209 cnv 5 5 17 empty empty empty 20 12 0 14 -260626 -66577
0;
#X obj 615 209 r \$0-properties_original;
#X connect 0 0 26 0;
#X connect 1 0 0 1;
#X connect 2 0 0 1;
#X connect 3 0 20 0;
#X connect 3 1 1 0;
#X connect 4 0 20 0;
#X connect 4 1 2 0;
#X connect 5 0 28 0;
#X connect 7 0 50 0;
#X connect 8 0 13 0;
#X connect 9 0 7 1;
#X connect 9 0 16 0;
#X connect 10 0 33 0;
#X connect 11 0 12 0;
#X connect 12 0 16 0;
#X connect 12 0 7 1;
#X connect 13 0 9 0;
#X connect 13 1 11 0;
#X connect 15 0 14 0;
#X connect 16 0 18 0;
#X connect 16 1 17 0;
#X connect 17 0 15 0;
#X connect 18 0 15 0;
#X connect 19 0 46 0;
#X connect 20 0 0 0;
#X connect 24 0 20 1;
#X connect 25 0 62 0;
#X connect 28 0 10 0;
#X connect 28 1 40 0;
#X connect 28 2 34 0;
#X connect 30 0 32 0;
#X connect 32 0 35 0;
#X connect 32 1 20 1;
#X connect 33 0 36 0;
#X connect 34 0 49 0;
#X connect 35 0 33 0;
#X connect 35 1 33 1;
#X connect 35 1 34 1;
#X connect 36 0 27 0;
#X connect 37 0 57 0;
#X connect 39 0 38 0;
#X connect 40 0 39 0;
#X connect 40 0 41 0;
#X connect 41 0 10 0;
#X connect 42 0 38 0;
#X connect 43 0 42 0;
#X connect 45 0 128 0;
#X connect 45 1 24 0;
#X connect 45 2 19 0;
#X connect 45 3 48 0;
#X connect 47 0 45 0;
#X connect 49 0 27 0;
#X connect 50 0 51 0;
#X connect 51 0 72 0;
#X connect 52 0 3 0;
#X connect 53 0 4 0;
#X connect 54 0 7 0;
#X connect 54 1 50 1;
#X connect 55 0 32 0;
#X connect 56 0 32 0;
#X connect 58 0 59 0;
#X connect 59 0 42 0;
#X connect 59 1 40 0;
#X connect 61 0 70 0;
#X connect 61 0 74 0;
#X connect 61 0 75 0;
#X connect 62 0 20 1;
#X connect 62 0 61 0;
#X connect 63 0 62 1;
#X connect 64 0 65 0;
#X connect 65 0 26 0;
#X connect 65 0 68 0;
#X connect 66 0 67 1;
#X connect 67 0 64 0;
#X connect 70 0 40 0;
#X connect 71 0 60 0;
#X connect 72 0 52 0;
#X connect 72 1 53 0;
#X connect 72 2 67 0;
#X connect 72 3 76 0;
#X connect 73 0 78 0;
#X connect 74 0 73 0;
#X connect 75 0 71 0;
#X connect 76 0 77 0;
#X connect 77 0 73 1;
#X connect 78 0 79 0;
#X connect 79 0 80 0;
#X connect 80 0 75 0;
#X connect 80 1 81 0;
#X connect 81 0 71 0;
#X connect 107 0 117 0;
#X connect 108 0 138 0;
#X connect 110 0 108 0;
#X connect 118 0 120 0;
#X connect 122 0 118 0;
#X connect 123 0 125 0;
#X connect 128 0 132 0;
#X connect 132 1 130 0;
#X connect 138 0 115 0;
#X connect 138 1 142 0;
#X connect 138 2 137 0;
#X connect 139 0 125 0;
#X connect 142 0 113 0;
#X connect 144 0 108 0;
#X connect 152 0 108 0;
#X coords 0 -1 1 1 60 20 2 0 0;
