#N canvas 91 369 590 576 10;
#X obj 30 58 \$1;
#X obj 30 80 s \$2-selected;
#X obj 30 35 t b;
#X obj 384 165 r \$2-colorlist;
#X obj 189 11 r \$2-selected;
#X obj 189 196 sel \$1;
#X obj 338 38 sel \$1 0;
#X obj 338 9 r \$2-mark;
#X obj 189 40 route float bang;
#X obj 189 173 f;
#X obj 286 189 spigot;
#X msg 409 94 0, f 1;
#X msg 329 94 1, f 1;
#X obj 272 489 list prepend color;
#X obj 272 513 list trim;
#X obj 406 333 r \$2-shownumbers;
#X obj 272 466 list append 22, f 20;
#X obj 302 362 t l l;
#X msg 347 362 \$1;
#X obj 433 438 f;
#X msg 405 438 22;
#X obj 412 412 sel 1 0;
#X obj 304 438 list store;
#X obj 385 385 t b f;
#X obj 30 11 r \$2-slot_\$1;
#X obj 272 538 s \$2-slot_\$1-r;
#X obj 30 294 r \$2-getstate;
#X obj 24 80 cnv 5 5 17 empty empty empty 20 12 0 14 -194593 -66577
0;
#X obj 378 165 cnv 5 5 17 empty empty empty 20 12 0 14 -260626 -66577
0;
#X obj 183 11 cnv 5 5 17 empty empty empty 20 12 0 14 -260626 -66577
0;
#X obj 332 9 cnv 5 5 17 empty empty empty 20 12 0 14 -260626 -66577
0;
#X obj 400 333 cnv 5 5 17 empty empty empty 20 12 0 14 -260626 -66577
0;
#X obj 24 11 cnv 5 5 17 empty empty empty 20 12 0 14 -260626 -66577
0;
#X obj 266 538 cnv 5 5 17 empty empty empty 20 12 0 14 -194593 -66577
0;
#X obj 24 294 cnv 5 5 17 empty empty empty 20 12 0 14 -260626 -66577
0;
#X msg 117 394 1, f 1;
#X msg 145 395 2, f 1;
#X msg 89 394 0, f 1;
#X obj 24 452 cnv 5 5 17 empty empty empty 20 12 0 14 -194593 -66577
0;
#X obj 30 452 s \$2-slotstate;
#X obj 30 342 sel \$1;
#X obj 30 424 pack \$1 0, f 15;
#X obj 30 318 route float;
#X obj 189 66 f, f 7;
#X obj 370 69 t b b b;
#X obj 290 69 t b b b;
#X obj 302 313 list store;
#X msg 302 287 get \$1 1;
#X msg 226 233 0;
#X msg 256 233 2;
#X msg 286 233 3;
#X msg 316 233 4;
#X obj 189 122 t f b b, f 13;
#X obj 100 363 sel 0 2 3;
#X msg 302 337 \$1 \$1;
#X obj 485 9 cnv 5 5 17 empty empty empty 20 12 0 14 -260626 -66577
0;
#X obj 491 9 r \$2-flash;
#X obj 491 38 sel \$1;
#X obj 26 200 cnv 5 5 17 empty empty empty 20 12 0 14 -260626 -66577
0;
#X obj 32 200 r \$2-lastcolor;
#X obj 32 232 sel \$1;
#X obj 32 258 f;
#X obj 259 314 sel 4;
#X obj 385 361 f;
#X obj 384 189 t b l;
#X obj 263 262 t b f f;
#X text 432 225 this abstraction is used by [ol_radio]. it must reside
in the same folder as [ol_radio] !, f 20;
#X connect 0 0 1 0;
#X connect 2 0 0 0;
#X connect 3 0 64 0;
#X connect 4 0 8 0;
#X connect 5 0 49 0;
#X connect 6 0 45 0;
#X connect 6 1 44 0;
#X connect 7 0 6 0;
#X connect 8 0 43 0;
#X connect 8 1 9 0;
#X connect 9 0 5 0;
#X connect 10 0 50 0;
#X connect 11 0 10 1;
#X connect 12 0 10 1;
#X connect 13 0 14 0;
#X connect 14 0 25 0;
#X connect 15 0 63 0;
#X connect 16 0 13 0;
#X connect 17 0 16 0;
#X connect 17 1 18 0;
#X connect 17 1 22 1;
#X connect 18 0 19 1;
#X connect 19 0 16 1;
#X connect 20 0 16 1;
#X connect 21 0 20 0;
#X connect 21 1 19 0;
#X connect 22 0 16 0;
#X connect 23 0 22 0;
#X connect 23 1 21 0;
#X connect 24 0 2 0;
#X connect 26 0 42 0;
#X connect 35 0 41 1;
#X connect 36 0 41 1;
#X connect 37 0 41 1;
#X connect 40 0 41 0;
#X connect 41 0 39 0;
#X connect 42 0 40 0;
#X connect 43 0 52 0;
#X connect 44 0 9 0;
#X connect 44 1 48 0;
#X connect 44 2 11 0;
#X connect 45 0 9 0;
#X connect 45 1 10 0;
#X connect 45 2 12 0;
#X connect 46 0 54 0;
#X connect 47 0 46 0;
#X connect 48 0 65 0;
#X connect 49 0 65 0;
#X connect 50 0 65 0;
#X connect 51 0 65 0;
#X connect 52 0 9 0;
#X connect 52 1 10 0;
#X connect 52 2 48 0;
#X connect 53 0 37 0;
#X connect 53 1 35 0;
#X connect 53 2 36 0;
#X connect 54 0 17 0;
#X connect 56 0 57 0;
#X connect 57 0 51 0;
#X connect 59 0 60 0;
#X connect 60 0 61 0;
#X connect 61 0 65 0;
#X connect 62 1 53 0;
#X connect 62 1 61 1;
#X connect 63 0 23 0;
#X connect 64 0 48 0;
#X connect 64 1 46 1;
#X connect 65 0 63 0;
#X connect 65 1 62 0;
#X connect 65 2 47 0;
