#N canvas 116 637 1223 610 10;
#X declare -stdlib zexy -lib zexy;
#X declare -stdpath iemguts -path iemguts;
#X obj 776 158 inlet;
#X obj 561 556 outlet;
#X obj 776 193 spigot;
#X obj 826 158 r \$0-spig;
#X msg 850 428 size \$1;
#X obj 758 323 moses 2;
#X obj 823 377 t f f;
#X obj 0 0 hradio 16 1 0 1 \$0-radio \$0-radio-r empty 0 -7 1 10 -225271
-225271 -225271 0;
#X obj 850 452 s \$0-radio-r;
#X floatatom 826 195 5 0 0 0 - - -;
#X obj 562 259 r \$0-spig;
#X obj 562 478 s \$0-radio-r;
#X obj 683 322 t b;
#X obj 683 381 == 0;
#X obj 683 358 f;
#X obj 683 406 s \$0-spig;
#X obj 683 299 r \$0-radio;
#X obj 877 37 inlet;
#X obj 563 208 s \$0-spig;
#X obj 770 158 cnv 5 5 17 empty empty empty 20 12 0 14 -118750 -66577
0;
#X obj 555 556 cnv 5 5 17 empty empty empty 20 12 0 14 -102336 -66577
0;
#X obj 556 478 cnv 5 5 17 empty empty empty 20 12 0 14 -194593 -66577
0;
#X obj 556 259 cnv 5 5 17 empty empty empty 20 12 0 14 -260626 -66577
0;
#X obj 871 37 cnv 5 5 17 empty empty empty 20 12 0 14 -118750 -66577
0;
#X obj 677 406 cnv 5 5 17 empty empty empty 20 12 0 14 -194593 -66577
0;
#X obj 817 402 cnv 5 5 17 empty empty empty 20 12 0 14 -194593 -66577
0;
#X obj 844 452 cnv 5 5 17 empty empty empty 20 12 0 14 -194593 -66577
0;
#X obj 557 208 cnv 5 5 17 empty empty empty 20 12 0 14 -194593 -66577
0;
#X obj 677 299 cnv 5 5 17 empty empty empty 20 12 0 14 -260626 -66577
0;
#X obj 563 183 != 0;
#X obj 820 158 cnv 5 5 17 empty empty empty 20 12 0 14 -260626 -66577
0;
#X obj 823 247 route float;
#X obj 752 299 cnv 5 5 17 empty empty empty 20 12 0 14 -260626 -66577
0;
#X obj 758 299 r \$0-a1;
#X obj 823 274 sel 0;
#X msg 823 298 16;
#X obj 823 323 f;
#X obj 758 349 t f b;
#X floatatom 855 324 5 0 0 0 - - -;
#X obj 770 219 cnv 5 5 17 empty empty empty 20 12 0 14 -194593 -66577
0;
#X obj 776 219 s \$0-out;
#X obj 555 532 cnv 5 5 17 empty empty empty 20 12 0 14 -260626 -66577
0;
#X obj 561 532 r \$0-out;
#X floatatom 758 385 5 0 0 0 - - -;
#X obj 557 110 cnv 5 5 17 empty empty empty 20 12 0 14 -260626 -66577
0;
#X text 558 35 1.) if symbol: remote name;
#X text 582 48 if float: on/off or size;
#X text 559 73 3.) size;
#X text 559 61 2.) on/off;
#X text 559 19 ARGUMENTS:;
#X obj 563 134 list trim;
#X obj 563 110 r \$0-in;
#X obj 937 19 cnv 10 130 20 empty empty needs_IEMGUTS 10 11 0 14 -4160
-262144 0;
#X obj 937 35 cnv 4 130 4 empty empty empty 10 11 0 14 -4160 -262144
0;
#X obj 823 354 clip 8 500;
#X obj 938 90 cnv 8 140 15 empty empty empty 20 12 0 14 -233024 -66577
0;
#X obj 937 89 namecanvas \$0-ol_spigot;
#X msg 937 183 bang;
#X obj 948 162 cnv 8 50 15 empty empty empty 20 12 0 14 -3586 -66577
0;
#X obj 947 161 loadbang;
#X text 1003 156 load defaults first !, f 8;
#X obj 950 227 cnv 5 5 17 empty empty empty 20 12 0 14 -194593 -66577
0;
#X obj 956 227 s \$0-args;
#X obj 931 251 cnv 5 5 17 empty empty empty 20 12 0 14 -194593 -66577
0;
#X obj 937 251 s \$0-canvasargs;
#X obj 937 204 t b b b;
#X obj 938 286 cnv 13 43 15 empty empty empty 2 7 0 10 -257985 -66577
0;
#X obj 938 309 cnv 10 80 15 empty empty empty 2 7 0 9 -257985 -66577
0;
#N canvas 83 239 640 636 remotename 0;
#X obj 27 541 r \$0-getname;
#X msg 27 585 name: \$2 \$2-r;
#X obj 27 563 pack 0 s, f 16;
#X obj 21 541 cnv 5 5 17 empty empty empty 20 12 0 14 -260097 -66577
0;
#X obj 114 541 cnv 5 5 17 empty empty empty 20 12 0 14 -260097 -66577
0;
#X obj 120 541 r \$0-remotename;
#X obj 260 16 cnv 10 330 550 empty empty for_the_ol_sss_system: 80
16 1 16 -229368 -66577 0;
#X obj 25 219 cnv 10 200 300 empty empty REMOTE 100 17 1 20 -261682
-4160 0;
#X obj 148 349 spigot;
#X obj 37 349 spigot;
#X obj 37 373 send;
#X obj 148 372 s \$0-in;
#X obj 37 325 r \$0-out;
#X obj 58 260 r \$0-remotename;
#X obj 31 373 cnv 5 5 17 empty empty empty 20 12 0 14 -194593 -66577
0;
#X obj 142 372 cnv 5 5 17 empty empty empty 20 12 0 14 -194593 -66577
0;
#X obj 31 325 cnv 5 5 17 empty empty empty 20 12 0 14 -260626 -66577
0;
#X obj 52 260 cnv 5 5 17 empty empty empty 20 12 0 14 -260626 -66577
0;
#X obj 51 286 sel none;
#X msg 97 312 0, f 1;
#X msg 107 312 1, f 1;
#X obj 107 286 t b;
#X obj 101 332 f;
#X floatatom 101 357 2 0 0 0 - - -;
#X obj 328 139 spigot;
#X obj 328 59 r get_ol_sss_objects;
#X obj 358 468 s get_ol_sss_object_names;
#X text 447 298 receive name;
#X text 388 488 global send !;
#X text 463 58 global receive !;
#X obj 322 59 cnv 5 5 17 empty empty empty 20 12 0 14 -260626 -66577
0;
#X obj 352 468 cnv 5 5 17 empty empty empty 20 12 0 14 -194593 -66577
0;
#X obj 375 171 cnv 5 5 17 empty empty empty 20 12 0 14 -260626 -66577
0;
#X obj 328 188 symbol;
#X obj 328 318 t b s s, f 9;
#X obj 435 408 cnv 5 5 17 empty empty empty 20 12 0 14 -260626 -66577
0;
#X obj 328 372 v \$0-nameflag;
#X obj 322 372 cnv 5 5 17 empty empty empty 20 12 0 14 -194048 -66577
0;
#X obj 358 408 pack 0 s s;
#X obj 358 439 list append 0;
#X obj 260 254 cnv 10 330 40 empty empty DIFFERENT_REMOTE_NAMES_FOR_SSS_!:
30 20 0 14 -114588 -159808 0;
#X obj 441 408 r \$0-spig;
#X text 487 347 send name;
#X obj 132 441 spigot;
#X obj 132 488 s \$0-in;
#X obj 126 488 cnv 5 5 17 empty empty empty 20 12 0 14 -194593 -66577
0;
#X obj 132 465 route float;
#X obj 126 417 cnv 5 5 17 empty empty empty 20 12 0 14 -260626 -66577
0;
#X text 140 397 SSS receive:;
#X obj 36 442 spigot;
#X obj 36 485 send;
#X obj 30 485 cnv 5 5 17 empty empty empty 20 12 0 14 -194593 -66577
0;
#X obj 36 417 r \$0-spig;
#X obj 30 417 cnv 5 5 17 empty empty empty 20 12 0 14 -260626 -66577
0;
#X text 35 397 SSS send:;
#X obj 267 439 route 0 1, f 12;
#X text 444 438 <- put init value here;
#X symbolatom 349 215 20 0 0 0 - - -;
#X obj 267 408 pack 0 0 s s;
#X msg 267 468 symbol \$3;
#X msg 267 500 symbol \$2\$3;
#X obj 27 607 print [ol_spigot]:;
#X obj 164 277 outlet;
#X obj 158 277 cnv 5 5 17 empty empty empty 20 12 0 14 -102336 -66577
0;
#X obj 142 327 cnv 5 5 17 empty empty empty 20 12 0 14 -260626 -66577
0;
#X obj 160 304 cnv 3 45 15 empty empty empty 2 7 0 10 -257985 -66577
0;
#N canvas 213 773 440 146 \$0-r 0;
#X restore 159 303 pd \$0-r;
#X obj 148 327 r \$0-rin;
#X obj 135 185 cnv 3 92 15 empty empty empty 2 7 0 10 -257985 -66577
0;
#N canvas 785 61 420 249 make 0;
#X obj 55 40 r \$0-remotename;
#X obj 49 40 cnv 5 5 17 empty empty empty 20 12 0 14 -260626 -66577
0;
#X obj 55 66 sel none;
#X obj 49 203 cnv 5 5 17 empty empty empty 20 12 0 14 -194593 -66577
0;
#X obj 55 203 s pd-\$0-r;
#X msg 55 171 clear;
#X obj 100 88 pack s \$0;
#X text 61 17 because [r] can't be set \, aaaah !;
#X msg 100 111 clear \, obj 20 20 receive \$1-r \, obj 20 60 send \$2-rin
\, obj 200 20 receive \$1-state-r \, obj 200 60 send \$2-state-rin
\, connect 0 0 1 0 \, connect 2 0 3 0, f 44;
#X connect 0 0 2 0;
#X connect 2 0 5 0;
#X connect 2 1 6 0;
#X connect 5 0 4 0;
#X connect 6 0 8 0;
#X connect 8 0 4 0;
#X restore 134 184 pd make receive;
#X obj 381 171 r \$0-sss_remotename;
#X obj 22 85 bang;
#X obj 22 62 route float symbol;
#X obj 22 185 s \$0-remotename;
#X obj 16 185 cnv 5 5 17 empty empty empty 20 12 0 14 -194593 -66577
0;
#X msg 22 111 symbol none;
#X obj 58 85 sel none empty;
#X obj 16 39 cnv 5 5 17 empty empty empty 20 12 0 14 -260626 -66577
0;
#X obj 22 39 r \$0-arg1;
#X obj 42 160 cnv 3 88 15 empty empty empty 2 7 0 10 -257985 -66577
0;
#N canvas 1137 211 605 622 check_$____ 0;
#X text 50 6 string in;
#X obj 60 25 inlet;
#X obj 311 524 outlet;
#X obj 54 25 cnv 5 5 17 empty empty empty 20 12 0 14 -118750 -66577
0;
#X obj 305 524 cnv 5 5 17 empty empty empty 20 12 0 14 -102336 -66577
0;
#X obj 60 69 list fromsymbol;
#X obj 60 216 list store, f 16;
#X obj 60 117 until;
#X obj 60 141 f;
#X obj 101 141 + 1;
#X msg 60 193 get \$1 1;
#X msg 101 117 0;
#X text 165 69 list drip;
#X obj 60 92 t b b l b, f 22;
#X msg 189 306 0;
#X obj 410 507 list tosymbol;
#X obj 60 47 t s s, f 26;
#X obj 60 239 sel 36, f 7;
#X text 112 239 detect dollar;
#X msg 60 291 1;
#X msg 132 294 0;
#X obj 99 323 spigot;
#X obj 99 367 sel 48;
#X obj 99 345 t f b, f 11;
#X msg 99 389 1;
#X obj 145 367 t b;
#X text 38 367 detect 0;
#X msg 145 389 2;
#X text 220 306 normal name;
#X text 175 389 \$1 \, \$2 etc;
#X text 72 390 \$0;
#X obj 152 425 f;
#X obj 99 263 t b f;
#X obj 335 241 f;
#X obj 60 165 t f f;
#X obj 293 46 sel 0 1 2, f 28;
#X obj 311 98 symbol;
#X obj 416 179 list fromsymbol;
#X obj 403 331 list store, f 16;
#X obj 403 238 until;
#X obj 403 262 f;
#X obj 444 262 + 1;
#X msg 403 308 get \$1 1;
#X msg 444 238 0;
#X obj 403 213 t b b l b, f 22;
#X obj 403 286 t f f;
#X obj 403 353 sel 92, f 7;
#X text 456 354 remove bsl;
#X obj 442 399 list store;
#X msg 442 376 append \$1;
#X obj 504 469 inlet;
#X obj 498 469 cnv 5 5 17 empty empty empty 20 12 0 14 -118750 -66577
0;
#X obj 504 494 list fromsymbol, f 10;
#X obj 410 484 list prepend;
#X obj 333 180 list split;
#X obj 442 422 demux 0 1 2;
#X obj 333 152 list store;
#X obj 152 448 t f f f, f 17;
#X obj 416 82 symbol \$1;
#X text 481 82 <---;
#X text 427 104 this method makes sure that in case of \$1 \, \$2 etc
in the remote name \, the arguments get expanded correctly, f 25;
#X text 298 21 0: normal / 1:\$0 / 2: \$1 etc;
#X text 321 261 split point after \$0, f 12;
#X obj 152 497 v \$0-nameflag;
#X obj 146 497 cnv 5 5 17 empty empty empty 20 12 0 14 -194048 -66577
0;
#X obj 152 473 == 1;
#X obj 305 446 cnv 5 5 17 empty empty empty 20 12 0 14 -194593 -66577
0;
#X obj 323 416 list tosymbol;
#X obj 311 446 s \$0-sss_remotename;
#X connect 1 0 16 0;
#X connect 5 0 13 0;
#X connect 6 0 17 0;
#X connect 6 1 7 1;
#X connect 6 1 31 0;
#X connect 7 0 8 0;
#X connect 8 0 34 0;
#X connect 9 0 8 1;
#X connect 9 0 33 1;
#X connect 10 0 6 0;
#X connect 11 0 8 1;
#X connect 13 0 7 0;
#X connect 13 1 11 0;
#X connect 13 2 6 1;
#X connect 13 2 56 1;
#X connect 13 3 14 0;
#X connect 14 0 31 1;
#X connect 14 0 21 1;
#X connect 15 0 2 0;
#X connect 16 0 5 0;
#X connect 16 1 36 1;
#X connect 17 0 19 0;
#X connect 17 1 32 0;
#X connect 19 0 21 1;
#X connect 20 0 21 1;
#X connect 21 0 23 0;
#X connect 22 0 24 0;
#X connect 22 0 33 0;
#X connect 22 1 25 0;
#X connect 23 0 22 0;
#X connect 23 1 20 0;
#X connect 24 0 31 1;
#X connect 25 0 27 0;
#X connect 27 0 31 1;
#X connect 31 0 57 0;
#X connect 32 0 20 0;
#X connect 32 1 21 0;
#X connect 33 0 54 1;
#X connect 34 0 10 0;
#X connect 34 1 9 0;
#X connect 35 0 36 0;
#X connect 35 1 56 0;
#X connect 35 2 58 0;
#X connect 36 0 2 0;
#X connect 36 0 68 0;
#X connect 37 0 44 0;
#X connect 38 0 46 0;
#X connect 38 1 39 1;
#X connect 38 1 48 0;
#X connect 39 0 40 0;
#X connect 40 0 45 0;
#X connect 41 0 40 1;
#X connect 42 0 38 0;
#X connect 43 0 40 1;
#X connect 44 0 39 0;
#X connect 44 1 43 0;
#X connect 44 2 38 1;
#X connect 44 3 48 1;
#X connect 45 0 42 0;
#X connect 45 1 41 0;
#X connect 46 1 49 0;
#X connect 48 0 55 0;
#X connect 48 0 67 0;
#X connect 49 0 48 0;
#X connect 50 0 52 0;
#X connect 52 0 53 1;
#X connect 53 0 15 0;
#X connect 54 1 44 0;
#X connect 55 1 53 0;
#X connect 55 2 15 0;
#X connect 56 0 54 0;
#X connect 57 0 65 0;
#X connect 57 1 35 0;
#X connect 57 2 55 1;
#X connect 58 0 37 0;
#X connect 65 0 63 0;
#X connect 67 0 68 0;
#X restore 41 159 pd check_$____;
#X obj 122 136 canvasdollarzero 2;
#X text 23 6 any float \, "none" or "empty" as 1st argument: no remote
name, f 35;
#X obj 112 111 t a b;
#X symbolatom 276 534 20 0 0 0 - - -;
#X symbolatom 411 534 20 0 0 0 - - -;
#X symbolatom 147 159 10 0 0 0 - - -;
#X obj 394 318 makefilename %s-state-r;
#X obj 353 347 makefilename %s-state;
#X obj 132 417 r \$0-state-rin;
#X connect 0 0 2 0;
#X connect 1 0 61 0;
#X connect 2 0 1 0;
#X connect 5 0 2 1;
#X connect 8 0 11 0;
#X connect 9 0 10 0;
#X connect 12 0 9 0;
#X connect 13 0 10 1;
#X connect 13 0 18 0;
#X connect 13 0 62 0;
#X connect 18 0 19 0;
#X connect 18 1 21 0;
#X connect 19 0 22 0;
#X connect 20 0 22 0;
#X connect 21 0 20 0;
#X connect 22 0 9 1;
#X connect 22 0 8 1;
#X connect 22 0 23 0;
#X connect 22 0 24 1;
#X connect 22 0 43 1;
#X connect 22 0 49 1;
#X connect 24 0 33 0;
#X connect 25 0 24 0;
#X connect 33 0 34 0;
#X connect 33 0 57 0;
#X connect 34 0 36 0;
#X connect 34 1 88 0;
#X connect 34 2 87 0;
#X connect 36 0 38 0;
#X connect 36 0 58 0;
#X connect 38 0 39 0;
#X connect 39 0 26 0;
#X connect 41 0 39 1;
#X connect 43 0 46 0;
#X connect 46 0 44 0;
#X connect 49 0 50 0;
#X connect 52 0 49 0;
#X connect 55 0 59 0;
#X connect 55 1 60 0;
#X connect 58 0 55 0;
#X connect 59 0 50 1;
#X connect 59 0 85 0;
#X connect 60 0 50 1;
#X connect 60 0 84 0;
#X connect 67 0 8 0;
#X connect 70 0 33 1;
#X connect 71 0 75 0;
#X connect 72 0 71 0;
#X connect 72 1 76 0;
#X connect 75 0 73 0;
#X connect 76 0 75 0;
#X connect 76 1 75 0;
#X connect 76 2 83 0;
#X connect 78 0 72 0;
#X connect 80 0 73 0;
#X connect 81 0 80 1;
#X connect 81 0 58 2;
#X connect 81 0 86 0;
#X connect 83 0 80 0;
#X connect 83 1 81 0;
#X connect 87 0 38 2;
#X connect 88 0 38 1;
#X connect 88 0 58 3;
#X connect 89 0 43 0;
#X restore 937 308 pd remotename;
#X symbolatom 937 329 15 0 0 0 - - -;
#X obj 937 362 propertybang;
#X obj 943 475 canvasargs;
#X obj 938 387 cnv 5 92 15 empty empty empty 2 7 0 10 -257985 -66577
0;
#N canvas 0 305 986 618 propertyguts 0;
#X obj 544 131 s pd-\$0-properties;
#X obj 538 131 cnv 5 5 17 empty empty empty 20 12 0 14 -194593 -66577
0;
#X obj 517 42 t b b;
#X obj 513 581 s pd-\$0-properties;
#X obj 507 581 cnv 5 5 17 empty empty empty 20 12 0 14 -194593 -66577
0;
#X obj 511 17 cnv 5 5 17 empty empty empty 20 12 0 14 -118750 -66577
0;
#X obj 517 17 inlet;
#X obj 513 426 r \$0-properties_cancel;
#X obj 507 426 cnv 5 5 17 empty empty empty 20 12 0 14 -260626 -66577
0;
#X obj 65 28 cnv 5 5 17 empty empty empty 20 12 0 14 -260626 -66577
0;
#X obj 71 28 r \$0-properties_apply;
#X obj 568 160 cnv 5 5 17 empty empty empty 20 12 0 14 -260626 -66577
0;
#X obj 574 160 r \$0-argumentslist;
#X obj 517 184 list store;
#X obj 511 366 cnv 5 5 17 empty empty empty 20 12 0 14 -194593 -66577
0;
#X obj 592 340 cnv 5 5 17 empty empty empty 20 12 0 14 -194593 -66577
0;
#X obj 517 366 s \$0-prop_name-r;
#X obj 655 312 cnv 5 5 17 empty empty empty 20 12 0 14 -194593 -66577
0;
#X obj 517 210 list split 1;
#X obj 517 236 route symbol;
#X obj 533 262 t b;
#X msg 533 284 symbol none;
#X obj 739 142 cnv 5 5 17 empty empty empty 20 12 0 14 -260626 -66577
0;
#X obj 745 167 t b b;
#X obj 745 142 r \$0-properties_def;
#X obj 785 167 cnv 5 5 17 empty empty empty 20 12 0 14 -194593 -66577
0;
#X obj 791 167 s \$0-args;
#X obj 219 12 cnv 5 5 17 empty empty empty 20 12 0 14 -260626 -66577
0;
#X obj 225 12 r \$0-properties_autoapply;
#X obj 131 419 cnv 5 5 17 empty empty empty 20 12 0 14 -260626 -66577
0;
#X obj 137 419 r \$0-prop_name;
#X obj 93 254 cnv 5 5 17 empty empty empty 20 12 0 14 -260626 -66577
0;
#X obj 123 279 cnv 5 5 17 empty empty empty 20 12 0 14 -260626 -66577
0;
#X obj 137 442 sel none empty;
#X obj 71 490 list prepend, f 15;
#X msg 158 466 0, f 2;
#X msg 461 25 bang;
#X obj 37 419 list split 1;
#X obj 71 52 t b b;
#X msg 302 69 args;
#X msg 302 121 canvasargs;
#X obj 71 513 send, f 39;
#X obj 66 513 cnv 5 5 17 empty empty empty 20 12 0 14 -194593 -66577
0;
#X msg 302 190 symbol \$2-\$1;
#X obj 302 167 pack s \$0;
#X obj 302 145 symbol;
#X obj 48 126 cnv 5 5 17 empty empty empty 20 12 0 14 -194593 -66577
0;
#X obj 54 126 s \$0-canvasargs;
#X obj 31 80 cnv 5 5 17 empty empty empty 20 12 0 14 -260626 -66577
0;
#X obj 37 80 r \$0-properties_ok;
#X obj 37 104 t b b b b;
#X obj 531 449 cnv 5 5 17 empty empty empty 20 12 0 14 -260626 -66577
0;
#X obj 537 449 r \$0-properties_ok;
#X obj 513 474 b;
#X obj 669 529 print =;
#X msg 669 466 . \, ============================== \, DON'T FORGET
TO SAVE THE PARENT \, PATCH TO MAKE CHANGES PERSISTENT ! \, ==============================
, f 37;
#X msg 513 557 vis \$1;
#X msg 513 497 0;
#X obj 513 520 t f f, f 10;
#X obj 564 558 cnv 5 5 17 empty empty empty 20 12 0 14 -194593 -66577
0;
#X obj 570 558 s \$0-properties_autoapply-r, f 28;
#X obj 548 496 sendcanvas 2;
#X msg 548 473 dirty 1;
#X obj 518 313 cnv 3 80 15 empty empty empty 2 7 0 10 -257985 -66577
0;
#N canvas 268 376 320 353 remove_bsl 0;
#X text 50 6 string in;
#X obj 60 25 inlet;
#X obj 99 293 outlet;
#X obj 54 25 cnv 5 5 17 empty empty empty 20 12 0 14 -118750 -66577
0;
#X obj 93 293 cnv 5 5 17 empty empty empty 20 12 0 14 -102336 -66577
0;
#X obj 60 49 list fromsymbol;
#X obj 60 171 list store, f 14;
#X obj 60 102 until;
#X obj 60 126 f;
#X obj 101 126 + 1;
#X msg 60 148 get \$1 1;
#X msg 101 102 0;
#X text 192 71 list drip;
#X obj 60 72 t b b l b, f 20;
#X obj 99 268 list tosymbol;
#X obj 60 198 sel 92, f 7;
#X text 119 198 remove backslashes;
#X obj 99 245 list store;
#X msg 99 222 append \$1;
#X connect 1 0 5 0;
#X connect 5 0 13 0;
#X connect 6 0 15 0;
#X connect 6 1 7 1;
#X connect 6 1 17 0;
#X connect 7 0 8 0;
#X connect 8 0 9 0;
#X connect 8 0 10 0;
#X connect 9 0 8 1;
#X connect 10 0 6 0;
#X connect 11 0 8 1;
#X connect 13 0 7 0;
#X connect 13 1 11 0;
#X connect 13 2 6 1;
#X connect 13 3 17 1;
#X connect 14 0 2 0;
#X connect 15 1 18 0;
#X connect 17 0 14 0;
#X connect 18 0 17 0;
#X restore 517 312 pd remove_bsl;
#X msg 544 65 314 224 30 30;
#X msg 544 90 vis 0 \, relocate \$1x\$2+0+0 0x0+\$3+\$4 \, vis 1 \,
editmode 0, f 28;
#X text 564 43 size x y \, pos x y;
#X obj 661 312 s \$0-prop_size-r;
#X obj 598 340 s \$0-prop_onoff-r;
#X obj 598 210 unpack 0 0, f 11;
#X obj 99 254 r \$0-prop_onoff;
#X obj 128 279 r \$0-prop_size;
#X obj 71 392 pack 0 0 0;
#X obj 225 35 metro 100;
#X obj 332 274 cnv 5 5 17 empty empty empty 20 12 0 14 -194593 -66577
0;
#X msg 338 252 1;
#X obj 338 274 s \$0-properties_autoapply-r;
#X msg 370 252 0;
#X obj 364 229 cnv 5 5 17 empty empty empty 20 12 0 14 -260626 -66577
0;
#X obj 370 229 r \$0-lbinit;
#X connect 2 0 13 0;
#X connect 2 0 76 0;
#X connect 2 1 65 0;
#X connect 6 0 2 0;
#X connect 7 0 53 0;
#X connect 10 0 38 0;
#X connect 12 0 13 1;
#X connect 13 0 18 0;
#X connect 18 0 19 0;
#X connect 18 1 70 0;
#X connect 19 0 64 0;
#X connect 19 1 20 0;
#X connect 20 0 21 0;
#X connect 21 0 16 0;
#X connect 23 0 13 0;
#X connect 23 1 26 0;
#X connect 24 0 23 0;
#X connect 28 0 74 0;
#X connect 30 0 33 0;
#X connect 33 0 35 0;
#X connect 33 1 35 0;
#X connect 33 2 34 1;
#X connect 34 0 41 0;
#X connect 35 0 34 1;
#X connect 36 0 2 0;
#X connect 37 1 34 0;
#X connect 38 0 73 0;
#X connect 38 1 39 0;
#X connect 39 0 45 0;
#X connect 40 0 45 0;
#X connect 43 0 41 1;
#X connect 44 0 43 0;
#X connect 45 0 44 0;
#X connect 49 0 50 0;
#X connect 50 1 47 0;
#X connect 50 2 73 0;
#X connect 50 3 40 0;
#X connect 52 0 53 0;
#X connect 52 0 62 0;
#X connect 53 0 57 0;
#X connect 55 0 54 0;
#X connect 56 0 3 0;
#X connect 57 0 58 0;
#X connect 58 0 56 0;
#X connect 58 1 60 0;
#X connect 62 0 61 0;
#X connect 64 0 16 0;
#X connect 65 0 66 0;
#X connect 66 0 0 0;
#X connect 70 0 69 0;
#X connect 70 1 68 0;
#X connect 71 0 73 1;
#X connect 72 0 73 2;
#X connect 73 0 37 0;
#X connect 74 0 38 0;
#X connect 76 0 77 0;
#X connect 78 0 77 0;
#X connect 80 0 78 0;
#X restore 937 386 pd propertyguts;
#X obj 937 526 cnv 5 5 17 empty empty empty 20 12 0 14 -194593 -66577
0;
#X obj 938 412 cnv 5 100 15 empty empty empty 2 7 0 10 -257985 -66577
0;
#N canvas 30 50 314 224 \$0-properties 0;
#X obj 1 1 cnv 5 310 220 empty empty PROPERTIES: 100 18 1 16 -220544
-122932 0;
#X obj 6 36 cnv 8 300 130 empty empty empty 20 20 0 14 -1 -262144 0
;
#X obj 7 37 cnv 10 298 128 empty empty empty 79 21 1 24 -262130 -64
0;
#X obj 6 193 cnv 5 300 18 empty empty empty 20 20 0 14 -1 -262144 0
;
#X obj 7 194 cnv 10 298 16 empty empty DON'T_FORGET_TO_SAVE_THE_PARENT_PATCH_!
6 9 1 12 -261234 -66577 0;
#X obj 7 208 cnv 2 298 1 empty empty empty 6 -20 1 8 -261234 -66577
0;
#X obj 22 143 hradio 14 1 0 2 \$0-properties_ok \$0-properties_ok-r
empty 0 -8 0 10 -262144 -1 -1 0;
#X obj 63 143 hradio 14 1 0 3 \$0-properties_apply \$0-properties_apply-r
empty 0 -8 0 10 -262144 -1 -1 1;
#X obj 64 144 cnv 12 40 12 \$0-properties_apply_cnv \$0-properties_apply_cnv-r
APPLY 3 7 1 11 -261057 -99865 0;
#X obj 236 143 hradio 14 1 0 4 \$0-properties_cancel \$0-properties_cancel-r
empty 0 -8 0 10 -262144 -1 -1 2;
#X obj 24 102 nbx 5 15 8 500 0 0 \$0-prop_size \$0-prop_size-r size
55 7 1 10 -262144 -1 -1 8 256;
#X obj 23 79 tgl 15 0 \$0-prop_onoff \$0-prop_onoff-r init_state_(0/1)
24 7 1 10 -262144 -1 -1 0 1;
#X obj 45 91 cnv 5 52 1 empty empty empty 0 0 1 4 -262130 -64 0;
#X obj 105 143 tgl 14 0 \$0-properties_autoapply \$0-properties_autoapply-r
auto 20 7 1 10 -261057 -1 -1 0 1;
#X obj 153 143 hradio 14 1 0 5 \$0-properties_original \$0-properties_original-r
empty 0 -8 0 10 -262144 -1 -1 4;
#X obj 237 144 cnv 12 54 12 \$0-properties_cancel_cnv \$0-properties_cancel_cnv-r
CANCEL 5 7 1 11 -261234 -99865 0;
#X obj 23 144 cnv 12 26 12 \$0-properties_ok_cnv \$0-properties_ok_cnv-r
OK 4 6 1 12 -204786 -99865 0;
#X obj 154 144 cnv 12 68 12 \$0-properties_original_cnv \$0-properties_original_cnv-r
ORIGINAL 8 7 1 11 -203904 -99865 0;
#X obj 295 14 bng 10 250 50 0 \$0-properties_def \$0-properties_def-r
defaults -42 5 1 10 -262130 -1 -159808;
#X obj 23 56 cnv 1 168 13 empty empty empty 20 12 0 14 -262144 -66577
0;
#X symbolatom 23 56 28 0 0 2 - #0-prop_name-r #0-prop_name;
#X obj 202 62 cnv 5 30 1 empty empty remote_name 0 0 1 10 -262130 -1
0;
#X obj 217 67 cnv 5 30 1 empty empty empty 0 0 1 4 -262130 -64 0;
#X restore 937 411 pd \$0-properties;
#X obj 943 526 s \$0-args;
#X obj 937 453 cnv 5 5 17 empty empty empty 20 12 0 14 -260626 -66577
0;
#X obj 943 453 r \$0-canvasargs;
#N canvas 670 200 569 580 INIT 0;
#X obj 31 15 cnv 5 5 17 empty empty empty 20 12 0 14 -260626 -66577
0;
#X obj 37 15 r \$0-args;
#X obj 36 400 s \$0-lb;
#X obj 36 376 del 10;
#X obj 30 400 cnv 5 5 17 empty empty empty 20 12 0 14 -173398 -66577
0;
#X text 109 189 load defaults first !;
#X obj 113 169 cnv 5 5 17 empty empty empty 20 12 0 14 -173398 -66577
0;
#X obj 119 169 s \$0-defaultslist;
#X obj 345 10 cnv 10 200 100 empty empty GOP 140 17 1 20 -204786 -4160
0;
#X obj 356 20 r \$0-GOP, f 10;
#X obj 350 20 cnv 5 5 17 empty empty empty 20 12 0 14 -260626 -66577
0;
#X obj 350 80 cnv 5 5 17 empty empty empty 20 12 0 14 -194593 -66577
0;
#X obj 79 352 cnv 5 5 17 empty empty empty 20 12 0 14 -173398 -66577
0;
#X obj 85 352 s \$0-argumentslist;
#X obj 31 306 cnv 5 5 17 empty empty empty 20 12 0 14 -260097 -66577
0;
#X obj 36 330 list append, f 13;
#X obj 36 306 r \$0-arg1;
#X obj 37 224 list split 1;
#X text 121 216 1st argument is expanded in [remotename] subpatch,
f 26;
#X obj 31 276 cnv 5 5 17 empty empty empty 20 12 0 14 -173398 -66577
0;
#X obj 37 276 s \$0-arg1;
#X obj 36 352 t b l;
#X floatatom 76 125 5 0 0 0 - - -;
#X obj 356 80 s \$0-ol_spigot;
#X obj 105 254 unpack 0 0;
#X obj 105 276 pack 0 0, f 10;
#X obj 288 344 route float;
#X obj 336 367 t b;
#X obj 378 344 route float;
#X obj 425 367 t b;
#X obj 288 367 sel 0;
#X obj 378 367 sel 0;
#X obj 315 417 clip 0 1;
#X msg 336 392 0;
#X obj 405 417 clip 8 500;
#X text 84 377 the real list of arguments;
#X obj 340 214 cnv 5 5 17 empty empty empty 20 12 0 14 -260097 -66577
0;
#X obj 345 214 r \$0-argumentslist;
#X obj 476 231 list length;
#X floatatom 476 251 5 0 0 0 - - -;
#X obj 289 260 cnv 4 62 15 empty empty empty 2 7 0 10 -257985 -66577
0;
#N canvas 0 50 334 272 achange 0;
#X obj 47 40 inlet;
#X obj 196 25 inlet;
#X text 193 4 reset;
#X text 96 231 list out;
#X obj 47 231 outlet;
#X obj 47 62 list;
#X obj 196 75 text define;
#X obj 62 205 text set -s text t;
#X msg 196 52 clear \, bang;
#X msg 239 25 bang;
#X obj 196 99 t p;
#X obj 86 132 text search -s text t;
#X obj 86 155 == -1;
#X obj 47 178 spigot;
#X obj 47 85 t l l, f 7;
#X text 40 5 anything in;
#X connect 0 0 5 0;
#X connect 1 0 8 0;
#X connect 5 0 14 0;
#X connect 6 0 10 0;
#X connect 8 0 6 0;
#X connect 9 0 8 0;
#X connect 10 0 7 3;
#X connect 10 0 11 1;
#X connect 11 0 12 0;
#X connect 12 0 13 1;
#X connect 13 0 4 0;
#X connect 13 0 7 0;
#X connect 14 0 13 0;
#X connect 14 1 11 0;
#X restore 288 259 pd achange;
#X obj 288 236 list store;
#X obj 282 214 cnv 5 5 17 empty empty empty 20 12 0 14 -260626 -66577
0;
#X obj 288 214 r \$0-lb;
#X obj 359 259 cnv 5 5 17 empty empty empty 20 12 0 14 -260626 -66577
0;
#X obj 365 259 r \$0-lbinit;
#X obj 119 89 t b b;
#X obj 241 169 s \$0-spig;
#X msg 241 145 0;
#X obj 235 169 cnv 5 5 17 empty empty empty 20 12 0 14 -194593 -66577
0;
#X obj 309 438 cnv 5 5 17 empty empty empty 20 12 0 14 -194593 -66577
0;
#X obj 315 438 s \$0-a1;
#X msg 405 440 size \$1;
#X obj 399 462 cnv 5 5 17 empty empty empty 20 12 0 14 -194593 -66577
0;
#X obj 405 462 s \$0-in;
#X msg 425 394 16;
#X msg 119 124 none 0 16;
#X msg 356 44 donecanvasdialog 1 -1 3 0 -1 1 1 \$1 \$1 0 0 \, dirty
0, f 28;
#X obj 37 38 route list float bang symbol;
#X obj 176 65 list append 0 16;
#X obj 176 89 t l b;
#X obj 129 463 print \$0-OL_SPIGOT_ARGS;
#X obj 288 287 list split 1;
#X obj 288 312 list split 1;
#X obj 378 312 list split 1;
#X connect 1 0 59 0;
#X connect 3 0 2 0;
#X connect 9 0 58 0;
#X connect 15 0 21 0;
#X connect 16 0 15 0;
#X connect 17 0 20 0;
#X connect 17 1 24 0;
#X connect 21 0 3 0;
#X connect 21 1 13 0;
#X connect 24 0 25 0;
#X connect 24 1 25 1;
#X connect 25 0 15 1;
#X connect 26 0 30 0;
#X connect 26 1 27 0;
#X connect 27 0 33 0;
#X connect 28 0 31 0;
#X connect 28 1 29 0;
#X connect 29 0 56 0;
#X connect 30 0 33 0;
#X connect 30 1 32 0;
#X connect 31 0 56 0;
#X connect 31 1 34 0;
#X connect 32 0 52 0;
#X connect 33 0 32 0;
#X connect 34 0 53 0;
#X connect 37 0 38 0;
#X connect 37 0 42 1;
#X connect 38 0 39 0;
#X connect 41 0 63 0;
#X connect 42 0 41 0;
#X connect 44 0 42 0;
#X connect 46 0 41 1;
#X connect 47 0 57 0;
#X connect 47 1 49 0;
#X connect 49 0 48 0;
#X connect 53 0 55 0;
#X connect 56 0 34 0;
#X connect 57 0 7 0;
#X connect 57 0 17 0;
#X connect 58 0 23 0;
#X connect 59 0 17 0;
#X connect 59 1 17 0;
#X connect 59 1 22 0;
#X connect 59 2 47 0;
#X connect 59 3 60 0;
#X connect 60 0 61 0;
#X connect 61 0 7 0;
#X connect 61 0 17 0;
#X connect 61 1 49 0;
#X connect 63 1 64 0;
#X connect 64 0 26 0;
#X connect 64 1 65 0;
#X connect 65 0 28 0;
#X restore 937 285 pd INIT;
#X obj 943 501 list;
#X obj 823 402 s \$0-GOP;
#X text 868 18 messages;
#X text 776 139 input;
#X obj 992 204 cnv 5 5 17 empty empty empty 20 12 0 14 -194593 -66577
0;
#X obj 998 203 s \$0-lbinit;
#X obj 931 131 cnv 5 5 17 empty empty empty 20 12 0 14 -260626 -66577
0;
#X obj 937 131 r ol_GUI_reinit;
#X text 904 111 force loadbang from outside;
#X obj 719 556 outlet;
#X obj 713 556 cnv 5 5 17 empty empty empty 20 12 0 14 -102336 -66577
0;
#X obj 713 509 cnv 5 5 17 empty empty empty 20 12 0 14 -260626 -66577
0;
#X obj 719 509 r \$0-spig;
#X obj 719 533 change;
#X obj 658 209 cnv 3 73 15 empty empty empty 2 7 0 9 -257985 -66577
0;
#N canvas 227 108 649 654 colorlist 0;
#X obj 37 29 inlet;
#X obj 131 104 list;
#X obj 131 53 t b a;
#X text 168 96 <-- in case the list consists of symbols only, f 24
;
#X obj 131 33 bng 15 250 50 0 empty empty empty 17 7 0 10 -262144 -1
-1;
#X obj 37 54 route bang;
#X obj 37 104 list store;
#X text 151 31 list can have up to 5 elements;
#X text 408 12 tk color names, f 16;
#X obj 397 34 cnv 15 122 15 empty empty empty 20 12 0 14 -180224 -66577
0;
#X obj 396 33 text define -k \$0-tk;
#A set aquamarine 127 255 212 \; azure 240 255 255 \; beige 245 245
220 \; bisque 255 228 196 \; black 0 0 0 \; blue 0 0 255 \; BlueViolet
138 43 226 \; brown 165 42 42 \; CadetBlue 95 158 160 \; chartreuse
127 255 0 \; chocolate 210 105 30 \; coral 255 127 80 \; CornflowerBlue
100 149 237 \; crymson 220 20 60 \; cyan 0 255 255 \; DarkBlue 0 0
139 \; DarkCyan 0 139 139 \; DarkGoldenrod 184 134 11 \; DarkGreen
0 100 0 \; DarkGrey 169 169 169 \; DarkMagenta 139 0 139 \; DarkOrange
255 140 0 \; DarkOrchid 153 50 204 \; DarkRed 139 0 0 \; DarkSeaGreen
143 188 143 \; DarkTurquoise 0 206 209 \; DarkViolet 148 0 211 \; DeepPink
255 20 147 \; DeepSkyBlue 0 191 255 \; DodgerBlue 30 144 255 \; firebrick
178 34 34 \; fuchsia 255 0 255 \; GhostWhite 248 248 255 \; gold 255
215 0 \; green 0 255 0 \; GreenYellow 173 255 47 \; grey 190 190 190
\; grey10 26 26 26 \; grey20 51 51 51 \; grey30 77 77 77 \; grey40
102 102 102 \; grey50 127 127 127 \; grey60 153 153 153 \; grey70 179
179 179 \; grey80 204 204 204 \; grey90 229 229 229 \; khaki 240 230
140 \; lavender 230 230 250 \; LightBlue 173 216 230 \; LightCoral
240 128 128 \; LightCyan 224 255 255 \; LightGreen 144 238 144 \; LightSeaGreen
32 178 170 \; LightSkyBlue 135 206 250 \; LightSlateBlue 132 112 255
\; LightYellow 255 255 224 \; lime 0 255 0 \; LimeGreen 50 205 50 \;
linen 250 240 230 \; magenta 255 0 255 \; maroon 176 48 96 \; MediumAquamarine
102 205 170 \; MediumBlue 0 0 205 \; MediumOrchid 186 85 211 \; MediumPurple
147 112 219 \; MediumSeaGreen 60 179 113 \; MediumTurquoise 72 209
204 \; MediumVioletRed 199 21 133 \; MintCream 245 255 250 \; MistyRose
255 228 225 \; moccasin 255 228 181 \; OldLace 253 245 230 \; orange
255 165 0 \; OrangeRed 255 69 0 \; orchid 218 112 214 \; PaleGreen
152 251 152 \; PaleTurquoise 175 238 238 \; PaleVioletRed 219 112 147
\; pink 255 192 203 \; plum 221 160 221 \; purple 160 32 240 \; red
255 0 0 \; RosyBrown 188 143 143 \; RoyalBlue 65 105 225 \; SaddleBrown
139 69 19 \; salmon 250 128 114 \; SandyBrown 244 164 96 \; SeaGreen
46 139 87 \; seashell 255 245 238 \; sienna 160 82 45 \; silver 192
192 192 \; SkyBlue 135 206 235 \; SlateBlue 106 90 205 \; SlateGray
112 128 144 \; snow 255 250 250 \; SpringGreen3 0 205 102 \; SpringGreen
0 255 127 \; SteelBlue 70 130 180 \; teal 0 128 128 \; thistle 216
191 216 \; tomato 255 99 71 \; turquoise 64 224 208 \; violet 238 130
238 \; VioletRed 208 32 144 \; wheat 245 222 179 \; white 255 255 255
\; WhiteSmoke 245 245 245 \; yellow 255 255 0 \;;
#X obj 31 29 cnv 5 5 17 empty empty empty 20 12 0 14 -118750 -66577
0;
#X obj 85 193 route float symbol, f 37;
#X obj 178 502 list prepend 0, f 16;
#X obj 160 572 route 0;
#X obj 178 475 expr ($f1*(-65536)+$f2*(-256)+$f3*(-1))-1, f 42;
#X msg 85 458 255 255 255;
#X text 295 439 calculate number from RGB values, f 16;
#X obj 237 371 text search \$0-tk;
#X obj 284 394 text get \$0-tk;
#X obj 237 394 sel -1;
#X obj 284 416 list split 1;
#X obj 85 434 sel 0;
#X obj 178 525 route 1 2 3 4 5, f 16;
#X obj 160 549 pack 0 0 0 0 0 0;
#X obj 86 138 cnv 3 80 15 empty empty empty 2 7 0 10 -257985 -66577
0;
#X obj 122 163 + 1;
#N canvas 0 50 341 254 drip+index 0;
#X obj 33 15 inlet;
#X obj 33 165 list store, f 15;
#X obj 33 59 until;
#X obj 33 81 f;
#X obj 63 81 + 1;
#X msg 33 133 get \$1 1;
#X obj 76 60 0;
#X obj 33 197 outlet;
#X obj 134 196 outlet;
#X obj 33 37 t b b a, f 15;
#X text 177 17 needs pd 0.48 !;
#X text 175 56 like [zl iter] or ZEXY's [drip], f 19;
#X obj 84 197 outlet;
#X obj 33 104 t f f;
#X text 33 222 item;
#X text 86 222 index;
#X text 140 221 finish;
#X connect 0 0 9 0;
#X connect 1 0 7 0;
#X connect 1 1 8 0;
#X connect 1 1 2 1;
#X connect 2 0 3 0;
#X connect 3 0 4 0;
#X connect 3 0 13 0;
#X connect 4 0 3 1;
#X connect 5 0 1 0;
#X connect 6 0 3 1;
#X connect 9 0 2 0;
#X connect 9 1 6 0;
#X connect 9 2 1 1;
#X connect 13 0 5 0;
#X connect 13 1 12 0;
#X restore 85 137 pd drip+index;
#X msg 178 435 0 0 0;
#X text 177 415 default black;
#X obj 135 329 s2l _;
#X obj 135 354 route list;
#X text 185 320 if symbol is a list seperated by _ \, interpret them
as RGB values, f 35;
#X obj 211 289 list store, f 13;
#X obj 194 215 sel _ . -;
#X obj 211 244 f;
#X msg 211 266 get \$1 1;
#X text 263 216 if symbol is "_" or "." or "-" \, use default value
, f 28;
#X obj 160 595 outlet;
#X obj 154 595 cnv 5 5 17 empty empty empty 20 12 0 14 -102336 -66577
0;
#X obj 412 143 cnv 5 5 17 empty empty empty 20 12 0 14 -194593 -66577
0;
#X obj 418 143 s \$0-defaultcolors;
#X obj 280 266 cnv 5 5 17 empty empty empty 20 12 0 14 -260626 -66577
0;
#X obj 286 266 r \$0-defaultcolors;
#X obj 88 80 cnv 5 5 17 empty empty empty 20 12 0 14 -260626 -66577
0;
#X obj 94 80 r \$0-defaultcolors;
#X obj 412 97 cnv 5 5 17 empty empty empty 20 12 0 14 -260626 -66577
0;
#X obj 418 97 r \$0-lbinit;
#X msg 418 120 6 21;
#X connect 0 0 5 0;
#X connect 1 0 27 0;
#X connect 2 0 1 0;
#X connect 2 1 1 1;
#X connect 5 0 6 0;
#X connect 5 1 4 0;
#X connect 5 1 2 0;
#X connect 6 0 27 0;
#X connect 12 0 22 0;
#X connect 12 1 34 0;
#X connect 13 0 23 0;
#X connect 14 0 38 0;
#X connect 15 0 13 0;
#X connect 16 0 15 0;
#X connect 18 0 20 0;
#X connect 19 0 21 0;
#X connect 20 0 28 0;
#X connect 20 1 19 0;
#X connect 21 1 15 0;
#X connect 22 0 16 0;
#X connect 22 1 13 0;
#X connect 23 0 24 1;
#X connect 23 1 24 2;
#X connect 23 2 24 3;
#X connect 23 3 24 4;
#X connect 23 4 24 5;
#X connect 24 0 14 0;
#X connect 26 0 13 1;
#X connect 27 0 12 0;
#X connect 27 1 26 0;
#X connect 27 1 35 1;
#X connect 27 2 24 0;
#X connect 28 0 15 0;
#X connect 30 0 31 0;
#X connect 31 0 15 0;
#X connect 31 1 18 0;
#X connect 33 0 30 0;
#X connect 34 0 35 0;
#X connect 34 1 35 0;
#X connect 34 2 35 0;
#X connect 34 3 30 0;
#X connect 35 0 36 0;
#X connect 36 0 33 0;
#X connect 43 0 33 1;
#X connect 45 0 6 1;
#X connect 47 0 48 0;
#X connect 48 0 41 0;
#X connect 48 0 27 0;
#X restore 657 208 pd colorlist;
#X obj 563 158 route float bang size send colors;
#X msg 643 102 colors;
#X msg 562 455 color \$1 \$2 \$1;
#X obj 562 353 list store;
#X obj 562 325 t b f, f 12;
#X obj 562 380 list prepend;
#X obj 562 406 route 1 0;
#X msg 587 431 color \$1 \$1 \$1;
#X obj 871 61 cnv 5 5 17 empty empty empty 20 12 0 14 -194593 -66577
0;
#X obj 877 61 s \$0-in;
#X obj 562 301 f;
#X obj 657 233 t b l;
#X obj 1038 131 cnv 5 5 17 empty empty empty 20 12 0 14 -260626 -66577
0;
#X obj 1044 131 r \$0-properties_original;
#X obj 938 49 cnv 14 230 35 empty empty empty 2 2 0 9 -253181 -66577
0;
#X obj 937 48 declare -stdlib zexy -lib zexy, f 38;
#X obj 937 66 declare -stdpath iemguts -path iemguts;
#X connect 0 0 2 0;
#X connect 2 0 40 0;
#X connect 3 0 2 1;
#X connect 3 0 9 0;
#X connect 4 0 8 0;
#X connect 5 0 37 0;
#X connect 5 1 36 0;
#X connect 6 0 82 0;
#X connect 6 1 4 0;
#X connect 10 0 14 1;
#X connect 10 0 107 0;
#X connect 12 0 14 0;
#X connect 13 0 15 0;
#X connect 14 0 13 0;
#X connect 16 0 12 0;
#X connect 17 0 106 0;
#X connect 29 0 18 0;
#X connect 31 0 34 0;
#X connect 33 0 5 0;
#X connect 34 0 35 0;
#X connect 34 1 36 0;
#X connect 35 0 36 0;
#X connect 36 0 38 0;
#X connect 36 0 54 0;
#X connect 37 0 15 0;
#X connect 37 0 43 0;
#X connect 37 1 36 0;
#X connect 42 0 1 0;
#X connect 50 0 97 0;
#X connect 51 0 50 0;
#X connect 54 0 6 0;
#X connect 57 0 65 0;
#X connect 59 0 57 0;
#X connect 65 0 64 0;
#X connect 65 1 62 0;
#X connect 65 2 86 0;
#X connect 68 0 69 0;
#X connect 70 0 73 0;
#X connect 71 0 81 0;
#X connect 79 0 71 0;
#X connect 81 0 77 0;
#X connect 88 0 57 0;
#X connect 93 0 94 0;
#X connect 94 0 90 0;
#X connect 96 0 108 0;
#X connect 97 0 29 0;
#X connect 97 1 14 0;
#X connect 97 2 31 0;
#X connect 97 3 2 0;
#X connect 97 4 96 0;
#X connect 98 0 97 0;
#X connect 99 0 11 0;
#X connect 100 0 102 0;
#X connect 101 0 100 0;
#X connect 101 1 102 1;
#X connect 102 0 103 0;
#X connect 103 0 99 0;
#X connect 103 1 104 0;
#X connect 104 0 11 0;
#X connect 107 0 101 0;
#X connect 108 0 107 0;
#X connect 108 1 100 1;
#X connect 110 0 57 0;
#X coords 0 -1 1 1 16 16 2 0 0;
