#N canvas 535 51 930 769 10;
#X floatatom 650 544 5 1 3 0 - - -, f 5;
#X floatatom 684 544 5 0 0 0 - - -, f 5;
#X floatatom 727 544 5 0 0 0 - - -, f 5;
#X obj 666 567 t b f;
#X obj 705 567 t b f;
#X floatatom 761 544 5 0 0 0 - - -, f 5;
#X obj 744 567 t b f;
#X obj 650 606 list prepend font;
#X obj 650 627 list trim;
#X floatatom 393 546 5 0 0 0 - - -, f 5;
#X floatatom 435 546 5 0 0 0 - - -, f 5;
#X floatatom 481 545 5 0 0 0 - - -, f 5;
#X obj 409 569 t b f;
#X obj 448 569 t b f;
#X floatatom 528 545 5 0 0 0 - - -, f 5;
#X obj 513 569 t b f;
#X obj 393 629 list trim;
#X obj 393 608 list prepend colors;
#X obj 393 586 pack 0 0 0 0 0;
#X floatatom 574 544 5 0 0 0 - - -, f 5;
#X obj 549 569 t b f;
#X text 384 526 bg off \, bg on \, text off \, text on \, border;
#X floatatom 39 546 5 10 300 0 - - -, f 5;
#X floatatom 73 546 5 14 60 0 - - -, f 5;
#X floatatom 107 546 5 -1 20 0 - - -, f 5;
#X obj 55 569 t b f;
#X obj 94 569 t b f;
#X obj 39 629 list trim;
#X obj 39 608 list prepend size;
#X text 140 540 thickness, f 5;
#X obj 91 520 cnv 3 1 1 empty empty SIZE: -3 -2 1 14 -262144 -66577
0;
#X obj 470 520 cnv 3 1 1 empty empty COLORS**: -3 -2 1 14 -262144 -4160
0;
#X obj 709 520 cnv 3 1 1 empty empty FONT: -3 -2 1 14 -262144 -4160
0;
#X obj 650 584 pack 0 0 0 0 0 0;
#X obj 39 586 pack 0 0 0;
#X text 401 274 (Other) Parameters can be set with messages.:;
#X text 735 624 1 = courier \; 2 = helvetica (default) \; 3 = times
;
#X msg 465 633 colors;
#X msg 607 632 font;
#X text 485 651 word alone sets defaults;
#X text 52 103 [ol_tab];
#X obj 30 126 print tab_out;
#X text 549 96 bgnd_color off (1);
#X text 549 106 bgnd_color on (14);
#X text 549 129 text_color on (22);
#X text 550 139 border_color (2);
#X text 549 166 font size (10);
#X text 549 118 text_color off (0);
#X text 549 155 font type (2);
#X text 548 78 DEFAULTS:;
#X obj 650 649 s \$0-mytab-r;
#X obj 393 650 s \$0-mytab-r;
#X text 648 526 font \, size \, pos_x \, pos_y;
#X obj 39 651 s \$0-mytab-r;
#X obj 405 336 s \$0-mytab-r;
#X obj 546 335 s \$0-mytab-r;
#X text 800 542 * use "-1" for approximate mid position, f 15;
#X obj 29 289 r \$0-mytab;
#X obj 29 332 print mytab_out;
#X obj 147 331 s \$0-mytab-r;
#X floatatom 147 290 5 0 0 0 - - -, f 5;
#X text 183 288 0 = clear (no output), f 11;
#X obj 268 330 s \$0-mytab-r;
#X floatatom 268 287 5 0 0 0 - - -, f 5;
#X obj 205 587 list trim;
#X obj 205 648 s \$0-mytab-r;
#X obj 205 566 list prepend items;
#X msg 205 542 try this list of items;
#X msg 268 307 set \$1;
#X msg 220 631 items;
#X msg 546 297 font 2 16 -1 -1;
#X text 41 527 width \, height \, border;
#X obj 254 519 cnv 10 1 1 empty empty ITEMS: -3 -2 1 14 -262144 -66577
0;
#X msg 294 631 items none;
#X text 299 612 no labels;
#X text 218 612 numbered;
#X obj 653 334 s \$0-mytab-r;
#X msg 653 314 howmany \$1;
#X floatatom 653 296 5 0 0 0 - - -, f 5;
#X text 444 676 "_" writes nothing on that slot;
#X msg 164 677 1 _ _ _ 5 _ _ _ _ 10 _ _ _ _ 15 _ _ _ _ 20;
#X obj 29 380 r \$0-mytab-info;
#X obj 134 126 route dropped_tab, f 20;
#X obj 134 172 print DROPPED_TAB;
#X obj 251 172 print INFOS;
#X obj 251 149 spigot;
#X obj 284 125 tgl 15 0 empty empty empty 17 7 0 10 -262144 -1 -1 0
1;
#X text 275 94 show all infos, f 8;
#X obj 29 403 route dropped drop_pos dropped_tab pos mod hover mousestate
mouseup mousedown, f 131;
#X obj 29 427 print DROPPED;
#X obj 551 429 tgl 15 0 empty empty empty 17 7 0 10 -262144 -1 -1 0
1;
#X obj 638 427 unpack;
#X floatatom 638 447 4 0 0 0 - - -, f 4;
#X floatatom 671 447 4 0 0 0 - - -, f 4;
#X obj 725 427 unpack;
#X floatatom 725 447 4 0 0 0 - - -, f 4;
#X floatatom 758 447 4 0 0 0 - - -, f 4;
#X obj 464 427 unpack;
#X floatatom 464 447 4 0 0 0 - - -, f 4;
#X floatatom 497 447 4 0 0 0 - - -, f 4;
#X floatatom 377 428 5 0 0 0 - - -, f 5;
#X obj 290 427 unpack;
#X floatatom 290 447 4 0 0 0 - - -, f 4;
#X floatatom 323 447 4 0 0 0 - - -, f 4;
#X obj 117 427 unpack;
#X floatatom 117 447 4 0 0 0 - - -, f 4;
#X floatatom 150 447 4 0 0 0 - - -, f 4;
#X obj 171 427 print DROPPED_TAB;
#X obj 737 334 s \$0-mytab-r;
#X floatatom 737 296 5 0 1000 0 - - -, f 5;
#X msg 737 314 hover \$1;
#X text 375 443 1:Shift \; 2:Ctl \; 3:Shift+Ctl;
#X text 635 458 position on;
#X text 644 467 mouse up;
#X text 723 458 position on;
#X text 726 467 mouse down;
#X text 545 444 mouse;
#X text 544 454 state;
#X text 461 459 mouse hover;
#X text 287 458 position;
#X text 284 467 when mouse;
#X text 118 467 position;
#X text 107 458 dropped file;
#X text 26 443 dropped file;
#X text 185 442 file dropped;
#X text 195 451 on tab x;
#X text 773 294 poll interval;
#X text 734 273 send mouse data on hover;
#X obj 284 46 namecanvas \$0-ol_help;
#N canvas 1111 156 626 800 init 0;
#X obj 470 388 cnv 8 120 25 empty empty empty 20 12 0 14 -204786 -66577
0;
#X obj 97 553 cnv 8 300 80 empty empty empty 20 12 0 14 -204786 -66577
0;
#X obj 461 76 cnv 8 120 26 empty empty empty 20 12 0 14 -204786 -66577
0;
#X obj 60 287 cnv 8 200 25 empty empty empty 20 12 0 14 -204786 -66577
0;
#X msg 245 33 vis 0 \, relocate \$3x\$4+0+0 0x0+\$1+\$2 \, vis 1 \,
editmode 0;
#X obj 245 55 s \$0-ol_help;
#X msg 118 64 300 50 900 750;
#X obj 118 219 s \$0-frame-r;
#X floatatom 118 176 5 0 0 0 - - -, f 5;
#X obj 28 450 s \$0-title-r;
#X msg 98 406 label \$1;
#X floatatom 263 143 5 0 0 0 - - -, f 5;
#X obj 263 183 s \$0-bgnd-r;
#X obj 56 119 del 10;
#X obj 56 99 t b b;
#X text 244 80 1.) set pos and size of main window;
#X msg 172 115 \$3;
#X obj 118 132 f;
#X text 151 143 minus frame sizes, f 11;
#X text 124 266 2.) set name of title;
#X obj 56 141 s \$0-lb;
#X obj 118 107 r \$0-lb;
#X obj 29 244 r \$0-lb;
#X obj 29 406 unpack 0 s;
#X text 175 530 3.) set description;
#X obj 263 262 s \$0-frame2-r;
#X obj 182 463 s \$0-text1-r;
#X obj 29 626 cnv 3 68 15 empty empty empty 2 7 0 10 -257985 -66577
0;
#N canvas 341 335 425 542 tosymbol 0;
#X obj 67 94 list length;
#X obj 67 42 list;
#X obj 101 226 list, f 7;
#X obj 67 175 f, f 10;
#X obj 154 175 + 1;
#X obj 67 150 until;
#X obj 101 251 list split;
#X msg 157 94 0;
#X obj 139 276 list split 1;
#X obj 139 361 list fromsymbol;
#X obj 139 302 route symbol float;
#X obj 191 329 makefilename %s;
#X obj 139 435 textfile;
#X msg 202 94 clear;
#X obj 139 387 list prepend add2;
#X obj 67 201 t b b b f;
#X obj 79 276 + 1;
#X obj 67 122 t f f;
#X obj 78 300 <;
#X obj 20 335 spigot;
#X msg 20 394 add2 32;
#X obj 139 411 list trim;
#X obj 67 335 f;
#X obj 67 361 sel 0;
#X obj 139 463 list tosymbol;
#X obj 67 68 t l l b b, f 23;
#X text 184 486 symbol out with correct spaces;
#X text 57 2 string in;
#X msg 136 25 #/zi 3 4 oo ä;
#X msg 229 25 1.23457e+019;
#X floatatom 315 28 5 0 0 0 - - -, f 5;
#X obj 67 22 cnv 13 34 15 empty empty empty 2 2 0 9 -163816 -66577
0;
#X obj 139 487 cnv 14 40 15 empty empty empty 2 2 0 9 -163840 -66577
0;
#X obj 67 21 inlet;
#X obj 139 486 outlet;
#X connect 0 0 17 0;
#X connect 1 0 25 0;
#X connect 2 0 6 0;
#X connect 3 0 4 0;
#X connect 3 0 15 0;
#X connect 4 0 3 1;
#X connect 5 0 3 0;
#X connect 6 1 8 0;
#X connect 7 0 3 1;
#X connect 8 0 10 0;
#X connect 9 0 14 0;
#X connect 10 0 9 0;
#X connect 10 1 11 0;
#X connect 11 0 9 0;
#X connect 12 0 24 0;
#X connect 13 0 12 0;
#X connect 14 0 21 0;
#X connect 15 0 22 0;
#X connect 15 1 19 0;
#X connect 15 2 2 0;
#X connect 15 3 6 1;
#X connect 15 3 16 0;
#X connect 16 0 18 0;
#X connect 17 0 5 0;
#X connect 17 1 18 1;
#X connect 18 0 19 1;
#X connect 18 0 22 1;
#X connect 19 0 20 0;
#X connect 20 0 12 0;
#X connect 21 0 12 0;
#X connect 22 0 23 0;
#X connect 23 0 12 0;
#X connect 24 0 34 0;
#X connect 25 0 0 0;
#X connect 25 1 2 1;
#X connect 25 2 7 0;
#X connect 25 3 13 0;
#X connect 28 0 1 0;
#X connect 29 0 1 0;
#X connect 30 0 1 0;
#X connect 33 0 1 0;
#X restore 28 625 pd tosymbol;
#X obj 199 390 r \$0-lb;
#X obj 199 413 t b b;
#X obj 268 463 s \$0-text2-r;
#X obj 354 463 s \$0-text3-r;
#X msg 28 488 bang;
#X msg 118 195 vis_size \$1 45;
#X msg 263 240 vis_size \$1 43;
#X text 349 389 init text labels;
#X obj 28 719 pack s 0 0;
#X msg 28 740 label \$1 \, label_pos \$2 \$3;
#X obj 531 524 unpack;
#X msg 531 500 190 -26;
#X floatatom 493 391 5 0 0 0 - - -, f 5;
#X floatatom 531 391 5 0 0 0 - - -, f 5;
#X obj 531 421 t b f;
#X msg 545 471 set \$1 \$2;
#X obj 493 471 t b b l;
#X text 503 370 x;
#X text 540 370 y;
#X text 466 352 4.) set label position;
#X obj 564 545 f;
#X msg 321 367 color \$1 \$1 \$1;
#X msg 263 161 vis_size \$1 55;
#X floatatom 79 174 5 0 0 0 - - -, f 5;
#X obj 118 153 - 13;
#X obj 263 122 + 10;
#X obj 263 219 - 254;
#X obj 56 56 t b f;
#X msg 260 390 -40081;
#X msg 260 368 set \$1;
#X obj 56 11 loadbang;
#N canvas 36 456 791 300 better_colors 0;
#X obj 89 19 inlet;
#X obj 320 262 outlet;
#X obj 89 40 random 10;
#X obj 89 61 sel 0 1 2 3 4 5 6 7 8 9, f 83;
#X obj 320 239 expr ($f1*(-65536)+$f2*(-256)+$f3*(-1))-1;
#X msg 16 162 140 0 0;
#X msg 69 162 0 156 144;
#X msg 136 162 0 140 0;
#X msg 252 162 231 112 0;
#X msg 191 162 100 0 255;
#X msg 317 162 100 100 100;
#X msg 397 162 255 255 0;
#X msg 541 162 123 33 5;
#X msg 464 162 22 131 5;
#X msg 607 163 147 0 163;
#X connect 0 0 2 0;
#X connect 2 0 3 0;
#X connect 3 0 5 0;
#X connect 3 1 6 0;
#X connect 3 2 7 0;
#X connect 3 3 9 0;
#X connect 3 4 8 0;
#X connect 3 5 10 0;
#X connect 3 6 11 0;
#X connect 3 7 13 0;
#X connect 3 8 12 0;
#X connect 3 9 14 0;
#X connect 4 0 1 0;
#X connect 5 0 4 0;
#X connect 6 0 4 0;
#X connect 7 0 4 0;
#X connect 8 0 4 0;
#X connect 9 0 4 0;
#X connect 10 0 4 0;
#X connect 11 0 4 0;
#X connect 12 0 4 0;
#X connect 13 0 4 0;
#X connect 14 0 4 0;
#X restore 56 34 pd better_colors;
#X obj 56 78 del 50;
#X msg 170 17 bang;
#X text 200 114 width;
#X msg 29 428 label_pos \$1 21;
#X obj 479 124 list prepend set;
#X obj 479 146 list trim;
#X text 246 10 probably dangerous when initialized with loadbang!;
#X msg 29 383 89 ol_tab;
#X obj 28 775 s \$0-text1-r;
#X obj 195 719 pack s 0 0;
#X obj 195 775 s \$0-text2-r;
#X obj 351 719 pack s 0 0;
#X msg 351 740 label \$1 \, label_pos \$2 \$3;
#X obj 351 775 s \$0-text3-r;
#X obj 28 648 list prepend 0;
#X msg 195 740 label \$1 \, label_pos \$2 \$3 \, label_font 1 11,
f 23;
#X obj 564 567 + 14;
#X obj 564 590 + 14;
#X obj 28 510 t b b b b b b b, f 20;
#X obj 28 672 route 1 2 3, f 66;
#X msg 86 532 2, f 1;
#X msg 125 531 1, f 1;
#X msg 47 532 3, f 1;
#X msg 153 608 empty;
#X obj 531 272 loadbang;
#X msg 531 293 set -26;
#X floatatom 73 292 5 0 0 0 - - -, f 5;
#X symbolatom 108 292 20 0 0 0 - - -, f 20;
#X obj 73 333 pack 0 s;
#X obj 108 310 t b s;
#X obj 73 354 t b l;
#X msg 113 354 set \$1 \$2;
#X msg 73 261 set 66;
#X obj 493 448 pack 0 -26;
#X msg 135 584 empty;
#X msg 479 80 300 50 900 750;
#X msg 106 560 customisable tab with text;
#X msg 260 413 size 1 \, pos 300 65 \, vis_size 1 1 \, color \$1 \$1
2 \, label_font 1 11 \, label, f 26;
#X connect 4 0 5 0;
#X connect 6 0 16 0;
#X connect 8 0 34 0;
#X connect 8 0 54 0;
#X connect 8 0 55 0;
#X connect 10 0 9 0;
#X connect 11 0 51 0;
#X connect 13 0 20 0;
#X connect 14 0 13 0;
#X connect 14 1 6 0;
#X connect 16 0 17 1;
#X connect 17 0 53 0;
#X connect 21 0 17 0;
#X connect 22 0 68 0;
#X connect 22 0 93 0;
#X connect 23 0 64 0;
#X connect 23 1 10 0;
#X connect 28 0 75 0;
#X connect 29 0 30 0;
#X connect 30 0 79 0;
#X connect 30 1 40 0;
#X connect 30 1 57 0;
#X connect 33 0 79 0;
#X connect 34 0 7 0;
#X connect 35 0 25 0;
#X connect 37 0 38 0;
#X connect 38 0 69 0;
#X connect 39 0 37 1;
#X connect 39 0 70 1;
#X connect 39 0 72 1;
#X connect 39 1 49 0;
#X connect 40 0 39 0;
#X connect 41 0 94 0;
#X connect 42 0 43 0;
#X connect 43 0 94 0;
#X connect 43 1 94 1;
#X connect 44 0 40 0;
#X connect 45 0 33 0;
#X connect 45 1 40 0;
#X connect 45 2 44 0;
#X connect 49 0 37 2;
#X connect 49 0 77 0;
#X connect 50 0 12 0;
#X connect 51 0 12 0;
#X connect 52 0 34 0;
#X connect 53 0 8 0;
#X connect 54 0 11 0;
#X connect 55 0 35 0;
#X connect 56 0 61 0;
#X connect 56 1 58 0;
#X connect 57 0 98 0;
#X connect 57 0 50 0;
#X connect 58 0 57 0;
#X connect 59 0 60 0;
#X connect 60 0 56 0;
#X connect 61 0 14 0;
#X connect 62 0 60 0;
#X connect 64 0 9 0;
#X connect 65 0 66 0;
#X connect 66 0 6 0;
#X connect 68 0 23 0;
#X connect 70 0 76 0;
#X connect 72 0 73 0;
#X connect 73 0 74 0;
#X connect 75 0 80 0;
#X connect 76 0 71 0;
#X connect 77 0 70 2;
#X connect 77 0 78 0;
#X connect 78 0 72 2;
#X connect 79 0 84 0;
#X connect 79 1 83 0;
#X connect 79 2 95 0;
#X connect 79 3 81 0;
#X connect 79 4 97 0;
#X connect 79 5 82 0;
#X connect 80 0 37 0;
#X connect 80 1 70 0;
#X connect 80 2 72 0;
#X connect 81 0 75 1;
#X connect 82 0 75 1;
#X connect 83 0 75 1;
#X connect 84 0 28 0;
#X connect 85 0 86 0;
#X connect 86 0 42 0;
#X connect 87 0 89 0;
#X connect 88 0 90 0;
#X connect 89 0 91 0;
#X connect 90 0 87 0;
#X connect 90 1 89 1;
#X connect 91 0 68 0;
#X connect 91 1 92 0;
#X connect 92 0 68 0;
#X connect 93 0 87 0;
#X connect 94 0 45 0;
#X connect 95 0 28 0;
#X connect 96 0 4 0;
#X connect 96 0 65 0;
#X connect 97 0 28 0;
#X connect 98 0 26 0;
#X connect 98 0 31 0;
#X connect 98 0 32 0;
#X restore 19 48 pd init;
#X obj 11 11 cnv 8 897 55 \$0-bgnd \$0-bgnd-r empty 0 20 0 4 -2533
-2533 0;
#X obj 15 16 cnv 8 887 45 \$0-frame \$0-frame-r empty 20 20 0 14 -1
-262144 0;
#X obj 16 17 cnv 15 250 43 \$0-title \$0-title-r ol_tab 89 21 1 24
-236864 -64 0;
#X obj 268 17 cnv 15 633 43 \$0-frame2 \$0-frame2-r empty 25 18 1 24
-216384 -4160 0;
#X obj 300 65 cnv 1 1 1 \$0-text1 \$0-text1-r customisable tab with text
190 -26 1 11 -2533 -66577 0;
#X obj 300 65 cnv 1 1 1 \$0-text2 \$0-text2-r empty 190 -12 1 11 -2533
-66577 0;
#X obj 300 65 cnv 1 1 1 \$0-text3 \$0-text3-r empty 190 2 1 11 -2533
-66577 0;
#X obj 761 722 cnv 10 130 20 empty empty needs_IEMGUTS 10 11 0 14 -4160
-262144 0;
#X obj 761 738 cnv 4 130 4 empty empty empty 10 11 0 14 -4160 -262144
0;
#X obj 503 725 cnv 13 86 15 empty empty empty 2 7 0 10 -257985 -66577
0;
#N canvas 1159 300 482 292 info_outlet 0;
#X text 22 26 The right outlet sends several messages about MOUSE \,
KEY or DRAG'N'DROP states. route them to your needs.;
#X text 22 61 MESSAGES:;
#X text 19 218 (needs activation);
#X text 23 121 mod [f] (= modifier keys: 0/1/2/3 - OFF / SHIFT / STRG
/ STRG+SHIFT), f 71;
#X text 21 79 dropped [s] (= full name of dropped file);
#X text 21 93 drop_pos [f f] (= position where file was dropped);
#X text 21 107 gop_pos [f f] (= position of GOP relative to parent
patch);
#X text 23 147 mousestate [f] (= clicked or not clicked);
#X text 23 160 mousedown [f f] (= coordinates when clicked);
#X text 23 173 mouseup [f f] (= coordinates when click released);
#X text 22 134 pos [f f] (= coordinates of mouse inside GOP);
#X text 22 245 hover_state [f] (= is mouse hovering over GOP ?);
#X text 22 232 hover [f f] (coordinates of mouse hovering over GOP)
;
#X restore 502 724 pd info_outlet;
#X text 284 475 is held down;
#X obj 28 218 ol_tab \\\$0-mytab 40 20 3 5 grey70 14 white black grey20
2 10 -1 -1 1 one|two|three|four|five;
#X msg 405 297 colors grey cyan white red SeaGreen, f 21;
#X text 549 176 font pos_x (-1)*;
#X text 549 186 font pos_y (-1)*;
#X text 26 242 [ol_tab \$0-mytab 40 20 3 5 @items one two three four
five];
#X obj 30 88 ol_tab none 20 14 1 5 grey70 14 white black grey20 2 10
-1 -1 1 1|2|3|4|5;
#N canvas 0 50 450 300 \$0-inagop 0;
#X obj 1 1 cnv 15 198 158 empty empty ol_tab_in_a_GOP: 50 10 0 12 -204786
-66577 0;
#X obj 81 17 cnv 3 70 1 empty empty empty 0 0 0 7 -204786 -66577 0
;
#X obj 49 127 ol_tab \$0-tabingop @goplevel 2;
#X text 1 142 [ol_tab \$0-tabingop @goplevel 2];
#X text 26 27 ... needs a "goplevel 2" message (or the attribute "@goplevel
2") to work., f 26;
#X obj 44 87 cnv 3 3 3 empty empty The GOP's margins 0 0 1 13 -204786
-258113 0;
#X obj 35 105 cnv 3 3 3 empty empty MUST be set to (0 0) !!!
0 0 1 13 -204786 -258113 0;
#X coords 0 -1 1 1 200 160 2 0 0;
#X restore 693 81 pd \$0-inagop;
#X obj 551 212 r \$0-tabingop;
#X obj 551 236 print tabingop_out;
#X obj 599 702 cnv 15 100 16 empty empty empty 2 7 0 10 -257985 -66577
0;
#X obj 599 725 cnv 15 70 16 empty empty empty 2 7 0 10 -257985 -66577
0;
#X obj 598 724 ol_z_colors;
#X obj 598 701 ol_z_info OL_TAB;
#X text 343 142 1.) width (one tab) (20);
#X text 343 153 2.) height (14) \, max 80;
#X text 343 164 3.) border thickness (1) \, min 1;
#X text 343 175 4.) howmany tabs (3) \, max 30;
#X text 343 187 5.) tab items (0);
#X text 342 107 Remote Name (optional);
#X obj 343 99 cnv 1 146 1 empty empty ARGUMENTS: (defaults) 1 -7 0
12 -66577 -66577 0;
#X obj 28 739 cnv 1 448 1 empty empty PLEASE REFER TO "00_README.txt" FOR DRAG AND DROP REQUIREMENTS !
1 -7 0 12 -4160 -4160 0;
#X text 140 107 INFO OUTLET:;
#X text 29 146 LIST:;
#X text 64 146 1: index;
#X text 64 157 2: value;
#X text 359 123 (see "ol_z_info" for details);
#X obj 644 649 cnv 5 5 17 empty empty empty 20 12 0 14 -194593 -66577
0;
#X obj 387 650 cnv 5 5 17 empty empty empty 20 12 0 14 -194593 -66577
0;
#X obj 33 651 cnv 5 5 17 empty empty empty 20 12 0 14 -194593 -66577
0;
#X obj 399 336 cnv 5 5 17 empty empty empty 20 12 0 14 -194593 -66577
0;
#X obj 540 335 cnv 5 5 17 empty empty empty 20 12 0 14 -194593 -66577
0;
#X obj 23 289 cnv 5 5 17 empty empty empty 20 12 0 14 -260626 -66577
0;
#X obj 141 331 cnv 5 5 17 empty empty empty 20 12 0 14 -194593 -66577
0;
#X obj 262 330 cnv 5 5 17 empty empty empty 20 12 0 14 -194593 -66577
0;
#X obj 199 648 cnv 5 5 17 empty empty empty 20 12 0 14 -194593 -66577
0;
#X obj 647 334 cnv 5 5 17 empty empty empty 20 12 0 14 -194593 -66577
0;
#X obj 23 380 cnv 5 5 17 empty empty empty 20 12 0 14 -260626 -66577
0;
#X obj 731 334 cnv 5 5 17 empty empty empty 20 12 0 14 -194593 -66577
0;
#X obj 545 212 cnv 5 5 17 empty empty empty 20 12 0 14 -260626 -66577
0;
#X connect 0 0 33 0;
#X connect 1 0 3 0;
#X connect 2 0 4 0;
#X connect 3 0 33 0;
#X connect 3 1 33 1;
#X connect 4 0 33 0;
#X connect 4 1 33 2;
#X connect 5 0 6 0;
#X connect 6 0 33 0;
#X connect 6 1 33 3;
#X connect 7 0 8 0;
#X connect 8 0 50 0;
#X connect 9 0 18 0;
#X connect 10 0 12 0;
#X connect 11 0 13 0;
#X connect 12 0 18 0;
#X connect 12 1 18 1;
#X connect 13 0 18 0;
#X connect 13 1 18 2;
#X connect 14 0 15 0;
#X connect 15 0 18 0;
#X connect 15 1 18 3;
#X connect 16 0 51 0;
#X connect 17 0 16 0;
#X connect 18 0 17 0;
#X connect 19 0 20 0;
#X connect 20 0 18 0;
#X connect 20 1 18 4;
#X connect 22 0 34 0;
#X connect 23 0 25 0;
#X connect 24 0 26 0;
#X connect 25 0 34 0;
#X connect 25 1 34 1;
#X connect 26 0 34 0;
#X connect 26 1 34 2;
#X connect 27 0 53 0;
#X connect 28 0 27 0;
#X connect 33 0 7 0;
#X connect 34 0 28 0;
#X connect 37 0 51 0;
#X connect 38 0 50 0;
#X connect 57 0 58 0;
#X connect 60 0 59 0;
#X connect 63 0 68 0;
#X connect 64 0 65 0;
#X connect 66 0 64 0;
#X connect 67 0 66 0;
#X connect 68 0 62 0;
#X connect 69 0 65 0;
#X connect 70 0 55 0;
#X connect 73 0 65 0;
#X connect 77 0 76 0;
#X connect 78 0 77 0;
#X connect 80 0 66 0;
#X connect 81 0 88 0;
#X connect 82 0 83 0;
#X connect 82 1 85 0;
#X connect 85 0 84 0;
#X connect 86 0 85 1;
#X connect 88 0 89 0;
#X connect 88 1 104 0;
#X connect 88 2 107 0;
#X connect 88 3 101 0;
#X connect 88 4 100 0;
#X connect 88 5 97 0;
#X connect 88 6 90 0;
#X connect 88 7 91 0;
#X connect 88 8 94 0;
#X connect 91 0 92 0;
#X connect 91 1 93 0;
#X connect 94 0 95 0;
#X connect 94 1 96 0;
#X connect 97 0 98 0;
#X connect 97 1 99 0;
#X connect 101 0 102 0;
#X connect 101 1 103 0;
#X connect 104 0 105 0;
#X connect 104 1 106 0;
#X connect 109 0 110 0;
#X connect 110 0 108 0;
#X connect 143 0 54 0;
#X connect 147 0 41 0;
#X connect 147 1 82 0;
#X connect 149 0 150 0;
