#N struct 1004-template float x float y float q array 1004-poswave
1004-array-element array 1004-negwave 1004-array-element;
#N struct 1004-array-element float y;
#N struct 1008-template float x float y float q array 1008-poswave
1008-array-element array 1008-negwave 1008-array-element;
#N struct 1008-array-element float y;
#N struct 1009-template float x float y float q array 1009-poswave
1009-array-element array 1009-negwave 1009-array-element;
#N struct 1009-array-element float y;
#N canvas 535 92 932 835 10;
#X obj 37 221 openpanel;
#X obj 37 308 soundfiler;
#X obj 37 187 bng 30 250 50 0 empty empty empty 17 7 0 10 -262144 -1
-1;
#X obj 37 246 pack s \$0;
#X floatatom 436 201 0 0 0 0 - - -;
#X floatatom 551 201 0 0 0 0 - - -;
#X floatatom 668 201 0 0 0 0 - - -;
#X floatatom 782 201 0 0 0 0 - - -;
#X obj 37 397 t b f;
#X text 48 333 <-- bang forces a redraw and should be done after a
sample is loaded, f 18;
#X floatatom 116 414 0 0 0 0 - - -;
#X msg 37 269 read -resize \$1 \$2-array1 \$2-array2, f 19;
#X text 176 207 LOAD SAMPLE (preferably stereo);
#X obj 115 187 loadbang;
#X obj 37 492 bng 17 250 50 0 empty empty empty 17 7 0 10 -262144 -1
-1;
#X text 441 303 [ol_waveform \$0-left 0 0 \$0-array1];
#X text 438 421 [ol_waveform \$0-right 0 0 \$0-array2], f 46;
#X obj 38 732 s \$0-left-r;
#X obj 38 753 s \$0-right-r;
#X obj 37 421 s \$0-both;
#X obj 38 710 r \$0-both;
#X text 128 730 |;
#X text 128 737 |;
#X text 128 744 |;
#X text 128 750 |;
#X text 124 722 _;
#X text 124 748 _;
#X text 58 491 select a random area;
#X obj 793 76 table \$0-array1;
#X obj 793 93 table \$0-array2;
#X obj 793 116 table \$0-array3;
#X obj 793 133 table \$0-array4;
#X obj 37 542 cnv 13 100 15 empty empty empty 2 7 0 10 -257985 -66577
0;
#X msg 527 114 1 2;
#X msg 557 114 3 4;
#X text 518 72 load a second soundfile into arrays 3+4;
#X text 584 113 set & play them;
#X obj 199 260 cnv 15 200 510 empty empty MESSAGES: 60 12 1 11 -261682
-66577 0;
#X msg 209 318 view;
#X obj 209 747 s \$0-both;
#X msg 258 508 100 30;
#X msg 209 525 size \$1 \$2;
#X msg 209 476 bang;
#X msg 209 388 view 0 0.5;
#X msg 209 430 select 0.2 0.5;
#X msg 209 413 select;
#X text 215 338 values between 0 and 1 are always treated as sample-relative:
, f 22;
#X text 216 284 message without arguments sets default:, f 23;
#X text 244 475 redraw;
#X text 35 690 send to remote names:;
#X msg 209 508 size;
#X msg 307 508 500 20;
#X msg 209 578 mode \$1;
#X text 260 578 selection mode;
#X obj 219 559 hradio 15 1 0 6 empty empty empty 0 -8 0 10 -262144
-1 -1 4;
#X text 305 89 0 = select;
#X text 305 99 1 = move;
#X text 305 141 5 = OFF;
#X text 305 130 4 = free (xy mouse response);
#X obj 440 713 r \$0-left-info;
#X symbolatom 440 757 0 0 0 0 - - -;
#X text 531 735 receive dropped name;
#X obj 464 47 namecanvas \$0-ol_help;
#N canvas 1156 147 626 800 init 0;
#X obj 470 388 cnv 8 120 25 empty empty empty 20 12 0 14 -204786 -66577
0;
#X obj 97 553 cnv 8 300 80 empty empty empty 20 12 0 14 -204786 -66577
0;
#X obj 461 76 cnv 8 120 26 empty empty empty 20 12 0 14 -204786 -66577
0;
#X obj 60 287 cnv 8 200 25 empty empty empty 20 12 0 14 -204786 -66577
0;
#X msg 245 33 vis 0 \, relocate \$3x\$4+0+0 0x0+\$1+\$2 \, vis 1 \,
editmode 0;
#X obj 245 55 s \$0-ol_help;
#X msg 118 64 300 50 900 810;
#X obj 118 219 s \$0-frame-r;
#X floatatom 118 176 5 0 0 0 - - -;
#X obj 28 450 s \$0-title-r;
#X msg 98 406 label \$1;
#X floatatom 263 143 5 0 0 0 - - -;
#X obj 263 183 s \$0-bgnd-r;
#X obj 56 119 del 10;
#X obj 56 99 t b b;
#X text 244 80 1.) set pos and size of main window;
#X msg 172 115 \$3;
#X obj 118 132 f;
#X text 151 143 minus frame sizes, f 11;
#X text 124 266 2.) set name of title;
#X obj 56 141 s \$0-lb;
#X obj 118 107 r \$0-lb;
#X obj 29 244 r \$0-lb;
#X obj 29 406 unpack 0 s;
#X text 175 530 3.) set description;
#X obj 263 262 s \$0-frame2-r;
#X obj 182 463 s \$0-text1-r;
#X obj 29 626 cnv 3 68 15 empty empty empty 2 7 0 10 -257985 -66577
0;
#N canvas 341 335 425 542 tosymbol 0;
#X obj 67 94 list length;
#X obj 67 42 list;
#X obj 101 226 list, f 7;
#X obj 67 175 f, f 10;
#X obj 154 175 + 1;
#X obj 67 150 until;
#X obj 101 251 list split;
#X msg 157 94 0;
#X obj 139 276 list split 1;
#X obj 139 361 list fromsymbol;
#X obj 139 302 route symbol float;
#X obj 191 329 makefilename %s;
#X obj 139 435 textfile;
#X msg 202 94 clear;
#X obj 139 387 list prepend add2;
#X obj 67 201 t b b b f;
#X obj 79 276 + 1;
#X obj 67 122 t f f;
#X obj 78 300 <;
#X obj 20 335 spigot;
#X msg 20 394 add2 32;
#X obj 139 411 list trim;
#X obj 67 335 f;
#X obj 67 361 sel 0;
#X obj 139 463 list tosymbol;
#X obj 67 68 t l l b b, f 23;
#X text 184 486 symbol out with correct spaces;
#X text 57 2 string in;
#X msg 136 25 #/zi 3 4 oo ä;
#X msg 229 25 1.23457e+19;
#X floatatom 315 28 5 0 0 0 - - -;
#X obj 67 22 cnv 13 34 15 empty empty empty 2 2 0 9 -163816 -66577
0;
#X obj 139 487 cnv 14 40 15 empty empty empty 2 2 0 9 -163840 -66577
0;
#X obj 67 21 inlet;
#X obj 139 486 outlet;
#X connect 0 0 17 0;
#X connect 1 0 25 0;
#X connect 2 0 6 0;
#X connect 3 0 4 0;
#X connect 3 0 15 0;
#X connect 4 0 3 1;
#X connect 5 0 3 0;
#X connect 6 1 8 0;
#X connect 7 0 3 1;
#X connect 8 0 10 0;
#X connect 9 0 14 0;
#X connect 10 0 9 0;
#X connect 10 1 11 0;
#X connect 11 0 9 0;
#X connect 12 0 24 0;
#X connect 13 0 12 0;
#X connect 14 0 21 0;
#X connect 15 0 22 0;
#X connect 15 1 19 0;
#X connect 15 2 2 0;
#X connect 15 3 6 1;
#X connect 15 3 16 0;
#X connect 16 0 18 0;
#X connect 17 0 5 0;
#X connect 17 1 18 1;
#X connect 18 0 19 1;
#X connect 18 0 22 1;
#X connect 19 0 20 0;
#X connect 20 0 12 0;
#X connect 21 0 12 0;
#X connect 22 0 23 0;
#X connect 23 0 12 0;
#X connect 24 0 34 0;
#X connect 25 0 0 0;
#X connect 25 1 2 1;
#X connect 25 2 7 0;
#X connect 25 3 13 0;
#X connect 28 0 1 0;
#X connect 29 0 1 0;
#X connect 30 0 1 0;
#X connect 33 0 1 0;
#X restore 28 625 pd tosymbol;
#X obj 199 390 r \$0-lb;
#X obj 199 413 t b b;
#X obj 268 463 s \$0-text2-r;
#X obj 354 463 s \$0-text3-r;
#X msg 28 488 bang;
#X msg 118 195 vis_size \$1 45;
#X msg 263 240 vis_size \$1 43;
#X text 349 389 init text labels;
#X obj 28 719 pack s 0 0;
#X msg 28 740 label \$1 \, label_pos \$2 \$3;
#X obj 531 524 unpack;
#X msg 531 500 -19 -33;
#X floatatom 493 391 5 0 0 0 - - -;
#X floatatom 531 391 5 0 0 0 - - -;
#X obj 531 421 t b f;
#X msg 545 471 set \$1 \$2;
#X obj 493 471 t b b l;
#X text 503 370 x;
#X text 540 370 y;
#X text 466 352 4.) set label position;
#X obj 564 545 f;
#X msg 321 367 color \$1 \$1 \$1;
#X msg 263 161 vis_size \$1 55;
#X floatatom 79 174 5 0 0 0 - - -;
#X obj 118 153 - 13;
#X obj 263 122 + 10;
#X obj 263 219 - 254;
#X obj 56 56 t b f;
#X msg 260 390 -1.47533e+06;
#X msg 260 368 set \$1;
#X obj 56 11 loadbang;
#N canvas 36 456 791 300 better_colors 0;
#X obj 89 19 inlet;
#X obj 320 262 outlet;
#X obj 89 40 random 10;
#X obj 89 61 sel 0 1 2 3 4 5 6 7 8 9, f 83;
#X obj 320 239 expr ($f1*(-65536)+$f2*(-256)+$f3*(-1))-1;
#X msg 16 162 140 0 0;
#X msg 69 162 0 156 144;
#X msg 136 162 0 140 0;
#X msg 252 162 231 112 0;
#X msg 191 162 100 0 255;
#X msg 317 162 100 100 100;
#X msg 397 162 255 255 0;
#X msg 541 162 123 33 5;
#X msg 464 162 22 131 5;
#X msg 607 163 147 0 163;
#X connect 0 0 2 0;
#X connect 2 0 3 0;
#X connect 3 0 5 0;
#X connect 3 1 6 0;
#X connect 3 2 7 0;
#X connect 3 3 9 0;
#X connect 3 4 8 0;
#X connect 3 5 10 0;
#X connect 3 6 11 0;
#X connect 3 7 13 0;
#X connect 3 8 12 0;
#X connect 3 9 14 0;
#X connect 4 0 1 0;
#X connect 5 0 4 0;
#X connect 6 0 4 0;
#X connect 7 0 4 0;
#X connect 8 0 4 0;
#X connect 9 0 4 0;
#X connect 10 0 4 0;
#X connect 11 0 4 0;
#X connect 12 0 4 0;
#X connect 13 0 4 0;
#X connect 14 0 4 0;
#X restore 56 34 pd better_colors;
#X obj 56 78 del 50;
#X msg 170 17 bang;
#X text 200 114 width;
#X msg 29 428 label_pos \$1 21;
#X obj 479 124 list prepend set;
#X obj 479 146 list trim;
#X text 246 10 probably dangerous when initialized with loadbang!;
#X msg 29 383 61 ol_waveform;
#X obj 28 775 s \$0-text1-r;
#X obj 195 719 pack s 0 0;
#X obj 195 775 s \$0-text2-r;
#X obj 351 719 pack s 0 0;
#X obj 351 775 s \$0-text3-r;
#X obj 28 648 list prepend 0;
#X obj 564 590 + 14;
#X obj 28 510 t b b b b b b b, f 20;
#X obj 28 672 route 1 2 3, f 66;
#X msg 86 532 2, f 1;
#X msg 125 531 1, f 1;
#X msg 47 532 3, f 1;
#X obj 531 272 loadbang;
#X msg 531 293 set -26;
#X floatatom 73 292 5 0 0 0 - - -;
#X symbolatom 108 292 20 0 0 0 - - -;
#X obj 73 333 pack 0 s;
#X obj 108 310 t b s;
#X obj 73 354 t b l;
#X msg 113 354 set \$1 \$2;
#X msg 73 261 set 66;
#X obj 493 448 pack 0 -26;
#X msg 351 740 label \$1 \, label_pos \$2 \$3 \, label_font 1 10;
#X msg 106 560 waveform GUI for tables. allows view and selection.
selecting can be done with mouse-dragging (5 modes);
#X obj 564 567 + 14;
#X msg 129 592 (adapted from [waveform.mmb] from the MMB collection)
;
#X msg 153 608 empty;
#X msg 195 740 label \$1 \, label_pos \$2 \$3 \, label_font 1 10,
f 23;
#X msg 479 80 300 50 900 810;
#X msg 260 413 size 1 \, pos 300 65 \, vis_size 1 1 \, color \$1 \$1
2 \, label_font 1 11 \, label, f 26;
#X obj 414 292 s \$0-ol_help;
#X msg 414 267 editmode 0;
#X obj 414 217 r \$0-lb;
#X obj 414 243 del 10;
#X connect 4 0 5 0;
#X connect 6 0 16 0;
#X connect 8 0 34 0;
#X connect 8 0 54 0;
#X connect 8 0 55 0;
#X connect 10 0 9 0;
#X connect 11 0 51 0;
#X connect 13 0 20 0;
#X connect 14 0 13 0;
#X connect 14 1 6 0;
#X connect 16 0 17 1;
#X connect 17 0 53 0;
#X connect 21 0 17 0;
#X connect 22 0 68 0;
#X connect 22 0 89 0;
#X connect 23 0 64 0;
#X connect 23 1 10 0;
#X connect 28 0 74 0;
#X connect 29 0 30 0;
#X connect 30 0 76 0;
#X connect 30 1 40 0;
#X connect 30 1 57 0;
#X connect 33 0 76 0;
#X connect 34 0 7 0;
#X connect 35 0 25 0;
#X connect 37 0 38 0;
#X connect 38 0 69 0;
#X connect 39 0 37 1;
#X connect 39 0 70 1;
#X connect 39 0 72 1;
#X connect 39 1 49 0;
#X connect 40 0 39 0;
#X connect 41 0 90 0;
#X connect 42 0 43 0;
#X connect 43 0 90 0;
#X connect 43 1 90 1;
#X connect 44 0 40 0;
#X connect 45 0 33 0;
#X connect 45 1 40 0;
#X connect 45 2 44 0;
#X connect 49 0 37 2;
#X connect 49 0 93 0;
#X connect 50 0 12 0;
#X connect 51 0 12 0;
#X connect 52 0 34 0;
#X connect 53 0 8 0;
#X connect 54 0 11 0;
#X connect 55 0 35 0;
#X connect 56 0 61 0;
#X connect 56 1 58 0;
#X connect 57 0 98 0;
#X connect 57 0 50 0;
#X connect 58 0 57 0;
#X connect 59 0 60 0;
#X connect 60 0 56 0;
#X connect 61 0 14 0;
#X connect 62 0 60 0;
#X connect 64 0 9 0;
#X connect 65 0 66 0;
#X connect 66 0 6 0;
#X connect 68 0 23 0;
#X connect 70 0 96 0;
#X connect 72 0 91 0;
#X connect 74 0 77 0;
#X connect 75 0 72 2;
#X connect 76 0 95 0;
#X connect 76 1 80 0;
#X connect 76 2 94 0;
#X connect 76 3 78 0;
#X connect 76 4 92 0;
#X connect 76 5 79 0;
#X connect 77 0 37 0;
#X connect 77 1 70 0;
#X connect 77 2 72 0;
#X connect 78 0 74 1;
#X connect 79 0 74 1;
#X connect 80 0 74 1;
#X connect 81 0 82 0;
#X connect 82 0 42 0;
#X connect 83 0 85 0;
#X connect 84 0 86 0;
#X connect 85 0 87 0;
#X connect 86 0 83 0;
#X connect 86 1 85 1;
#X connect 87 0 68 0;
#X connect 87 1 88 0;
#X connect 88 0 68 0;
#X connect 89 0 83 0;
#X connect 90 0 45 0;
#X connect 91 0 73 0;
#X connect 92 0 28 0;
#X connect 93 0 70 2;
#X connect 93 0 75 0;
#X connect 94 0 28 0;
#X connect 95 0 28 0;
#X connect 96 0 71 0;
#X connect 97 0 4 0;
#X connect 97 0 65 0;
#X connect 98 0 26 0;
#X connect 98 0 31 0;
#X connect 98 0 32 0;
#X connect 100 0 99 0;
#X connect 101 0 102 0;
#X connect 102 0 100 0;
#X restore 19 48 pd init;
#X obj 11 11 cnv 8 897 55 \$0-bgnd \$0-bgnd-r empty 0 20 0 4 -22530
-22530 0;
#X obj 15 16 cnv 8 887 45 \$0-frame \$0-frame-r empty 20 20 0 14 -1
-262144 0;
#X obj 16 17 cnv 15 250 43 \$0-title \$0-title-r ol_waveform 61 21
1 24 -236864 -64 0;
#X obj 268 17 cnv 15 633 43 \$0-frame2 \$0-frame2-r empty 25 18 1 24
-216384 -4160 0;
#X obj 300 65 cnv 1 1 1 \$0-text1 \$0-text1-r waveform GUI for tables. allows view and selection. selecting can be done with mouse-dragging (5 modes)
-19 -33 1 11 -22530 -66577 0;
#X obj 300 65 cnv 1 1 1 \$0-text2 \$0-text2-r (adapted from [waveform.mmb] from the MMB collection)
-19 -19 1 10 -22530 -66577 0;
#X obj 300 65 cnv 1 1 1 \$0-text3 \$0-text3-r empty -19 -5 1 10 -22530
-66577 0;
#X obj 583 137 tgl 15 0 empty empty loop 20 7 0 10 -262144 -1 -1 0
1;
#X obj 520 137 cnv 13 55 15 empty empty empty 2 7 0 10 -257985 -66577
0;
#N canvas 1269 444 450 300 second 0;
#X obj 19 26 inlet;
#X obj 156 25 inlet;
#X obj 226 24 inlet;
#X obj 19 100 soundfiler;
#X obj 19 54 pack s \$0;
#X msg 19 77 read -resize \$1 \$2-array3 \$2-array4;
#X obj 77 209 tabplay~ \$0-array1;
#X obj 104 234 dac~, f 10;
#X msg 128 186 bang;
#X text 177 181 play sample;
#X obj 193 209 tabplay~ \$0-array1;
#X obj 155 127 list append \$0;
#X msg 58 160 set \$3-array\$1;
#X msg 155 160 set \$3-array\$2;
#X msg 254 160 \; \$3-left-r set \$3-array\$1 \; \$3-right-r set \$3-array\$2
;
#X obj 181 234 spigot 0;
#X connect 0 0 4 0;
#X connect 1 0 11 0;
#X connect 2 0 15 1;
#X connect 4 0 5 0;
#X connect 5 0 3 0;
#X connect 6 0 7 0;
#X connect 6 1 15 0;
#X connect 8 0 6 0;
#X connect 8 0 10 0;
#X connect 10 0 7 1;
#X connect 11 0 14 0;
#X connect 11 0 13 0;
#X connect 11 0 12 0;
#X connect 11 0 8 0;
#X connect 12 0 6 0;
#X connect 13 0 10 0;
#X connect 15 0 8 0;
#X restore 519 136 pd second;
#X msg 38 650 \; pd dsp 1;
#X obj 38 629 loadbang;
#X obj 38 516 cnv 13 116 15 empty empty empty 2 7 0 10 -257985 -66577
0;
#N canvas 1269 444 341 300 random_selection 0;
#X obj 19 26 inlet;
#X obj 97 22 inlet;
#X obj 73 171 +;
#X obj 54 234 s \$0-both;
#X obj 54 128 t f b f;
#X obj 54 193 pack;
#X msg 54 213 select \$1 \$2;
#X obj 124 77 * 0.5;
#X obj 54 106 random;
#X obj 74 150 random;
#X obj 97 49 t b f;
#X obj 54 84 del 100;
#X connect 0 0 8 0;
#X connect 1 0 10 0;
#X connect 2 0 5 1;
#X connect 4 0 5 0;
#X connect 4 1 9 0;
#X connect 4 2 2 1;
#X connect 5 0 6 0;
#X connect 6 0 3 0;
#X connect 7 0 8 1;
#X connect 7 0 9 1;
#X connect 8 0 4 0;
#X connect 9 0 2 0;
#X connect 10 0 11 0;
#X connect 10 1 7 0;
#X connect 11 0 8 0;
#X restore 37 515 pd random_selection;
#X obj 439 180 hsl 100 15 0 1 0 0 empty empty empty -2 -8 0 10 -262144
-1 -1 0 0;
#X obj 554 180 hsl 100 15 0 1 0 0 empty empty empty -2 -8 0 10 -262144
-1 -1 0 0;
#X text 463 178 view start;
#X text 579 178 view end;
#X obj 671 180 hsl 100 15 0 1 0 0 empty empty empty -2 -8 0 10 -262144
-1 -1 0 0;
#X obj 785 180 hsl 100 15 0 1 0 0 empty empty empty -2 -8 0 10 -262144
-1 -1 0 0;
#X msg 209 683 modvals 1 2 3;
#X msg 209 645 modvals;
#X msg 209 724 modvals -1 -1 -1;
#X text 215 668 list: SHIFT \, STRG \, SHIFT+STRG;
#X text 264 636 modifier keys can change the mode:*, f 18;
#X text 436 490 * MODIFIER KEYS:;
#X text 215 709 deactivate all:;
#X text 436 447 Inlet values are simply passed through to the outlets.
You can connect another [ol_waveform] underneath with these for multi-channel
displays., f 72;
#X text 305 76 MODES:;
#X text 302 158 (default: 4);
#X obj 38 785 cnv 10 300 20 empty empty needs IEMGUTS IEMLIB and ZEXY
15 11 0 14 -4160 -262144 0;
#X text 436 542 default is "1 2 3", f 44;
#X obj 439 584 r \$0-left;
#X obj 440 735 route dropped;
#X text 438 509 you can set the modifier keys SHIFT \, STRG and SHIFT+STRG
to change the mode when they are pressed., f 70;
#X obj 568 646 unpack 0 0 0;
#X obj 439 608 route view select select_samps, f 65;
#X obj 697 644 unpack 0 0;
#X floatatom 697 667 0 0 0 0 - - -;
#X floatatom 754 667 0 0 0 0 - - -;
#X floatatom 568 667 5 0 0 0 - - -;
#X floatatom 602 667 5 0 0 0 - - -;
#X floatatom 637 667 5 0 0 0 - - -;
#X floatatom 439 668 5 0 0 0 - - -;
#X floatatom 478 668 5 0 0 0 - - -;
#X text 451 626 relative;
#X text 581 625 relative;
#X text 710 625 samples;
#X text 567 682 start/end/length;
#X obj 439 646 unpack, f 7;
#X text 216 594 (selected mode is shown in the bottom left corner)
, f 27;
#X msg 115 229 symbol ol_media/ol_test_1.wav;
#X msg 519 92 symbol ol_media/ol_test_2.wav;
#X text 434 556 (SHIFT = 1("move") \, STRG = 2("shift end") \, SHIFT+STRG
= 3("shift start")), f 74;
#X text 305 109 2 = shift end;
#X text 305 119 3 = shift start;
#X msg 209 447 select 4410 44100;
#X obj 115 208 del 1000;
#X text 262 412 all;
#X text 303 429 relative;
#X text 323 446 samples;
#X text 674 178 selection start;
#X text 797 178 selection end;
#X obj 436 225 ol_waveform \\\$0-left 400 80 \\\$0-array1 6 orange
black 4 1;
#X obj 37 445 s \$0-waveformingop-r;
#X obj 38 568 cnv 15 128 16 empty empty empty 2 7 0 10 -257985 -66577
0;
#X obj 38 591 cnv 15 70 16 empty empty empty 2 7 0 10 -257985 -66577
0;
#X obj 37 590 ol_z_colors;
#X obj 37 567 ol_z_info OL_WAVEFORM;
#X text 34 125 1: width (400);
#X text 34 136 2: height (80), f 35;
#X text 34 147 3: name of table or array containing the audio to be
displayed. (0), f 36;
#X text 35 97 Remote Name (optional);
#X obj 36 92 cnv 1 146 1 empty empty ARGUMENTS: (defaults) 1 -7 0
12 -66577 -66577 0;
#X obj 436 341 ol_waveform \$0-right 0 0 \$0-array2;
#X obj 439 801 cnv 1 448 1 empty empty PLEASE REFER TO "00_README.txt" FOR DRAG AND DROP REQUIREMENTS !
1 -7 0 12 -4160 -4160 0;
#X text 52 109 (see "ol_z_info" for details);
#N canvas 1238 145 536 705 more messages 0;
#X msg 16 335 size \$1 \$2;
#X obj 281 318 pack f f, f 12;
#X floatatom 322 287 5 0 0 0 - - -;
#X floatatom 281 287 5 0 0 0 - - -;
#X text 279 269 width;
#X text 320 269 height;
#X msg 16 20 bang;
#X text 93 41 change the table or array associated with [ol_waveform]
;
#X msg 16 46 set myTable;
#X obj 322 301 t b f;
#X text 53 18 force redraw (needed after a sample is loaded)., f 61
;
#X text 362 278 change size. This will not be saved with the patch.
(default: 400 80), f 18;
#X msg 16 303 drawspeed \$1;
#X text 93 51 also does a redraw !;
#X floatatom 28 286 5 0 10 0 - - -;
#X text 100 297 1 (fastest) - 10 (slowest);
#X text 100 306 default: 5;
#X obj 16 412 s \$0-both;
#X msg 16 103 units \$1;
#X msg 16 86 units;
#X floatatom 61 89 3 0 2 0 - - -;
#X msg 16 163 info 1;
#X msg 16 146 info;
#X text 53 146 off;
#X text 62 163 ms;
#X text 194 91 0 (samples);
#X text 194 101 1 (ms);
#X text 194 111 2 (relative sample length (0-1);
#X text 78 102 time units;
#X text 194 79 Time units:;
#X text 98 153 display selection values inside GOP (time units as above)
;
#X msg 16 369 colors;
#X msg 16 195 samplerate 48000;
#X text 124 194 set samplerate (important for time units conversion)
;
#X msg 16 212 samplerate;
#X text 95 212 or just take PD's samplerate;
#N canvas 473 416 783 300 \$0-inagop 0;
#X obj 1 1 cnv 15 498 198 empty empty ol_waveform_in_a_GOP: 170 10
0 12 -228856 -66577 0;
#X obj 211 17 cnv 3 150 3 empty empty empty 0 0 0 7 -228856 -66577
0;
#X text 22 35 ... needs a "goplevel 2" message (or the attribute "@goplevel
2") to work., f 74;
#X text 63 174 [ol_waveform \$0-waveformingop @array \$0-array1 @goplevel
2];
#X obj 48 86 ol_waveform \$0-waveformingop @array \$0-array1 @goplevel
2;
#X obj 115 67 cnv 3 3 3 empty empty The GOP's margins 0 0 1 13 -233017
-258113 0;
#X obj 243 67 cnv 3 3 3 empty empty MUST be set to (0 0) !!!
0 0 1 13 -233017 -258113 0;
#X coords 0 -1 1 1 500 200 2 0 0;
#X restore 16 462 pd \$0-inagop;
#X text 175 386 background / selection area / waveform;
#X msg 16 386 colors grey yellow blue;
#X text 62 368 set defaults;
#X text 174 367 see "ol_z_colors" !;
#X obj 10 412 cnv 5 5 17 empty empty empty 20 12 0 14 -194593 -66577
0;
#X connect 0 0 17 0;
#X connect 1 0 0 0;
#X connect 2 0 9 0;
#X connect 3 0 1 0;
#X connect 6 0 17 0;
#X connect 8 0 17 0;
#X connect 9 0 1 0;
#X connect 9 1 1 1;
#X connect 12 0 17 0;
#X connect 14 0 12 0;
#X connect 18 0 17 0;
#X connect 19 0 17 0;
#X connect 20 0 18 0;
#X connect 21 0 17 0;
#X connect 22 0 17 0;
#X connect 31 0 17 0;
#X connect 32 0 17 0;
#X connect 38 0 17 0;
#X restore 37 541 pd more messages;
#X obj 32 732 cnv 5 5 17 empty empty empty 20 12 0 14 -194593 -66577
0;
#X obj 32 753 cnv 5 5 17 empty empty empty 20 12 0 14 -194593 -66577
0;
#X obj 31 421 cnv 5 5 17 empty empty empty 20 12 0 14 -194593 -66577
0;
#X obj 32 710 cnv 5 5 17 empty empty empty 20 12 0 14 -260626 -66577
0;
#X obj 203 747 cnv 5 5 17 empty empty empty 20 12 0 14 -194593 -66577
0;
#X obj 434 713 cnv 5 5 17 empty empty empty 20 12 0 14 -260626 -66577
0;
#X obj 433 584 cnv 5 5 17 empty empty empty 20 12 0 14 -260626 -66577
0;
#X obj 31 445 cnv 5 5 17 empty empty empty 20 12 0 14 -194593 -66577
0;
#X connect 0 0 3 0;
#X connect 1 0 8 0;
#X connect 2 0 0 0;
#X connect 3 0 11 0;
#X connect 4 0 127 0;
#X connect 5 0 127 1;
#X connect 6 0 127 2;
#X connect 7 0 127 3;
#X connect 8 0 19 0;
#X connect 8 0 128 0;
#X connect 8 1 10 0;
#X connect 8 1 77 1;
#X connect 11 0 1 0;
#X connect 13 0 121 0;
#X connect 14 0 77 0;
#X connect 20 0 17 0;
#X connect 20 0 18 0;
#X connect 33 0 73 1;
#X connect 34 0 73 1;
#X connect 38 0 39 0;
#X connect 40 0 41 0;
#X connect 41 0 39 0;
#X connect 42 0 39 0;
#X connect 43 0 39 0;
#X connect 44 0 39 0;
#X connect 45 0 39 0;
#X connect 50 0 39 0;
#X connect 51 0 41 0;
#X connect 52 0 39 0;
#X connect 54 0 52 0;
#X connect 59 0 97 0;
#X connect 71 0 73 2;
#X connect 75 0 74 0;
#X connect 78 0 4 0;
#X connect 79 0 5 0;
#X connect 82 0 6 0;
#X connect 83 0 7 0;
#X connect 84 0 39 0;
#X connect 85 0 39 0;
#X connect 86 0 39 0;
#X connect 96 0 100 0;
#X connect 97 0 60 0;
#X connect 99 0 104 0;
#X connect 99 1 105 0;
#X connect 99 2 106 0;
#X connect 100 0 113 0;
#X connect 100 1 99 0;
#X connect 100 2 101 0;
#X connect 101 0 102 0;
#X connect 101 1 103 0;
#X connect 113 0 107 0;
#X connect 113 1 108 0;
#X connect 115 0 3 0;
#X connect 116 0 73 0;
#X connect 120 0 39 0;
#X connect 121 0 115 0;
#X connect 127 0 138 0;
#X connect 127 1 138 1;
#X connect 127 2 138 2;
#X connect 127 3 138 3;
