#N canvas 535 57 834 441 10;
#X obj 19 208 inlet~;
#X obj 236 232 *~ 0.25;
#X obj 38 298 cos~;
#X obj 20 329 *~;
#X obj 127 209 inlet~;
#X obj 190 304 cos~;
#X obj 127 335 *~;
#X obj 235 260 -~ 0.25;
#X obj 66 384 outlet~;
#X msg 236 184 \$1 10;
#X obj 236 209 line~;
#X obj 236 157 clip 0 1;
#X obj 365 102 loadbang;
#X msg 352 127 0;
#X obj 23 32 hsl 115 18 0 1 0 0 \$0-xfader \$0-xfader-r xfade 45 10
1 11 -3414 -159808 -1 0 1;
#X obj 352 178 inlet;
#X obj 352 150 s \$0-xfader-r;
#X obj 69 209 inlet~;
#X obj 70 330 *~;
#X obj 125 384 outlet~;
#X obj 175 209 inlet~;
#X obj 175 335 *~;
#X obj 408 230 clip 0 1;
#X obj 344 409 outlet;
#X obj 344 357 t f f;
#X msg 317 332 \$1, f 2;
#X obj 344 385 sel;
#X obj 352 230 t l l b;
#X msg 391 331 -1;
#X obj 408 253 t f b;
#X obj 236 99 r \$0-xfader;
#X msg 282 184 set \$1;
#X floatatom 296 382 5 0 0 0 - - -, f 5;
#X msg 400 374 set \$1;
#X obj 400 409 s \$0-xfader-r;
#X obj 13 208 cnv 5 5 17 empty empty empty 20 12 0 14 -118750 -66577
0;
#X obj 121 209 cnv 5 5 17 empty empty empty 20 12 0 14 -118750 -66577
0;
#X obj 60 384 cnv 5 5 17 empty empty empty 20 12 0 14 -102336 -66577
0;
#X obj 346 178 cnv 5 5 17 empty empty empty 20 12 0 14 -118750 -66577
0;
#X obj 346 150 cnv 5 5 17 empty empty empty 20 12 0 14 -194593 -66577
0;
#X obj 63 209 cnv 5 5 17 empty empty empty 20 12 0 14 -118750 -66577
0;
#X obj 119 384 cnv 5 5 17 empty empty empty 20 12 0 14 -102336 -66577
0;
#X obj 169 209 cnv 5 5 17 empty empty empty 20 12 0 14 -118750 -66577
0;
#X obj 338 409 cnv 5 5 17 empty empty empty 20 12 0 14 -102336 -66577
0;
#X obj 230 99 cnv 5 5 17 empty empty empty 20 12 0 14 -260626 -66577
0;
#X obj 394 409 cnv 5 5 17 empty empty empty 20 12 0 14 -194593 -66577
0;
#X obj 619 263 cnv 3 39 15 empty empty empty 2 7 0 10 -257985 -66577
0;
#N canvas 1305 468 338 260 GUI 0;
#X obj 32 54 t b b, f 11;
#X obj 32 77 del 300;
#X msg 65 131 color \$1 \$2 \$2;
#X obj 32 30 r \$0-pos0;
#X obj 65 154 s \$0-pos0_-r;
#X msg 95 103 13 0;
#X msg 32 103 10 0;
#X obj 167 52 t b b, f 11;
#X obj 167 75 del 300;
#X msg 200 129 color \$1 \$2 \$2;
#X msg 230 101 13 0;
#X msg 167 101 10 0;
#X obj 167 28 r \$0-pos1;
#X obj 200 152 s \$0-pos1_-r;
#X connect 0 0 1 0;
#X connect 0 1 5 0;
#X connect 1 0 6 0;
#X connect 2 0 4 0;
#X connect 3 0 0 0;
#X connect 5 0 2 0;
#X connect 6 0 2 0;
#X connect 7 0 8 0;
#X connect 7 1 10 0;
#X connect 8 0 11 0;
#X connect 9 0 13 0;
#X connect 10 0 9 0;
#X connect 11 0 9 0;
#X connect 12 0 7 0;
#X restore 618 262 pd GUI;
#X obj 587 24 r \$0-pos0;
#X obj 587 45 t b;
#X msg 587 65 0;
#X obj 657 45 t b;
#X obj 657 24 r \$0-pos1;
#X msg 657 65 1;
#X obj 618 100 pack;
#X obj 703 60 cnv 5 5 17 empty empty empty 20 12 0 14 -260626 -66577
0;
#X obj 709 60 r \$0-ramp;
#X obj 709 83 * 10;
#X obj 618 122 t l l;
#X msg 666 122 \$2;
#X obj 666 144 != 0;
#X obj 618 167 list prepend;
#X obj 392 178 cnv 5 5 17 empty empty empty 20 12 0 14 -260626 -66577
0;
#X obj 398 178 r \$0-in;
#X obj 581 24 cnv 5 5 17 empty empty empty 20 12 0 14 -260626 -66577
0;
#X obj 651 24 cnv 5 5 17 empty empty empty 20 12 0 14 -260626 -66577
0;
#X obj 618 190 route 0 1;
#X msg 618 212 \$1;
#X obj 612 233 cnv 5 5 17 empty empty empty 20 12 0 14 -194593 -66577
0;
#X obj 618 233 s \$0-in;
#X obj 439 144 cnv 5 5 17 empty empty empty 20 12 0 14 -194593 -66577
0;
#X obj 445 144 s \$0-ramp-r;
#X obj 709 105 makefilename %d;
#X msg 709 128 label \$1;
#X obj 703 151 cnv 5 5 17 empty empty empty 20 12 0 14 -194593 -66577
0;
#X obj 709 151 s \$0-rampcnv-r;
#X obj 116 20 hradio 12 1 0 2 \$0-pos1 \$0-pos1-r empty 0 -8 0 10 -262144
-1 -1 1;
#X obj 117 21 cnv 8 22 10 \$0-pos1_ \$0-pos1_-r empty 20 12 0 14 -233017
-262144 0;
#X obj 44 20 nbx 7 12 0 99999 0 0 \$0-ramp \$0-ramp-r empty 0 0 0 10
-262144 -1 -1 0 256;
#X obj 20 20 hradio 12 1 0 2 \$0-pos0 \$0-pos0-r empty 0 -8 0 10 -262144
-1 -1 0;
#X obj 21 21 cnv 8 22 10 \$0-pos0_ \$0-pos0_-r empty 20 12 0 14 -233017
-262144 0;
#X obj 45 21 cnv 2 70 10 \$0-rampcnv \$0-rampcnv-r 0 5 5 1 10 -262113
-66577 0;
#X obj 344 331 line, f 5;
#X obj 371 276 list split 2;
#X obj 236 131 f;
#X obj 466 253 cnv 5 5 17 empty empty empty 20 12 0 14 -194593 -66577
0;
#X obj 472 253 s \$0-ramp-r;
#X obj 472 230 max 0;
#X obj 346 75 cnv 5 5 17 empty empty empty 20 12 0 14 -260626 -66577
0;
#X obj 352 75 r ol_GUI_reinit;
#X text 351 42 force loadbang from outside, f 15;
#X obj 218 374 outlet;
#X obj 212 374 cnv 5 5 17 empty empty empty 20 12 0 14 -102336 -66577
0;
#X text 202 395 float outlet;
#X obj 352 204 route list float ramp pos, f 36;
#X obj 517 230 clip 0 1;
#X connect 0 0 3 0;
#X connect 1 0 2 0;
#X connect 1 0 7 0;
#X connect 2 0 3 1;
#X connect 2 0 18 1;
#X connect 3 0 8 0;
#X connect 4 0 6 0;
#X connect 5 0 6 1;
#X connect 5 0 21 1;
#X connect 6 0 8 0;
#X connect 7 0 5 0;
#X connect 9 0 10 0;
#X connect 10 0 1 0;
#X connect 11 0 9 0;
#X connect 11 0 31 0;
#X connect 11 0 91 0;
#X connect 12 0 13 0;
#X connect 13 0 16 0;
#X connect 13 0 71 0;
#X connect 15 0 94 0;
#X connect 17 0 18 0;
#X connect 18 0 19 0;
#X connect 20 0 21 0;
#X connect 21 0 19 0;
#X connect 22 0 29 0;
#X connect 24 0 26 0;
#X connect 24 0 91 0;
#X connect 24 1 9 0;
#X connect 24 1 33 0;
#X connect 25 0 26 1;
#X connect 26 0 23 0;
#X connect 27 0 25 0;
#X connect 27 1 83 0;
#X connect 27 2 28 0;
#X connect 28 0 26 1;
#X connect 29 0 82 0;
#X connect 29 1 28 0;
#X connect 30 0 84 0;
#X connect 31 0 82 0;
#X connect 33 0 34 0;
#X connect 48 0 49 0;
#X connect 49 0 50 0;
#X connect 50 0 54 0;
#X connect 51 0 53 0;
#X connect 52 0 51 0;
#X connect 53 0 54 0;
#X connect 54 0 58 0;
#X connect 56 0 57 0;
#X connect 57 0 54 1;
#X connect 57 0 72 0;
#X connect 58 0 61 0;
#X connect 58 1 59 0;
#X connect 59 0 60 0;
#X connect 60 0 61 1;
#X connect 61 0 66 0;
#X connect 63 0 94 0;
#X connect 66 0 67 0;
#X connect 66 1 69 0;
#X connect 67 0 69 0;
#X connect 72 0 73 0;
#X connect 73 0 75 0;
#X connect 82 0 24 0;
#X connect 82 0 32 0;
#X connect 83 0 82 0;
#X connect 84 0 11 0;
#X connect 87 0 86 0;
#X connect 89 0 13 0;
#X connect 94 0 27 0;
#X connect 94 1 22 0;
#X connect 94 2 87 0;
#X connect 94 3 95 0;
#X connect 95 0 54 0;
#X coords 0 -1 1 1 120 30 2 20 20;
